<svg width="923" height="728" viewBox="0 0 923 728" fill="none" xmlns="http://www.w3.org/2000/svg">
<path d="M976.125 639.167H0V639.655H976.125V639.167Z" fill="#E6E6E6"/>
<path d="M870.409 656.053H803.252V656.542H870.409V656.053Z" fill="#E6E6E6"/>
<path d="M506.901 656.053H486.832V656.542H506.901V656.053Z" fill="#E6E6E6"/>
<path d="M782.852 665.659H745.057V666.147H782.852V665.659Z" fill="#E6E6E6"/>
<path d="M225.738 657.205H141.42V657.693H225.738V657.205Z" fill="#E6E6E6"/>
<path d="M251.198 650.255H216.955V650.743H251.198V650.255Z" fill="#E6E6E6"/>
<path d="M623.432 670.93H440.545V671.418H623.432V670.93Z" fill="#E6E6E6"/>
<path d="M462.685 552.096H85.7255C82.7724 552.091 79.942 550.914 77.8557 548.824C75.7694 546.734 74.5977 543.902 74.5977 540.949V11.0497C74.6234 8.1136 75.8065 5.30617 77.89 3.23726C79.9736 1.16834 82.7892 0.00502975 85.7255 0H462.685C465.642 0 468.477 1.17445 470.568 3.26498C472.658 5.35552 473.833 8.19088 473.833 11.1473V540.949C473.833 543.905 472.658 546.741 470.568 548.831C468.477 550.922 465.642 552.096 462.685 552.096ZM85.7255 0.390451C82.9018 0.395623 80.1956 1.52093 78.2008 3.51937C76.2061 5.51782 75.0857 8.2261 75.0857 11.0497V540.949C75.0857 543.773 76.2061 546.481 78.2008 548.479C80.1956 550.478 82.9018 551.603 85.7255 551.608H462.685C465.511 551.603 468.219 550.478 470.217 548.48C472.215 546.483 473.34 543.774 473.345 540.949V11.0497C473.34 8.2243 472.215 5.51607 470.217 3.51818C468.219 1.5203 465.511 0.395612 462.685 0.390451H85.7255Z" fill="#E6E6E6"/>
<path d="M884.974 552.096H507.995C505.04 552.091 502.208 550.915 500.118 548.826C498.029 546.736 496.853 543.904 496.848 540.949V11.0497C496.878 8.11182 498.066 5.30441 500.153 3.23604C502.239 1.16766 505.057 0.0049749 507.995 0H884.974C887.907 0.0101605 890.718 1.17574 892.797 3.24411C894.877 5.31248 896.057 8.11697 896.083 11.0497V540.949C896.083 543.899 894.914 546.728 892.832 548.818C890.749 550.907 887.924 552.086 884.974 552.096ZM507.995 0.390451C505.17 0.395612 502.461 1.5203 500.463 3.51818C498.466 5.51607 497.341 8.2243 497.336 11.0497V540.949C497.341 543.774 498.466 546.483 500.463 548.48C502.461 550.478 505.17 551.603 507.995 551.608H884.974C887.8 551.603 890.508 550.478 892.506 548.48C894.504 546.483 895.629 543.774 895.634 540.949V11.0497C895.629 8.2243 894.504 5.51607 892.506 3.51818C890.508 1.5203 887.8 0.395612 884.974 0.390451H507.995Z" fill="#E6E6E6"/>
<path d="M398.804 639.167H564.394C548.171 577.983 557.893 512.095 593.521 450.911H427.932C392.284 512.095 382.639 577.983 398.804 639.167Z" fill="white"/>
<path d="M393.164 538.821H560.55C566.298 507.834 577.446 478.098 593.484 450.969H426.118C410.079 478.1 398.926 507.835 393.164 538.821Z" fill="#E6E6E6"/>
<path d="M146.223 515.667L815.532 515.667C826.53 515.667 835.445 506.752 835.445 495.754V83.5562C835.445 72.5586 826.53 63.6433 815.532 63.6433L146.223 63.6433C135.225 63.6433 126.31 72.5586 126.31 83.5562V495.754C126.31 506.752 135.225 515.667 146.223 515.667Z" fill="#E6E6E6"/>
<path d="M155.614 515.667L824.923 515.667C835.921 515.667 844.836 506.752 844.836 495.754V83.5562C844.836 72.5586 835.921 63.6433 824.923 63.6433L155.614 63.6433C144.616 63.6433 135.701 72.5586 135.701 83.5562V495.754C135.701 506.752 144.616 515.667 155.614 515.667Z" fill="#C6BFA6"/>
<path d="M135.701 450.931L844.836 450.931V86.5435L135.701 86.5435V450.931Z" fill="#E1DFD7"/>
<path d="M490.285 497.687C497.778 497.687 503.853 491.612 503.853 484.119C503.853 476.625 497.778 470.551 490.285 470.551C482.791 470.551 476.717 476.625 476.717 484.119C476.717 491.612 482.791 497.687 490.285 497.687Z" fill="#E6E6E6"/>
<path d="M429.496 626.067H618.532C622.007 626.067 625.339 627.447 627.795 629.904C630.252 632.36 631.632 635.692 631.632 639.166H416.436C416.436 635.699 417.81 632.373 420.259 629.917C422.707 627.462 426.029 626.077 429.496 626.067Z" fill="#C6BFA6"/>
<path d="M384.596 626.067H418.448C421.918 626.072 425.245 627.455 427.698 629.911C430.15 632.367 431.528 635.696 431.528 639.167H371.398C371.401 637.439 371.745 635.729 372.41 634.134C373.075 632.54 374.049 631.092 375.275 629.875C376.502 628.658 377.956 627.695 379.556 627.041C381.155 626.388 382.868 626.057 384.596 626.067Z" fill="#E6E6E6"/>
<path d="M555.414 34.457C555.409 31.5332 554.245 28.7306 552.178 26.6631C550.11 24.5957 547.308 23.4319 544.384 23.4268H200.788C197.866 23.437 195.066 24.6025 193 26.6688C190.934 28.7351 189.768 31.5347 189.758 34.457V69.9489H555.414V34.457Z" fill="#E6E6E6"/>
<path d="M466.254 55.034C470.858 55.034 474.59 51.3018 474.59 46.6979C474.59 42.094 470.858 38.3618 466.254 38.3618C461.65 38.3618 457.918 42.094 457.918 46.6979C457.918 51.3018 461.65 55.034 466.254 55.034Z" fill="#E1DFD7"/>
<path d="M495.795 55.034C500.399 55.034 504.131 51.3018 504.131 46.6979C504.131 42.094 500.399 38.3618 495.795 38.3618C491.191 38.3618 487.459 42.094 487.459 46.6979C487.459 51.3018 491.191 55.034 495.795 55.034Z" fill="#E1DFD7"/>
<path d="M525.35 55.034C529.954 55.034 533.686 51.3018 533.686 46.6979C533.686 42.094 529.954 38.3618 525.35 38.3618C520.746 38.3618 517.014 42.094 517.014 46.6979C517.014 51.3018 520.746 55.034 525.35 55.034Z" fill="#E1DFD7"/>
<path d="M200.888 309.002H544.484C547.404 308.997 550.204 307.836 552.271 305.773C554.337 303.709 555.503 300.912 555.514 297.991V69.949H189.857V297.991C189.873 300.91 191.041 303.705 193.106 305.767C195.172 307.829 197.969 308.992 200.888 309.002Z" fill="white"/>
<path d="M580.012 71.3547C580.002 68.4376 578.838 65.643 576.776 63.5803C574.713 61.5176 571.918 60.3543 569.001 60.344H225.503C222.582 60.3491 219.783 61.5102 217.716 63.5734C215.649 65.6367 214.483 68.4343 214.473 71.3547V106.866H580.012V71.3547Z" fill="#C6BFA6"/>
<path d="M490.854 91.9312C495.458 91.9312 499.19 88.199 499.19 83.5951C499.19 78.9912 495.458 75.259 490.854 75.259C486.25 75.259 482.518 78.9912 482.518 83.5951C482.518 88.199 486.25 91.9312 490.854 91.9312Z" fill="#E6E6E6"/>
<path d="M520.412 91.9312C525.016 91.9312 528.748 88.199 528.748 83.5951C528.748 78.9912 525.016 75.259 520.412 75.259C515.808 75.259 512.076 78.9912 512.076 83.5951C512.076 88.199 515.808 91.9312 520.412 91.9312Z" fill="#E6E6E6"/>
<path d="M558.344 83.5951C558.344 85.2439 557.855 86.8556 556.939 88.2264C556.023 89.5973 554.721 90.6658 553.198 91.2967C551.675 91.9276 549.999 92.0927 548.382 91.7711C546.765 91.4494 545.279 90.6555 544.113 89.4897C542.948 88.3238 542.154 86.8385 541.832 85.2214C541.51 83.6044 541.675 81.9283 542.306 80.405C542.937 78.8818 544.006 77.5799 545.377 76.6639C546.748 75.7479 548.359 75.259 550.008 75.259C552.219 75.259 554.339 76.1373 555.903 77.7006C557.466 79.2639 558.344 81.3843 558.344 83.5951Z" fill="#E6E6E6"/>
<path d="M225.503 345.919H569.099C572.019 345.909 574.817 344.743 576.88 342.676C578.943 340.609 580.104 337.809 580.109 334.889V106.866H214.473V334.889C214.478 337.813 215.642 340.615 217.709 342.683C219.776 344.75 222.579 345.914 225.503 345.919Z" fill="#E1DFD7"/>
<path d="M604.631 108.272C604.626 105.348 603.462 102.545 601.395 100.478C599.327 98.4104 596.525 97.2466 593.601 97.2415H250.102C247.179 97.2466 244.376 98.4104 242.309 100.478C240.241 102.545 239.077 105.348 239.072 108.272V143.764H604.631V108.272Z" fill="white"/>
<path d="M515.471 128.848C520.075 128.848 523.807 125.116 523.807 120.512C523.807 115.908 520.075 112.176 515.471 112.176C510.867 112.176 507.135 115.908 507.135 120.512C507.135 125.116 510.867 128.848 515.471 128.848Z" fill="#F0F0F0"/>
<path d="M545.01 128.848C549.614 128.848 553.346 125.116 553.346 120.512C553.346 115.908 549.614 112.176 545.01 112.176C540.406 112.176 536.674 115.908 536.674 120.512C536.674 125.116 540.406 128.848 545.01 128.848Z" fill="#F0F0F0"/>
<path d="M582.903 120.512C582.906 122.166 582.42 123.783 581.504 125.16C580.588 126.536 579.285 127.61 577.758 128.246C576.232 128.881 574.551 129.05 572.929 128.729C571.307 128.409 569.816 127.615 568.646 126.447C567.475 125.279 566.677 123.791 566.353 122.169C566.029 120.548 566.194 118.867 566.826 117.339C567.457 115.811 568.528 114.505 569.903 113.586C571.277 112.667 572.894 112.176 574.547 112.176C576.76 112.176 578.882 113.054 580.448 114.617C582.015 116.179 582.897 118.3 582.903 120.512Z" fill="#F0F0F0"/>
<path d="M250.102 382.836H593.698C596.621 382.826 599.42 381.66 601.487 379.594C603.553 377.528 604.718 374.728 604.729 371.806V143.764H239.072V371.806C239.083 374.728 240.248 377.528 242.314 379.594C244.381 381.66 247.18 382.826 250.102 382.836Z" fill="#E6E6E6"/>
<path opacity="0.5" d="M696.953 240.907H571.053V428.909H759.074V240.907H696.953ZM634.774 242.372H695.47V303.087H634.716L634.774 242.372ZM695.47 365.266H634.716V304.551H695.411L695.47 365.266ZM572.595 242.372H633.29V303.087H572.536L572.595 242.372ZM572.595 304.551H633.29V365.266H572.536L572.595 304.551ZM633.232 427.543H572.536V366.828H633.232V427.543ZM695.411 427.543H634.716V366.828H695.411V427.543ZM757.59 427.543H696.953V366.828H757.649L757.59 427.543ZM757.59 365.363H696.953V304.551H757.649L757.59 365.363ZM696.953 303.087V242.372H757.649V303.087H696.953Z" fill="#E6E6E6"/>
<path d="M646.155 211.956L865.607 211.956V112.157L646.155 112.157V211.956Z" fill="#C6BFA6"/>
<path d="M865.605 151.065V211.975H646.191V136.326C682.601 136.326 702.026 169.709 747.064 169.709C792.103 169.709 805.671 151.065 865.605 151.065Z" fill="#E1DFD7"/>
<path d="M865.609 180.173C816.295 180.173 800.013 158.366 772.311 158.366C744.608 158.366 731.001 181.266 696.485 181.266C660.525 181.266 646.156 163.266 646.156 163.266V212.073H865.609V180.173Z" fill="#E6E6E6"/>
<path d="M488.065 727.33C697.116 727.33 866.586 717.436 866.586 705.231C866.586 693.026 697.116 683.131 488.065 683.131C279.013 683.131 109.543 693.026 109.543 705.231C109.543 717.436 279.013 727.33 488.065 727.33Z" fill="#C6BFA6"/>
<path d="M394.353 305.566C386.177 276.312 389.43 245.043 403.452 218.098C417.473 191.152 441.216 170.546 469.866 160.455L477.226 183.765C454.787 191.932 436.229 208.221 425.221 229.411C414.214 250.602 411.558 275.152 417.78 298.206L394.353 305.566Z" fill="#FBEDC7"/>
<path d="M454.072 379.205C444.87 374.453 436.336 368.506 428.693 361.518C414.191 348.224 403.188 331.561 396.656 313.004L419.966 305.644C425.414 320.742 434.592 334.217 446.645 344.816C458.698 355.415 473.236 362.794 488.906 366.267C504.576 369.741 520.87 369.196 536.273 364.682C551.676 360.169 565.688 351.834 577.005 340.453L595.024 356.969C577.001 375.27 553.583 387.306 528.211 391.308C502.84 395.311 476.853 391.069 454.072 379.205Z" fill="#FBEDC7"/>
<path opacity="0.7" d="M454.072 379.205C444.87 374.453 436.336 368.506 428.693 361.518C414.191 348.224 403.188 331.561 396.656 313.004L419.966 305.644C425.414 320.742 434.592 334.217 446.645 344.816C458.698 355.415 473.236 362.794 488.906 366.267C504.576 369.741 520.87 369.196 536.273 364.682C551.676 360.169 565.688 351.834 577.005 340.453L595.024 356.969C577.001 375.27 553.583 387.306 528.211 391.308C502.84 395.311 476.853 391.069 454.072 379.205Z" fill="#E1DFD7"/>
<path d="M582.377 334.694C595.457 319.189 603.242 299.911 604.597 279.671C605.952 259.431 600.807 239.288 589.91 222.178C579.013 205.068 562.936 191.886 544.021 184.555C525.107 177.224 504.346 176.126 484.764 181.423L477.404 157.996C507.319 149.618 539.32 153.199 566.643 167.982C593.966 182.766 614.47 207.593 623.823 237.218C629.904 256.622 630.955 277.254 626.878 297.176C622.801 317.098 613.729 335.657 600.513 351.112L582.377 334.694Z" fill="#FBEDC7"/>
<path opacity="0.3" d="M582.377 334.694C595.457 319.189 603.242 299.911 604.597 279.671C605.952 259.431 600.807 239.288 589.91 222.178C579.013 205.068 562.936 191.886 544.021 184.555C525.107 177.224 504.346 176.126 484.764 181.423L477.404 157.996C507.319 149.618 539.32 153.199 566.643 167.982C593.966 182.766 614.47 207.593 623.823 237.218C629.904 256.622 630.955 277.254 626.878 297.176C622.801 317.098 613.729 335.657 600.513 351.112L582.377 334.694Z" fill="black"/>
<path d="M531.89 244.422C529.132 241.662 525.857 239.472 522.252 237.978C518.647 236.484 514.783 235.715 510.881 235.714C506.979 235.713 503.115 236.48 499.51 237.973C495.904 239.465 492.628 241.653 489.868 244.412C487.108 247.17 484.919 250.446 483.425 254.05C481.931 257.655 481.161 261.519 481.16 265.421C481.159 269.323 481.927 273.187 483.419 276.793C484.912 280.398 487.1 283.674 489.858 286.434L510.865 307.44L531.89 286.434C537.46 280.862 540.589 273.306 540.589 265.428C540.589 257.549 537.46 249.994 531.89 244.422Z" fill="#FBEDC7"/>
<path opacity="0.3" d="M531.89 244.422C529.132 241.662 525.857 239.472 522.252 237.978C518.647 236.484 514.783 235.715 510.881 235.714C506.979 235.713 503.115 236.48 499.51 237.973C495.904 239.465 492.628 241.653 489.868 244.412C487.108 247.17 484.919 250.446 483.425 254.05C481.931 257.655 481.161 261.519 481.16 265.421C481.159 269.323 481.927 273.187 483.419 276.793C484.912 280.398 487.1 283.674 489.858 286.434L510.865 307.44L531.89 286.434C537.46 280.862 540.589 273.306 540.589 265.428C540.589 257.549 537.46 249.994 531.89 244.422Z" fill="black"/>
<path d="M512.056 313.668H509.713V323.039H512.056V313.668Z" fill="#FBEDC7"/>
<path opacity="0.3" d="M512.056 313.668H509.713V323.039H512.056V313.668Z" fill="black"/>
<path d="M512.056 330.282H509.713V339.653H512.056V330.282Z" fill="#FBEDC7"/>
<path opacity="0.3" d="M512.056 330.282H509.713V339.653H512.056V330.282Z" fill="black"/>
<path d="M429.787 406.107H350.271V694.025H429.787V406.107Z" fill="#FBEDC7"/>
<path opacity="0.7" d="M429.787 406.107H350.271V694.025H429.787V406.107Z" fill="#E1DFD7"/>
<path d="M467.952 406.107H429.785V694.025H467.952V406.107Z" fill="#FBEDC7"/>
<path opacity="0.5" d="M467.952 406.107H429.785V694.025H467.952V406.107Z" fill="#E1DFD7"/>
<path d="M576.812 512.075H574.781V556.899H576.812V512.075Z" fill="#263238"/>
<path d="M576.812 485.72H574.781V503.739H576.812V485.72Z" fill="#263238"/>
<path d="M633.291 584.699H553.775V694.025H633.291V584.699Z" fill="#FBEDC7"/>
<path opacity="0.5" d="M633.291 584.699H553.775V694.025H633.291V584.699Z" fill="black"/>
<path d="M671.456 584.699H633.289V694.025H671.456V584.699Z" fill="#FBEDC7"/>
<path opacity="0.6" d="M671.456 584.699H633.289V694.025H671.456V584.699Z" fill="black"/>
<path d="M531.537 345.236H452.021V694.025H531.537V345.236Z" fill="#FBEDC7"/>
<path opacity="0.7" d="M531.537 345.236H452.021V694.025H531.537V345.236Z" fill="black"/>
<path d="M569.706 345.236H531.539V694.025H569.706V345.236Z" fill="#FBEDC7"/>
<path opacity="0.8" d="M569.706 345.236H531.539V694.025H569.706V345.236Z" fill="black"/>
<path d="M687.643 264.784C684.909 286.376 681.473 308.026 678.408 329.442C678.028 332.571 677.461 335.674 676.71 338.735C675.832 341.87 674.709 344.932 673.352 347.891C670.763 353.458 667.526 358.7 663.708 363.509C660.071 368.13 656.062 372.446 651.721 376.413C649.613 378.366 647.368 380.318 645.103 382.016C642.838 383.715 640.593 385.472 637.997 387.17L631.066 378.522C632.687 376.726 634.522 374.617 636.181 372.665C637.841 370.713 639.481 368.604 641.081 366.535C644.211 362.489 647.074 358.244 649.652 353.826C652.136 349.682 654.183 345.292 655.762 340.726C656.489 338.614 657.043 336.446 657.422 334.245C657.764 331.935 657.985 329.608 658.086 327.275C658.808 316.186 659.901 305.215 661.112 294.263C662.322 283.311 663.767 272.495 665.485 261.602L687.643 264.784Z" fill="#E58A7B"/>
<path d="M692.503 257.366C697.481 270.582 672.278 309.491 672.278 309.491L642.74 293.463C647.184 281.354 652.925 269.762 659.861 258.888C670.247 243.309 687.056 242.86 692.503 257.366Z" fill="#FBEDC7"/>
<path opacity="0.2" d="M692.503 257.366C697.481 270.582 672.278 309.491 672.278 309.491L642.74 293.463C647.184 281.354 652.925 269.762 659.861 258.888C670.247 243.309 687.056 242.86 692.503 257.366Z" fill="black"/>
<path d="M674.972 247.253C674.972 247.253 657.539 291.862 674.094 374.91H753.101C753.648 362.787 746.015 303.634 757.709 246.511C748.98 244.818 740.15 243.696 731.275 243.153C720.092 242.508 708.88 242.508 697.696 243.153C690.027 243.926 682.429 245.296 674.972 247.253Z" fill="#FBEDC7"/>
<path opacity="0.2" d="M674.972 247.253C674.972 247.253 657.539 291.862 674.094 374.91H753.101C753.648 362.787 746.015 303.634 757.709 246.511C748.98 244.818 740.15 243.696 731.275 243.153C720.092 242.508 708.88 242.508 697.696 243.153C690.027 243.926 682.429 245.296 674.972 247.253Z" fill="black"/>
<path d="M685.456 687.036H670.697L666.754 652.833H681.532L685.456 687.036Z" fill="#E58A7B"/>
<path d="M789.396 687.036H774.637L763.119 652.833H777.898L789.396 687.036Z" fill="#E58A7B"/>
<path d="M772.662 685.24H790.662C790.956 685.238 791.241 685.339 791.468 685.524C791.696 685.709 791.853 685.967 791.912 686.255L794.84 699.394C794.904 699.713 794.896 700.042 794.816 700.358C794.737 700.673 794.587 700.967 794.38 701.218C794.172 701.469 793.911 701.67 793.616 701.807C793.321 701.944 792.998 702.013 792.673 702.01C786.816 701.912 782.658 701.58 775.356 701.58C770.866 701.58 761.691 702.049 755.424 702.049C749.157 702.049 748.415 695.919 750.953 695.352C762.335 692.873 766.571 689.496 770.261 686.157C770.92 685.564 771.776 685.237 772.662 685.24Z" fill="#263238"/>
<path d="M670.798 685.24H686.923C687.218 685.241 687.504 685.342 687.735 685.526C687.965 685.711 688.126 685.967 688.192 686.255L691.101 699.394C691.172 699.71 691.17 700.039 691.096 700.355C691.021 700.671 690.876 700.966 690.671 701.217C690.467 701.469 690.207 701.671 689.913 701.808C689.619 701.946 689.298 702.014 688.973 702.01C683.116 701.912 674.741 701.58 667.498 701.58C658.948 701.58 651.568 702.049 641.533 702.049C635.462 702.049 633.724 695.919 636.321 695.352C647.878 692.834 657.308 692.561 667.303 686.392C668.341 685.696 669.55 685.298 670.798 685.24Z" fill="#263238"/>
<path d="M636.436 372.88L624.059 383.227L640.321 392.773C642.718 390.922 644.46 388.353 645.292 385.441C646.125 382.529 646.004 379.427 644.948 376.589L636.436 372.88Z" fill="#E58A7B"/>
<path d="M666.773 652.852L668.784 670.481H683.563L681.532 652.852H666.773Z" fill="#CF6F64"/>
<path d="M777.898 652.852H763.119L769.054 670.481H783.832L777.898 652.852Z" fill="#CF6F64"/>
<path opacity="0.2" d="M741.622 273.803C744.199 260.762 749.216 263.027 753.979 269.45C751.944 286.735 751.005 304.132 751.168 321.536C747.927 316.011 737.307 295.649 741.622 273.803Z" fill="black"/>
<path d="M727.937 205.357C725.829 216.153 723.72 235.949 731.275 243.153C731.275 243.153 728.327 254.125 708.239 254.125C686.159 254.125 697.697 243.172 697.697 243.172C709.742 240.283 709.41 231.342 707.321 222.947L727.937 205.357Z" fill="#E58A7B"/>
<path d="M719.543 212.542L707.342 222.947C707.863 224.897 708.209 226.89 708.376 228.901C712.984 228.238 719.309 223.181 719.797 218.359C720.062 216.42 719.976 214.45 719.543 212.542Z" fill="#CF6F64"/>
<path d="M693.597 172.111C686.334 175.195 682.391 195.538 691.645 200.242C700.898 204.947 707.36 166.293 693.597 172.111Z" fill="#263238"/>
<path d="M729.226 189.095C728.328 203.717 728.543 212.327 721.164 219.843C710.055 231.127 691.978 224.431 688.503 209.828C685.359 196.689 687.351 174.961 701.68 169.143C704.832 167.846 708.262 167.376 711.647 167.778C715.031 168.18 718.256 169.44 721.016 171.439C723.776 173.438 725.979 176.11 727.416 179.2C728.853 182.29 729.476 185.696 729.226 189.095Z" fill="#E58A7B"/>
<path d="M684.107 162.935C692.951 149.523 694.337 155.985 694.2 162.369C702.009 154.989 716.436 145.579 723.484 154.169C724.319 155.056 724.861 156.176 725.039 157.381C725.217 158.585 725.022 159.815 724.48 160.905C733.558 158.484 742.714 157.801 741.054 167.601C739.59 176.269 733.401 179.451 724.733 179.51C709.194 181.657 671.574 181.872 684.107 162.935Z" fill="#263238"/>
<path d="M728.19 203.425C720.381 206.607 704.665 177.928 728.307 174.551C751.949 171.174 740.704 198.29 728.19 203.425Z" fill="#263238"/>
<path d="M735.842 205.221C733.866 208.332 730.745 210.54 727.154 211.37C722.391 212.425 720.263 208.091 721.825 203.717C723.23 199.813 727.389 194.522 732.074 195.42C733.094 195.638 734.043 196.107 734.835 196.785C735.628 197.462 736.239 198.327 736.613 199.3C736.987 200.273 737.113 201.324 736.978 202.358C736.843 203.392 736.453 204.376 735.842 205.221Z" fill="#E58A7B"/>
<path d="M743.557 178.982C742.471 177.773 741.101 176.854 739.57 176.309C738.039 175.763 736.397 175.609 734.791 175.859C734.791 175.859 742.424 169.846 743.557 178.982Z" fill="#263238"/>
<path d="M674.095 374.832C674.095 374.832 632.532 480.449 634.055 525.507C635.714 572.361 663.338 667.064 663.338 667.064H688.366C688.366 667.064 678.117 575.074 679.23 529.079C680.44 478.906 726.084 374.852 726.084 374.852L674.095 374.832Z" fill="#FBEDC7"/>
<path opacity="0.2" d="M707.281 409.797L709.682 415.244C700.922 437.815 693.312 460.816 686.88 484.158C686.197 457.529 691.702 428.168 707.281 409.797Z" fill="black"/>
<path d="M702.126 374.832C702.126 374.832 693.712 482.83 702.907 525.155C712.981 571.463 762.099 667.025 762.099 667.025H789.157C789.157 667.025 752.963 575.27 747.203 529.353C740.976 479.59 753.06 374.871 753.06 374.871L702.126 374.832Z" fill="#FBEDC7"/>
<path d="M707.05 193.273C707.05 194.464 706.405 195.44 705.624 195.44C704.843 195.44 704.219 194.464 704.219 193.273C704.219 192.082 704.843 191.125 705.624 191.125C706.405 191.125 707.05 191.984 707.05 193.273Z" fill="#263238"/>
<path d="M693.579 193.273C693.579 194.464 692.935 195.44 692.173 195.44C691.412 195.44 690.748 194.464 690.748 193.273C690.748 192.082 691.392 191.125 692.173 191.125C692.954 191.125 693.579 191.984 693.579 193.273Z" fill="#263238"/>
<path d="M697.853 193.781C696.433 197.414 694.521 200.837 692.172 203.952C692.983 204.535 693.912 204.934 694.893 205.119C695.875 205.305 696.885 205.273 697.853 205.025V193.781Z" fill="#DF5753"/>
<path d="M701.328 208.325C701.235 208.325 701.145 208.288 701.08 208.222C701.014 208.156 700.977 208.067 700.977 207.973C700.977 207.88 701.014 207.791 701.08 207.725C701.145 207.659 701.235 207.622 701.328 207.622C702.81 207.655 704.279 207.338 705.615 206.697C706.952 206.056 708.118 205.109 709.02 203.932C709.045 203.894 709.078 203.861 709.117 203.835C709.155 203.809 709.198 203.791 709.244 203.782C709.289 203.773 709.336 203.773 709.381 203.782C709.426 203.791 709.469 203.809 709.508 203.835C709.58 203.886 709.631 203.963 709.649 204.05C709.667 204.137 709.651 204.227 709.606 204.303C708.653 205.593 707.403 206.632 705.961 207.332C704.52 208.033 702.93 208.373 701.328 208.325Z" fill="#263238"/>
<path d="M711.09 188.841C710.985 188.838 710.881 188.813 710.787 188.765C710.692 188.718 710.609 188.651 710.544 188.568C710.034 187.85 709.361 187.263 708.581 186.856C707.8 186.449 706.934 186.233 706.054 186.225C705.961 186.233 705.867 186.222 705.779 186.193C705.69 186.163 705.609 186.116 705.539 186.054C705.47 185.992 705.414 185.916 705.375 185.831C705.335 185.747 705.314 185.655 705.312 185.562C705.301 185.378 705.362 185.198 705.483 185.059C705.603 184.921 705.773 184.835 705.956 184.82C707.067 184.813 708.164 185.072 709.156 185.575C710.147 186.077 711.005 186.809 711.657 187.709C711.768 187.86 711.815 188.049 711.79 188.235C711.764 188.42 711.667 188.589 711.52 188.705C711.391 188.788 711.243 188.835 711.09 188.841Z" fill="#263238"/>
<path d="M687.682 188.548C687.579 188.567 687.473 188.567 687.37 188.548C687.287 188.509 687.212 188.453 687.151 188.384C687.089 188.315 687.043 188.234 687.014 188.147C686.984 188.059 686.973 187.967 686.981 187.875C686.988 187.783 687.015 187.693 687.058 187.611C687.519 186.606 688.216 185.726 689.089 185.046C689.962 184.366 690.987 183.907 692.075 183.707C692.248 183.704 692.416 183.765 692.547 183.878C692.678 183.992 692.762 184.149 692.784 184.321C692.806 184.493 692.763 184.667 692.665 184.809C692.566 184.951 692.419 185.053 692.251 185.093C691.398 185.278 690.601 185.661 689.923 186.21C689.244 186.759 688.705 187.46 688.346 188.256C688.274 188.362 688.174 188.446 688.056 188.497C687.939 188.549 687.809 188.567 687.682 188.548Z" fill="#263238"/>
<path d="M763.331 257.99C764.6 260.723 765.673 263.163 766.689 265.799C767.704 268.435 768.641 270.933 769.676 273.608C771.628 278.801 773.248 284.072 774.732 289.441C776.216 294.809 777.445 300.295 778.461 305.879L779.163 310.076L779.671 314.371C779.866 315.796 779.944 317.26 780.061 318.724L780.198 320.911V321.458V322.375C780.198 323.059 780.198 323.683 780.198 324.327C779.811 328.172 778.698 331.909 776.918 335.338C775.531 338.096 773.959 340.757 772.213 343.303C768.979 347.959 765.438 352.394 761.613 356.579C754.254 364.682 746.271 372.195 737.737 379.049L729.928 371.24C736.312 363.08 742.676 354.646 748.474 346.271C751.297 342.193 753.903 337.971 756.283 333.62C757.372 331.667 758.318 329.638 759.114 327.549C759.693 326.214 760.024 324.785 760.09 323.332C760.09 323.332 760.09 323.449 760.09 323.332V322.883L759.817 321.126C759.641 319.935 759.485 318.764 759.211 317.573L758.509 314L757.669 310.408C756.478 305.605 755.131 300.783 753.569 295.981C752.008 291.178 750.348 286.395 748.572 281.612C746.795 276.829 744.843 272.007 743.027 267.595L763.331 257.99Z" fill="#E58A7B"/>
<path d="M767.764 687.915C766.761 687.991 765.763 687.722 764.933 687.153C764.654 686.918 764.441 686.615 764.315 686.272C764.188 685.93 764.152 685.561 764.211 685.201C764.21 685 764.264 684.803 764.367 684.631C764.47 684.458 764.619 684.318 764.797 684.225C766.456 683.385 771.2 686.314 771.747 686.646C771.804 686.683 771.85 686.736 771.877 686.798C771.905 686.86 771.914 686.93 771.903 686.997C771.89 687.067 771.858 687.132 771.809 687.183C771.761 687.235 771.698 687.272 771.63 687.29C770.368 687.637 769.071 687.846 767.764 687.915ZM765.578 684.85C765.422 684.837 765.266 684.871 765.129 684.947C765.031 684.947 764.914 685.084 764.894 685.357C764.87 685.592 764.902 685.829 764.987 686.05C765.072 686.27 765.207 686.468 765.382 686.626C767.032 687.368 768.901 687.459 770.615 686.88C769.082 685.885 767.372 685.195 765.578 684.85Z" fill="#FBEDC7"/>
<path d="M771.55 687.387H771.394C769.852 686.548 766.904 683.327 767.216 681.667C767.27 681.411 767.409 681.18 767.611 681.013C767.814 680.846 768.067 680.753 768.329 680.75C768.594 680.719 768.862 680.744 769.117 680.821C769.373 680.898 769.609 681.027 769.813 681.199C771.531 682.604 771.882 686.86 771.902 687.056C771.903 687.116 771.89 687.177 771.863 687.231C771.835 687.286 771.795 687.333 771.746 687.368C771.684 687.394 771.616 687.401 771.55 687.387ZM768.583 681.335H768.407C767.958 681.335 767.919 681.589 767.9 681.687C767.724 682.663 769.598 685.103 771.121 686.255C771.014 684.574 770.409 682.964 769.383 681.628C769.16 681.438 768.876 681.335 768.583 681.335Z" fill="#FBEDC7"/>
<path d="M664.645 687.914C663.385 688.027 662.123 687.703 661.073 686.997C660.832 686.789 660.646 686.526 660.53 686.23C660.415 685.934 660.373 685.614 660.409 685.298C660.42 685.108 660.477 684.923 660.576 684.76C660.675 684.596 660.812 684.46 660.975 684.361C662.791 683.366 668.784 686.314 669.389 686.724C669.457 686.756 669.512 686.809 669.547 686.875C669.583 686.942 669.596 687.017 669.585 687.091C669.574 687.166 669.539 687.234 669.487 687.287C669.434 687.341 669.366 687.376 669.292 687.387C667.762 687.701 666.207 687.877 664.645 687.914ZM661.971 684.849C661.748 684.835 661.525 684.882 661.327 684.986C661.257 685.018 661.199 685.071 661.16 685.137C661.122 685.204 661.105 685.281 661.112 685.357C661.083 685.562 661.105 685.771 661.176 685.965C661.248 686.159 661.367 686.333 661.522 686.47C662.439 687.29 664.88 687.426 668.12 686.88C666.201 685.857 664.122 685.17 661.971 684.849Z" fill="#FBEDC7"/>
<path d="M669.233 687.387C669.183 687.405 669.128 687.405 669.077 687.387C667.301 686.587 663.767 683.483 664.04 681.726C664.04 681.335 664.372 680.847 665.348 680.75C665.698 680.714 666.051 680.75 666.386 680.854C666.721 680.958 667.032 681.128 667.301 681.355C669.253 682.897 669.585 686.88 669.585 687.036C669.594 687.098 669.586 687.162 669.562 687.221C669.538 687.279 669.499 687.33 669.448 687.368C669.38 687.395 669.305 687.402 669.233 687.387ZM665.719 681.335H665.505C664.88 681.335 664.841 681.648 664.821 681.726C664.665 682.721 667.066 685.24 668.882 686.333C668.717 684.652 668.035 683.063 666.93 681.784C666.595 681.491 666.164 681.332 665.719 681.335Z" fill="#FBEDC7"/>
<path d="M733.345 369.073L718.859 372.977L730.866 387.541C730.866 387.541 742.482 381.509 739.983 375.008L733.345 369.073Z" fill="#E58A7B"/>
<path d="M711.365 382.719L721.849 394.277L730.868 387.483L718.862 372.919L711.365 382.719Z" fill="#E58A7B"/>
<path d="M757.32 667.65H792.695V658.123L753.162 657.518L757.32 667.65Z" fill="#FBEDC7"/>
<path opacity="0.4" d="M757.32 667.65H792.695V658.123L753.162 657.518L757.32 667.65Z" fill="black"/>
<path d="M657.656 667.65H693.031V658.025L653.498 657.518L657.656 667.65Z" fill="#FBEDC7"/>
<path opacity="0.4" d="M657.656 667.65H693.031V658.025L653.498 657.518L657.656 667.65Z" fill="black"/>
<path d="M760.794 247.467C773.972 252.543 787.149 299.28 787.149 299.28L752.009 313.102C752.009 313.102 741.525 288.933 737.953 270.972C734.282 252.133 745.859 241.728 760.794 247.467Z" fill="#FBEDC7"/>
<path opacity="0.2" d="M760.794 247.467C773.972 252.543 787.149 299.28 787.149 299.28L752.009 313.102C752.009 313.102 741.525 288.933 737.953 270.972C734.282 252.133 745.859 241.728 760.794 247.467Z" fill="black"/>
<path d="M618.34 321.633C614.597 334.684 614.972 348.571 619.413 361.401C623.476 373.341 630.891 383.86 640.771 391.7C653.932 402.12 670.559 407.152 687.29 405.78C704.02 404.407 719.605 396.732 730.892 384.307C742.179 371.881 748.326 355.633 748.09 338.848C747.853 322.063 741.251 305.994 729.618 293.892C721.627 285.571 711.578 279.509 700.49 276.322C690.237 273.356 679.42 272.902 668.954 274.999C658.488 277.095 648.681 281.681 640.361 288.367C638.846 289.588 637.399 290.892 636.027 292.272C627.648 300.33 621.547 310.459 618.34 321.633Z" fill="#FBEDC7"/>
<path opacity="0.6" d="M618.34 321.633C614.597 334.684 614.972 348.571 619.413 361.401C623.476 373.341 630.891 383.86 640.771 391.7C653.932 402.12 670.559 407.152 687.29 405.78C704.02 404.407 719.605 396.732 730.892 384.307C742.179 371.881 748.326 355.633 748.09 338.848C747.853 322.063 741.251 305.994 729.618 293.892C721.627 285.571 711.578 279.509 700.49 276.322C690.237 273.356 679.42 272.902 668.954 274.999C658.488 277.095 648.681 281.681 640.361 288.367C638.846 289.588 637.399 290.892 636.027 292.272C627.648 300.33 621.547 310.459 618.34 321.633Z" fill="black"/>
<path d="M721.301 291.295L673.666 337.271L655.412 400.914C669.421 404.937 684.366 404.223 697.929 398.885C711.491 393.546 722.913 383.881 730.422 371.389C737.93 358.897 741.106 344.275 739.457 329.794C737.808 315.312 731.426 301.78 721.301 291.295Z" fill="#FBEDC7"/>
<path opacity="0.9" d="M721.301 291.295L673.666 337.271L655.412 400.914C669.421 404.937 684.366 404.223 697.929 398.885C711.491 393.546 722.913 383.881 730.422 371.389C737.93 358.897 741.106 344.275 739.457 329.794C737.808 315.312 731.426 301.78 721.301 291.295Z" fill="#E1DFD7"/>
<g opacity="0.7">
<path d="M673.665 337.271L721.3 291.276C713.226 282.911 703.093 276.821 691.918 273.616C680.744 270.411 668.922 270.205 657.643 273.019C646.364 275.833 636.024 281.567 627.665 289.645C619.305 297.723 613.22 307.86 610.021 319.037L673.665 337.271Z" fill="#FBEDC7"/>
<path opacity="0.44" d="M673.665 337.271L721.3 291.276C713.226 282.911 703.093 276.821 691.918 273.616C680.744 270.411 668.922 270.205 657.643 273.019C646.364 275.833 636.024 281.567 627.665 289.645C619.305 297.723 613.22 307.86 610.021 319.037L673.665 337.271Z" fill="#E1DFD7"/>
</g>
<path d="M623.041 392.012L637.39 396.541L640.26 392.832L623.998 383.285L623.041 392.012Z" fill="#E58A7B"/>
<path d="M673.665 337.271L610.041 319.037C605.209 335.913 607.275 354.018 615.787 369.371C624.298 384.725 638.557 396.07 655.431 400.914L673.665 337.271Z" fill="#FBEDC7"/>
<path opacity="0.6" d="M673.665 337.271L610.041 319.037C605.209 335.913 607.275 354.018 615.787 369.371C624.298 384.725 638.557 396.07 655.431 400.914L673.665 337.271Z" fill="black"/>
<path d="M308.927 247.663C305.511 251.157 301.841 255.023 298.463 258.888C295.086 262.754 291.689 266.697 288.507 270.738C285.324 274.779 282.318 278.938 279.429 283.135L277.32 286.317L275.368 289.538C274.704 290.612 274.08 291.705 273.416 292.799L271.795 295.786C271.137 297.49 270.761 299.29 270.683 301.115C270.526 303.468 270.526 305.829 270.683 308.182C271.048 313.246 271.699 318.284 272.635 323.273C273.513 328.388 274.587 333.523 275.856 338.618C277.125 343.713 278.374 348.906 279.761 353.943L272.244 356.754C267.691 346.809 263.887 336.538 260.863 326.026C259.304 320.626 258.111 315.128 257.29 309.569C256.879 306.599 256.67 303.605 256.665 300.608C256.612 297.074 257.207 293.56 258.422 290.241C258.891 289.109 259.145 288.64 259.457 287.977L260.375 286.024C260.98 284.736 261.624 283.467 262.327 282.237L264.279 278.508L266.427 274.877C269.297 270.101 272.418 265.481 275.778 261.036C279.097 256.604 282.533 252.27 286.164 248.112C289.795 243.953 293.485 239.971 297.682 235.969L308.927 247.663Z" fill="#E58A7B"/>
<path d="M277.692 350.761L291.046 354.665L282.163 363.685C282.163 363.685 272.538 360.717 271.191 354.158L277.692 350.761Z" fill="#E58A7B"/>
<path d="M299.147 365.012L296.882 373.622L282.162 363.743L291.045 354.743L299.147 365.012Z" fill="#E58A7B"/>
<path d="M179.611 607.052L190.544 618.785L220.218 597.545L209.266 585.812L179.611 607.052Z" fill="#E58A7B"/>
<path d="M324.683 650.041L322.067 670.227L306.43 667.611L308.85 648.87L324.683 650.041Z" fill="#CF6F64"/>
<path d="M209.266 585.812L220.198 597.564L207.919 606.349L196.596 594.87L209.266 585.812Z" fill="#CF6F64"/>
<path d="M352.073 328.701C352.073 328.701 321.15 432.267 306.039 491.967C290.109 554.888 214.03 606.193 214.03 606.193L197.787 590.048C197.787 590.048 248.643 547.099 264.164 488.395C295.517 369.171 280.445 343.928 305.434 319.681L352.073 328.701Z" fill="#FBEDC7"/>
<path opacity="0.6" d="M352.073 328.701C352.073 328.701 321.15 432.267 306.039 491.967C290.109 554.888 214.03 606.193 214.03 606.193L197.787 590.048C197.787 590.048 248.643 547.099 264.164 488.395C295.517 369.171 280.445 343.928 305.434 319.681L352.073 328.701Z" fill="black"/>
<path d="M195.327 616.911L186.21 601.293C186.061 601.022 185.818 600.815 185.526 600.711C185.235 600.606 184.916 600.612 184.629 600.727L171.627 605.959C171.304 606.112 171.017 606.331 170.784 606.602C170.551 606.873 170.378 607.19 170.275 607.532C170.172 607.874 170.141 608.234 170.186 608.588C170.231 608.943 170.349 609.284 170.533 609.59C173.813 614.959 175.648 617.399 179.67 624.251C182.149 628.468 185.332 634.872 188.728 640.689C192.125 646.507 197.924 643.54 197.006 640.826C192.906 628.624 195.054 625.091 195.854 619.664C195.999 618.713 195.813 617.741 195.327 616.911Z" fill="#263238"/>
<path d="M215.417 608.497L195.152 588.33L200.658 582.22L225.334 603.226L215.417 608.497Z" fill="#C6BFA6"/>
<path opacity="0.3" d="M337.548 350.761C317.264 366.379 315.898 426.04 316.366 452.981C326.694 415.322 338.895 373.407 346.021 349.179C344.069 347.501 341.277 347.871 337.548 350.761Z" fill="black"/>
<path d="M198.605 625.423C198.413 625.419 198.222 625.386 198.039 625.326C196.087 624.74 194.74 621.206 194.135 619.156C194.112 619.084 194.111 619.007 194.132 618.934C194.153 618.861 194.195 618.796 194.252 618.746C194.311 618.704 194.383 618.68 194.457 618.68C194.53 618.68 194.602 618.704 194.662 618.746C195.247 619.039 200.382 621.714 200.518 623.744C200.539 623.964 200.504 624.185 200.415 624.386C200.326 624.588 200.187 624.763 200.011 624.896C199.615 625.225 199.12 625.411 198.605 625.423ZM195.111 619.82C196.067 622.534 197.219 624.291 198.254 624.623C198.484 624.681 198.725 624.679 198.954 624.618C199.183 624.556 199.392 624.437 199.562 624.271C199.645 624.222 199.711 624.15 199.753 624.063C199.794 623.976 199.81 623.879 199.796 623.783C199.679 622.768 197.18 620.952 195.111 619.82Z" fill="#FBEDC7"/>
<path d="M199.132 620.484C197.443 620.479 195.776 620.099 194.251 619.371C194.199 619.333 194.156 619.283 194.127 619.225C194.097 619.168 194.082 619.104 194.082 619.039C194.082 618.974 194.097 618.91 194.127 618.853C194.156 618.795 194.199 618.745 194.251 618.707C194.427 618.707 198.273 616.384 200.459 617.106C200.743 617.187 201.004 617.331 201.224 617.527C201.443 617.723 201.616 617.966 201.728 618.239C201.879 618.5 201.935 618.805 201.889 619.103C201.843 619.401 201.697 619.675 201.475 619.878C200.785 620.341 199.959 620.554 199.132 620.484ZM195.227 619.019C197.024 619.742 200.128 620.035 200.948 619.312C201.084 619.195 201.201 619 200.948 618.551C200.874 618.374 200.763 618.216 200.621 618.088C200.479 617.959 200.311 617.864 200.128 617.809C198.41 617.711 196.702 618.133 195.227 619.019Z" fill="#FBEDC7"/>
<path d="M304.164 685.201L319.997 686.372L324.682 650.021L308.869 648.85L304.164 685.201Z" fill="#E58A7B"/>
<path d="M367.885 331.883C367.885 331.883 371.789 457.198 362.985 504.403C353.77 553.502 325.716 665.171 325.716 665.171L302.895 662.223C302.895 662.223 317.341 549.402 323.452 500.635C330.148 447.456 321.382 322.883 321.382 322.883L367.885 331.883Z" fill="#FBEDC7"/>
<path opacity="0.6" d="M367.885 331.883C367.885 331.883 371.789 457.198 362.985 504.403C353.77 553.502 325.716 665.171 325.716 665.171L302.895 662.223C302.895 662.223 317.341 549.402 323.452 500.635C330.148 447.456 321.382 322.883 321.382 322.883L367.885 331.883Z" fill="black"/>
<path d="M385.458 182.809C385.243 184.078 385.75 185.21 386.57 185.386C387.39 185.561 388.23 184.644 388.523 183.433C388.815 182.223 388.23 181.032 387.41 180.876C386.59 180.72 385.672 181.559 385.458 182.809Z" fill="#263238"/>
<path d="M386.939 180.837L390.122 180.544C390.122 180.544 388.169 182.613 386.939 180.837Z" fill="#263238"/>
<path d="M386.316 184.234C386.97 187.325 388.04 190.313 389.498 193.117C388.769 193.45 387.977 193.623 387.175 193.623C386.373 193.623 385.581 193.45 384.852 193.117L386.316 184.234Z" fill="#DF5753"/>
<path d="M388.505 177.655C388.359 177.655 388.217 177.613 388.096 177.533C387.974 177.453 387.879 177.339 387.821 177.206C387.453 176.32 386.886 175.531 386.166 174.898C385.445 174.266 384.589 173.806 383.663 173.555C383.567 173.539 383.475 173.503 383.392 173.451C383.31 173.399 383.238 173.331 383.182 173.251C383.126 173.171 383.086 173.081 383.065 172.986C383.043 172.891 383.041 172.792 383.058 172.696C383.096 172.5 383.209 172.327 383.374 172.214C383.538 172.101 383.74 172.057 383.936 172.091C385.104 172.379 386.188 172.937 387.1 173.72C388.012 174.503 388.727 175.49 389.188 176.601C389.268 176.782 389.274 176.988 389.205 177.174C389.136 177.36 388.997 177.511 388.817 177.596L388.505 177.655Z" fill="#263238"/>
<path d="M345.395 193.273C345.688 202.839 344.711 220.097 337.215 224.997C337.215 224.997 338.191 234.758 355.429 238.175C374.386 241.845 366.05 230.58 366.05 230.58C356.093 226.11 357.635 218.535 360.622 211.722L345.395 193.273Z" fill="#E58A7B"/>
<path d="M394.204 244.461C398.109 247.428 402.404 250.571 406.64 253.441C410.877 256.311 415.211 259.298 419.623 261.895C424.035 264.491 428.505 267.048 432.996 269.45C437.47 271.762 442.064 273.835 446.759 275.658C447.169 275.814 447.032 275.658 447.13 275.795H447.384C447.636 275.831 447.893 275.831 448.145 275.795C448.926 275.799 449.704 275.72 450.468 275.56C452.54 275.054 454.55 274.321 456.462 273.374C460.884 271.13 465.109 268.518 469.093 265.565C473.271 262.617 477.351 259.396 481.353 256.038C485.355 252.68 489.338 249.185 493.164 245.71L499.021 251.079C492.326 259.804 484.851 267.9 476.687 275.267C472.406 279.094 467.771 282.506 462.846 285.458C460.073 287.086 457.126 288.396 454.06 289.363C452.252 289.904 450.383 290.219 448.496 290.3C447.414 290.359 446.329 290.313 445.256 290.163C444.677 290.095 444.103 289.991 443.538 289.851C443.03 289.714 442.23 289.499 442.015 289.402C431.381 285.893 421.147 281.274 411.482 275.619C406.718 272.847 402.013 269.977 397.445 266.892C392.877 263.808 388.504 260.665 384.033 257.014L394.204 244.461Z" fill="#E58A7B"/>
<path d="M491.971 247.194L496.617 235.227L506.378 244.988C506.378 244.988 501.751 253.89 495.114 253.91L491.971 247.194Z" fill="#E58A7B"/>
<path d="M506.242 231.771L515.515 234.68L506.457 244.968L496.656 235.226L506.242 231.771Z" fill="#E58A7B"/>
<path d="M320.976 684.107H303.191C302.88 684.104 302.579 684.212 302.342 684.413C302.105 684.614 301.949 684.894 301.902 685.201L299.501 699.276C299.453 699.629 299.482 699.987 299.585 700.327C299.688 700.668 299.863 700.982 300.098 701.248C300.334 701.515 300.623 701.728 300.948 701.873C301.273 702.018 301.625 702.091 301.98 702.088C308.188 701.99 311.175 701.619 319.004 701.619C323.806 701.619 333.763 702.127 340.479 702.127C347.194 702.127 347.643 695.548 344.891 694.942C332.552 692.287 327.769 688.598 323.67 685.084C322.922 684.438 321.963 684.091 320.976 684.107Z" fill="#263238"/>
<path d="M343.833 171.212C342.252 186.83 341.237 193.331 347.738 202.761C357.499 216.915 377.022 216.036 383.327 201.375C388.93 188.197 390.609 164.926 376.456 155.868C373.446 153.824 369.956 152.599 366.329 152.314C362.702 152.029 359.063 152.693 355.771 154.242C352.479 155.79 349.646 158.169 347.553 161.145C345.46 164.121 344.178 167.591 343.833 171.212Z" fill="#E58A7B"/>
<path d="M345.552 205.182C338.134 202.156 331.203 190.208 331.477 171.525C331.75 152.842 345.669 142.007 370.522 149.874C395.374 157.742 369.799 215.099 345.552 205.182Z" fill="#263238"/>
<path d="M366.598 151.592C373.919 148.723 390.122 152.276 390.122 167.523L374.368 180.31L366.598 151.592Z" fill="#263238"/>
<path d="M364.547 151.456C374.308 150.889 378.095 150.928 386.939 153.408C381.121 146.419 370.228 148.722 364.547 151.456Z" fill="#263238"/>
<path d="M373.001 179.334C372.698 182.233 373.291 185.156 374.699 187.709C376.652 191.301 379.6 190.813 380.693 187.904C381.688 185.288 381.864 180.271 379.131 177.577C376.398 174.882 373.469 176.112 373.001 179.334Z" fill="#E58A7B"/>
<path d="M333.02 157.722C338.681 161.197 357.931 158.328 362.089 150.929C366.247 143.529 351.879 131.152 338.857 131.601C325.836 132.05 320.408 149.952 333.02 157.722Z" fill="#FBEDC7"/>
<path d="M330.579 666.537L298.035 662.34L298.445 654.609L333.839 656.151L330.579 666.537Z" fill="#C6BFA6"/>
<path d="M326.87 686.88C325.196 686.85 323.529 686.66 321.892 686.314C321.815 686.301 321.745 686.264 321.692 686.207C321.639 686.151 321.607 686.078 321.599 686.001C321.589 685.924 321.602 685.846 321.637 685.776C321.672 685.707 321.726 685.649 321.794 685.611C322.517 685.24 328.92 681.999 330.833 683.092C331.013 683.19 331.165 683.333 331.271 683.508C331.377 683.683 331.435 683.883 331.438 684.088C331.477 684.427 331.431 684.77 331.305 685.086C331.179 685.403 330.977 685.684 330.716 685.904C329.587 686.667 328.227 687.012 326.87 686.88ZM323.141 685.786C326.636 686.372 329.232 686.216 330.228 685.357C330.396 685.207 330.527 685.019 330.608 684.808C330.689 684.598 330.72 684.371 330.696 684.147C330.697 684.064 330.676 683.982 330.635 683.91C330.594 683.838 330.534 683.778 330.462 683.737C329.428 683.151 325.777 684.537 323.141 685.786Z" fill="#FBEDC7"/>
<path d="M321.97 686.314C321.893 686.331 321.813 686.331 321.736 686.314C321.685 686.271 321.646 686.217 321.622 686.156C321.598 686.094 321.59 686.028 321.599 685.962C321.599 685.689 322.361 679.208 325.894 679.208H326.206C327.222 679.305 327.514 679.832 327.593 680.242C327.885 682.038 324.039 685.474 322.126 686.333L321.97 686.314ZM325.875 679.91C323.59 679.91 322.692 683.659 322.4 685.279C324.352 684.088 326.987 681.375 326.812 680.32C326.812 680.32 326.812 679.988 326.089 679.91H325.875Z" fill="#FBEDC7"/>
<path d="M309.807 223.22C298.816 223.728 288.332 241.943 288.332 241.943L302.837 271.578C302.837 271.578 322.496 255.198 322.75 239.092C322.965 228.628 320.603 222.732 309.807 223.22Z" fill="#FBEDC7"/>
<path opacity="0.8" d="M309.807 223.22C298.816 223.728 288.332 241.943 288.332 241.943L302.837 271.578C302.837 271.578 322.496 255.198 322.75 239.092C322.965 228.628 320.603 222.732 309.807 223.22Z" fill="#E1DFD7"/>
<path d="M305.355 319.642L368.843 331.941C398.829 243.622 391.664 240.771 391.664 240.771C387 238.253 382.189 236.017 377.257 234.075L376.378 233.743C372.337 232.279 371.478 232.045 366.031 230.463C356.68 228.257 347.973 226.461 337.197 224.9L335.147 224.607C333.195 224.372 331.242 224.158 329.388 223.982C328.138 223.845 326.869 223.767 325.678 223.67L321.579 223.455C314.629 223.104 309.67 223.221 309.67 223.221C313.301 278.333 310.646 294.165 305.355 319.642Z" fill="#FBEDC7"/>
<path opacity="0.6" d="M305.355 319.642L368.843 331.941C398.829 243.622 391.664 240.771 391.664 240.771C387 238.253 382.189 236.017 377.257 234.075L376.378 233.743C372.337 232.279 371.478 232.045 366.031 230.463C356.68 228.257 347.973 226.461 337.197 224.9L335.147 224.607C333.195 224.372 331.242 224.158 329.388 223.982C328.138 223.845 326.869 223.767 325.678 223.67L321.579 223.455C314.629 223.104 309.67 223.221 309.67 223.221C313.301 278.333 310.646 294.165 305.355 319.642Z" fill="#E1DFD7"/>
<path opacity="0.2" d="M376.182 262.012C378.7 266.97 381.687 273.549 385.689 278.098C386.841 273.92 387.798 270.289 388.617 266.912L376.182 262.012Z" fill="#FBEDC7"/>
<path d="M325.289 275.267C341.121 262.753 344.46 251.118 342.254 240.947C340.048 230.775 337.51 213.03 339.325 207.095C341.141 201.16 347.466 188.841 346.178 178.319C344.889 167.796 341.883 153.174 344.772 146.848C347.661 140.523 356.837 136.775 349.399 127.794C345.787 123.441 330.482 122.777 326.48 134.92C322.477 147.063 306.039 152.315 299.578 153.525C293.116 154.735 281.734 161.998 279.762 173.828C277.79 185.659 269.845 190.325 258.932 196.396C248.019 202.468 232.323 226.266 238.57 247.389C247.003 276.302 301.705 293.97 325.289 275.267Z" fill="#263238"/>
<path d="M372.885 235.422C377.804 231.517 398.986 244.363 405.468 249.732L401.68 277.571C401.68 277.571 371.42 265.038 369.351 256.467C367.125 247.545 368.98 238.409 372.885 235.422Z" fill="#FBEDC7"/>
<path opacity="0.6" d="M372.885 235.422C377.804 231.517 398.986 244.363 405.468 249.732L401.68 277.571C401.68 277.571 371.42 265.038 369.351 256.467C367.125 247.545 368.98 238.409 372.885 235.422Z" fill="#E1DFD7"/>
<path d="M305.003 315.757L301.216 320.852C300.923 321.243 301.372 321.789 302.094 321.946L368.685 334.83C369.252 334.948 369.779 334.83 369.876 334.401L371.38 328.857C371.477 328.486 371.048 328.056 370.423 327.939L306.116 315.484C305.923 315.426 305.718 315.421 305.522 315.469C305.327 315.517 305.147 315.617 305.003 315.757Z" fill="#FBEDC7"/>
<path d="M312.463 324.581L310.745 324.249C310.413 324.249 310.179 323.956 310.238 323.742L312.19 316.557C312.19 316.343 312.58 316.226 312.932 316.284L314.65 316.616C314.981 316.616 315.216 316.909 315.157 317.124L313.205 324.308C313.146 324.523 312.814 324.64 312.463 324.581Z" fill="#FBEDC7"/>
<path d="M355.957 333.093L354.22 332.761C353.888 332.761 353.654 332.468 353.712 332.253L355.664 325.069C355.664 324.874 356.055 324.757 356.406 324.815L358.124 325.147C358.476 325.147 358.71 325.44 358.651 325.655L356.699 332.839C356.621 333.054 356.289 333.171 355.957 333.093Z" fill="#FBEDC7"/>
<path opacity="0.6" d="M312.463 324.581L310.745 324.249C310.413 324.249 310.179 323.956 310.238 323.742L312.19 316.557C312.19 316.343 312.58 316.226 312.932 316.284L314.65 316.616C314.981 316.616 315.216 316.909 315.157 317.124L313.205 324.308C313.146 324.523 312.814 324.64 312.463 324.581Z" fill="black"/>
<path opacity="0.6" d="M355.957 333.093L354.22 332.761C353.888 332.761 353.654 332.468 353.712 332.253L355.664 325.069C355.664 324.874 356.055 324.757 356.406 324.815L358.124 325.147C358.476 325.147 358.71 325.44 358.651 325.655L356.699 332.839C356.621 333.054 356.289 333.171 355.957 333.093Z" fill="black"/>
</svg>
