<svg width="806" height="757" viewBox="0 0 806 757" fill="none" xmlns="http://www.w3.org/2000/svg">
<path d="M817.948 679.535H745.811V680.059H817.948V679.535Z" fill="#E6E6E6"/>
<path d="M427.487 679.535H405.93V680.059H427.487V679.535Z" fill="#E6E6E6"/>
<path d="M723.899 689.852H683.301V690.376H723.899V689.852Z" fill="#E6E6E6"/>
<path d="M125.476 680.772H34.9062V681.296H125.476V680.772Z" fill="#E6E6E6"/>
<path d="M152.822 673.307H116.041V673.831H152.822V673.307Z" fill="#E6E6E6"/>
<path d="M552.658 695.514H356.211V696.038H552.658V695.514Z" fill="#E6E6E6"/>
<path d="M311.374 661.396H489.242C471.816 595.675 482.259 524.902 520.53 459.181H342.662C304.37 524.902 294.011 595.675 311.374 661.396Z" fill="white"/>
<path d="M305.316 553.609H485.114C491.288 520.325 503.262 488.384 520.49 459.244H340.714C323.486 488.387 311.505 520.326 305.316 553.609Z" fill="#E6E6E6"/>
<path d="M40.0659 528.739L759.003 528.739C770.816 528.739 780.393 519.163 780.393 507.35V64.5878C780.393 52.7747 770.816 43.1984 759.003 43.1984L40.0659 43.1984C28.2529 43.1984 18.6765 52.7747 18.6765 64.5878V507.35C18.6765 519.163 28.2529 528.739 40.0659 528.739Z" fill="#E6E6E6"/>
<path d="M50.1517 528.739L769.089 528.739C780.902 528.739 790.479 519.163 790.479 507.35V64.5878C790.479 52.7747 780.902 43.1984 769.089 43.1984L50.1517 43.1984C38.3386 43.1984 28.7623 52.7747 28.7623 64.5878V507.35C28.7623 519.163 38.3386 528.739 50.1517 528.739Z" fill="#C6BFA6"/>
<path d="M28.7623 459.203L790.479 459.203V67.7966L28.7623 67.7966V459.203Z" fill="#E1DFD7"/>
<path d="M409.639 509.426C417.688 509.426 424.213 502.901 424.213 494.852C424.213 486.802 417.688 480.277 409.639 480.277C401.59 480.277 395.064 486.802 395.064 494.852C395.064 502.901 401.59 509.426 409.639 509.426Z" fill="#E6E6E6"/>
<path d="M344.341 647.325H547.394C551.126 647.325 554.705 648.807 557.344 651.446C559.983 654.085 561.465 657.664 561.465 661.396H330.313C330.312 657.671 331.789 654.098 334.419 651.461C337.049 648.823 340.617 647.336 344.341 647.325Z" fill="#C6BFA6"/>
<path d="M296.113 647.325H332.475C336.204 647.331 339.777 648.815 342.411 651.454C345.046 654.092 346.525 657.668 346.525 661.396H281.938C281.94 659.54 282.31 657.703 283.024 655.99C283.739 654.277 284.785 652.723 286.102 651.415C287.419 650.108 288.982 649.073 290.7 648.371C292.418 647.67 294.257 647.314 296.113 647.325Z" fill="#E6E6E6"/>
<path d="M479.597 11.8481C479.592 8.70748 478.342 5.69709 476.121 3.47635C473.9 1.2556 470.89 0.00554388 467.749 0H98.6762C95.5373 0.0110526 92.5301 1.26287 90.3106 3.48243C88.091 5.70198 86.8392 8.70918 86.8281 11.8481V49.9716H479.597V11.8481Z" fill="#E6E6E6"/>
<path d="M383.825 33.9509C388.771 33.9509 392.78 29.942 392.78 24.9967C392.78 20.0514 388.771 16.0425 383.825 16.0425C378.88 16.0425 374.871 20.0514 374.871 24.9967C374.871 29.942 378.88 33.9509 383.825 33.9509Z" fill="#E1DFD7"/>
<path d="M415.558 33.9509C420.503 33.9509 424.512 29.942 424.512 24.9967C424.512 20.0514 420.503 16.0425 415.558 16.0425C410.612 16.0425 406.604 20.0514 406.604 24.9967C406.604 29.942 410.612 33.9509 415.558 33.9509Z" fill="#E1DFD7"/>
<path d="M447.304 33.9509C452.249 33.9509 456.258 29.942 456.258 24.9967C456.258 20.0514 452.249 16.0425 447.304 16.0425C442.359 16.0425 438.35 20.0514 438.35 24.9967C438.35 29.942 442.359 33.9509 447.304 33.9509Z" fill="#E1DFD7"/>
<path d="M98.7836 306.75H467.857C470.993 306.744 474.001 305.497 476.221 303.281C478.441 301.065 479.694 298.06 479.705 294.923V49.9717H86.9355V294.923C86.9521 298.058 88.2064 301.06 90.4253 303.275C92.6443 305.49 95.6483 306.739 98.7836 306.75Z" fill="white"/>
<path d="M506.018 51.4817C506.007 48.3483 504.758 45.3464 502.542 43.1308C500.326 40.9152 497.324 39.6656 494.191 39.6545H125.223C122.086 39.6601 119.079 40.9072 116.859 43.1235C114.639 45.3397 113.386 48.3447 113.375 51.4817V89.6262H506.018V51.4817Z" fill="#C6BFA6"/>
<path d="M410.249 73.5839C415.194 73.5839 419.203 69.575 419.203 64.6297C419.203 59.6845 415.194 55.6755 410.249 55.6755C405.304 55.6755 401.295 59.6845 401.295 64.6297C401.295 69.575 405.304 73.5839 410.249 73.5839Z" fill="#E6E6E6"/>
<path d="M441.999 73.5839C446.944 73.5839 450.953 69.575 450.953 64.6297C450.953 59.6845 446.944 55.6755 441.999 55.6755C437.054 55.6755 433.045 59.6845 433.045 64.6297C433.045 69.575 437.054 73.5839 441.999 73.5839Z" fill="#E6E6E6"/>
<path d="M482.744 64.6297C482.744 66.4007 482.219 68.1319 481.235 69.6044C480.251 71.0769 478.853 72.2246 477.217 72.9024C475.581 73.5801 473.78 73.7574 472.043 73.4119C470.306 73.0664 468.711 72.2136 467.459 70.9613C466.206 69.7091 465.353 68.1136 465.008 66.3766C464.662 64.6397 464.84 62.8393 465.518 61.2031C466.195 59.567 467.343 58.1685 468.815 57.1846C470.288 56.2007 472.019 55.6755 473.79 55.6755C476.165 55.6755 478.443 56.6189 480.122 58.2982C481.801 59.9774 482.744 62.2549 482.744 64.6297Z" fill="#E6E6E6"/>
<path d="M125.223 346.405H494.296C497.433 346.393 500.438 345.141 502.654 342.921C504.87 340.701 506.118 337.693 506.123 334.556V89.6262H113.375V334.556C113.381 337.697 114.631 340.707 116.851 342.928C119.072 345.149 122.082 346.399 125.223 346.405Z" fill="#E1DFD7"/>
<path d="M532.463 91.1359C532.458 87.9953 531.208 84.9849 528.987 82.7642C526.766 80.5434 523.756 79.2934 520.615 79.2878H151.647C148.506 79.2934 145.496 80.5434 143.275 82.7642C141.054 84.9849 139.804 87.9953 139.799 91.1359V129.259H532.463V91.1359Z" fill="white"/>
<path d="M436.693 113.239C441.638 113.239 445.647 109.23 445.647 104.284C445.647 99.339 441.638 95.3301 436.693 95.3301C431.747 95.3301 427.738 99.339 427.738 104.284C427.738 109.23 431.747 113.239 436.693 113.239Z" fill="#F0F0F0"/>
<path d="M468.421 113.239C473.366 113.239 477.375 109.23 477.375 104.284C477.375 99.339 473.366 95.3301 468.421 95.3301C463.476 95.3301 459.467 99.339 459.467 104.284C459.467 109.23 463.476 113.239 468.421 113.239Z" fill="#F0F0F0"/>
<path d="M509.124 104.284C509.128 106.06 508.605 107.798 507.622 109.276C506.638 110.755 505.238 111.909 503.598 112.591C501.959 113.274 500.153 113.454 498.411 113.111C496.668 112.767 495.067 111.913 493.81 110.659C492.553 109.405 491.696 107.806 491.348 106.064C491 104.322 491.176 102.517 491.855 100.875C492.534 99.2342 493.684 97.8313 495.16 96.8441C496.637 95.857 498.373 95.3301 500.149 95.3301C502.526 95.3301 504.805 96.2728 506.488 97.9514C508.171 99.6301 509.119 101.908 509.124 104.284Z" fill="#F0F0F0"/>
<path d="M151.647 386.059H520.72C523.859 386.048 526.866 384.796 529.085 382.577C531.305 380.357 532.557 377.35 532.568 374.211V129.26H139.799V374.211C139.81 377.35 141.062 380.357 143.281 382.577C145.501 384.796 148.508 386.048 151.647 386.059Z" fill="#E6E6E6"/>
<path opacity="0.5" d="M631.63 233.606H496.395V435.548H698.357V233.606H631.63ZM564.841 235.179H630.037V300.396H564.778L564.841 235.179ZM630.037 367.186H564.778V301.969H629.974L630.037 367.186ZM498.051 235.179H563.247V300.396H497.988L498.051 235.179ZM498.051 301.969H563.247V367.186H497.988L498.051 301.969ZM563.184 434.08H497.988V368.863H563.184V434.08ZM629.974 434.08H564.778V368.863H629.974V434.08ZM696.763 434.08H631.63V368.863H696.826L696.763 434.08ZM696.763 367.291H631.63V301.969H696.826L696.763 367.291ZM631.63 300.396V235.179H696.826V300.396H631.63Z" fill="#E6E6E6"/>
<path d="M577.067 202.508L812.791 202.508V95.3091L577.067 95.3091V202.508Z" fill="#C6BFA6"/>
<path d="M812.788 137.103V202.529H577.105V121.27C616.215 121.27 637.08 157.129 685.458 157.129C733.836 157.129 748.41 137.103 812.788 137.103Z" fill="#E1DFD7"/>
<path d="M812.793 168.368C759.822 168.368 742.333 144.945 712.577 144.945C682.82 144.945 668.204 169.543 631.129 169.543C592.502 169.543 577.068 150.208 577.068 150.208V202.633H812.793V168.368Z" fill="#E6E6E6"/>
<path d="M407.252 756.097C631.805 756.097 813.841 745.469 813.841 732.358C813.841 719.248 631.805 708.62 407.252 708.62C182.7 708.62 0.664062 719.248 0.664062 732.358C0.664062 745.469 182.7 756.097 407.252 756.097Z" fill="#C6BFA6"/>
<path d="M306.592 303.059C297.81 271.636 301.304 238.049 316.366 209.105C331.427 180.162 356.93 158.028 387.705 147.189L395.61 172.227C371.507 180.999 351.573 198.496 339.75 221.258C327.926 244.02 325.074 270.39 331.756 295.154L306.592 303.059Z" fill="#FBEDC7"/>
<path d="M370.739 382.159C360.855 377.055 351.688 370.666 343.478 363.16C327.901 348.88 316.082 330.982 309.066 311.049L334.105 303.143C339.957 319.36 349.815 333.834 362.762 345.219C375.709 356.604 391.324 364.531 408.156 368.262C424.988 371.993 442.49 371.407 459.035 366.559C475.58 361.711 490.631 352.758 502.788 340.533L522.143 358.274C502.784 377.931 477.629 390.86 450.376 395.159C423.123 399.458 395.21 394.902 370.739 382.159Z" fill="#FBEDC7"/>
<path opacity="0.7" d="M370.739 382.159C360.855 377.055 351.688 370.666 343.478 363.16C327.901 348.88 316.082 330.982 309.066 311.049L334.105 303.143C339.957 319.36 349.815 333.834 362.762 345.219C375.709 356.604 391.324 364.531 408.156 368.262C424.988 371.993 442.49 371.407 459.035 366.559C475.58 361.711 490.631 352.758 502.788 340.533L522.143 358.274C502.784 377.931 477.629 390.86 450.376 395.159C423.123 399.458 395.21 394.902 370.739 382.159Z" fill="#E1DFD7"/>
<path d="M508.557 334.347C522.607 317.693 530.969 296.985 532.425 275.245C533.881 253.504 528.353 231.867 516.648 213.488C504.944 195.109 487.674 180.95 467.357 173.076C447.041 165.201 424.74 164.022 403.706 169.711L395.801 144.547C427.934 135.548 462.307 139.394 491.656 155.274C521.005 171.154 543.03 197.822 553.076 229.643C559.608 250.487 560.737 272.648 556.357 294.047C551.978 315.446 542.233 335.382 528.038 351.983L508.557 334.347Z" fill="#FBEDC7"/>
<path opacity="0.3" d="M508.557 334.347C522.607 317.693 530.969 296.985 532.425 275.245C533.881 253.504 528.353 231.867 516.648 213.488C504.944 195.109 487.674 180.95 467.357 173.076C447.041 165.201 424.74 164.022 403.706 169.711L395.801 144.547C427.934 135.548 462.307 139.394 491.656 155.274C521.005 171.154 543.03 197.822 553.076 229.643C559.608 250.487 560.737 272.648 556.357 294.047C551.978 315.446 542.233 335.382 528.038 351.983L508.557 334.347Z" fill="black"/>
<path d="M454.328 237.381C451.365 234.416 447.846 232.065 443.974 230.46C440.102 228.855 435.952 228.028 431.761 228.027C427.569 228.026 423.419 228.851 419.546 230.454C415.673 232.057 412.154 234.407 409.19 237.37C406.225 240.334 403.873 243.852 402.268 247.724C400.663 251.596 399.837 255.746 399.836 259.937C399.835 264.129 400.66 268.279 402.263 272.152C403.866 276.025 406.216 279.544 409.179 282.509L431.743 305.072L454.328 282.509C460.31 276.523 463.671 268.407 463.671 259.945C463.671 251.482 460.31 243.366 454.328 237.381Z" fill="#FBEDC7"/>
<path opacity="0.3" d="M454.328 237.381C451.365 234.416 447.846 232.065 443.974 230.46C440.102 228.855 435.952 228.028 431.761 228.027C427.569 228.026 423.419 228.851 419.546 230.454C415.673 232.057 412.154 234.407 409.19 237.37C406.225 240.334 403.873 243.852 402.268 247.724C400.663 251.596 399.837 255.746 399.836 259.937C399.835 264.129 400.66 268.279 402.263 272.152C403.866 276.025 406.216 279.544 409.179 282.509L431.743 305.072L454.328 282.509C460.31 276.523 463.671 268.407 463.671 259.945C463.671 251.482 460.31 243.366 454.328 237.381Z" fill="black"/>
<path d="M433.022 311.762H430.506V321.828H433.022V311.762Z" fill="#FBEDC7"/>
<path opacity="0.3" d="M433.022 311.762H430.506V321.828H433.022V311.762Z" fill="black"/>
<path d="M433.022 329.608H430.506V339.673H433.022V329.608Z" fill="#FBEDC7"/>
<path opacity="0.3" d="M433.022 329.608H430.506V339.673H433.022V329.608Z" fill="black"/>
<path d="M344.653 411.055H259.242V720.322H344.653V411.055Z" fill="#FBEDC7"/>
<path opacity="0.7" d="M344.653 411.055H259.242V720.322H344.653V411.055Z" fill="#E1DFD7"/>
<path d="M385.649 411.055H344.652V720.322H385.649V411.055Z" fill="#FBEDC7"/>
<path opacity="0.5" d="M385.649 411.055H344.652V720.322H385.649V411.055Z" fill="#E1DFD7"/>
<path d="M502.579 524.881H500.398V573.028H502.579V524.881Z" fill="#263238"/>
<path d="M502.579 496.571H500.398V515.927H502.579V496.571Z" fill="#263238"/>
<path d="M563.247 602.889H477.836V720.321H563.247V602.889Z" fill="#FBEDC7"/>
<path opacity="0.5" d="M563.247 602.889H477.836V720.321H563.247V602.889Z" fill="black"/>
<path d="M604.241 602.889H563.244V720.321H604.241V602.889Z" fill="#FBEDC7"/>
<path opacity="0.6" d="M604.241 602.889H563.244V720.321H604.241V602.889Z" fill="black"/>
<path d="M453.948 345.67H368.537V720.321H453.948V345.67Z" fill="#FBEDC7"/>
<path opacity="0.7" d="M453.948 345.67H368.537V720.321H453.948V345.67Z" fill="black"/>
<path d="M494.948 345.67H453.951V720.321H494.948V345.67Z" fill="#FBEDC7"/>
<path opacity="0.8" d="M494.948 345.67H453.951V720.321H494.948V345.67Z" fill="black"/>
<path d="M621.627 259.253C618.691 282.446 615 305.702 611.708 328.706C611.299 332.067 610.69 335.4 609.883 338.688C608.941 342.056 607.735 345.344 606.277 348.523C603.495 354.503 600.018 360.134 595.917 365.299C592.011 370.263 587.704 374.899 583.042 379.16C580.777 381.257 578.365 383.354 575.933 385.178C573.5 387.003 571.089 388.89 568.3 390.715L560.855 381.425C562.596 379.496 564.567 377.231 566.35 375.134C568.132 373.037 569.894 370.772 571.613 368.549C574.975 364.203 578.05 359.643 580.819 354.898C583.487 350.447 585.686 345.731 587.383 340.827C588.163 338.558 588.759 336.23 589.165 333.865C589.532 331.383 589.77 328.885 589.878 326.378C590.654 314.467 591.828 302.682 593.128 290.918C594.429 279.154 595.98 267.536 597.826 255.835L621.627 259.253Z" fill="#E58A7B"/>
<path d="M626.849 251.285C632.196 265.482 605.124 307.275 605.124 307.275L573.396 290.059C578.17 277.053 584.336 264.601 591.787 252.921C602.943 236.186 620.998 235.704 626.849 251.285Z" fill="#FBEDC7"/>
<path opacity="0.2" d="M626.849 251.285C632.196 265.482 605.124 307.275 605.124 307.275L573.396 290.059C578.17 277.053 584.336 264.601 591.787 252.921C602.943 236.186 620.998 235.704 626.849 251.285Z" fill="black"/>
<path d="M608.018 240.422C608.018 240.422 589.292 288.339 607.074 377.546H691.94C692.527 364.523 684.328 300.984 696.889 239.626C687.513 237.807 678.028 236.602 668.495 236.019C656.483 235.326 644.44 235.326 632.427 236.019C624.188 236.849 616.027 238.321 608.018 240.422Z" fill="#FBEDC7"/>
<path opacity="0.2" d="M608.018 240.422C608.018 240.422 589.292 288.339 607.074 377.546H691.94C692.527 364.523 684.328 300.984 696.889 239.626C687.513 237.807 678.028 236.602 668.495 236.019C656.483 235.326 644.44 235.326 632.427 236.019C624.188 236.849 616.027 238.321 608.018 240.422Z" fill="black"/>
<path d="M619.279 712.815H603.425L599.189 676.075H615.064L619.279 712.815Z" fill="#E58A7B"/>
<path d="M730.927 712.815H715.073L702.701 676.075H718.575L730.927 712.815Z" fill="#E58A7B"/>
<path d="M712.951 710.885H732.286C732.601 710.884 732.907 710.992 733.152 711.19C733.396 711.389 733.565 711.667 733.628 711.976L736.773 726.089C736.842 726.431 736.833 726.785 736.748 727.124C736.662 727.463 736.502 727.779 736.279 728.048C736.056 728.318 735.776 728.534 735.458 728.681C735.141 728.828 734.795 728.902 734.445 728.899C728.154 728.794 723.688 728.437 715.845 728.437C711.022 728.437 701.166 728.94 694.435 728.94C687.703 728.94 686.906 722.356 689.633 721.748C701.858 719.085 706.409 715.457 710.372 711.871C711.08 711.234 711.999 710.882 712.951 710.885Z" fill="#263238"/>
<path d="M603.534 710.885H620.856C621.172 710.887 621.48 710.995 621.727 711.193C621.974 711.391 622.148 711.667 622.219 711.976L625.343 726.089C625.419 726.429 625.417 726.782 625.337 727.121C625.257 727.46 625.102 727.777 624.882 728.048C624.662 728.318 624.383 728.535 624.067 728.683C623.751 728.83 623.406 728.904 623.057 728.899C616.766 728.794 607.77 728.437 599.99 728.437C590.806 728.437 582.879 728.94 572.1 728.94C565.579 728.94 563.712 722.356 566.501 721.748C578.915 719.043 589.044 718.749 599.781 712.122C600.896 711.376 602.194 710.948 603.534 710.885Z" fill="#263238"/>
<path d="M566.623 375.365L553.328 386.479L570.796 396.733C573.371 394.745 575.242 391.985 576.136 388.857C577.031 385.729 576.901 382.398 575.766 379.349L566.623 375.365Z" fill="#E58A7B"/>
<path d="M599.211 676.096L601.371 695.032H617.245L615.064 676.096H599.211Z" fill="#CF6F64"/>
<path d="M718.575 676.096H702.701L709.076 695.032H724.95L718.575 676.096Z" fill="#CF6F64"/>
<path opacity="0.2" d="M679.609 268.942C682.377 254.934 687.766 257.366 692.883 264.265C690.697 282.832 689.688 301.519 689.863 320.213C686.382 314.279 674.975 292.407 679.609 268.942Z" fill="black"/>
<path d="M664.909 195.421C662.644 207.017 660.379 228.281 668.494 236.019C668.494 236.019 665.328 247.804 643.75 247.804C620.033 247.804 632.426 236.04 632.426 236.04C645.364 232.936 645.008 223.332 642.764 214.315L664.909 195.421Z" fill="#E58A7B"/>
<path d="M655.893 203.137L642.787 214.314C643.347 216.409 643.719 218.549 643.899 220.71C648.847 219.997 655.642 214.566 656.166 209.386C656.45 207.304 656.358 205.187 655.893 203.137Z" fill="#CF6F64"/>
<path d="M628.023 159.709C620.223 163.022 615.987 184.873 625.926 189.926C635.866 194.98 642.807 153.46 628.023 159.709Z" fill="#263238"/>
<path d="M666.294 177.952C665.33 193.659 665.56 202.907 657.634 210.98C645.702 223.101 626.284 215.908 622.551 200.223C619.175 186.11 621.314 162.77 636.706 156.521C640.091 155.128 643.776 154.623 647.411 155.055C651.046 155.486 654.51 156.84 657.475 158.987C660.44 161.135 662.806 164.004 664.35 167.324C665.893 170.643 666.563 174.302 666.294 177.952Z" fill="#E58A7B"/>
<path d="M617.831 149.853C627.33 135.446 628.819 142.387 628.672 149.244C637.06 141.318 652.557 131.21 660.127 140.437C661.024 141.389 661.607 142.593 661.798 143.886C661.989 145.18 661.779 146.501 661.197 147.672C670.948 145.071 680.783 144.337 679 154.864C677.427 164.175 670.78 167.593 661.469 167.656C644.777 169.963 604.368 170.194 617.831 149.853Z" fill="#263238"/>
<path d="M665.181 193.344C656.793 196.763 639.912 165.958 665.307 162.33C690.701 158.702 678.623 187.829 665.181 193.344Z" fill="#263238"/>
<path d="M673.401 195.274C671.278 198.615 667.927 200.988 664.069 201.879C658.953 203.012 656.667 198.356 658.345 193.659C659.854 189.465 664.321 183.782 669.354 184.747C670.449 184.981 671.469 185.485 672.32 186.212C673.171 186.94 673.828 187.868 674.229 188.914C674.631 189.959 674.766 191.088 674.621 192.199C674.477 193.309 674.057 194.366 673.401 195.274Z" fill="#E58A7B"/>
<path d="M681.687 167.09C680.521 165.791 679.049 164.804 677.405 164.218C675.761 163.632 673.996 163.466 672.271 163.735C672.271 163.735 680.471 157.276 681.687 167.09Z" fill="#263238"/>
<path d="M607.075 377.461C607.075 377.461 562.43 490.909 564.065 539.308C565.848 589.636 595.52 691.362 595.52 691.362H622.404C622.404 691.362 611.395 592.551 612.59 543.146C613.89 489.253 662.918 377.482 662.918 377.482L607.075 377.461Z" fill="#FBEDC7"/>
<path opacity="0.2" d="M642.722 415.019L645.301 420.869C635.891 445.115 627.716 469.821 620.808 494.894C620.074 466.291 625.988 434.752 642.722 415.019Z" fill="black"/>
<path d="M637.184 377.461C637.184 377.461 628.146 493.468 638.023 538.931C648.843 588.672 701.604 691.32 701.604 691.32H730.668C730.668 691.32 691.79 592.761 685.604 543.439C678.914 489.987 691.895 377.503 691.895 377.503L637.184 377.461Z" fill="#FBEDC7"/>
<path d="M642.472 182.44C642.472 183.719 641.78 184.768 640.941 184.768C640.103 184.768 639.432 183.719 639.432 182.44C639.432 181.161 640.103 180.133 640.941 180.133C641.78 180.133 642.472 181.056 642.472 182.44Z" fill="#263238"/>
<path d="M628.004 182.44C628.004 183.719 627.311 184.768 626.494 184.768C625.676 184.768 624.963 183.719 624.963 182.44C624.963 181.161 625.655 180.133 626.494 180.133C627.332 180.133 628.004 181.056 628.004 182.44Z" fill="#263238"/>
<path d="M632.594 182.985C631.069 186.889 629.016 190.565 626.492 193.911C627.363 194.537 628.361 194.965 629.415 195.165C630.47 195.364 631.555 195.33 632.594 195.064V182.985Z" fill="#DF5753"/>
<path d="M636.327 198.608C636.227 198.608 636.131 198.568 636.06 198.497C635.989 198.427 635.949 198.331 635.949 198.231C635.949 198.13 635.989 198.034 636.06 197.964C636.131 197.893 636.227 197.853 636.327 197.853C637.918 197.888 639.496 197.548 640.932 196.859C642.367 196.171 643.62 195.153 644.589 193.89C644.616 193.848 644.652 193.813 644.693 193.785C644.734 193.758 644.781 193.738 644.829 193.729C644.878 193.719 644.928 193.719 644.977 193.728C645.026 193.738 645.072 193.757 645.113 193.785C645.191 193.84 645.245 193.923 645.264 194.016C645.284 194.109 645.267 194.207 645.218 194.288C644.195 195.673 642.852 196.79 641.304 197.542C639.755 198.294 638.047 198.66 636.327 198.608Z" fill="#263238"/>
<path d="M646.814 177.68C646.701 177.677 646.589 177.649 646.488 177.598C646.386 177.547 646.297 177.475 646.227 177.386C645.679 176.615 644.957 175.985 644.118 175.547C643.28 175.11 642.349 174.878 641.404 174.87C641.304 174.878 641.203 174.867 641.108 174.835C641.013 174.803 640.926 174.752 640.851 174.686C640.776 174.619 640.716 174.537 640.674 174.447C640.632 174.356 640.609 174.257 640.607 174.157C640.595 173.96 640.661 173.766 640.79 173.617C640.92 173.468 641.102 173.376 641.299 173.36C642.493 173.353 643.671 173.631 644.736 174.171C645.801 174.711 646.722 175.497 647.422 176.464C647.541 176.626 647.593 176.828 647.565 177.028C647.538 177.228 647.434 177.409 647.275 177.533C647.137 177.622 646.978 177.673 646.814 177.68Z" fill="#263238"/>
<path d="M621.67 177.365C621.559 177.385 621.446 177.385 621.335 177.365C621.245 177.323 621.165 177.263 621.099 177.189C621.033 177.114 620.983 177.028 620.952 176.934C620.92 176.84 620.908 176.74 620.917 176.641C620.925 176.542 620.953 176.446 620.999 176.359C621.495 175.278 622.243 174.333 623.181 173.603C624.119 172.873 625.219 172.38 626.388 172.165C626.574 172.162 626.755 172.227 626.895 172.349C627.036 172.471 627.126 172.64 627.15 172.825C627.173 173.009 627.128 173.196 627.022 173.349C626.916 173.502 626.758 173.61 626.577 173.654C625.661 173.853 624.805 174.264 624.076 174.854C623.348 175.444 622.768 176.196 622.383 177.051C622.306 177.165 622.198 177.255 622.072 177.31C621.946 177.366 621.807 177.385 621.67 177.365Z" fill="#263238"/>
<path d="M702.927 251.956C704.29 254.892 705.443 257.513 706.533 260.344C707.624 263.175 708.63 265.859 709.742 268.732C711.839 274.31 713.579 279.972 715.173 285.739C716.767 291.505 718.088 297.398 719.178 303.395L719.933 307.904L720.479 312.517C720.688 314.048 720.772 315.621 720.898 317.194L721.045 319.542V320.129V321.115C721.045 321.849 721.045 322.52 721.045 323.212C720.629 327.342 719.434 331.355 717.522 335.039C716.032 338.002 714.343 340.86 712.468 343.595C708.994 348.596 705.19 353.36 701.081 357.855C693.177 366.559 684.602 374.629 675.435 381.991L667.047 373.603C673.904 364.838 680.74 355.779 686.968 346.782C690 342.403 692.8 337.867 695.356 333.194C696.526 331.096 697.542 328.917 698.397 326.672C699.019 325.239 699.375 323.704 699.446 322.143C699.446 322.143 699.446 322.268 699.446 322.143V321.66L699.152 319.773C698.963 318.494 698.796 317.236 698.502 315.956L697.747 312.119L696.845 308.26C695.566 303.102 694.119 297.922 692.442 292.764C690.764 287.605 688.982 282.467 687.073 277.33C685.165 272.192 683.068 267.012 681.118 262.273L702.927 251.956Z" fill="#E58A7B"/>
<path d="M707.69 713.758C706.613 713.84 705.54 713.552 704.649 712.941C704.35 712.688 704.12 712.362 703.984 711.994C703.848 711.627 703.81 711.23 703.873 710.844C703.872 710.628 703.93 710.416 704.041 710.231C704.152 710.046 704.311 709.895 704.502 709.795C706.285 708.893 711.381 712.039 711.968 712.395C712.029 712.435 712.078 712.492 712.108 712.559C712.138 712.626 712.147 712.7 712.136 712.773C712.122 712.848 712.087 712.917 712.035 712.973C711.983 713.029 711.916 713.069 711.842 713.087C710.486 713.46 709.094 713.685 707.69 713.758ZM705.341 710.466C705.174 710.453 705.006 710.49 704.859 710.571C704.754 710.571 704.628 710.718 704.607 711.011C704.581 711.264 704.615 711.519 704.707 711.756C704.798 711.992 704.943 712.204 705.132 712.374C706.903 713.171 708.911 713.269 710.752 712.647C709.106 711.578 707.268 710.838 705.341 710.466Z" fill="#FBEDC7"/>
<path d="M711.756 713.192H711.588C709.932 712.29 706.765 708.83 707.101 707.048C707.158 706.772 707.308 706.524 707.525 706.345C707.742 706.166 708.014 706.066 708.296 706.062C708.581 706.03 708.869 706.056 709.143 706.138C709.417 706.221 709.671 706.36 709.89 706.545C711.735 708.054 712.113 712.626 712.134 712.836C712.135 712.901 712.121 712.966 712.092 713.024C712.062 713.083 712.019 713.133 711.966 713.171C711.9 713.199 711.827 713.206 711.756 713.192ZM708.569 706.691H708.38C707.898 706.691 707.856 706.964 707.835 707.069C707.646 708.117 709.659 710.739 711.295 711.976C711.18 710.171 710.531 708.44 709.429 707.006C709.189 706.802 708.884 706.69 708.569 706.691Z" fill="#FBEDC7"/>
<path d="M596.925 713.758C595.571 713.879 594.216 713.531 593.088 712.773C592.829 712.55 592.629 712.267 592.505 711.949C592.381 711.631 592.336 711.287 592.375 710.948C592.387 710.744 592.448 710.545 592.554 710.37C592.66 710.194 592.807 710.047 592.983 709.942C594.933 708.872 601.371 712.039 602.021 712.479C602.094 712.514 602.153 712.571 602.191 712.642C602.228 712.713 602.243 712.795 602.231 712.874C602.219 712.954 602.182 713.028 602.126 713.085C602.069 713.142 601.996 713.18 601.916 713.192C600.273 713.529 598.602 713.718 596.925 713.758ZM594.052 710.466C593.813 710.45 593.573 710.501 593.36 710.613C593.285 710.647 593.223 710.704 593.182 710.775C593.14 710.847 593.122 710.929 593.13 711.011C593.098 711.231 593.122 711.456 593.199 711.664C593.276 711.873 593.403 712.059 593.57 712.207C594.556 713.087 597.177 713.234 600.658 712.647C598.597 711.548 596.363 710.811 594.052 710.466Z" fill="#FBEDC7"/>
<path d="M601.854 713.192C601.8 713.211 601.74 713.211 601.686 713.192C599.778 712.332 595.982 708.998 596.276 707.111C596.276 706.691 596.632 706.167 597.681 706.062C598.056 706.024 598.435 706.062 598.795 706.174C599.156 706.286 599.49 706.469 599.778 706.712C601.875 708.369 602.231 712.647 602.231 712.814C602.241 712.882 602.233 712.95 602.207 713.013C602.181 713.076 602.139 713.13 602.085 713.171C602.011 713.201 601.931 713.208 601.854 713.192ZM598.079 706.691H597.849C597.178 706.691 597.136 707.027 597.115 707.111C596.947 708.18 599.526 710.885 601.476 712.06C601.299 710.253 600.566 708.547 599.379 707.174C599.02 706.859 598.557 706.687 598.079 706.691Z" fill="#FBEDC7"/>
<path d="M670.718 371.275L655.158 375.469L668.055 391.113C668.055 391.113 680.532 384.633 677.848 377.65L670.718 371.275Z" fill="#E58A7B"/>
<path d="M647.109 385.933L658.37 398.348L668.058 391.05L655.162 375.406L647.109 385.933Z" fill="#E58A7B"/>
<path d="M696.472 691.991H734.47V681.758L692.006 681.108L696.472 691.991Z" fill="#FBEDC7"/>
<path opacity="0.4" d="M696.472 691.991H734.47V681.758L692.006 681.108L696.472 691.991Z" fill="black"/>
<path d="M589.418 691.991H627.416V681.653L584.951 681.108L589.418 691.991Z" fill="#FBEDC7"/>
<path opacity="0.4" d="M589.418 691.991H627.416V681.653L584.951 681.108L589.418 691.991Z" fill="black"/>
<path d="M700.202 240.653C714.357 246.105 728.512 296.307 728.512 296.307L690.766 311.154C690.766 311.154 679.505 285.193 675.667 265.901C671.725 245.665 684.16 234.488 700.202 240.653Z" fill="#FBEDC7"/>
<path opacity="0.2" d="M700.202 240.653C714.357 246.105 728.512 296.307 728.512 296.307L690.766 311.154C690.766 311.154 679.505 285.193 675.667 265.901C671.725 245.665 684.16 234.488 700.202 240.653Z" fill="black"/>
<path d="M547.185 320.318C543.165 334.336 543.568 349.253 548.339 363.034C552.703 375.86 560.667 387.158 571.28 395.58C585.417 406.772 603.277 412.178 621.248 410.704C639.219 409.23 655.959 400.985 668.083 387.639C680.207 374.292 686.81 356.839 686.556 338.809C686.302 320.78 679.21 303.519 666.715 290.52C658.131 281.581 647.337 275.071 635.427 271.647C624.414 268.461 612.795 267.974 601.553 270.226C590.311 272.478 579.776 277.403 570.84 284.585C569.212 285.897 567.658 287.297 566.184 288.779C557.184 297.436 550.63 308.315 547.185 320.318Z" fill="#FBEDC7"/>
<path opacity="0.6" d="M547.185 320.318C543.165 334.336 543.568 349.253 548.339 363.034C552.703 375.86 560.667 387.158 571.28 395.58C585.417 406.772 603.277 412.178 621.248 410.704C639.219 409.23 655.959 400.985 668.083 387.639C680.207 374.292 686.81 356.839 686.556 338.809C686.302 320.78 679.21 303.519 666.715 290.52C658.131 281.581 647.337 275.071 635.427 271.647C624.414 268.461 612.795 267.974 601.553 270.226C590.311 272.478 579.776 277.403 570.84 284.585C569.212 285.897 567.658 287.297 566.184 288.779C557.184 297.436 550.63 308.315 547.185 320.318Z" fill="black"/>
<path d="M657.782 287.731L606.615 337.115L587.008 405.478C602.056 409.798 618.109 409.032 632.677 403.298C647.245 397.563 659.514 387.182 667.579 373.763C675.644 360.344 679.056 344.639 677.285 329.084C675.513 313.528 668.658 298.992 657.782 287.731Z" fill="#FBEDC7"/>
<path opacity="0.9" d="M657.782 287.731L606.615 337.115L587.008 405.478C602.056 409.798 618.109 409.032 632.677 403.298C647.245 397.563 659.514 387.182 667.579 373.763C675.644 360.344 679.056 344.639 677.285 329.084C675.513 313.528 668.658 298.992 657.782 287.731Z" fill="#E1DFD7"/>
<g opacity="0.7">
<path d="M606.612 337.115L657.779 287.71C649.107 278.725 638.222 272.182 626.219 268.74C614.216 265.297 601.518 265.076 589.403 268.099C577.287 271.121 566.181 277.281 557.201 285.958C548.222 294.635 541.686 305.524 538.25 317.529L606.612 337.115Z" fill="#FBEDC7"/>
<path opacity="0.44" d="M606.612 337.115L657.779 287.71C649.107 278.725 638.222 272.182 626.219 268.74C614.216 265.297 601.518 265.076 589.403 268.099C577.287 271.121 566.181 277.281 557.201 285.958C548.222 294.635 541.686 305.524 538.25 317.529L606.612 337.115Z" fill="#E1DFD7"/>
</g>
<path d="M552.236 395.915L567.649 400.78L570.732 396.796L553.264 386.542L552.236 395.915Z" fill="#E58A7B"/>
<path d="M606.613 337.115L538.271 317.529C533.081 335.657 535.301 355.104 544.443 371.596C553.586 388.088 568.902 400.274 587.027 405.477L606.613 337.115Z" fill="#FBEDC7"/>
<path opacity="0.6" d="M606.613 337.115L538.271 317.529C533.081 335.657 535.301 355.104 544.443 371.596C553.586 388.088 568.902 400.274 587.027 405.477L606.613 337.115Z" fill="black"/>
<path d="M214.834 240.863C211.164 244.616 207.222 248.768 203.594 252.92C199.966 257.072 196.317 261.308 192.899 265.649C189.481 269.99 186.252 274.457 183.148 278.965L180.883 282.383L178.786 285.843C178.073 286.997 177.402 288.171 176.689 289.345L174.949 292.554C174.241 294.384 173.837 296.318 173.753 298.279C173.586 300.806 173.586 303.342 173.753 305.87C174.145 311.308 174.846 316.72 175.85 322.08C176.794 327.574 177.947 333.089 179.311 338.562C180.674 344.035 182.016 349.613 183.505 355.024L175.431 358.043C170.54 347.361 166.454 336.328 163.205 325.036C161.532 319.236 160.25 313.331 159.368 307.359C158.926 304.169 158.702 300.953 158.697 297.733C158.639 293.937 159.279 290.163 160.584 286.598C161.088 285.382 161.36 284.879 161.696 284.166L162.681 282.069C163.331 280.685 164.023 279.322 164.778 278.001L166.875 273.995L169.182 270.095C172.265 264.965 175.618 260.002 179.227 255.227C182.792 250.467 186.482 245.812 190.383 241.345C194.283 236.878 198.246 232.6 202.755 228.302L214.834 240.863Z" fill="#E58A7B"/>
<path d="M181.282 351.605L195.625 355.799L186.084 365.488C186.084 365.488 175.746 362.3 174.299 355.254L181.282 351.605Z" fill="#E58A7B"/>
<path d="M204.328 366.913L201.895 376.161L186.084 365.55L195.625 355.883L204.328 366.913Z" fill="#E58A7B"/>
<path d="M75.9297 626.9L87.6729 639.503L119.547 616.688L107.783 604.085L75.9297 626.9Z" fill="#E58A7B"/>
<path d="M231.757 673.077L228.947 694.76L212.15 691.95L214.751 671.818L231.757 673.077Z" fill="#CF6F64"/>
<path d="M107.781 604.085L119.525 616.709L106.335 626.145L94.1719 613.815L107.781 604.085Z" fill="#CF6F64"/>
<path d="M261.179 327.909C261.179 327.909 227.963 439.155 211.732 503.282C194.62 570.868 112.9 625.978 112.9 625.978L95.4531 608.635C95.4531 608.635 150.08 562.501 166.751 499.444C200.429 371.38 184.24 344.266 211.082 318.221L261.179 327.909Z" fill="#FBEDC7"/>
<path opacity="0.6" d="M261.179 327.909C261.179 327.909 227.963 439.155 211.732 503.282C194.62 570.868 112.9 625.978 112.9 625.978L95.4531 608.635C95.4531 608.635 150.08 562.501 166.751 499.444C200.429 371.38 184.24 344.266 211.082 318.221L261.179 327.909Z" fill="black"/>
<path d="M92.8099 637.49L83.0169 620.714C82.8565 620.423 82.5954 620.201 82.2826 620.089C81.9698 619.977 81.6269 619.983 81.3183 620.106L67.3523 625.726C67.0056 625.89 66.6972 626.126 66.447 626.417C66.1969 626.708 66.0105 627.048 65.8998 627.415C65.7892 627.783 65.7568 628.169 65.8047 628.55C65.8526 628.931 65.9797 629.298 66.1779 629.626C69.7009 635.393 71.6721 638.014 75.9919 645.375C78.6551 649.904 82.0732 656.782 85.722 663.031C89.3708 669.28 95.5989 666.093 94.6133 663.178C90.2096 650.072 92.5163 646.276 93.3761 640.447C93.5317 639.425 93.3318 638.382 92.8099 637.49Z" fill="#263238"/>
<path d="M114.39 628.452L92.623 606.79L98.5366 600.226L125.043 622.79L114.39 628.452Z" fill="#C6BFA6"/>
<path opacity="0.3" d="M245.577 351.605C223.789 368.381 222.321 432.466 222.825 461.404C233.918 420.953 247.024 375.93 254.678 349.907C252.581 348.103 249.582 348.502 245.577 351.605Z" fill="black"/>
<path d="M96.3306 646.633C96.1238 646.628 95.9189 646.593 95.7224 646.528C93.6254 645.899 92.1785 642.104 91.5284 639.902C91.5044 639.824 91.5036 639.741 91.5259 639.663C91.5482 639.585 91.5928 639.515 91.6542 639.462C91.7184 639.415 91.7954 639.391 91.8744 639.391C91.9534 639.391 92.0304 639.415 92.0946 639.462C92.7237 639.776 98.2388 642.649 98.3856 644.83C98.4081 645.065 98.3698 645.303 98.2744 645.52C98.1789 645.736 98.0295 645.925 97.8404 646.067C97.4153 646.421 96.8833 646.62 96.3306 646.633ZM92.5769 640.615C93.6044 643.53 94.8417 645.417 95.9531 645.774C96.2 645.836 96.4588 645.834 96.7048 645.768C96.9508 645.702 97.1757 645.574 97.3581 645.396C97.4471 645.343 97.5185 645.265 97.5633 645.172C97.608 645.079 97.6242 644.974 97.6097 644.872C97.4839 643.781 94.7997 641.831 92.5769 640.615Z" fill="#FBEDC7"/>
<path d="M96.897 641.327C95.0825 641.322 93.2919 640.914 91.6545 640.132C91.5982 640.091 91.5523 640.038 91.5207 639.976C91.4891 639.914 91.4727 639.845 91.4727 639.776C91.4727 639.706 91.4891 639.637 91.5207 639.576C91.5523 639.514 91.5982 639.46 91.6545 639.419C91.8432 639.419 95.9743 636.924 98.323 637.7C98.6272 637.786 98.9078 637.941 99.1439 638.151C99.3799 638.362 99.5653 638.623 99.686 638.916C99.8474 639.197 99.9084 639.524 99.8589 639.844C99.8093 640.165 99.6522 640.458 99.4134 640.677C98.6729 641.174 97.7853 641.403 96.897 641.327ZM92.703 639.755C94.6322 640.531 97.9665 640.845 98.8472 640.069C98.994 639.943 99.1198 639.734 98.8472 639.251C98.7688 639.062 98.649 638.892 98.4967 638.754C98.3443 638.616 98.1632 638.514 97.9665 638.455C96.1212 638.35 94.2872 638.803 92.703 639.755Z" fill="#FBEDC7"/>
<path d="M209.717 710.843L226.724 712.101L231.756 673.055L214.771 671.797L209.717 710.843Z" fill="#E58A7B"/>
<path d="M278.163 331.327C278.163 331.327 282.357 465.934 272.899 516.64C263.001 569.379 232.868 689.328 232.868 689.328L208.354 686.162C208.354 686.162 223.871 564.976 230.435 512.592C237.628 455.47 228.212 321.66 228.212 321.66L278.163 331.327Z" fill="#FBEDC7"/>
<path opacity="0.6" d="M278.163 331.327C278.163 331.327 282.357 465.934 272.899 516.64C263.001 569.379 232.868 689.328 232.868 689.328L208.354 686.162C208.354 686.162 223.871 564.976 230.435 512.592C237.628 455.47 228.212 321.66 228.212 321.66L278.163 331.327Z" fill="black"/>
<path d="M297.037 171.2C296.807 172.563 297.352 173.779 298.233 173.968C299.113 174.156 300.015 173.171 300.33 171.871C300.644 170.571 300.015 169.291 299.134 169.124C298.254 168.956 297.268 169.858 297.037 171.2Z" fill="#263238"/>
<path d="M298.631 169.082L302.049 168.767C302.049 168.767 299.952 170.99 298.631 169.082Z" fill="#263238"/>
<path d="M297.959 172.731C298.662 176.051 299.812 179.261 301.378 182.272C300.594 182.63 299.743 182.816 298.882 182.816C298.021 182.816 297.17 182.63 296.387 182.272L297.959 172.731Z" fill="#DF5753"/>
<path d="M300.312 165.664C300.156 165.664 300.003 165.619 299.872 165.533C299.742 165.447 299.639 165.325 299.578 165.182C299.182 164.231 298.573 163.383 297.799 162.703C297.025 162.023 296.106 161.53 295.111 161.26C295.008 161.243 294.909 161.205 294.82 161.149C294.732 161.093 294.655 161.02 294.595 160.934C294.534 160.848 294.491 160.751 294.468 160.649C294.446 160.547 294.443 160.441 294.461 160.338C294.502 160.127 294.624 159.941 294.8 159.82C294.977 159.698 295.194 159.651 295.405 159.687C296.659 159.996 297.823 160.596 298.803 161.437C299.782 162.279 300.551 163.339 301.046 164.532C301.132 164.727 301.138 164.948 301.064 165.147C300.989 165.347 300.84 165.51 300.647 165.601L300.312 165.664Z" fill="#263238"/>
<path d="M254.005 182.44C254.32 192.715 253.271 211.253 245.219 216.516C245.219 216.516 246.267 227.001 264.784 230.671C285.146 234.613 276.192 222.514 276.192 222.514C265.497 217.712 267.153 209.575 270.362 202.257L254.005 182.44Z" fill="#E58A7B"/>
<path d="M306.433 237.423C310.627 240.611 315.241 243.987 319.791 247.07C324.342 250.152 328.997 253.361 333.736 256.15C338.475 258.939 343.278 261.686 348.101 264.265C352.907 266.749 357.842 268.975 362.885 270.933C363.325 271.101 363.178 270.933 363.283 271.08H363.556C363.827 271.119 364.102 271.119 364.373 271.08C365.212 271.085 366.048 271 366.869 270.829C369.095 270.285 371.254 269.497 373.307 268.48C378.057 266.07 382.595 263.264 386.874 260.092C391.362 256.925 395.745 253.465 400.043 249.859C404.342 246.252 408.62 242.498 412.73 238.765L419.021 244.532C411.831 253.904 403.801 262.6 395.032 270.514C390.433 274.625 385.455 278.29 380.164 281.46C377.186 283.209 374.021 284.616 370.727 285.654C368.785 286.236 366.777 286.574 364.751 286.661C363.589 286.725 362.423 286.676 361.27 286.514C360.648 286.441 360.032 286.329 359.425 286.179C358.879 286.032 358.02 285.801 357.789 285.696C346.366 281.928 335.373 276.966 324.992 270.892C319.875 267.914 314.821 264.831 309.914 261.518C305.007 258.205 300.31 254.828 295.508 250.907L306.433 237.423Z" fill="#E58A7B"/>
<path d="M411.449 240.359L416.44 227.505L426.925 237.99C426.925 237.99 421.955 247.552 414.825 247.573L411.449 240.359Z" fill="#E58A7B"/>
<path d="M426.779 223.792L436.74 226.917L427.009 237.968L416.482 227.504L426.779 223.792Z" fill="#E58A7B"/>
<path d="M227.775 709.669H208.671C208.337 709.665 208.014 709.782 207.76 709.998C207.505 710.213 207.337 710.514 207.287 710.843L204.708 725.963C204.656 726.341 204.687 726.726 204.798 727.092C204.909 727.457 205.097 727.795 205.349 728.081C205.602 728.367 205.913 728.596 206.262 728.752C206.611 728.907 206.989 728.986 207.371 728.982C214.039 728.878 217.248 728.479 225.657 728.479C230.815 728.479 241.51 729.024 248.724 729.024C255.937 729.024 256.42 721.957 253.463 721.307C240.21 718.455 235.072 714.492 230.668 710.718C229.865 710.025 228.835 709.651 227.775 709.669Z" fill="#263238"/>
<path d="M252.327 158.744C250.629 175.52 249.538 182.503 256.521 192.631C267.006 207.835 287.976 206.891 294.75 191.142C300.768 176.988 302.572 151.991 287.368 142.261C284.135 140.066 280.386 138.75 276.49 138.444C272.594 138.137 268.686 138.851 265.15 140.515C261.613 142.178 258.571 144.734 256.323 147.93C254.075 151.126 252.697 154.853 252.327 158.744Z" fill="#E58A7B"/>
<path d="M254.175 195.232C246.206 191.981 238.762 179.148 239.055 159.079C239.349 139.011 254.301 127.373 280.995 135.823C307.69 144.274 280.22 205.884 254.175 195.232Z" fill="#263238"/>
<path d="M276.779 137.669C284.643 134.586 302.048 138.403 302.048 154.78L285.125 168.516L276.779 137.669Z" fill="#263238"/>
<path d="M274.576 137.522C285.061 136.914 289.129 136.956 298.629 139.619C292.38 132.112 280.678 134.586 274.576 137.522Z" fill="#263238"/>
<path d="M283.657 167.467C283.332 170.582 283.969 173.721 285.481 176.463C287.578 180.322 290.745 179.797 291.919 176.673C292.989 173.863 293.177 168.474 290.242 165.58C287.306 162.686 284.16 164.007 283.657 167.467Z" fill="#E58A7B"/>
<path d="M240.712 144.253C246.793 147.986 267.47 144.903 271.936 136.956C276.403 129.008 260.969 115.713 246.982 116.195C232.995 116.678 227.165 135.907 240.712 144.253Z" fill="#FBEDC7"/>
<path d="M238.09 690.796L203.133 686.287L203.573 677.983L241.592 679.64L238.09 690.796Z" fill="#C6BFA6"/>
<path d="M234.107 712.647C232.309 712.615 230.519 712.411 228.759 712.039C228.677 712.025 228.602 711.985 228.545 711.924C228.488 711.864 228.453 711.786 228.445 711.703C228.434 711.62 228.448 711.536 228.486 711.461C228.523 711.387 228.582 711.325 228.655 711.284C229.431 710.885 236.309 707.404 238.364 708.578C238.557 708.683 238.72 708.837 238.834 709.025C238.948 709.213 239.01 709.428 239.014 709.648C239.055 710.012 239.006 710.38 238.871 710.72C238.735 711.061 238.518 711.362 238.238 711.598C237.025 712.418 235.564 712.788 234.107 712.647ZM230.102 711.472C233.855 712.101 236.644 711.934 237.714 711.011C237.895 710.85 238.034 710.648 238.122 710.422C238.209 710.196 238.242 709.952 238.217 709.711C238.218 709.622 238.195 709.534 238.151 709.457C238.106 709.379 238.043 709.315 237.965 709.271C236.854 708.641 232.933 710.13 230.102 711.472Z" fill="#FBEDC7"/>
<path d="M228.844 712.039C228.761 712.058 228.675 712.058 228.592 712.039C228.538 711.993 228.496 711.935 228.47 711.869C228.444 711.803 228.436 711.732 228.445 711.661C228.445 711.368 229.263 704.406 233.059 704.406H233.394C234.484 704.511 234.799 705.077 234.883 705.517C235.197 707.446 231.066 711.137 229.011 712.06L228.844 712.039ZM233.038 705.161C230.584 705.161 229.619 709.187 229.305 710.927C231.402 709.648 234.233 706.733 234.044 705.601C234.044 705.601 234.044 705.245 233.268 705.161H233.038Z" fill="#FBEDC7"/>
<path d="M215.778 214.608C203.972 215.153 192.711 234.718 192.711 234.718L208.292 266.551C208.292 266.551 229.409 248.957 229.681 231.657C229.912 220.417 227.374 214.084 215.778 214.608Z" fill="#FBEDC7"/>
<path opacity="0.8" d="M215.778 214.608C203.972 215.153 192.711 234.718 192.711 234.718L208.292 266.551C208.292 266.551 229.409 248.957 229.681 231.657C229.912 220.417 227.374 214.084 215.778 214.608Z" fill="#E1DFD7"/>
<path d="M210.996 318.179L279.191 331.39C311.401 236.522 303.705 233.46 303.705 233.46C298.695 230.755 293.527 228.353 288.229 226.268L287.285 225.911C282.944 224.338 282.022 224.087 276.171 222.388C266.126 220.019 256.774 218.089 245.198 216.412L242.996 216.097C240.899 215.846 238.802 215.615 236.81 215.426C235.468 215.279 234.105 215.195 232.826 215.091L228.422 214.86C220.957 214.482 215.63 214.608 215.63 214.608C219.531 273.807 216.679 290.813 210.996 318.179Z" fill="#FBEDC7"/>
<path opacity="0.6" d="M210.996 318.179L279.191 331.39C311.401 236.522 303.705 233.46 303.705 233.46C298.695 230.755 293.527 228.353 288.229 226.268L287.285 225.911C282.944 224.338 282.022 224.087 276.171 222.388C266.126 220.019 256.774 218.089 245.198 216.412L242.996 216.097C240.899 215.846 238.802 215.615 236.81 215.426C235.468 215.279 234.105 215.195 232.826 215.091L228.422 214.86C220.957 214.482 215.63 214.608 215.63 214.608C219.531 273.807 216.679 290.813 210.996 318.179Z" fill="#E1DFD7"/>
<path opacity="0.2" d="M287.074 256.276C289.779 261.602 292.988 268.669 297.287 273.555C298.524 269.067 299.551 265.167 300.432 261.539L287.074 256.276Z" fill="#FBEDC7"/>
<path d="M232.408 270.514C249.415 257.072 253.001 244.574 250.631 233.649C248.262 222.723 245.535 203.661 247.486 197.287C249.436 190.912 256.23 177.68 254.846 166.377C253.462 155.074 250.233 139.367 253.336 132.573C256.44 125.779 266.296 121.752 258.306 112.106C254.427 107.43 237.986 106.717 233.687 119.76C229.389 132.804 211.732 138.445 204.791 139.745C197.85 141.045 185.624 148.846 183.506 161.554C181.388 174.261 172.853 179.273 161.131 185.795C149.409 192.317 132.549 217.879 139.259 240.569C148.318 271.625 207.076 290.603 232.408 270.514Z" fill="#263238"/>
<path d="M283.534 227.714C288.818 223.52 311.571 237.318 318.533 243.085L314.465 272.988C314.465 272.988 281.961 259.526 279.738 250.32C277.348 240.736 279.34 230.922 283.534 227.714Z" fill="#FBEDC7"/>
<path opacity="0.6" d="M283.534 227.714C288.818 223.52 311.571 237.318 318.533 243.085L314.465 272.988C314.465 272.988 281.961 259.526 279.738 250.32C277.348 240.736 279.34 230.922 283.534 227.714Z" fill="#E1DFD7"/>
<path d="M210.619 314.006L206.551 319.479C206.236 319.898 206.718 320.486 207.494 320.653L279.023 334.494C279.631 334.619 280.197 334.494 280.302 334.032L281.917 328.077C282.022 327.678 281.56 327.217 280.889 327.091L211.814 313.712C211.607 313.651 211.387 313.645 211.177 313.697C210.966 313.748 210.774 313.855 210.619 314.006Z" fill="#FBEDC7"/>
<path d="M218.631 323.484L216.785 323.128C216.429 323.128 216.177 322.813 216.24 322.583L218.337 314.866C218.337 314.635 218.757 314.509 219.134 314.572L220.979 314.929C221.336 314.929 221.587 315.243 221.525 315.474L219.428 323.191C219.365 323.421 219.008 323.547 218.631 323.484Z" fill="#FBEDC7"/>
<path d="M265.351 332.627L263.485 332.271C263.128 332.271 262.876 331.956 262.939 331.726L265.036 324.009C265.036 323.799 265.456 323.673 265.833 323.736L267.679 324.092C268.056 324.092 268.308 324.407 268.245 324.638L266.148 332.355C266.064 332.585 265.707 332.711 265.351 332.627Z" fill="#FBEDC7"/>
<path opacity="0.6" d="M218.631 323.484L216.785 323.128C216.429 323.128 216.177 322.813 216.24 322.583L218.337 314.866C218.337 314.635 218.757 314.509 219.134 314.572L220.979 314.929C221.336 314.929 221.587 315.243 221.525 315.474L219.428 323.191C219.365 323.421 219.008 323.547 218.631 323.484Z" fill="black"/>
<path opacity="0.6" d="M265.351 332.627L263.485 332.271C263.128 332.271 262.876 331.956 262.939 331.726L265.036 324.009C265.036 323.799 265.456 323.673 265.833 323.736L267.679 324.092C268.056 324.092 268.308 324.407 268.245 324.638L266.148 332.355C266.064 332.585 265.707 332.711 265.351 332.627Z" fill="black"/>
</svg>
