<svg width="923" height="705" viewBox="0 0 923 705" fill="none" xmlns="http://www.w3.org/2000/svg">
<path d="M976.125 616.167H0V616.655H976.125V616.167Z" fill="#E6E6E6"/>
<path d="M870.409 633.053H803.252V633.542H870.409V633.053Z" fill="#E6E6E6"/>
<path d="M506.901 633.053H486.832V633.542H506.901V633.053Z" fill="#E6E6E6"/>
<path d="M782.852 642.659H745.057V643.147H782.852V642.659Z" fill="#E6E6E6"/>
<path d="M225.738 634.205H141.42V634.693H225.738V634.205Z" fill="#E6E6E6"/>
<path d="M251.198 627.255H216.955V627.743H251.198V627.255Z" fill="#E6E6E6"/>
<path d="M623.432 647.93H440.545V648.418H623.432V647.93Z" fill="#E6E6E6"/>
<path d="M398.804 616.167H564.394C548.171 554.983 557.893 489.095 593.521 427.911H427.932C392.284 489.095 382.639 554.983 398.804 616.167Z" fill="white"/>
<path d="M393.164 515.821H560.55C566.298 484.834 577.446 455.098 593.484 427.969H426.118C410.079 455.1 398.926 484.835 393.164 515.821V515.821Z" fill="#E6E6E6"/>
<path d="M146.223 492.667L815.532 492.667C826.53 492.667 835.445 483.752 835.445 472.754V60.5562C835.445 49.5586 826.53 40.6433 815.532 40.6433L146.223 40.6433C135.225 40.6433 126.31 49.5586 126.31 60.5562V472.754C126.31 483.752 135.225 492.667 146.223 492.667Z" fill="#E6E6E6"/>
<path d="M155.614 492.667L824.923 492.667C835.921 492.667 844.836 483.752 844.836 472.754V60.5562C844.836 49.5586 835.921 40.6433 824.923 40.6433L155.614 40.6433C144.616 40.6433 135.701 49.5586 135.701 60.5562V472.754C135.701 483.752 144.616 492.667 155.614 492.667Z" fill="#C6BFA6"/>
<path d="M135.701 427.931L844.836 427.931V63.5435L135.701 63.5435V427.931Z" fill="#E1DFD7"/>
<path d="M490.285 474.687C497.778 474.687 503.853 468.612 503.853 461.119C503.853 453.625 497.778 447.551 490.285 447.551C482.791 447.551 476.717 453.625 476.717 461.119C476.717 468.612 482.791 474.687 490.285 474.687Z" fill="#E6E6E6"/>
<path d="M429.496 603.067H618.532C622.007 603.067 625.339 604.447 627.795 606.904C630.252 609.36 631.632 612.692 631.632 616.166H416.436C416.436 612.699 417.81 609.373 420.259 606.917C422.707 604.462 426.029 603.077 429.496 603.067V603.067Z" fill="#C6BFA6"/>
<path d="M384.596 603.067H418.448C421.918 603.072 425.245 604.455 427.698 606.911C430.15 609.367 431.528 612.696 431.528 616.167H371.398C371.401 614.439 371.745 612.729 372.41 611.134C373.075 609.54 374.049 608.092 375.275 606.875C376.502 605.658 377.956 604.695 379.556 604.041C381.155 603.388 382.868 603.057 384.596 603.067V603.067Z" fill="#E6E6E6"/>
<path d="M555.414 11.457C555.409 8.53316 554.245 5.73058 552.178 3.66314C550.11 1.59569 547.308 0.431919 544.384 0.426758H200.788C197.866 0.437047 195.066 1.60246 193 3.6688C190.934 5.73514 189.768 8.53475 189.758 11.457V46.9489H555.414V11.457Z" fill="#E6E6E6"/>
<path d="M466.254 32.034C470.858 32.034 474.59 28.3018 474.59 23.6979C474.59 19.094 470.858 15.3618 466.254 15.3618C461.65 15.3618 457.918 19.094 457.918 23.6979C457.918 28.3018 461.65 32.034 466.254 32.034Z" fill="#E1DFD7"/>
<path d="M495.795 32.034C500.399 32.034 504.131 28.3018 504.131 23.6979C504.131 19.094 500.399 15.3618 495.795 15.3618C491.191 15.3618 487.459 19.094 487.459 23.6979C487.459 28.3018 491.191 32.034 495.795 32.034Z" fill="#E1DFD7"/>
<path d="M525.35 32.034C529.954 32.034 533.686 28.3018 533.686 23.6979C533.686 19.094 529.954 15.3618 525.35 15.3618C520.746 15.3618 517.014 19.094 517.014 23.6979C517.014 28.3018 520.746 32.034 525.35 32.034Z" fill="#E1DFD7"/>
<path d="M200.888 286.002H544.484C547.404 285.997 550.204 284.836 552.271 282.773C554.337 280.709 555.503 277.912 555.514 274.991V46.949H189.857V274.991C189.873 277.91 191.041 280.705 193.106 282.767C195.172 284.829 197.969 285.992 200.888 286.002V286.002Z" fill="white"/>
<path d="M580.012 48.3547C580.002 45.4376 578.838 42.643 576.776 40.5803C574.713 38.5176 571.918 37.3543 569.001 37.344H225.503C222.582 37.3491 219.783 38.5102 217.716 40.5734C215.649 42.6367 214.483 45.4343 214.473 48.3547V83.8661H580.012V48.3547Z" fill="#C6BFA6"/>
<path d="M490.854 68.9312C495.458 68.9312 499.19 65.199 499.19 60.5951C499.19 55.9912 495.458 52.259 490.854 52.259C486.25 52.259 482.518 55.9912 482.518 60.5951C482.518 65.199 486.25 68.9312 490.854 68.9312Z" fill="#E6E6E6"/>
<path d="M520.412 68.9312C525.016 68.9312 528.748 65.199 528.748 60.5951C528.748 55.9912 525.016 52.259 520.412 52.259C515.808 52.259 512.076 55.9912 512.076 60.5951C512.076 65.199 515.808 68.9312 520.412 68.9312Z" fill="#E6E6E6"/>
<path d="M558.344 60.5951C558.344 62.2439 557.855 63.8556 556.939 65.2264C556.023 66.5973 554.721 67.6658 553.198 68.2967C551.675 68.9276 549.999 69.0927 548.382 68.7711C546.765 68.4494 545.279 67.6555 544.113 66.4897C542.948 65.3238 542.154 63.8385 541.832 62.2214C541.51 60.6044 541.675 58.9283 542.306 57.405C542.937 55.8818 544.006 54.5799 545.377 53.6639C546.748 52.7479 548.359 52.259 550.008 52.259C552.219 52.259 554.339 53.1373 555.903 54.7006C557.466 56.2639 558.344 58.3843 558.344 60.5951V60.5951Z" fill="#E6E6E6"/>
<path d="M225.503 322.919H569.099C572.019 322.909 574.817 321.743 576.88 319.676C578.943 317.609 580.104 314.809 580.11 311.889V83.8662H214.473V311.889C214.478 314.813 215.642 317.615 217.709 319.683C219.776 321.75 222.579 322.914 225.503 322.919V322.919Z" fill="#E1DFD7"/>
<path d="M604.631 85.2717C604.626 82.3479 603.462 79.5453 601.395 77.4778C599.327 75.4104 596.525 74.2466 593.601 74.2415H250.102C247.179 74.2466 244.376 75.4104 242.309 77.4778C240.241 79.5453 239.077 82.3479 239.072 85.2717V120.764H604.631V85.2717Z" fill="white"/>
<path d="M515.471 105.848C520.075 105.848 523.807 102.116 523.807 97.5124C523.807 92.9085 520.075 89.1763 515.471 89.1763C510.867 89.1763 507.135 92.9085 507.135 97.5124C507.135 102.116 510.867 105.848 515.471 105.848Z" fill="#F0F0F0"/>
<path d="M545.01 105.848C549.614 105.848 553.346 102.116 553.346 97.5124C553.346 92.9085 549.614 89.1763 545.01 89.1763C540.406 89.1763 536.674 92.9085 536.674 97.5124C536.674 102.116 540.406 105.848 545.01 105.848Z" fill="#F0F0F0"/>
<path d="M582.903 97.5124C582.906 99.1658 582.42 100.783 581.504 102.16C580.588 103.536 579.285 104.61 577.758 105.246C576.232 105.881 574.551 106.05 572.929 105.729C571.307 105.409 569.816 104.615 568.646 103.447C567.475 102.279 566.677 100.791 566.353 99.1692C566.029 97.5478 566.194 95.8668 566.826 94.3389C567.457 92.8109 568.528 91.5048 569.903 90.5858C571.277 89.6668 572.894 89.1763 574.547 89.1763C576.76 89.1763 578.882 90.0539 580.448 91.6167C582.015 93.1794 582.897 95.2997 582.903 97.5124Z" fill="#F0F0F0"/>
<path d="M250.102 359.836H593.698C596.621 359.826 599.42 358.66 601.487 356.594C603.553 354.528 604.718 351.728 604.729 348.806V120.764H239.072V348.806C239.083 351.728 240.248 354.528 242.314 356.594C244.381 358.66 247.18 359.826 250.102 359.836V359.836Z" fill="#E6E6E6"/>
<path opacity="0.5" d="M696.953 217.907H571.053V405.909H759.074V217.907H696.953ZM634.774 219.372H695.47V280.087H634.716L634.774 219.372ZM695.47 342.266H634.716V281.551H695.411L695.47 342.266ZM572.595 219.372H633.29V280.087H572.536L572.595 219.372ZM572.595 281.551H633.29V342.266H572.536L572.595 281.551ZM633.232 404.543H572.536V343.828H633.232V404.543ZM695.411 404.543H634.716V343.828H695.411V404.543ZM757.59 404.543H696.953V343.828H757.649L757.59 404.543ZM757.59 342.363H696.953V281.551H757.649L757.59 342.363ZM696.953 280.087V219.372H757.649V280.087H696.953Z" fill="#E6E6E6"/>
<path d="M646.155 188.956L865.607 188.956V89.1568L646.155 89.1568V188.956Z" fill="#C6BFA6"/>
<path d="M865.605 128.065V188.975H646.191V113.326C682.601 113.326 702.026 146.709 747.064 146.709C792.103 146.709 805.671 128.065 865.605 128.065Z" fill="#E1DFD7"/>
<path d="M865.609 157.173C816.295 157.173 800.013 135.366 772.311 135.366C744.608 135.366 731.001 158.266 696.485 158.266C660.525 158.266 646.156 140.266 646.156 140.266V189.073H865.609V157.173Z" fill="#E6E6E6"/>
<path d="M488.065 704.33C697.116 704.33 866.586 694.436 866.586 682.231C866.586 670.026 697.116 660.131 488.065 660.131C279.013 660.131 109.543 670.026 109.543 682.231C109.543 694.436 279.013 704.33 488.065 704.33Z" fill="#C6BFA6"/>
<path d="M394.353 282.566C386.177 253.312 389.43 222.043 403.452 195.098C417.473 168.152 441.216 147.546 469.866 137.455L477.226 160.765C454.787 168.932 436.229 185.221 425.221 206.411C414.214 227.602 411.558 252.152 417.78 275.206L394.353 282.566Z" fill="#FBEDC7"/>
<path d="M454.072 356.205C444.87 351.453 436.336 345.506 428.693 338.518C414.191 325.224 403.188 308.561 396.656 290.004L419.966 282.644C425.414 297.742 434.592 311.217 446.645 321.816C458.698 332.415 473.236 339.794 488.906 343.267C504.576 346.741 520.87 346.196 536.273 341.682C551.676 337.169 565.688 328.834 577.005 317.453L595.024 333.969C577.001 352.27 553.583 364.306 528.211 368.308C502.84 372.311 476.853 368.069 454.072 356.205V356.205Z" fill="#FBEDC7"/>
<path opacity="0.7" d="M454.072 356.205C444.87 351.453 436.336 345.506 428.693 338.518C414.191 325.224 403.188 308.561 396.656 290.004L419.966 282.644C425.414 297.742 434.592 311.217 446.645 321.816C458.698 332.415 473.236 339.794 488.906 343.267C504.576 346.741 520.87 346.196 536.273 341.682C551.676 337.169 565.688 328.834 577.005 317.453L595.024 333.969C577.001 352.27 553.583 364.306 528.211 368.308C502.84 372.311 476.853 368.069 454.072 356.205V356.205Z" fill="#E1DFD7"/>
<path d="M582.377 311.694C595.457 296.189 603.242 276.911 604.597 256.671C605.952 236.431 600.807 216.288 589.91 199.178C579.013 182.068 562.936 168.886 544.021 161.555C525.107 154.224 504.346 153.126 484.764 158.423L477.404 134.996C507.319 126.618 539.32 130.199 566.643 144.982C593.966 159.766 614.47 184.593 623.823 214.218C629.904 233.622 630.955 254.254 626.878 274.176C622.801 294.098 613.729 312.657 600.513 328.112L582.377 311.694Z" fill="#FBEDC7"/>
<path opacity="0.3" d="M582.377 311.694C595.457 296.189 603.242 276.911 604.597 256.671C605.952 236.431 600.807 216.288 589.91 199.178C579.013 182.068 562.936 168.886 544.021 161.555C525.107 154.224 504.346 153.126 484.764 158.423L477.404 134.996C507.319 126.618 539.32 130.199 566.643 144.982C593.966 159.766 614.47 184.593 623.823 214.218C629.904 233.622 630.955 254.254 626.878 274.176C622.801 294.098 613.729 312.657 600.513 328.112L582.377 311.694Z" fill="black"/>
<path d="M531.89 221.422C529.132 218.662 525.857 216.472 522.252 214.978C518.647 213.484 514.783 212.715 510.881 212.714C506.979 212.713 503.115 213.48 499.51 214.973C495.904 216.465 492.628 218.653 489.868 221.412C487.108 224.17 484.919 227.446 483.425 231.05C481.931 234.655 481.161 238.519 481.16 242.421C481.159 246.323 481.927 250.187 483.419 253.793C484.912 257.398 487.1 260.674 489.858 263.434L510.865 284.44L531.89 263.434C537.46 257.862 540.589 250.306 540.589 242.428C540.589 234.549 537.46 226.994 531.89 221.422V221.422Z" fill="#FBEDC7"/>
<path opacity="0.3" d="M531.89 221.422C529.132 218.662 525.857 216.472 522.252 214.978C518.647 213.484 514.783 212.715 510.881 212.714C506.979 212.713 503.115 213.48 499.51 214.973C495.904 216.465 492.628 218.653 489.868 221.412C487.108 224.17 484.919 227.446 483.425 231.05C481.931 234.655 481.161 238.519 481.16 242.421C481.159 246.323 481.927 250.187 483.419 253.793C484.912 257.398 487.1 260.674 489.858 263.434L510.865 284.44L531.89 263.434C537.46 257.862 540.589 250.306 540.589 242.428C540.589 234.549 537.46 226.994 531.89 221.422V221.422Z" fill="black"/>
<path d="M512.056 290.668H509.713V300.039H512.056V290.668Z" fill="#FBEDC7"/>
<path opacity="0.3" d="M512.056 290.668H509.713V300.039H512.056V290.668Z" fill="black"/>
<path d="M512.056 307.282H509.713V316.653H512.056V307.282Z" fill="#FBEDC7"/>
<path opacity="0.3" d="M512.056 307.282H509.713V316.653H512.056V307.282Z" fill="black"/>
<path d="M429.787 383.107H350.271V671.025H429.787V383.107Z" fill="#FBEDC7"/>
<path opacity="0.7" d="M429.787 383.107H350.271V671.025H429.787V383.107Z" fill="#E1DFD7"/>
<path d="M467.952 383.107H429.785V671.025H467.952V383.107Z" fill="#FBEDC7"/>
<path opacity="0.5" d="M467.952 383.107H429.785V671.025H467.952V383.107Z" fill="#E1DFD7"/>
<path d="M576.812 489.075H574.781V533.899H576.812V489.075Z" fill="#263238"/>
<path d="M576.812 462.72H574.781V480.739H576.812V462.72Z" fill="#263238"/>
<path d="M633.291 561.699H553.775V671.025H633.291V561.699Z" fill="#FBEDC7"/>
<path opacity="0.5" d="M633.291 561.699H553.775V671.025H633.291V561.699Z" fill="black"/>
<path d="M671.456 561.699H633.289V671.025H671.456V561.699Z" fill="#FBEDC7"/>
<path opacity="0.6" d="M671.456 561.699H633.289V671.025H671.456V561.699Z" fill="black"/>
<path d="M531.537 322.236H452.021V671.025H531.537V322.236Z" fill="#FBEDC7"/>
<path opacity="0.7" d="M531.537 322.236H452.021V671.025H531.537V322.236Z" fill="black"/>
<path d="M569.706 322.236H531.539V671.025H569.706V322.236Z" fill="#FBEDC7"/>
<path opacity="0.8" d="M569.706 322.236H531.539V671.025H569.706V322.236Z" fill="black"/>
<path d="M687.643 241.784C684.909 263.376 681.473 285.026 678.408 306.442C678.028 309.571 677.461 312.674 676.71 315.735C675.832 318.87 674.709 321.932 673.352 324.891C670.763 330.458 667.526 335.7 663.708 340.509C660.071 345.13 656.062 349.446 651.721 353.413C649.613 355.366 647.368 357.318 645.103 359.016C642.838 360.715 640.593 362.472 637.997 364.17L631.066 355.522C632.687 353.726 634.522 351.617 636.181 349.665C637.841 347.713 639.481 345.604 641.081 343.535C644.211 339.489 647.074 335.244 649.652 330.826C652.136 326.682 654.183 322.292 655.762 317.726C656.489 315.614 657.043 313.446 657.422 311.245C657.764 308.935 657.985 306.608 658.086 304.275C658.808 293.186 659.901 282.215 661.112 271.263C662.322 260.311 663.767 249.495 665.485 238.602L687.643 241.784Z" fill="#E58A7B"/>
<path d="M692.503 234.366C697.481 247.582 672.278 286.491 672.278 286.491L642.74 270.463C647.184 258.354 652.925 246.762 659.861 235.888C670.247 220.309 687.056 219.86 692.503 234.366Z" fill="#FBEDC7"/>
<path opacity="0.2" d="M692.503 234.366C697.481 247.582 672.278 286.491 672.278 286.491L642.74 270.463C647.184 258.354 652.925 246.762 659.861 235.888C670.247 220.309 687.056 219.86 692.503 234.366Z" fill="black"/>
<path d="M674.972 224.253C674.972 224.253 657.539 268.862 674.094 351.91H753.101C753.648 339.787 746.015 280.634 757.709 223.511C748.98 221.818 740.15 220.696 731.275 220.153C720.092 219.508 708.88 219.508 697.696 220.153C690.027 220.926 682.429 222.296 674.972 224.253V224.253Z" fill="#FBEDC7"/>
<path opacity="0.2" d="M674.972 224.253C674.972 224.253 657.539 268.862 674.094 351.91H753.101C753.648 339.787 746.015 280.634 757.709 223.511C748.98 221.818 740.15 220.696 731.275 220.153C720.092 219.508 708.88 219.508 697.696 220.153C690.027 220.926 682.429 222.296 674.972 224.253V224.253Z" fill="black"/>
<path d="M685.456 664.036H670.697L666.754 629.833H681.532L685.456 664.036Z" fill="#E58A7B"/>
<path d="M789.396 664.036H774.637L763.119 629.833H777.898L789.396 664.036Z" fill="#E58A7B"/>
<path d="M772.662 662.24H790.662C790.956 662.238 791.241 662.339 791.468 662.524C791.696 662.709 791.853 662.967 791.912 663.255L794.84 676.394C794.904 676.713 794.896 677.042 794.816 677.358C794.737 677.673 794.587 677.967 794.38 678.218C794.172 678.469 793.911 678.67 793.616 678.807C793.321 678.944 792.998 679.013 792.673 679.01C786.816 678.912 782.658 678.58 775.356 678.58C770.866 678.58 761.691 679.049 755.424 679.049C749.157 679.049 748.415 672.919 750.953 672.352C762.335 669.873 766.571 666.496 770.261 663.157C770.92 662.564 771.776 662.237 772.662 662.24V662.24Z" fill="#263238"/>
<path d="M670.798 662.24H686.923C687.218 662.241 687.504 662.342 687.735 662.526C687.965 662.711 688.126 662.967 688.192 663.255L691.101 676.394C691.172 676.71 691.17 677.039 691.096 677.355C691.021 677.671 690.876 677.966 690.671 678.217C690.467 678.469 690.207 678.671 689.913 678.808C689.619 678.946 689.298 679.014 688.973 679.01C683.116 678.912 674.741 678.58 667.498 678.58C658.948 678.58 651.568 679.049 641.533 679.049C635.462 679.049 633.724 672.919 636.321 672.352C647.878 669.834 657.308 669.561 667.303 663.392C668.341 662.696 669.55 662.298 670.798 662.24Z" fill="#263238"/>
<path d="M636.436 349.88L624.059 360.227L640.321 369.773C642.718 367.922 644.46 365.353 645.292 362.441C646.125 359.529 646.004 356.427 644.948 353.589L636.436 349.88Z" fill="#E58A7B"/>
<path d="M666.773 629.852L668.784 647.481H683.563L681.532 629.852H666.773Z" fill="#CF6F64"/>
<path d="M777.898 629.852H763.119L769.054 647.481H783.832L777.898 629.852Z" fill="#CF6F64"/>
<path opacity="0.2" d="M741.622 250.803C744.199 237.762 749.216 240.027 753.979 246.45C751.944 263.735 751.005 281.132 751.168 298.536C747.927 293.011 737.307 272.649 741.622 250.803Z" fill="black"/>
<path d="M727.937 182.357C725.829 193.153 723.72 212.949 731.275 220.153C731.275 220.153 728.327 231.125 708.239 231.125C686.159 231.125 697.697 220.172 697.697 220.172C709.742 217.283 709.41 208.342 707.321 199.947L727.937 182.357Z" fill="#E58A7B"/>
<path d="M719.543 189.542L707.342 199.947C707.863 201.897 708.209 203.89 708.376 205.901C712.984 205.238 719.309 200.181 719.797 195.359C720.062 193.42 719.976 191.45 719.543 189.542V189.542Z" fill="#CF6F64"/>
<path d="M693.597 149.111C686.334 152.195 682.391 172.538 691.645 177.242C700.898 181.947 707.36 143.293 693.597 149.111Z" fill="#263238"/>
<path d="M729.226 166.095C728.328 180.717 728.543 189.327 721.164 196.843C710.055 208.127 691.978 201.431 688.503 186.828C685.359 173.689 687.351 151.961 701.68 146.143C704.832 144.846 708.262 144.376 711.647 144.778C715.031 145.18 718.256 146.44 721.016 148.439C723.776 150.438 725.979 153.11 727.416 156.2C728.853 159.29 729.476 162.696 729.226 166.095Z" fill="#E58A7B"/>
<path d="M684.107 139.935C692.951 126.523 694.337 132.985 694.2 139.369C702.009 131.989 716.436 122.579 723.484 131.169C724.319 132.056 724.861 133.176 725.039 134.381C725.217 135.585 725.022 136.815 724.48 137.905C733.558 135.484 742.714 134.801 741.054 144.601C739.59 153.269 733.401 156.451 724.733 156.51C709.194 158.657 671.574 158.872 684.107 139.935Z" fill="#263238"/>
<path d="M728.19 180.425C720.381 183.607 704.665 154.928 728.307 151.551C751.949 148.174 740.704 175.29 728.19 180.425Z" fill="#263238"/>
<path d="M735.842 182.221C733.866 185.332 730.745 187.54 727.154 188.37C722.391 189.425 720.263 185.091 721.825 180.717C723.23 176.813 727.389 171.522 732.074 172.42C733.094 172.638 734.043 173.107 734.835 173.785C735.628 174.462 736.239 175.327 736.613 176.3C736.987 177.273 737.113 178.324 736.978 179.358C736.843 180.392 736.453 181.376 735.842 182.221V182.221Z" fill="#E58A7B"/>
<path d="M743.557 155.982C742.471 154.773 741.101 153.854 739.57 153.309C738.039 152.763 736.397 152.609 734.791 152.859C734.791 152.859 742.424 146.846 743.557 155.982Z" fill="#263238"/>
<path d="M674.095 351.832C674.095 351.832 632.532 457.449 634.055 502.507C635.714 549.361 663.338 644.064 663.338 644.064H688.366C688.366 644.064 678.117 552.074 679.23 506.079C680.44 455.906 726.084 351.852 726.084 351.852L674.095 351.832Z" fill="#FBEDC7"/>
<path opacity="0.2" d="M707.281 386.797L709.682 392.244C700.922 414.815 693.312 437.816 686.88 461.158C686.197 434.529 691.702 405.168 707.281 386.797Z" fill="black"/>
<path d="M702.126 351.832C702.126 351.832 693.712 459.83 702.907 502.155C712.981 548.463 762.099 644.025 762.099 644.025H789.157C789.157 644.025 752.963 552.27 747.203 506.353C740.976 456.59 753.06 351.871 753.06 351.871L702.126 351.832Z" fill="#FBEDC7"/>
<path d="M707.05 170.273C707.05 171.464 706.405 172.44 705.624 172.44C704.843 172.44 704.219 171.464 704.219 170.273C704.219 169.082 704.843 168.125 705.624 168.125C706.405 168.125 707.05 168.984 707.05 170.273Z" fill="#263238"/>
<path d="M693.579 170.273C693.579 171.464 692.935 172.44 692.173 172.44C691.412 172.44 690.748 171.464 690.748 170.273C690.748 169.082 691.392 168.125 692.173 168.125C692.954 168.125 693.579 168.984 693.579 170.273Z" fill="#263238"/>
<path d="M697.853 170.781C696.433 174.414 694.521 177.837 692.172 180.952C692.983 181.535 693.912 181.934 694.893 182.119C695.875 182.305 696.885 182.273 697.853 182.025V170.781Z" fill="#DF5753"/>
<path d="M701.328 185.325C701.235 185.325 701.145 185.288 701.08 185.222C701.014 185.156 700.977 185.067 700.977 184.973C700.977 184.88 701.014 184.791 701.08 184.725C701.145 184.659 701.235 184.622 701.328 184.622C702.81 184.655 704.279 184.338 705.615 183.697C706.952 183.056 708.118 182.109 709.02 180.932C709.045 180.894 709.078 180.861 709.117 180.835C709.155 180.809 709.198 180.791 709.244 180.782C709.289 180.773 709.336 180.773 709.381 180.782C709.426 180.791 709.469 180.809 709.508 180.835C709.58 180.886 709.631 180.963 709.649 181.05C709.667 181.137 709.651 181.227 709.606 181.303C708.653 182.593 707.403 183.632 705.961 184.332C704.52 185.033 702.93 185.373 701.328 185.325V185.325Z" fill="#263238"/>
<path d="M711.09 165.841C710.985 165.838 710.881 165.813 710.787 165.765C710.692 165.718 710.609 165.651 710.544 165.568C710.034 164.85 709.361 164.263 708.581 163.856C707.8 163.449 706.934 163.233 706.054 163.225C705.961 163.233 705.867 163.222 705.779 163.193C705.69 163.163 705.609 163.116 705.539 163.054C705.47 162.992 705.414 162.916 705.375 162.831C705.335 162.747 705.314 162.655 705.312 162.562C705.301 162.378 705.362 162.198 705.483 162.059C705.603 161.921 705.773 161.835 705.956 161.82C707.067 161.813 708.164 162.072 709.156 162.575C710.147 163.077 711.005 163.809 711.657 164.709C711.768 164.86 711.815 165.049 711.79 165.235C711.764 165.42 711.667 165.589 711.52 165.705C711.391 165.788 711.243 165.835 711.09 165.841Z" fill="#263238"/>
<path d="M687.682 165.548C687.579 165.567 687.473 165.567 687.37 165.548C687.287 165.509 687.212 165.453 687.151 165.384C687.089 165.315 687.043 165.234 687.014 165.147C686.984 165.059 686.973 164.967 686.981 164.875C686.988 164.783 687.015 164.693 687.058 164.611C687.519 163.606 688.216 162.726 689.089 162.046C689.962 161.366 690.987 160.907 692.075 160.707C692.248 160.704 692.416 160.765 692.547 160.878C692.678 160.992 692.762 161.149 692.784 161.321C692.806 161.493 692.763 161.667 692.665 161.809C692.566 161.951 692.419 162.053 692.251 162.093V162.093C691.398 162.278 690.601 162.661 689.923 163.21C689.244 163.759 688.705 164.46 688.346 165.256C688.274 165.362 688.174 165.446 688.056 165.497C687.939 165.549 687.809 165.567 687.682 165.548Z" fill="#263238"/>
<path d="M763.331 234.99C764.6 237.723 765.673 240.163 766.689 242.799C767.704 245.435 768.641 247.933 769.676 250.608C771.628 255.801 773.248 261.072 774.732 266.441C776.216 271.809 777.445 277.295 778.461 282.879L779.163 287.076L779.671 291.371C779.866 292.796 779.944 294.26 780.061 295.724L780.198 297.911V298.458V299.375C780.198 300.059 780.198 300.683 780.198 301.327C779.811 305.172 778.698 308.909 776.918 312.338C775.531 315.096 773.959 317.757 772.213 320.303C768.979 324.959 765.438 329.394 761.613 333.579C754.254 341.682 746.271 349.195 737.737 356.049L729.928 348.24C736.312 340.08 742.676 331.646 748.474 323.271C751.297 319.193 753.903 314.971 756.283 310.62C757.372 308.667 758.318 306.638 759.114 304.549C759.693 303.214 760.024 301.785 760.09 300.332C760.09 300.332 760.09 300.332 760.09 300.332C760.09 300.332 760.09 300.449 760.09 300.332V299.883L759.817 298.126C759.641 296.935 759.485 295.764 759.211 294.573L758.509 291L757.669 287.408C756.478 282.605 755.131 277.783 753.569 272.981C752.008 268.178 750.348 263.395 748.572 258.612C746.795 253.829 744.843 249.007 743.027 244.595L763.331 234.99Z" fill="#E58A7B"/>
<path d="M767.764 664.915C766.761 664.991 765.763 664.722 764.933 664.153C764.654 663.918 764.441 663.615 764.315 663.272C764.188 662.93 764.152 662.561 764.211 662.201C764.21 662 764.264 661.803 764.367 661.631C764.47 661.458 764.619 661.318 764.797 661.225C766.456 660.385 771.2 663.314 771.747 663.646C771.804 663.683 771.85 663.736 771.877 663.798C771.905 663.86 771.914 663.93 771.903 663.997C771.89 664.067 771.858 664.132 771.809 664.183C771.761 664.235 771.698 664.272 771.63 664.29C770.368 664.637 769.071 664.846 767.764 664.915ZM765.578 661.85C765.422 661.837 765.266 661.871 765.129 661.947C765.031 661.947 764.914 662.084 764.894 662.357C764.87 662.592 764.902 662.829 764.987 663.05C765.072 663.27 765.207 663.468 765.382 663.626C767.032 664.368 768.901 664.459 770.615 663.88C769.082 662.885 767.372 662.195 765.578 661.85V661.85Z" fill="#FBEDC7"/>
<path d="M771.55 664.387H771.394C769.852 663.548 766.904 660.327 767.216 658.667C767.27 658.411 767.409 658.18 767.611 658.013C767.814 657.846 768.067 657.753 768.329 657.75C768.594 657.719 768.862 657.744 769.117 657.821C769.373 657.898 769.609 658.027 769.813 658.199C771.531 659.604 771.882 663.86 771.902 664.056C771.903 664.116 771.89 664.177 771.863 664.231C771.835 664.286 771.795 664.333 771.746 664.368C771.684 664.394 771.616 664.401 771.55 664.387ZM768.583 658.335H768.407C767.958 658.335 767.919 658.589 767.9 658.687C767.724 659.663 769.598 662.103 771.121 663.255C771.014 661.574 770.409 659.964 769.383 658.628C769.16 658.438 768.876 658.335 768.583 658.335Z" fill="#FBEDC7"/>
<path d="M664.645 664.914C663.385 665.027 662.123 664.703 661.073 663.997C660.832 663.789 660.646 663.526 660.53 663.23C660.415 662.934 660.373 662.614 660.409 662.298C660.42 662.108 660.477 661.923 660.576 661.76C660.675 661.596 660.812 661.46 660.975 661.361C662.791 660.366 668.784 663.314 669.389 663.724C669.457 663.756 669.512 663.809 669.547 663.875C669.583 663.942 669.596 664.017 669.585 664.091C669.574 664.166 669.539 664.234 669.487 664.287C669.434 664.341 669.366 664.376 669.292 664.387C667.762 664.701 666.207 664.877 664.645 664.914V664.914ZM661.971 661.849C661.748 661.835 661.525 661.882 661.327 661.986C661.257 662.018 661.199 662.071 661.16 662.137C661.122 662.204 661.105 662.281 661.112 662.357C661.083 662.562 661.105 662.771 661.176 662.965C661.248 663.159 661.367 663.333 661.522 663.47C662.439 664.29 664.88 664.426 668.12 663.88C666.201 662.857 664.122 662.17 661.971 661.849V661.849Z" fill="#FBEDC7"/>
<path d="M669.233 664.387C669.183 664.405 669.128 664.405 669.077 664.387C667.301 663.587 663.767 660.483 664.04 658.726C664.04 658.335 664.372 657.847 665.348 657.75C665.698 657.714 666.051 657.75 666.386 657.854C666.721 657.958 667.032 658.128 667.301 658.355C669.253 659.897 669.585 663.88 669.585 664.036C669.594 664.098 669.586 664.162 669.562 664.221C669.538 664.279 669.499 664.33 669.448 664.368C669.38 664.395 669.305 664.402 669.233 664.387V664.387ZM665.719 658.335H665.505C664.88 658.335 664.841 658.648 664.821 658.726C664.665 659.721 667.066 662.24 668.882 663.333C668.717 661.652 668.035 660.063 666.93 658.784C666.595 658.491 666.164 658.332 665.719 658.335V658.335Z" fill="#FBEDC7"/>
<path d="M733.345 346.073L718.859 349.977L730.866 364.541C730.866 364.541 742.482 358.509 739.983 352.008L733.345 346.073Z" fill="#E58A7B"/>
<path d="M711.365 359.719L721.849 371.277L730.868 364.483L718.862 349.919L711.365 359.719Z" fill="#E58A7B"/>
<path d="M757.32 644.65H792.695V635.123L753.162 634.518L757.32 644.65Z" fill="#FBEDC7"/>
<path opacity="0.4" d="M757.32 644.65H792.695V635.123L753.162 634.518L757.32 644.65Z" fill="black"/>
<path d="M657.656 644.65H693.031V635.025L653.498 634.518L657.656 644.65Z" fill="#FBEDC7"/>
<path opacity="0.4" d="M657.656 644.65H693.031V635.025L653.498 634.518L657.656 644.65Z" fill="black"/>
<path d="M760.794 224.467C773.972 229.543 787.149 276.28 787.149 276.28L752.009 290.102C752.009 290.102 741.525 265.933 737.953 247.972C734.282 229.133 745.859 218.728 760.794 224.467Z" fill="#FBEDC7"/>
<path opacity="0.2" d="M760.794 224.467C773.972 229.543 787.149 276.28 787.149 276.28L752.009 290.102C752.009 290.102 741.525 265.933 737.953 247.972C734.282 229.133 745.859 218.728 760.794 224.467Z" fill="black"/>
<path d="M618.34 298.633C614.597 311.684 614.972 325.571 619.413 338.401C623.476 350.341 630.891 360.86 640.771 368.7C653.932 379.12 670.559 384.152 687.29 382.78C704.02 381.407 719.605 373.732 730.892 361.307C742.179 348.881 748.326 332.633 748.09 315.848C747.853 299.063 741.251 282.994 729.618 270.892V270.892C721.627 262.571 711.578 256.509 700.49 253.322C690.237 250.356 679.42 249.902 668.954 251.999C658.488 254.095 648.681 258.681 640.361 265.367C638.846 266.588 637.399 267.892 636.027 269.272C627.648 277.33 621.547 287.459 618.34 298.633V298.633Z" fill="#FBEDC7"/>
<path opacity="0.6" d="M618.34 298.633C614.597 311.684 614.972 325.571 619.413 338.401C623.476 350.341 630.891 360.86 640.771 368.7C653.932 379.12 670.559 384.152 687.29 382.78C704.02 381.407 719.605 373.732 730.892 361.307C742.179 348.881 748.326 332.633 748.09 315.848C747.853 299.063 741.251 282.994 729.618 270.892V270.892C721.627 262.571 711.578 256.509 700.49 253.322C690.237 250.356 679.42 249.902 668.954 251.999C658.488 254.095 648.681 258.681 640.361 265.367C638.846 266.588 637.399 267.892 636.027 269.272C627.648 277.33 621.547 287.459 618.34 298.633V298.633Z" fill="black"/>
<path d="M721.301 268.295L673.666 314.271L655.412 377.914C669.421 381.937 684.366 381.223 697.929 375.885C711.491 370.546 722.913 360.881 730.422 348.389C737.93 335.897 741.106 321.275 739.457 306.794C737.808 292.312 731.426 278.78 721.301 268.295V268.295Z" fill="#FBEDC7"/>
<path opacity="0.9" d="M721.301 268.295L673.666 314.271L655.412 377.914C669.421 381.937 684.366 381.223 697.929 375.885C711.491 370.546 722.913 360.881 730.422 348.389C737.93 335.897 741.106 321.275 739.457 306.794C737.808 292.312 731.426 278.78 721.301 268.295V268.295Z" fill="#E1DFD7"/>
<g opacity="0.7">
<path d="M673.665 314.271L721.3 268.276C713.226 259.911 703.093 253.821 691.918 250.616C680.744 247.411 668.922 247.205 657.643 250.019C646.364 252.833 636.024 258.567 627.665 266.645C619.305 274.723 613.22 284.86 610.021 296.037L673.665 314.271Z" fill="#FBEDC7"/>
<path opacity="0.44" d="M673.665 314.271L721.3 268.276C713.226 259.911 703.093 253.821 691.918 250.616C680.744 247.411 668.922 247.205 657.643 250.019C646.364 252.833 636.024 258.567 627.665 266.645C619.305 274.723 613.22 284.86 610.021 296.037L673.665 314.271Z" fill="#E1DFD7"/>
</g>
<path d="M623.041 369.012L637.39 373.541L640.26 369.832L623.998 360.285L623.041 369.012Z" fill="#E58A7B"/>
<path d="M673.665 314.271L610.041 296.037C605.209 312.913 607.275 331.018 615.787 346.371C624.298 361.725 638.557 373.07 655.431 377.914L673.665 314.271Z" fill="#FBEDC7"/>
<path opacity="0.6" d="M673.665 314.271L610.041 296.037C605.209 312.913 607.275 331.018 615.787 346.371C624.298 361.725 638.557 373.07 655.431 377.914L673.665 314.271Z" fill="black"/>
<path d="M308.927 224.663C305.511 228.157 301.841 232.023 298.463 235.888C295.086 239.754 291.689 243.697 288.507 247.738C285.324 251.779 282.318 255.938 279.429 260.135L277.32 263.317L275.368 266.538C274.704 267.612 274.08 268.705 273.416 269.799L271.795 272.786C271.137 274.49 270.761 276.29 270.683 278.115C270.526 280.468 270.526 282.829 270.683 285.182C271.048 290.246 271.699 295.284 272.635 300.273C273.513 305.388 274.587 310.523 275.856 315.618C277.125 320.713 278.374 325.906 279.761 330.943L272.244 333.754C267.691 323.809 263.887 313.538 260.863 303.026C259.304 297.626 258.111 292.128 257.29 286.569C256.879 283.599 256.67 280.605 256.665 277.608C256.612 274.074 257.207 270.56 258.422 267.241C258.891 266.109 259.145 265.64 259.457 264.977L260.375 263.024C260.98 261.736 261.624 260.467 262.327 259.237L264.279 255.508L266.427 251.877C269.297 247.101 272.418 242.481 275.778 238.036C279.097 233.604 282.533 229.27 286.164 225.112C289.795 220.953 293.485 216.971 297.682 212.969L308.927 224.663Z" fill="#E58A7B"/>
<path d="M277.692 327.761L291.046 331.665L282.163 340.685C282.163 340.685 272.538 337.717 271.191 331.158L277.692 327.761Z" fill="#E58A7B"/>
<path d="M299.147 342.012L296.882 350.622L282.162 340.743L291.045 331.743L299.147 342.012Z" fill="#E58A7B"/>
<path d="M179.611 584.052L190.544 595.785L220.218 574.545L209.266 562.812L179.611 584.052Z" fill="#E58A7B"/>
<path d="M324.683 627.041L322.067 647.227L306.43 644.611L308.85 625.87L324.683 627.041Z" fill="#CF6F64"/>
<path d="M209.266 562.812L220.198 574.564L207.919 583.349L196.596 571.87L209.266 562.812Z" fill="#CF6F64"/>
<path d="M352.073 305.701C352.073 305.701 321.15 409.267 306.039 468.967C290.109 531.888 214.03 583.193 214.03 583.193L197.787 567.048C197.787 567.048 248.643 524.099 264.164 465.395C295.517 346.171 280.445 320.928 305.434 296.681L352.073 305.701Z" fill="#FBEDC7"/>
<path opacity="0.6" d="M352.073 305.701C352.073 305.701 321.15 409.267 306.039 468.967C290.109 531.888 214.03 583.193 214.03 583.193L197.787 567.048C197.787 567.048 248.643 524.099 264.164 465.395C295.517 346.171 280.445 320.928 305.434 296.681L352.073 305.701Z" fill="black"/>
<path d="M195.327 593.911L186.21 578.293C186.061 578.022 185.818 577.815 185.526 577.711C185.235 577.606 184.916 577.612 184.629 577.727L171.627 582.959C171.304 583.112 171.017 583.331 170.784 583.602C170.551 583.873 170.378 584.19 170.275 584.532C170.172 584.874 170.141 585.234 170.186 585.588C170.231 585.943 170.349 586.284 170.533 586.59C173.813 591.959 175.648 594.399 179.67 601.251C182.149 605.468 185.332 611.872 188.728 617.689C192.125 623.507 197.924 620.54 197.006 617.826C192.906 605.624 195.054 602.091 195.854 596.664C195.999 595.713 195.813 594.741 195.327 593.911V593.911Z" fill="#263238"/>
<path d="M215.417 585.497L195.152 565.33L200.658 559.22L225.334 580.226L215.417 585.497Z" fill="#C6BFA6"/>
<path opacity="0.3" d="M337.548 327.761C317.264 343.379 315.898 403.04 316.366 429.981C326.694 392.322 338.895 350.407 346.021 326.179C344.069 324.501 341.277 324.871 337.548 327.761Z" fill="black"/>
<path d="M198.605 602.423C198.413 602.419 198.222 602.386 198.039 602.326C196.087 601.74 194.74 598.206 194.135 596.156C194.112 596.084 194.111 596.007 194.132 595.934C194.153 595.861 194.195 595.796 194.252 595.746C194.311 595.704 194.383 595.68 194.457 595.68C194.53 595.68 194.602 595.704 194.662 595.746C195.247 596.039 200.382 598.714 200.518 600.744C200.539 600.964 200.504 601.185 200.415 601.386C200.326 601.588 200.187 601.763 200.011 601.896C199.615 602.225 199.12 602.411 198.605 602.423V602.423ZM195.111 596.82C196.067 599.534 197.219 601.291 198.254 601.623C198.484 601.681 198.725 601.679 198.954 601.618C199.183 601.556 199.392 601.437 199.562 601.271C199.645 601.222 199.711 601.15 199.753 601.063C199.794 600.976 199.81 600.879 199.796 600.783C199.679 599.768 197.18 597.952 195.111 596.82Z" fill="#FBEDC7"/>
<path d="M199.132 597.484C197.443 597.479 195.776 597.099 194.251 596.371C194.199 596.333 194.156 596.283 194.127 596.225C194.097 596.168 194.082 596.104 194.082 596.039C194.082 595.974 194.097 595.91 194.127 595.853C194.156 595.795 194.199 595.745 194.251 595.707C194.427 595.707 198.273 593.384 200.459 594.106C200.743 594.187 201.004 594.331 201.224 594.527C201.443 594.723 201.616 594.966 201.728 595.239C201.879 595.5 201.935 595.805 201.889 596.103C201.843 596.401 201.697 596.675 201.475 596.878C200.785 597.341 199.959 597.554 199.132 597.484V597.484ZM195.227 596.019C197.024 596.742 200.128 597.035 200.948 596.312C201.084 596.195 201.201 596 200.948 595.551C200.874 595.374 200.763 595.216 200.621 595.088C200.479 594.959 200.311 594.864 200.128 594.809C198.41 594.711 196.702 595.133 195.227 596.019V596.019Z" fill="#FBEDC7"/>
<path d="M304.164 662.201L319.997 663.372L324.682 627.021L308.869 625.85L304.164 662.201Z" fill="#E58A7B"/>
<path d="M367.885 308.883C367.885 308.883 371.789 434.198 362.985 481.403C353.77 530.502 325.716 642.171 325.716 642.171L302.895 639.223C302.895 639.223 317.341 526.402 323.452 477.635C330.148 424.456 321.382 299.883 321.382 299.883L367.885 308.883Z" fill="#FBEDC7"/>
<path opacity="0.6" d="M367.885 308.883C367.885 308.883 371.789 434.198 362.985 481.403C353.77 530.502 325.716 642.171 325.716 642.171L302.895 639.223C302.895 639.223 317.341 526.402 323.452 477.635C330.148 424.456 321.382 299.883 321.382 299.883L367.885 308.883Z" fill="black"/>
<path d="M385.458 159.809C385.243 161.078 385.75 162.21 386.57 162.386C387.39 162.561 388.23 161.644 388.523 160.433C388.815 159.223 388.23 158.032 387.41 157.876C386.59 157.72 385.672 158.559 385.458 159.809Z" fill="#263238"/>
<path d="M386.939 157.837L390.122 157.544C390.122 157.544 388.169 159.613 386.939 157.837Z" fill="#263238"/>
<path d="M386.316 161.234C386.97 164.325 388.04 167.313 389.498 170.117C388.769 170.45 387.977 170.623 387.175 170.623C386.373 170.623 385.581 170.45 384.852 170.117L386.316 161.234Z" fill="#DF5753"/>
<path d="M388.505 154.655C388.359 154.655 388.217 154.613 388.096 154.533C387.974 154.453 387.879 154.339 387.821 154.206C387.453 153.32 386.886 152.531 386.166 151.898C385.445 151.266 384.589 150.806 383.663 150.555C383.567 150.539 383.475 150.503 383.392 150.451C383.31 150.399 383.238 150.331 383.182 150.251C383.126 150.171 383.086 150.081 383.065 149.986C383.043 149.891 383.041 149.792 383.058 149.696C383.096 149.5 383.209 149.327 383.374 149.214C383.538 149.101 383.74 149.057 383.936 149.091C385.104 149.379 386.188 149.937 387.1 150.72C388.012 151.503 388.727 152.49 389.188 153.601C389.268 153.782 389.274 153.988 389.205 154.174C389.136 154.36 388.997 154.511 388.817 154.596L388.505 154.655Z" fill="#263238"/>
<path d="M345.395 170.273C345.688 179.839 344.711 197.097 337.215 201.997C337.215 201.997 338.191 211.758 355.429 215.175C374.386 218.845 366.05 207.58 366.05 207.58C356.093 203.11 357.635 195.535 360.622 188.722L345.395 170.273Z" fill="#E58A7B"/>
<path d="M394.204 221.461C398.109 224.428 402.404 227.571 406.64 230.441C410.877 233.311 415.211 236.298 419.623 238.895C424.035 241.491 428.505 244.048 432.996 246.45C437.47 248.762 442.064 250.835 446.759 252.658C447.169 252.814 447.032 252.658 447.13 252.795H447.384C447.636 252.831 447.893 252.831 448.145 252.795C448.926 252.799 449.704 252.72 450.468 252.56C452.54 252.054 454.55 251.321 456.462 250.374C460.884 248.13 465.109 245.518 469.093 242.565C473.271 239.617 477.351 236.396 481.353 233.038C485.355 229.68 489.338 226.185 493.164 222.71L499.021 228.079C492.326 236.804 484.851 244.9 476.687 252.267C472.406 256.094 467.771 259.506 462.846 262.458C460.073 264.086 457.126 265.396 454.06 266.363C452.252 266.904 450.383 267.219 448.496 267.3C447.414 267.359 446.329 267.313 445.256 267.163C444.677 267.095 444.103 266.991 443.538 266.851C443.03 266.714 442.23 266.499 442.015 266.402C431.381 262.893 421.147 258.274 411.482 252.619C406.718 249.847 402.013 246.977 397.445 243.892C392.877 240.808 388.504 237.665 384.033 234.014L394.204 221.461Z" fill="#E58A7B"/>
<path d="M491.971 224.194L496.617 212.227L506.378 221.988C506.378 221.988 501.751 230.89 495.114 230.91L491.971 224.194Z" fill="#E58A7B"/>
<path d="M506.242 208.771L515.515 211.68L506.457 221.968L496.656 212.226L506.242 208.771Z" fill="#E58A7B"/>
<path d="M320.976 661.107H303.191C302.88 661.104 302.579 661.212 302.342 661.413C302.105 661.614 301.949 661.894 301.902 662.201L299.501 676.276C299.453 676.629 299.482 676.987 299.585 677.327C299.688 677.668 299.863 677.982 300.098 678.248C300.334 678.515 300.623 678.728 300.948 678.873C301.273 679.018 301.625 679.091 301.98 679.088C308.188 678.99 311.175 678.619 319.004 678.619C323.806 678.619 333.763 679.127 340.479 679.127C347.194 679.127 347.643 672.548 344.891 671.942C332.552 669.287 327.769 665.598 323.67 662.084C322.922 661.438 321.963 661.091 320.976 661.107V661.107Z" fill="#263238"/>
<path d="M343.833 148.212C342.252 163.83 341.237 170.331 347.738 179.761C357.499 193.915 377.022 193.036 383.327 178.375C388.93 165.197 390.609 141.926 376.456 132.868C373.446 130.824 369.956 129.599 366.329 129.314C362.702 129.029 359.063 129.693 355.771 131.242C352.479 132.79 349.646 135.169 347.553 138.145C345.46 141.121 344.178 144.591 343.833 148.212Z" fill="#E58A7B"/>
<path d="M345.552 182.182C338.134 179.156 331.203 167.208 331.477 148.525C331.75 129.842 345.669 119.007 370.522 126.874C395.374 134.742 369.799 192.099 345.552 182.182Z" fill="#263238"/>
<path d="M366.598 128.592C373.919 125.723 390.122 129.276 390.122 144.523L374.368 157.31L366.598 128.592Z" fill="#263238"/>
<path d="M364.547 128.456C374.308 127.889 378.095 127.928 386.939 130.408C381.121 123.419 370.228 125.722 364.547 128.456Z" fill="#263238"/>
<path d="M373.001 156.334C372.698 159.233 373.291 162.156 374.699 164.709C376.652 168.301 379.6 167.813 380.693 164.904C381.688 162.288 381.864 157.271 379.131 154.577C376.398 151.882 373.469 153.112 373.001 156.334Z" fill="#E58A7B"/>
<path d="M333.02 134.722C338.681 138.197 357.931 135.328 362.089 127.929C366.247 120.529 351.879 108.152 338.857 108.601C325.836 109.05 320.408 126.952 333.02 134.722Z" fill="#FBEDC7"/>
<path d="M330.579 643.537L298.035 639.34L298.445 631.609L333.839 633.151L330.579 643.537Z" fill="#C6BFA6"/>
<path d="M326.87 663.88C325.196 663.85 323.529 663.66 321.892 663.314C321.815 663.301 321.745 663.264 321.692 663.207C321.639 663.151 321.607 663.078 321.599 663.001C321.589 662.924 321.602 662.846 321.637 662.776C321.672 662.707 321.726 662.649 321.794 662.611C322.517 662.24 328.92 658.999 330.833 660.092C331.013 660.19 331.165 660.333 331.271 660.508C331.377 660.683 331.435 660.883 331.438 661.088C331.477 661.427 331.431 661.77 331.305 662.086C331.179 662.403 330.977 662.684 330.716 662.904C329.587 663.667 328.227 664.012 326.87 663.88V663.88ZM323.141 662.786C326.636 663.372 329.232 663.216 330.228 662.357C330.396 662.207 330.527 662.019 330.608 661.808C330.689 661.598 330.72 661.371 330.696 661.147C330.697 661.064 330.676 660.982 330.635 660.91C330.594 660.838 330.534 660.778 330.462 660.737C329.428 660.151 325.777 661.537 323.141 662.786Z" fill="#FBEDC7"/>
<path d="M321.97 663.314C321.893 663.331 321.813 663.331 321.736 663.314C321.685 663.271 321.646 663.217 321.622 663.156C321.598 663.094 321.59 663.028 321.599 662.962C321.599 662.689 322.361 656.208 325.894 656.208H326.206C327.222 656.305 327.514 656.832 327.593 657.242C327.885 659.038 324.039 662.474 322.126 663.333L321.97 663.314ZM325.875 656.91C323.59 656.91 322.692 660.659 322.4 662.279C324.352 661.088 326.987 658.375 326.812 657.32C326.812 657.32 326.812 656.988 326.089 656.91H325.875Z" fill="#FBEDC7"/>
<path d="M309.807 200.22C298.816 200.728 288.332 218.943 288.332 218.943L302.837 248.578C302.837 248.578 322.496 232.198 322.75 216.092C322.965 205.628 320.603 199.732 309.807 200.22Z" fill="#FBEDC7"/>
<path opacity="0.8" d="M309.807 200.22C298.816 200.728 288.332 218.943 288.332 218.943L302.837 248.578C302.837 248.578 322.496 232.198 322.75 216.092C322.965 205.628 320.603 199.732 309.807 200.22Z" fill="#E1DFD7"/>
<path d="M305.355 296.642L368.843 308.941C398.829 220.622 391.664 217.771 391.664 217.771C387 215.253 382.189 213.017 377.257 211.075L376.378 210.743C372.337 209.279 371.478 209.045 366.031 207.463C356.68 205.257 347.973 203.461 337.197 201.9L335.147 201.607C333.195 201.372 331.242 201.158 329.388 200.982C328.138 200.845 326.869 200.767 325.678 200.67L321.579 200.455C314.629 200.104 309.67 200.221 309.67 200.221C313.301 255.333 310.646 271.165 305.355 296.642Z" fill="#FBEDC7"/>
<path opacity="0.6" d="M305.355 296.642L368.843 308.941C398.829 220.622 391.664 217.771 391.664 217.771C387 215.253 382.189 213.017 377.257 211.075L376.378 210.743C372.337 209.279 371.478 209.045 366.031 207.463C356.68 205.257 347.973 203.461 337.197 201.9L335.147 201.607C333.195 201.372 331.242 201.158 329.388 200.982C328.138 200.845 326.869 200.767 325.678 200.67L321.579 200.455C314.629 200.104 309.67 200.221 309.67 200.221C313.301 255.333 310.646 271.165 305.355 296.642Z" fill="#E1DFD7"/>
<path opacity="0.2" d="M376.182 239.012C378.7 243.97 381.687 250.549 385.689 255.098C386.841 250.92 387.798 247.289 388.617 243.912L376.182 239.012Z" fill="#FBEDC7"/>
<path d="M325.289 252.267C341.121 239.753 344.46 228.118 342.254 217.947C340.048 207.775 337.51 190.03 339.325 184.095C341.141 178.16 347.466 165.841 346.178 155.319C344.889 144.796 341.883 130.174 344.772 123.848C347.661 117.523 356.837 113.775 349.399 104.794C345.787 100.441 330.482 99.777 326.48 111.92C322.477 124.063 306.039 129.315 299.578 130.525C293.116 131.735 281.734 138.998 279.762 150.828C277.79 162.659 269.845 167.325 258.932 173.396C248.019 179.468 232.323 203.266 238.57 224.389C247.003 253.302 301.705 270.97 325.289 252.267Z" fill="#263238"/>
<path d="M372.885 212.422C377.804 208.517 398.986 221.363 405.468 226.732L401.68 254.571C401.68 254.571 371.42 242.038 369.351 233.467C367.125 224.545 368.98 215.409 372.885 212.422Z" fill="#FBEDC7"/>
<path opacity="0.6" d="M372.885 212.422C377.804 208.517 398.986 221.363 405.468 226.732L401.68 254.571C401.68 254.571 371.42 242.038 369.351 233.467C367.125 224.545 368.98 215.409 372.885 212.422Z" fill="#E1DFD7"/>
<path d="M305.003 292.757L301.216 297.852C300.923 298.243 301.372 298.789 302.094 298.946L368.685 311.83C369.252 311.948 369.779 311.83 369.876 311.401L371.38 305.857C371.477 305.486 371.048 305.056 370.423 304.939L306.116 292.484C305.923 292.426 305.718 292.421 305.522 292.469C305.327 292.517 305.147 292.617 305.003 292.757Z" fill="#FBEDC7"/>
<path d="M312.463 301.581L310.745 301.249C310.413 301.249 310.179 300.956 310.238 300.742L312.19 293.557C312.19 293.343 312.58 293.226 312.932 293.284L314.65 293.616C314.981 293.616 315.216 293.909 315.157 294.124L313.205 301.308C313.146 301.523 312.814 301.64 312.463 301.581Z" fill="#FBEDC7"/>
<path d="M355.957 310.093L354.22 309.761C353.888 309.761 353.654 309.468 353.712 309.253L355.664 302.069C355.664 301.874 356.055 301.757 356.406 301.815L358.124 302.147C358.476 302.147 358.71 302.44 358.651 302.655L356.699 309.839C356.621 310.054 356.289 310.171 355.957 310.093Z" fill="#FBEDC7"/>
<path opacity="0.6" d="M312.463 301.581L310.745 301.249C310.413 301.249 310.179 300.956 310.238 300.742L312.19 293.557C312.19 293.343 312.58 293.226 312.932 293.284L314.65 293.616C314.981 293.616 315.216 293.909 315.157 294.124L313.205 301.308C313.146 301.523 312.814 301.64 312.463 301.581Z" fill="black"/>
<path opacity="0.6" d="M355.957 310.093L354.22 309.761C353.888 309.761 353.654 309.468 353.712 309.253L355.664 302.069C355.664 301.874 356.055 301.757 356.406 301.815L358.124 302.147C358.476 302.147 358.71 302.44 358.651 302.655L356.699 309.839C356.621 310.054 356.289 310.171 355.957 310.093Z" fill="black"/>
</svg>
