<svg width="773" height="735" viewBox="0 0 773 735" fill="none" xmlns="http://www.w3.org/2000/svg">
<path d="M378.32 320.296C380.658 318.888 383.174 317.798 385.801 317.056L387.344 309.644L399.846 309.423L401.644 316.768C404.293 317.42 406.843 318.424 409.226 319.753L415.553 315.615L424.543 324.299L420.642 330.762C422.053 333.099 423.143 335.615 423.882 338.243L431.278 339.786L431.498 352.288L424.153 354.086C423.504 356.734 422.506 359.284 421.185 361.668L425.324 367.995L416.69 376.952L410.227 373.033C407.889 374.447 405.374 375.542 402.746 376.29L401.203 383.686L388.701 383.906L386.903 376.562C384.251 375.917 381.7 374.913 379.321 373.576L372.994 377.732L363.987 369.03L367.905 362.584C366.497 360.246 365.407 357.73 364.665 355.104L357.269 353.56L357.049 341.059L364.377 339.261C365.039 336.609 366.043 334.055 367.362 331.661L363.172 325.385L371.857 316.378L378.32 320.296ZM384.986 336.954C383.143 338.862 381.907 341.274 381.435 343.885C380.963 346.496 381.275 349.188 382.332 351.621C383.389 354.055 385.145 356.12 387.375 357.556C389.606 358.992 392.213 359.735 394.866 359.69C397.519 359.645 400.099 358.814 402.279 357.303C404.46 355.792 406.144 353.669 407.118 351.201C408.093 348.733 408.313 346.031 407.752 343.438C407.192 340.845 405.875 338.476 403.968 336.631C401.411 334.155 397.976 332.795 394.417 332.849C390.859 332.903 387.467 334.367 384.986 336.92V336.954Z" fill="#F2F2F2"/>
<path d="M413.551 544.068C415.891 542.658 418.406 541.563 421.032 540.811L422.558 533.415L435.077 533.195L436.875 540.539C439.526 541.187 442.077 542.191 444.457 543.525L450.784 539.386L459.775 548.071L455.856 554.534C457.266 556.867 458.361 559.377 459.113 561.997L466.509 563.541L466.729 576.042L459.385 577.857C458.73 580.506 457.726 583.056 456.399 585.44L460.538 591.75L451.853 600.757L445.39 596.788C443.054 598.199 440.537 599.289 437.91 600.028L436.383 607.44L423.865 607.661L422.067 600.316C419.418 599.661 416.868 598.657 414.484 597.331L408.208 601.52L399.201 592.835L403.119 586.373C401.71 584.033 400.615 581.518 399.862 578.892L392.467 577.349L392.246 564.847L399.591 563.049C400.246 560.4 401.25 557.851 402.576 555.467L398.437 549.14L407.122 540.149L413.585 544.068H413.551ZM420.218 560.725C418.374 562.634 417.138 565.048 416.666 567.66C416.194 570.271 416.507 572.965 417.566 575.398C418.625 577.832 420.382 579.897 422.615 581.333C424.847 582.768 427.456 583.508 430.11 583.461C432.763 583.413 435.343 582.58 437.523 581.066C439.703 579.552 441.385 577.425 442.357 574.955C443.328 572.485 443.544 569.782 442.979 567.189C442.414 564.595 441.093 562.228 439.182 560.386C437.915 559.162 436.419 558.199 434.78 557.553C433.141 556.908 431.391 556.592 429.629 556.623C427.868 556.655 426.13 557.033 424.515 557.737C422.9 558.441 421.44 559.456 420.218 560.725Z" fill="#F2F2F2"/>
<path d="M113.33 404.024C114.918 403.066 116.63 402.33 118.419 401.836L119.453 396.832L127.935 396.696L129.139 401.632C130.915 402.084 132.625 402.762 134.228 403.651L138.502 400.852L144.575 406.721L141.895 411.081C142.853 412.669 143.589 414.381 144.083 416.169L149.07 417.204L149.223 425.686L144.27 426.907C143.827 428.686 143.148 430.397 142.251 431.996L145.05 436.27L139.198 442.326L134.838 439.68C133.247 440.636 131.536 441.378 129.75 441.885L128.698 446.872L120.217 447.025L119.012 442.072C117.236 441.62 115.526 440.942 113.923 440.053L109.666 442.767L103.593 436.898L106.273 432.555C105.313 430.968 104.577 429.255 104.085 427.467L99.098 426.432L98.9453 417.951L103.898 416.729C104.343 414.954 105.015 413.243 105.9 411.64L103.118 407.383L108.97 401.31L113.33 403.956V404.024ZM117.825 415.287C116.583 416.574 115.751 418.199 115.433 419.959C115.115 421.718 115.326 423.532 116.039 425.172C116.752 426.811 117.935 428.203 119.438 429.17C120.942 430.137 122.698 430.637 124.486 430.606C126.273 430.575 128.012 430.015 129.481 428.997C130.95 427.978 132.085 426.547 132.74 424.884C133.396 423.221 133.545 421.4 133.166 419.653C132.788 417.906 131.9 416.31 130.615 415.067C129.761 414.241 128.752 413.592 127.647 413.156C126.542 412.72 125.362 412.506 124.174 412.527C122.986 412.547 121.814 412.801 120.725 413.275C119.635 413.749 118.65 414.433 117.825 415.287V415.287Z" fill="#F2F2F2"/>
<path d="M125.844 468.992C128.739 467.254 131.854 465.913 135.106 465.005L137.005 455.896L152.374 455.625L154.579 464.649C157.839 465.453 160.977 466.691 163.908 468.33L171.677 463.241L182.737 473.911L177.92 481.849C179.656 484.721 180.996 487.813 181.906 491.043L191.015 492.943L191.286 508.311L182.262 510.516C181.458 513.777 180.22 516.915 178.581 519.846L183.67 527.615L173 538.674L165.062 533.857C162.188 535.592 159.096 536.938 155.868 537.86L153.968 546.952L138.6 547.224L136.395 538.199C133.134 537.396 129.996 536.158 127.065 534.519L119.296 539.607L108.169 528.938L113.054 520.999C111.316 518.127 109.97 515.035 109.051 511.806L99.9589 509.906L99.6875 494.537L108.712 492.332C109.515 489.072 110.753 485.934 112.393 483.003L107.304 475.234L117.99 464.174L125.929 468.992H125.844ZM134.037 489.466C131.773 491.812 130.256 494.777 129.677 497.985C129.098 501.194 129.483 504.502 130.783 507.492C132.084 510.481 134.242 513.018 136.984 514.782C139.727 516.545 142.93 517.456 146.19 517.399C149.45 517.342 152.62 516.32 155.299 514.462C157.978 512.604 160.046 509.993 161.241 506.96C162.437 503.927 162.706 500.607 162.016 497.421C161.325 494.234 159.705 491.324 157.361 489.058C154.213 486.022 149.988 484.359 145.615 484.436C141.241 484.512 137.077 486.321 134.037 489.466V489.466Z" fill="#F2F2F2"/>
<path d="M785.952 32.0652H552.646V425.176H785.952V32.0652Z" fill="#E0E0E0"/>
<path d="M778.878 39.4617H558.939V418.714H778.878V39.4617Z" fill="#F2F2F2"/>
<path d="M756.605 59.7146H668.908V195.79H756.605V59.7146Z" fill="white"/>
<path d="M717.421 71.7413C717.421 72.3888 717.229 73.0218 716.869 73.5602C716.509 74.0985 715.998 74.5181 715.4 74.7659C714.801 75.0137 714.143 75.0786 713.508 74.9522C712.873 74.8259 712.29 74.5141 711.832 74.0563C711.374 73.5984 711.062 73.0151 710.936 72.38C710.81 71.745 710.874 71.0867 711.122 70.4885C711.37 69.8903 711.79 69.379 712.328 69.0193C712.866 68.6595 713.499 68.4675 714.147 68.4675C714.577 68.4675 715.002 68.5522 715.4 68.7167C715.797 68.8813 716.158 69.1224 716.462 69.4264C716.766 69.7304 717.007 70.0913 717.171 70.4885C717.336 70.8857 717.421 71.3114 717.421 71.7413V71.7413Z" fill="#E0E0E0"/>
<path d="M668.213 233.668H580.516V369.743H668.213V233.668Z" fill="white"/>
<path d="M629.03 245.66C629.03 246.308 628.838 246.94 628.478 247.479C628.119 248.017 627.607 248.437 627.009 248.685C626.411 248.932 625.753 248.997 625.118 248.871C624.482 248.745 623.899 248.433 623.441 247.975C622.983 247.517 622.672 246.934 622.545 246.299C622.419 245.664 622.484 245.005 622.732 244.407C622.979 243.809 623.399 243.298 623.937 242.938C624.476 242.578 625.109 242.386 625.756 242.386C626.624 242.386 627.457 242.731 628.071 243.345C628.685 243.959 629.03 244.792 629.03 245.66V245.66Z" fill="#E0E0E0"/>
<path d="M654.217 59.7146H579.326V165.986H654.217V59.7146Z" fill="white"/>
<path d="M619.493 69.3664C619.493 69.9032 619.333 70.4279 619.035 70.8742C618.737 71.3205 618.313 71.6684 617.817 71.8738C617.321 72.0792 616.775 72.133 616.249 72.0283C615.723 71.9235 615.239 71.6651 614.859 71.2855C614.48 70.9059 614.221 70.4223 614.117 69.8959C614.012 69.3694 614.066 68.8237 614.271 68.3278C614.476 67.8318 614.824 67.408 615.271 67.1097C615.717 66.8115 616.242 66.6523 616.778 66.6523C617.498 66.6523 618.189 66.9383 618.698 67.4473C619.207 67.9562 619.493 68.6466 619.493 69.3664Z" fill="#E0E0E0"/>
<path d="M759.489 235.504L679.391 244.545L684.4 288.926L764.498 279.885L759.489 235.504Z" fill="white"/>
<path d="M720.372 251.258C721.908 251.258 723.154 250.012 723.154 248.476C723.154 246.939 721.908 245.694 720.372 245.694C718.835 245.694 717.59 246.939 717.59 248.476C717.59 250.012 718.835 251.258 720.372 251.258Z" fill="#E0E0E0"/>
<path d="M656.509 264.709C656.509 265.082 642.752 265.37 625.755 265.37C608.759 265.37 595.002 265.082 595.002 264.709C595.002 264.336 608.776 264.064 625.755 264.064C642.735 264.064 656.509 264.319 656.509 264.709Z" fill="#E0E0E0"/>
<path d="M656.509 274.497C656.509 274.853 642.752 275.159 625.755 275.159C608.759 275.159 595.002 274.853 595.002 274.497C595.002 274.141 608.776 273.853 625.755 273.853C642.735 273.853 656.509 274.09 656.509 274.497Z" fill="#E0E0E0"/>
<path d="M656.509 284.182C656.509 284.538 642.752 284.843 625.755 284.843C608.759 284.843 595.002 284.538 595.002 284.182C595.002 283.825 608.776 283.537 625.755 283.537C642.735 283.537 656.509 283.825 656.509 284.182Z" fill="#E0E0E0"/>
<path d="M656.509 293.919C656.509 294.275 642.752 294.581 625.755 294.581C608.759 294.581 595.002 294.275 595.002 293.919C595.002 293.563 608.776 293.274 625.755 293.274C642.735 293.274 656.509 293.563 656.509 293.919Z" fill="#E0E0E0"/>
<path d="M656.509 303.655C656.509 304.012 642.752 304.317 625.755 304.317C608.759 304.317 595.002 304.012 595.002 303.655C595.002 303.299 608.776 303.011 625.755 303.011C642.735 303.011 656.509 303.333 656.509 303.655Z" fill="#E0E0E0"/>
<path d="M656.509 313.392C656.509 313.748 642.752 314.053 625.755 314.053C608.759 314.053 595.002 313.748 595.002 313.392C595.002 313.036 608.776 312.747 625.755 312.747C642.735 312.747 656.509 313.036 656.509 313.392Z" fill="#E0E0E0"/>
<path d="M656.509 323.128C656.509 323.485 642.752 323.79 625.755 323.79C608.759 323.79 595.002 323.485 595.002 323.128C595.002 322.772 608.776 322.484 625.755 322.484C642.735 322.484 656.509 322.772 656.509 323.128Z" fill="#E0E0E0"/>
<path d="M751.974 254.277C751.974 254.633 738.404 256.855 721.611 259.23C704.818 261.605 691.078 263.233 691.078 262.877C691.078 262.521 704.648 260.316 721.441 257.941C738.234 255.566 751.923 253.921 751.974 254.277Z" fill="#E0E0E0"/>
<path d="M753.195 260.367C753.195 260.723 739.625 262.945 722.832 265.32C706.039 267.695 692.299 269.323 692.299 268.967C692.299 268.611 705.869 266.406 722.662 264.031C739.455 261.656 753.144 260.011 753.195 260.367Z" fill="#E0E0E0"/>
<path d="M754.246 266.015C754.246 266.371 740.676 268.594 723.882 270.951C707.089 273.309 693.35 274.972 693.35 274.615C693.35 274.259 706.92 272.037 723.713 269.662C740.506 267.287 754.246 265.642 754.246 266.015Z" fill="#E0E0E0"/>
<path d="M748.887 88.1773C748.887 88.5505 733.332 88.8389 714.147 88.8389C694.962 88.8389 679.391 88.5505 679.391 88.1773C679.391 87.8041 694.945 87.5327 714.147 87.5327C733.349 87.5327 748.887 87.9059 748.887 88.1773Z" fill="#E0E0E0"/>
<path d="M748.887 93.9794C748.887 94.3356 733.332 94.624 714.147 94.624C694.962 94.624 679.391 94.3356 679.391 93.9794C679.391 93.6232 694.945 93.3179 714.147 93.3179C733.349 93.3179 748.887 93.6062 748.887 93.9794Z" fill="#E0E0E0"/>
<path d="M748.887 99.7807C748.887 100.137 733.332 100.442 714.147 100.442C694.962 100.442 679.391 100.137 679.391 99.7807C679.391 99.4245 694.945 99.1191 714.147 99.1191C733.349 99.1191 748.887 99.4075 748.887 99.7807Z" fill="#E0E0E0"/>
<path d="M748.887 105.548C748.887 105.921 733.332 106.21 714.147 106.21C694.962 106.21 679.391 105.921 679.391 105.548C679.391 105.175 694.878 104.87 714.147 104.87C733.417 104.87 748.887 105.192 748.887 105.548Z" fill="#E0E0E0"/>
<path d="M748.887 111.349C748.887 111.705 733.332 111.993 714.147 111.993C694.962 111.993 679.391 111.705 679.391 111.349C679.391 110.993 694.945 110.687 714.147 110.687C733.349 110.687 748.887 110.976 748.887 111.349Z" fill="#E0E0E0"/>
<path d="M748.887 117.133C748.887 117.489 733.332 117.778 714.147 117.778C694.962 117.778 679.391 117.489 679.391 117.133C679.391 116.777 694.945 116.472 714.147 116.472C733.349 116.472 748.887 116.743 748.887 117.133Z" fill="#E0E0E0"/>
<path d="M748.887 122.918C748.887 123.274 733.332 123.579 714.147 123.579C694.962 123.579 679.391 123.274 679.391 122.918C679.391 122.561 694.945 122.273 714.147 122.273C733.349 122.273 748.887 122.561 748.887 122.918Z" fill="#E0E0E0"/>
<path d="M748.887 140.101C748.887 140.457 733.332 140.745 714.147 140.745C694.962 140.745 679.391 140.457 679.391 140.101C679.391 139.745 694.945 139.439 714.147 139.439C733.349 139.439 748.887 139.745 748.887 140.101Z" fill="#E0E0E0"/>
<path d="M749.379 146.208C749.379 146.581 733.824 146.87 714.639 146.87C695.455 146.87 679.883 146.581 679.883 146.208C679.883 145.835 695.438 145.563 714.639 145.563C733.841 145.563 749.379 145.852 749.379 146.208Z" fill="#E0E0E0"/>
<path d="M749.869 152.365C749.869 152.721 734.297 153.01 715.113 153.01C695.928 153.01 680.373 152.721 680.373 152.365C680.373 152.009 695.928 151.704 715.113 151.704C734.297 151.704 749.869 151.975 749.869 152.365Z" fill="#E0E0E0"/>
<path d="M750.346 158.438C750.346 158.811 734.792 159.1 715.607 159.1C696.422 159.1 680.867 158.811 680.867 158.438C680.867 158.065 696.422 157.793 715.607 157.793C734.792 157.793 750.346 158.082 750.346 158.438Z" fill="#E0E0E0"/>
<path d="M750.854 164.562C750.854 164.918 735.299 165.206 716.114 165.206C696.929 165.206 681.307 164.918 681.307 164.562C681.307 164.205 696.845 163.9 716.046 163.9C735.248 163.9 750.854 164.239 750.854 164.562Z" fill="#E0E0E0"/>
<path d="M751.33 170.668C751.33 171.041 735.775 171.329 716.591 171.329C697.406 171.329 681.834 171.041 681.834 170.668C681.834 170.294 697.389 170.023 716.591 170.023C735.792 170.023 751.33 170.311 751.33 170.668Z" fill="#E0E0E0"/>
<path d="M300.573 158.201H250.313C248.647 158.201 247.048 157.541 245.869 156.364C244.689 155.188 244.024 153.591 244.02 151.925V82.2762C244.024 80.6101 244.689 79.0138 245.869 77.8372C247.048 76.6607 248.647 76 250.313 76H282.186L306.866 101.444V151.925C306.862 153.591 306.197 155.188 305.017 156.364C303.837 157.541 302.239 158.201 300.573 158.201Z" fill="#F2F2F2"/>
<path d="M244.017 133.283H306.864V150.518C306.864 152.556 306.054 154.51 304.613 155.951C303.172 157.392 301.218 158.202 299.18 158.202H251.684C249.646 158.202 247.692 157.392 246.251 155.951C244.81 154.51 244 152.556 244 150.518V133.283H244.017Z" fill="#E0E0E0"/>
<path d="M266.289 149.364L267.867 147.464C268.109 147.86 268.444 148.19 268.843 148.426C269.242 148.663 269.693 148.798 270.157 148.821C271.293 148.821 271.853 148.126 271.853 146.769V140.917H267.544V138.644H274.686V146.616C274.777 147.223 274.727 147.843 274.538 148.427C274.35 149.011 274.028 149.543 273.599 149.982C273.17 150.421 272.645 150.755 272.065 150.956C271.486 151.158 270.867 151.223 270.258 151.145C269.505 151.169 268.756 151.02 268.068 150.712C267.381 150.403 266.772 149.942 266.289 149.364Z" fill="#FAFAFA"/>
<path d="M276.416 150.127L277.332 148.159C278.328 148.751 279.464 149.067 280.623 149.075C281.895 149.075 282.319 148.736 282.319 148.21C282.319 146.666 276.603 148.21 276.603 144.478C276.603 142.68 278.214 141.408 280.979 141.408C282.239 141.384 283.485 141.669 284.609 142.239L283.727 144.122C282.893 143.654 281.952 143.415 280.996 143.426C279.758 143.426 279.3 143.8 279.3 144.292C279.3 145.988 285.016 144.292 285.016 148.074C285.016 149.771 283.32 151.077 280.555 151.077C279.116 151.128 277.688 150.801 276.416 150.127V150.127Z" fill="#FAFAFA"/>
<path d="M257.332 120.188L259.3 117.898C259.822 118.746 260.549 119.448 261.415 119.941C262.281 120.433 263.257 120.699 264.253 120.714C266.95 120.714 268.341 119.017 268.341 115.896V102.53H259.741V99.561H271.615V115.71C271.615 121.002 269.036 123.631 264.168 123.631C262.836 123.648 261.519 123.344 260.329 122.745C259.139 122.146 258.111 121.268 257.332 120.188V120.188Z" fill="#FAFAFA"/>
<path d="M275.891 121.443L277.248 118.865C279.126 120.085 281.318 120.734 283.558 120.731C286.594 120.731 287.849 119.815 287.849 118.288C287.849 114.251 276.467 117.745 276.467 110.57C276.467 107.347 279.351 105.176 283.982 105.176C286.275 105.157 288.533 105.742 290.529 106.872L289.138 109.417C287.584 108.446 285.78 107.95 283.948 107.992C281.081 107.992 279.69 109.043 279.69 110.468C279.69 114.726 291.106 111.249 291.106 118.254C291.106 121.511 288.121 123.597 283.32 123.597C280.682 123.651 278.091 122.9 275.891 121.443V121.443Z" fill="#FAFAFA"/>
<path d="M282.186 86.0508V105.626C282.186 107.178 282.802 108.666 283.9 109.764C284.997 110.861 286.486 111.478 288.038 111.478H306.866L282.186 86.0508Z" fill="#EBEBEB"/>
<path d="M282.439 107.339C282.45 108.811 282.959 110.236 283.883 111.382C284.807 112.528 286.092 113.327 287.528 113.649C287.715 113.649 287.935 113.751 288.139 113.802C290.599 114.243 306.798 117.194 306.798 116.736V111.478H287.969C287.969 111.478 283.338 111.325 282.439 107.339Z" fill="#E0E0E0"/>
<path d="M0.898438 709.523L90.4276 649.068L524.249 646.998L544.095 710.439L0.898438 709.523Z" fill="#C0AD90"/>
<path d="M542.976 734.288L0 733.898V708.335L543.214 710.032L542.976 734.288Z" fill="#C0AD90"/>
<path d="M529.661 709.896C529.661 710.134 412.398 710.286 267.808 710.218C123.218 710.151 5.9375 709.896 5.9375 709.642C5.9375 709.387 123.167 709.252 267.808 709.319C412.449 709.387 529.661 709.642 529.661 709.896Z" fill="#263238"/>
<g opacity="0.2">
<path d="M363.412 9.7771V42.9731C363.41 44.2755 363.664 45.5655 364.161 46.7693C364.658 47.9731 365.387 49.0672 366.308 49.9889C367.228 50.9105 368.32 51.6417 369.523 52.1406C370.726 52.6395 372.016 52.8963 373.318 52.8963H405.259L363.412 9.7771Z" fill="white"/>
</g>
<path d="M513.957 234.753H427.447C426.025 234.754 424.616 234.473 423.302 233.928C421.988 233.383 420.794 232.584 419.789 231.578C418.784 230.571 417.987 229.376 417.444 228.061C416.901 226.746 416.623 225.337 416.625 223.914V104.141C416.625 101.27 417.765 98.5177 419.795 96.4881C421.824 94.4586 424.577 93.3184 427.447 93.3184H482.322L524.728 137.099V223.914C524.733 226.779 523.602 229.528 521.583 231.56C519.564 233.592 516.821 234.74 513.957 234.753V234.753Z" fill="#F1E7D0"/>
<g opacity="0.2">
<path d="M416.606 191.839H524.794V223.05C524.794 226.154 523.561 229.131 521.366 231.326C519.171 233.521 516.194 234.754 513.09 234.754H428.277C425.172 234.754 422.195 233.521 420 231.326C417.805 229.131 416.572 226.154 416.572 223.05V191.839H416.606Z" fill="black"/>
</g>
<g opacity="0.2">
<path d="M482.305 93.3176V127.023C482.305 129.695 483.366 132.258 485.256 134.147C487.145 136.037 489.708 137.098 492.381 137.098H524.779L482.305 93.3176Z" fill="white"/>
</g>
<g opacity="0.2">
<path d="M482.743 129.992C482.743 129.992 482.319 138.168 491.632 140.848C491.983 140.947 492.34 141.026 492.7 141.086C496.924 141.849 524.777 146.802 524.777 146.174V137.099H492.378C492.378 137.099 484.287 136.828 482.743 129.992Z" fill="black"/>
</g>
<path d="M461.033 156.402L448.04 161.152L461.033 165.868V170.753L442.459 163.696V158.608L461.033 151.551V156.402Z" fill="#FAFAFA"/>
<path d="M474.992 141.968H480.403L467.579 178.709H462.168L474.992 141.968Z" fill="#FAFAFA"/>
<path d="M499.674 158.625V163.714L481.15 170.753V165.936L494.144 161.22L481.15 156.471V151.636L499.674 158.625Z" fill="#FAFAFA"/>
<path d="M456.606 207.8V222.337H453.214V216.383H446.615V222.337H443.223V207.8H446.615V213.533H453.214V207.8H456.606Z" fill="#FAFAFA"/>
<path d="M463.07 210.548H458.422V207.8H471.093V210.548H466.428V222.337H463.036L463.07 210.548Z" fill="#FAFAFA"/>
<path d="M486.118 222.336V213.618L481.844 220.81H480.317L476.059 213.804V222.286H472.904V207.749H475.686L481.148 216.824L486.508 207.782H489.273V222.32L486.118 222.336Z" fill="#FAFAFA"/>
<path d="M492.719 207.8H496.111V219.674H503.405V222.405H492.736L492.719 207.8Z" fill="#FAFAFA"/>
<path d="M209.252 137.726H52.1437C49.277 137.726 46.9531 140.05 46.9531 142.917V402.497C46.9531 405.364 49.277 407.688 52.1437 407.688H209.252C212.119 407.688 214.443 405.364 214.443 402.497V142.917C214.443 140.05 212.119 137.726 209.252 137.726Z" fill="white"/>
<path d="M53.0769 137.726H208.557C210.118 137.726 211.615 138.346 212.719 139.45C213.823 140.553 214.443 142.051 214.443 143.612V167.885H46.9024V143.883C46.8979 143.072 47.0547 142.268 47.3636 141.517C47.6725 140.767 48.1274 140.086 48.7018 139.513C49.2763 138.94 49.9589 138.487 50.71 138.18C51.461 137.873 52.2656 137.719 53.0769 137.726V137.726Z" fill="#E0E0E0"/>
<path d="M71.6504 155.164C71.6504 156.144 71.3599 157.102 70.8156 157.916C70.2714 158.731 69.4978 159.366 68.5927 159.74C67.6877 160.115 66.6918 160.213 65.731 160.022C64.7701 159.831 63.8876 159.359 63.1949 158.667C62.5022 157.974 62.0304 157.091 61.8393 156.131C61.6482 155.17 61.7463 154.174 62.1212 153.269C62.4961 152.364 63.1309 151.59 63.9455 151.046C64.76 150.502 65.7176 150.211 66.6973 150.211C67.3483 150.209 67.9934 150.336 68.5954 150.584C69.1973 150.832 69.7442 151.197 70.2046 151.657C70.665 152.117 71.0298 152.664 71.2779 153.266C71.526 153.868 71.6526 154.513 71.6504 155.164V155.164Z" fill="white"/>
<path d="M81.9127 160.1C84.6389 160.1 86.8489 157.89 86.8489 155.164C86.8489 152.438 84.6389 150.228 81.9127 150.228C79.1866 150.228 76.9766 152.438 76.9766 155.164C76.9766 157.89 79.1866 160.1 81.9127 160.1Z" fill="white"/>
<path d="M97.11 160.1C99.8361 160.1 102.046 157.89 102.046 155.164C102.046 152.438 99.8361 150.228 97.11 150.228C94.3838 150.228 92.1738 152.438 92.1738 155.164C92.1738 157.89 94.3838 160.1 97.11 160.1Z" fill="white"/>
<path d="M119.841 208.784H88.9863C88.0865 208.784 87.2236 208.426 86.5874 207.79C85.9512 207.154 85.5938 206.291 85.5938 205.391C85.5938 204.491 85.9512 203.628 86.5874 202.992C87.2236 202.356 88.0865 201.999 88.9863 201.999H119.841C120.741 201.999 121.604 202.356 122.24 202.992C122.877 203.628 123.234 204.491 123.234 205.391C123.234 206.291 122.877 207.154 122.24 207.79C121.604 208.426 120.741 208.784 119.841 208.784Z" fill="#263238"/>
<path d="M119.841 226.305H88.9863C88.0865 226.305 87.2236 225.948 86.5874 225.312C85.9512 224.675 85.5938 223.813 85.5938 222.913C85.5938 222.013 85.9512 221.15 86.5874 220.514C87.2236 219.878 88.0865 219.52 88.9863 219.52H119.841C120.741 219.52 121.604 219.878 122.24 220.514C122.877 221.15 123.234 222.013 123.234 222.913C123.234 223.813 122.877 224.675 122.24 225.312C121.604 225.948 120.741 226.305 119.841 226.305Z" fill="#E0E0E0"/>
<path d="M120.724 274.293H89.8691C88.9693 274.293 88.1064 273.936 87.4702 273.299C86.834 272.663 86.4766 271.8 86.4766 270.901C86.4766 270.001 86.834 269.138 87.4702 268.502C88.1064 267.865 88.9693 267.508 89.8691 267.508H120.724C121.624 267.508 122.487 267.865 123.123 268.502C123.759 269.138 124.117 270.001 124.117 270.901C124.117 271.8 123.759 272.663 123.123 273.299C122.487 273.936 121.624 274.293 120.724 274.293Z" fill="#E0E0E0"/>
<path d="M119.841 244.404H88.9863C88.0865 244.404 87.2236 244.047 86.5874 243.41C85.9512 242.774 85.5938 241.911 85.5938 241.011C85.5938 240.112 85.9512 239.249 86.5874 238.613C87.2236 237.976 88.0865 237.619 88.9863 237.619H119.841C120.741 237.619 121.604 237.976 122.24 238.613C122.877 239.249 123.234 240.112 123.234 241.011C123.234 241.911 122.877 242.774 122.24 243.41C121.604 244.047 120.741 244.404 119.841 244.404Z" fill="#F1E7D0"/>
<path d="M119.841 345.367H88.9863C88.0865 345.367 87.2236 345.01 86.5874 344.373C85.9512 343.737 85.5938 342.874 85.5938 341.975C85.5938 341.075 85.9512 340.212 86.5874 339.576C87.2236 338.939 88.0865 338.582 88.9863 338.582H119.841C120.741 338.582 121.604 338.939 122.24 339.576C122.877 340.212 123.234 341.075 123.234 341.975C123.234 342.874 122.877 343.737 122.24 344.373C121.604 345.01 120.741 345.367 119.841 345.367Z" fill="#F1E7D0"/>
<path d="M169.256 208.783H138.4C137.501 208.783 136.638 208.426 136.001 207.79C135.365 207.154 135.008 206.291 135.008 205.391C135.008 204.491 135.365 203.628 136.001 202.992C136.638 202.356 137.501 201.998 138.4 201.998H169.256C170.155 201.998 171.018 202.356 171.654 202.992C172.291 203.628 172.648 204.491 172.648 205.391C172.648 206.291 172.291 207.154 171.654 207.79C171.018 208.426 170.155 208.783 169.256 208.783Z" fill="#C0AD90"/>
<path d="M202.654 226.305H138.196C137.771 226.286 137.355 226.182 136.972 226.001C136.588 225.819 136.244 225.563 135.96 225.247C135.676 224.932 135.457 224.563 135.317 224.162C135.176 223.761 135.117 223.337 135.142 222.913V222.913C135.117 222.489 135.176 222.064 135.317 221.663C135.457 221.263 135.676 220.894 135.96 220.578C136.244 220.263 136.588 220.007 136.972 219.825C137.355 219.643 137.771 219.54 138.196 219.52H202.739C203.163 219.54 203.579 219.643 203.963 219.825C204.347 220.007 204.691 220.263 204.975 220.578C205.259 220.894 205.477 221.263 205.618 221.663C205.758 222.064 205.817 222.489 205.792 222.913V222.913C205.817 223.344 205.755 223.775 205.61 224.181C205.464 224.588 205.238 224.96 204.945 225.277C204.652 225.594 204.298 225.848 203.904 226.025C203.511 226.202 203.085 226.297 202.654 226.305Z" fill="#263238"/>
<path d="M200.905 244.404H135.938C135.507 244.393 135.082 244.296 134.688 244.119C134.295 243.942 133.941 243.688 133.647 243.372C133.353 243.056 133.125 242.684 132.977 242.279C132.828 241.873 132.762 241.443 132.783 241.011V241.011C132.762 240.58 132.828 240.15 132.977 239.744C133.125 239.339 133.353 238.967 133.647 238.651C133.941 238.335 134.295 238.081 134.688 237.904C135.082 237.727 135.507 237.63 135.938 237.619H200.905C201.337 237.63 201.762 237.727 202.155 237.904C202.548 238.081 202.903 238.335 203.197 238.651C203.49 238.967 203.718 239.339 203.867 239.744C204.015 240.15 204.081 240.58 204.06 241.011C204.081 241.443 204.015 241.873 203.867 242.279C203.718 242.684 203.49 243.056 203.197 243.372C202.903 243.688 202.548 243.942 202.155 244.119C201.762 244.296 201.337 244.393 200.905 244.404V244.404Z" fill="#E0E0E0"/>
<path d="M153.97 259.043H89.0025C88.571 259.032 88.1461 258.935 87.7526 258.758C87.3591 258.581 87.0051 258.327 86.7112 258.011C86.4172 257.695 86.1894 257.323 86.0411 256.918C85.8928 256.513 85.8269 256.082 85.8474 255.651V255.651C85.8269 255.22 85.8928 254.789 86.0411 254.383C86.1894 253.978 86.4172 253.607 86.7112 253.291C87.0051 252.975 87.3591 252.72 87.7526 252.543C88.1461 252.366 88.571 252.269 89.0025 252.258H153.97C154.401 252.269 154.826 252.366 155.219 252.543C155.613 252.72 155.967 252.975 156.261 253.291C156.555 253.607 156.783 253.978 156.931 254.383C157.079 254.789 157.145 255.22 157.125 255.651C157.145 256.082 157.079 256.513 156.931 256.918C156.783 257.323 156.555 257.695 156.261 258.011C155.967 258.327 155.613 258.581 155.219 258.758C154.826 258.935 154.401 259.032 153.97 259.043Z" fill="#E0E0E0"/>
<path d="M73.873 205.441C73.873 206.112 73.674 206.768 73.3012 207.325C72.9285 207.883 72.3986 208.318 71.7787 208.575C71.1588 208.832 70.4767 208.899 69.8186 208.768C69.1605 208.637 68.556 208.314 68.0815 207.84C67.6071 207.365 67.284 206.761 67.1531 206.102C67.0222 205.444 67.0894 204.762 67.3461 204.142C67.6029 203.522 68.0377 202.993 68.5956 202.62C69.1535 202.247 69.8095 202.048 70.4804 202.048C71.3802 202.048 72.2431 202.406 72.8793 203.042C73.5155 203.678 73.873 204.541 73.873 205.441Z" fill="#C0AD90"/>
<path d="M73.873 188.682C73.873 189.353 73.674 190.009 73.3012 190.567C72.9285 191.125 72.3986 191.56 71.7787 191.816C71.1588 192.073 70.4767 192.14 69.8186 192.009C69.1605 191.879 68.556 191.555 68.0815 191.081C67.6071 190.607 67.284 190.002 67.1531 189.344C67.0222 188.686 67.0894 188.004 67.3461 187.384C67.6029 186.764 68.0377 186.234 68.5956 185.861C69.1535 185.489 69.8095 185.29 70.4804 185.29C71.3802 185.29 72.2431 185.647 72.8793 186.283C73.5155 186.919 73.873 187.782 73.873 188.682Z" fill="#C0AD90"/>
<path d="M73.873 222.913C73.873 223.584 73.674 224.24 73.3012 224.798C72.9285 225.356 72.3986 225.79 71.7787 226.047C71.1588 226.304 70.4767 226.371 69.8186 226.24C69.1605 226.109 68.556 225.786 68.0815 225.312C67.6071 224.837 67.284 224.233 67.1531 223.575C67.0222 222.917 67.0894 222.234 67.3461 221.615C67.6029 220.995 68.0377 220.465 68.5956 220.092C69.1535 219.719 69.8095 219.52 70.4804 219.52C71.3802 219.52 72.2431 219.878 72.8793 220.514C73.5155 221.15 73.873 222.013 73.873 222.913Z" fill="#C0AD90"/>
<path d="M73.873 241.063C73.873 241.734 73.674 242.39 73.3012 242.948C72.9285 243.506 72.3986 243.94 71.7787 244.197C71.1588 244.454 70.4767 244.521 69.8186 244.39C69.1605 244.259 68.556 243.936 68.0815 243.462C67.6071 242.987 67.284 242.383 67.1531 241.725C67.0222 241.067 67.0894 240.385 67.3461 239.765C67.6029 239.145 68.0377 238.615 68.5956 238.242C69.1535 237.869 69.8095 237.67 70.4804 237.67C71.3802 237.67 72.2431 238.028 72.8793 238.664C73.5155 239.3 73.873 240.163 73.873 241.063Z" fill="#C0AD90"/>
<path d="M120.724 323.281H89.8691C88.9693 323.281 88.1064 322.923 87.4702 322.287C86.834 321.651 86.4766 320.788 86.4766 319.888C86.4766 318.988 86.834 318.125 87.4702 317.489C88.1064 316.853 88.9693 316.496 89.8691 316.496H120.724C121.624 316.496 122.487 316.853 123.123 317.489C123.759 318.125 124.117 318.988 124.117 319.888C124.117 320.788 123.759 321.651 123.123 322.287C122.487 322.923 121.624 323.281 120.724 323.281Z" fill="#E0E0E0"/>
<path d="M119.841 293.392H88.9863C88.0865 293.392 87.2236 293.035 86.5874 292.399C85.9512 291.762 85.5938 290.899 85.5938 290C85.5938 289.1 85.9512 288.237 86.5874 287.601C87.2236 286.965 88.0865 286.607 88.9863 286.607H119.841C120.741 286.607 121.604 286.965 122.24 287.601C122.877 288.237 123.234 289.1 123.234 290C123.234 290.899 122.877 291.762 122.24 292.399C121.604 293.035 120.741 293.392 119.841 293.392Z" fill="#F1E7D0"/>
<path d="M200.905 293.392H135.938C135.507 293.381 135.082 293.285 134.688 293.107C134.295 292.93 133.941 292.676 133.647 292.36C133.353 292.044 133.125 291.672 132.977 291.267C132.828 290.862 132.762 290.431 132.783 290V290C132.762 289.569 132.828 289.138 132.977 288.733C133.125 288.327 133.353 287.956 133.647 287.64C133.941 287.324 134.295 287.07 134.688 286.892C135.082 286.715 135.507 286.618 135.938 286.607H200.905C201.337 286.618 201.762 286.715 202.155 286.892C202.548 287.07 202.903 287.324 203.197 287.64C203.49 287.956 203.718 288.327 203.867 288.733C204.015 289.138 204.081 289.569 204.06 290C204.081 290.431 204.015 290.862 203.867 291.267C203.718 291.672 203.49 292.044 203.197 292.36C202.903 292.676 202.548 292.93 202.155 293.107C201.762 293.285 201.337 293.381 200.905 293.392V293.392Z" fill="#E0E0E0"/>
<path d="M153.97 308.031H89.0025C88.571 308.021 88.1461 307.924 87.7526 307.746C87.3591 307.569 87.0051 307.315 86.7112 306.999C86.4172 306.683 86.1894 306.311 86.0411 305.906C85.8928 305.501 85.8269 305.07 85.8474 304.639V304.639C85.8269 304.208 85.8928 303.777 86.0411 303.372C86.1894 302.966 86.4172 302.595 86.7112 302.279C87.0051 301.963 87.3591 301.709 87.7526 301.531C88.1461 301.354 88.571 301.257 89.0025 301.246H153.97C154.401 301.257 154.826 301.354 155.219 301.531C155.613 301.709 155.967 301.963 156.261 302.279C156.555 302.595 156.783 302.966 156.931 303.372C157.079 303.777 157.145 304.208 157.125 304.639V304.639C157.145 305.07 157.079 305.501 156.931 305.906C156.783 306.311 156.555 306.683 156.261 306.999C155.967 307.315 155.613 307.569 155.219 307.746C154.826 307.924 154.401 308.021 153.97 308.031V308.031Z" fill="#E0E0E0"/>
<path d="M73.873 290.051C73.873 290.721 73.674 291.377 73.3012 291.935C72.9285 292.493 72.3986 292.928 71.7787 293.185C71.1588 293.442 70.4767 293.509 69.8186 293.378C69.1605 293.247 68.556 292.924 68.0815 292.449C67.6071 291.975 67.284 291.37 67.1531 290.712C67.0222 290.054 67.0894 289.372 67.3461 288.752C67.6029 288.132 68.0377 287.602 68.5956 287.23C69.1535 286.857 69.8095 286.658 70.4804 286.658C71.3802 286.658 72.2431 287.015 72.8793 287.652C73.5155 288.288 73.873 289.151 73.873 290.051Z" fill="#C0AD90"/>
<path d="M106.762 186.273H87.4585C86.5592 186.273 85.8301 187.002 85.8301 187.902V191.108C85.8301 192.007 86.5592 192.736 87.4585 192.736H106.762C107.661 192.736 108.39 192.007 108.39 191.108V187.902C108.39 187.002 107.661 186.273 106.762 186.273Z" fill="#C0AD90"/>
<path d="M119.841 363.195H88.9863C88.0865 363.195 87.2236 362.837 86.5874 362.201C85.9512 361.565 85.5938 360.702 85.5938 359.802C85.5938 358.902 85.9512 358.04 86.5874 357.403C87.2236 356.767 88.0865 356.41 88.9863 356.41H119.841C120.741 356.41 121.604 356.767 122.24 357.403C122.877 358.04 123.234 358.902 123.234 359.802C123.234 360.702 122.877 361.565 122.24 362.201C121.604 362.837 120.741 363.195 119.841 363.195Z" fill="#263238"/>
<path d="M169.256 363.195H138.4C137.501 363.195 136.638 362.837 136.001 362.201C135.365 361.565 135.008 360.702 135.008 359.802C135.008 358.902 135.365 358.039 136.001 357.403C136.638 356.767 137.501 356.409 138.4 356.409H169.256C170.155 356.409 171.018 356.767 171.654 357.403C172.291 358.039 172.648 358.902 172.648 359.802C172.648 360.702 172.291 361.565 171.654 362.201C171.018 362.837 170.155 363.195 169.256 363.195Z" fill="#C0AD90"/>
<path d="M73.873 359.853C73.873 360.524 73.674 361.18 73.3012 361.738C72.9285 362.295 72.3986 362.73 71.7787 362.987C71.1588 363.244 70.4767 363.311 69.8186 363.18C69.1605 363.049 68.556 362.726 68.0815 362.252C67.6071 361.777 67.284 361.173 67.1531 360.515C67.0222 359.856 67.0894 359.174 67.3461 358.554C67.6029 357.935 68.0377 357.405 68.5956 357.032C69.1535 356.659 69.8095 356.46 70.4804 356.46C71.3802 356.46 72.2431 356.818 72.8793 357.454C73.5155 358.09 73.873 358.953 73.873 359.853Z" fill="#C0AD90"/>
<path d="M73.873 375.967C73.873 376.638 73.674 377.294 73.3012 377.852C72.9285 378.41 72.3986 378.845 71.7787 379.101C71.1588 379.358 70.4767 379.425 69.8186 379.294C69.1605 379.163 68.556 378.84 68.0815 378.366C67.6071 377.891 67.284 377.287 67.1531 376.629C67.0222 375.971 67.0894 375.289 67.3461 374.669C67.6029 374.049 68.0377 373.519 68.5956 373.146C69.1535 372.773 69.8095 372.574 70.4804 372.574C71.3802 372.574 72.2431 372.932 72.8793 373.568C73.5155 374.204 73.873 375.067 73.873 375.967Z" fill="#C0AD90"/>
<path d="M106.762 373.559H87.4585C86.5592 373.559 85.8301 374.288 85.8301 375.187V378.393C85.8301 379.292 86.5592 380.021 87.4585 380.021H106.762C107.661 380.021 108.39 379.292 108.39 378.393V375.187C108.39 374.288 107.661 373.559 106.762 373.559Z" fill="#C0AD90"/>
<path d="M531.546 366.01H225.623V560.606H531.546V366.01Z" fill="white"/>
<path d="M280.718 366.01H225.623V560.606H280.718V366.01Z" fill="#EBEBEB"/>
<path d="M249.843 387.01C250.129 386.838 250.437 386.707 250.759 386.62L250.945 385.704H252.472L252.709 386.603C253.03 386.687 253.337 386.813 253.625 386.976L254.406 386.467L255.508 387.519L255.033 388.316C255.205 388.602 255.336 388.91 255.423 389.232L256.339 389.418V390.962L255.44 391.183C255.368 391.509 255.248 391.824 255.084 392.116L255.593 392.879L254.524 393.981L253.727 393.506C253.442 393.683 253.134 393.82 252.811 393.914L252.625 394.813H251.081L250.86 393.914C250.54 393.829 250.233 393.704 249.944 393.54L249.164 394.049L248.062 392.981L248.537 392.183C248.365 391.897 248.234 391.589 248.146 391.267L247.23 391.081V389.554L248.129 389.334C248.205 389.008 248.325 388.694 248.486 388.401L247.977 387.62L249.045 386.518L249.843 386.993V387.01ZM250.657 389.062C250.361 389.377 250.196 389.792 250.196 390.224C250.196 390.656 250.361 391.072 250.657 391.386C250.972 391.687 251.392 391.855 251.827 391.855C252.263 391.855 252.682 391.687 252.998 391.386C253.191 391.058 253.268 390.674 253.216 390.296C253.165 389.919 252.988 389.569 252.713 389.305C252.439 389.04 252.084 388.876 251.704 388.838C251.325 388.8 250.944 388.891 250.623 389.096L250.657 389.062Z" fill="#E0E0E0"/>
<path d="M262.566 430.01H238.581C238.256 430.01 237.935 429.946 237.636 429.821C237.336 429.697 237.064 429.514 236.836 429.284C236.607 429.054 236.426 428.78 236.303 428.48C236.181 428.18 236.119 427.858 236.121 427.534V427.534C236.121 426.881 236.38 426.256 236.842 425.794C237.303 425.333 237.928 425.074 238.581 425.074H262.6C262.924 425.072 263.246 425.134 263.546 425.256C263.847 425.379 264.12 425.56 264.35 425.788C264.58 426.017 264.763 426.289 264.888 426.588C265.012 426.888 265.076 427.209 265.076 427.534V427.534C265.077 427.862 265.011 428.187 264.885 428.489C264.758 428.792 264.573 429.067 264.339 429.297C264.106 429.527 263.829 429.709 263.524 429.831C263.22 429.954 262.894 430.015 262.566 430.01V430.01Z" fill="#E0E0E0"/>
<path d="M262.566 417.441H238.581C237.927 417.436 237.301 417.173 236.84 416.709C236.38 416.245 236.121 415.618 236.121 414.964V414.964C236.121 414.312 236.38 413.686 236.841 413.225C237.303 412.764 237.928 412.504 238.581 412.504H262.6C262.924 412.502 263.246 412.564 263.546 412.687C263.847 412.809 264.12 412.99 264.35 413.219C264.58 413.447 264.763 413.719 264.888 414.019C265.012 414.318 265.076 414.64 265.076 414.964V414.964C265.076 415.292 265.011 415.617 264.885 415.92C264.758 416.222 264.573 416.497 264.339 416.727C264.106 416.958 263.829 417.139 263.524 417.262C263.22 417.384 262.894 417.445 262.566 417.441Z" fill="#E0E0E0"/>
<path d="M262.566 405.924H238.581C237.928 405.924 237.303 405.665 236.841 405.203C236.38 404.742 236.121 404.116 236.121 403.464C236.121 402.81 236.38 402.183 236.84 401.719C237.301 401.255 237.927 400.992 238.581 400.988H262.6C263.242 400.996 263.856 401.254 264.312 401.707C264.767 402.159 265.029 402.771 265.043 403.413V403.413C265.049 403.742 264.99 404.069 264.869 404.374C264.747 404.679 264.565 404.957 264.334 405.191C264.104 405.426 263.828 405.611 263.524 405.737C263.221 405.862 262.895 405.926 262.566 405.924V405.924Z" fill="#E0E0E0"/>
<path d="M327.11 394.762H304.346C303.694 394.762 303.068 394.503 302.607 394.042C302.146 393.581 301.887 392.955 301.887 392.303V392.303C301.885 391.978 301.946 391.657 302.069 391.356C302.192 391.056 302.373 390.783 302.601 390.553C302.83 390.322 303.102 390.14 303.401 390.015C303.701 389.89 304.022 389.826 304.346 389.826H327.11C327.435 389.826 327.756 389.89 328.055 390.015C328.355 390.14 328.627 390.322 328.856 390.553C329.084 390.783 329.265 391.056 329.388 391.356C329.51 391.657 329.572 391.978 329.57 392.303V392.303C329.57 392.955 329.311 393.581 328.85 394.042C328.388 394.503 327.763 394.762 327.11 394.762V394.762Z" fill="#263238"/>
<path d="M327.11 407.688H304.346C304.022 407.688 303.701 407.624 303.401 407.499C303.102 407.374 302.83 407.192 302.601 406.961C302.373 406.731 302.192 406.458 302.069 406.158C301.946 405.857 301.885 405.536 301.887 405.211V405.211C301.887 404.559 302.146 403.933 302.607 403.472C303.068 403.011 303.694 402.752 304.346 402.752H327.11C327.763 402.752 328.388 403.011 328.85 403.472C329.311 403.933 329.57 404.559 329.57 405.211C329.572 405.536 329.51 405.857 329.388 406.158C329.265 406.458 329.084 406.731 328.856 406.961C328.627 407.192 328.355 407.374 328.055 407.499C327.756 407.624 327.435 407.688 327.11 407.688V407.688Z" fill="#E0E0E0"/>
<path d="M327.11 421.038H304.346C303.694 421.038 303.068 420.779 302.607 420.317C302.146 419.856 301.887 419.23 301.887 418.578V418.578C301.885 418.254 301.946 417.932 302.069 417.632C302.192 417.331 302.373 417.058 302.601 416.828C302.83 416.598 303.102 416.415 303.401 416.29C303.701 416.166 304.022 416.102 304.346 416.102H327.11C327.435 416.102 327.756 416.166 328.055 416.29C328.355 416.415 328.627 416.598 328.856 416.828C329.084 417.058 329.265 417.331 329.388 417.632C329.51 417.932 329.572 418.254 329.57 418.578C329.57 419.23 329.311 419.856 328.85 420.317C328.388 420.779 327.763 421.038 327.11 421.038V421.038Z" fill="#F1E7D0"/>
<path d="M317.408 446.855H304.346C304.022 446.855 303.701 446.79 303.401 446.666C303.102 446.541 302.83 446.358 302.601 446.128C302.373 445.898 302.192 445.625 302.069 445.325C301.946 445.024 301.885 444.702 301.887 444.378V444.378C301.887 443.726 302.146 443.1 302.607 442.639C303.068 442.178 303.694 441.918 304.346 441.918H317.408C318.06 441.918 318.686 442.178 319.147 442.639C319.608 443.1 319.867 443.726 319.867 444.378V444.378C319.869 444.702 319.808 445.024 319.685 445.325C319.562 445.625 319.381 445.898 319.153 446.128C318.924 446.358 318.652 446.541 318.353 446.666C318.053 446.79 317.732 446.855 317.408 446.855V446.855Z" fill="#263238"/>
<path d="M317.408 460.238H304.346C304.022 460.238 303.701 460.174 303.401 460.049C303.102 459.924 302.83 459.742 302.601 459.512C302.373 459.281 302.192 459.008 302.069 458.708C301.946 458.407 301.885 458.086 301.887 457.761V457.761C301.887 457.109 302.146 456.483 302.607 456.022C303.068 455.561 303.694 455.302 304.346 455.302H317.408C318.06 455.302 318.686 455.561 319.147 456.022C319.608 456.483 319.867 457.109 319.867 457.761V457.761C319.869 458.086 319.808 458.407 319.685 458.708C319.562 459.008 319.381 459.281 319.153 459.512C318.924 459.742 318.652 459.924 318.353 460.049C318.053 460.174 317.732 460.238 317.408 460.238V460.238Z" fill="#263238"/>
<path d="M356.165 460.238H332.248C331.591 460.238 330.961 459.977 330.497 459.513C330.032 459.048 329.771 458.418 329.771 457.762V457.762C329.776 457.108 330.039 456.482 330.503 456.021C330.967 455.561 331.594 455.302 332.248 455.302H356.165C356.49 455.3 356.812 455.362 357.112 455.484C357.412 455.607 357.685 455.788 357.916 456.016C358.146 456.245 358.329 456.517 358.453 456.816C358.578 457.116 358.642 457.437 358.642 457.762V457.762C358.642 458.418 358.381 459.048 357.917 459.513C357.452 459.977 356.822 460.238 356.165 460.238Z" fill="#E0E0E0"/>
<path d="M342.646 472.129H318.712C318.059 472.129 317.434 471.87 316.972 471.408C316.511 470.947 316.252 470.321 316.252 469.669V469.669C316.252 469.015 316.511 468.388 316.971 467.924C317.432 467.46 318.058 467.197 318.712 467.193H342.646C343.3 467.197 343.925 467.46 344.386 467.924C344.847 468.388 345.106 469.015 345.106 469.669V469.669C345.106 470.321 344.846 470.947 344.385 471.408C343.924 471.87 343.298 472.129 342.646 472.129V472.129Z" fill="#F1E7D0"/>
<path d="M347.94 480.779H331.504C330.576 480.779 329.824 481.531 329.824 482.459V484.036C329.824 484.964 330.576 485.715 331.504 485.715H347.94C348.868 485.715 349.62 484.964 349.62 484.036V482.459C349.62 481.531 348.868 480.779 347.94 480.779Z" fill="#F1E7D0"/>
<path d="M347.143 512.313H332.283C331.958 512.313 331.636 512.249 331.335 512.125C331.035 512 330.762 511.818 330.532 511.588C330.302 511.358 330.12 511.085 329.995 510.785C329.871 510.484 329.807 510.162 329.807 509.837V509.837C329.807 509.512 329.871 509.191 329.995 508.892C330.12 508.592 330.303 508.32 330.533 508.092C330.763 507.863 331.036 507.682 331.337 507.56C331.637 507.437 331.959 507.375 332.283 507.377H347.143C347.795 507.377 348.42 507.636 348.882 508.098C349.343 508.559 349.602 509.184 349.602 509.837V509.837C349.604 510.161 349.542 510.483 349.42 510.783C349.297 511.084 349.116 511.357 348.888 511.587C348.659 511.817 348.387 512 348.088 512.125C347.788 512.249 347.467 512.313 347.143 512.313V512.313Z" fill="#F1E7D0"/>
<path d="M347.143 540.404H332.283C331.959 540.406 331.637 540.344 331.337 540.221C331.036 540.099 330.763 539.918 330.533 539.689C330.303 539.461 330.12 539.189 329.995 538.889C329.871 538.59 329.807 538.269 329.807 537.944C329.807 537.619 329.871 537.297 329.995 536.996C330.12 536.696 330.302 536.423 330.532 536.193C330.762 535.963 331.035 535.781 331.335 535.656C331.636 535.532 331.958 535.468 332.283 535.468H347.143C347.467 535.468 347.788 535.532 348.088 535.656C348.387 535.781 348.659 535.964 348.888 536.194C349.116 536.424 349.297 536.697 349.42 536.998C349.542 537.298 349.604 537.62 349.602 537.944V537.944C349.602 538.596 349.343 539.222 348.882 539.683C348.42 540.145 347.795 540.404 347.143 540.404V540.404Z" fill="#F1E7D0"/>
<path d="M383.697 540.404H357.643C357.318 540.406 356.996 540.344 356.696 540.221C356.396 540.099 356.123 539.918 355.892 539.689C355.662 539.461 355.48 539.189 355.355 538.889C355.23 538.59 355.166 538.269 355.166 537.944V537.944C355.166 537.287 355.427 536.657 355.891 536.193C356.356 535.728 356.986 535.468 357.643 535.468H383.697C384.022 535.468 384.343 535.532 384.642 535.656C384.942 535.781 385.214 535.964 385.443 536.194C385.671 536.424 385.852 536.697 385.975 536.998C386.097 537.298 386.159 537.62 386.157 537.944C386.157 538.596 385.898 539.222 385.436 539.683C384.975 540.145 384.35 540.404 383.697 540.404V540.404Z" fill="#C0AD90"/>
<path d="M401.932 540.404H398.184C397.859 540.406 397.538 540.344 397.237 540.221C396.937 540.099 396.664 539.918 396.433 539.689C396.203 539.461 396.021 539.189 395.896 538.889C395.771 538.59 395.707 538.269 395.707 537.944C395.707 537.619 395.771 537.297 395.896 536.996C396.02 536.696 396.202 536.423 396.432 536.193C396.662 535.963 396.935 535.781 397.236 535.656C397.536 535.532 397.858 535.468 398.184 535.468H401.932C402.589 535.468 403.219 535.728 403.684 536.193C404.148 536.657 404.409 537.287 404.409 537.944C404.404 538.598 404.142 539.224 403.678 539.684C403.214 540.145 402.586 540.404 401.932 540.404V540.404Z" fill="#E0E0E0"/>
<path d="M382.137 512.313H360.086C359.429 512.313 358.799 512.052 358.335 511.588C357.87 511.124 357.609 510.494 357.609 509.837V509.837C357.609 509.512 357.674 509.191 357.798 508.892C357.923 508.592 358.106 508.32 358.336 508.092C358.566 507.863 358.839 507.682 359.139 507.56C359.44 507.437 359.762 507.375 360.086 507.377H382.137C382.79 507.377 383.415 507.636 383.877 508.098C384.338 508.559 384.597 509.184 384.597 509.837V509.837C384.599 510.161 384.537 510.483 384.415 510.783C384.292 511.084 384.111 511.357 383.883 511.587C383.654 511.817 383.382 512 383.083 512.125C382.783 512.249 382.462 512.313 382.137 512.313V512.313Z" fill="#E0E0E0"/>
<path d="M430.43 524.645H360.119C359.462 524.645 358.832 524.384 358.368 523.92C357.904 523.455 357.643 522.825 357.643 522.168V522.168C357.643 521.844 357.707 521.523 357.831 521.223C357.956 520.924 358.139 520.652 358.369 520.423C358.599 520.195 358.872 520.014 359.173 519.891C359.473 519.769 359.795 519.707 360.119 519.709H430.43C431.082 519.709 431.708 519.968 432.169 520.429C432.63 520.89 432.889 521.516 432.889 522.168V522.168C432.891 522.493 432.829 522.814 432.707 523.115C432.584 523.415 432.403 523.688 432.175 523.919C431.946 524.149 431.674 524.331 431.375 524.456C431.075 524.581 430.754 524.645 430.43 524.645V524.645Z" fill="#E0E0E0"/>
<path d="M438.54 512.313H393.656C392.999 512.313 392.369 512.052 391.905 511.588C391.441 511.124 391.18 510.494 391.18 509.837V509.837C391.184 509.183 391.447 508.557 391.911 508.097C392.375 507.636 393.002 507.377 393.656 507.377H438.54C438.864 507.375 439.186 507.437 439.486 507.56C439.786 507.682 440.06 507.863 440.29 508.092C440.52 508.32 440.703 508.592 440.827 508.892C440.952 509.191 441.016 509.512 441.016 509.837V509.837C441.016 510.494 440.755 511.124 440.291 511.588C439.826 512.052 439.196 512.313 438.54 512.313V512.313Z" fill="#C0AD90"/>
<path d="M377.93 480.779H357.761C356.834 480.779 356.082 481.531 356.082 482.459V484.036C356.082 484.964 356.834 485.715 357.761 485.715H377.93C378.857 485.715 379.609 484.964 379.609 484.036V482.459C379.609 481.531 378.857 480.779 377.93 480.779Z" fill="#C0AD90"/>
<path d="M394.029 480.78H387.838C386.91 480.78 386.158 481.531 386.158 482.459V484.036C386.158 484.964 386.91 485.716 387.838 485.716H394.029C394.956 485.716 395.708 484.964 395.708 484.036V482.459C395.708 481.531 394.956 480.78 394.029 480.78Z" fill="#E0E0E0"/>
<path d="M429.495 480.779H404.662C403.734 480.779 402.982 481.531 402.982 482.459V484.036C402.982 484.964 403.734 485.715 404.662 485.715H429.495C430.423 485.715 431.174 484.964 431.174 484.036V482.459C431.174 481.531 430.423 480.779 429.495 480.779Z" fill="#E0E0E0"/>
<path d="M358.844 472.129H353.518C353.193 472.131 352.871 472.069 352.571 471.946C352.271 471.824 351.998 471.643 351.767 471.414C351.537 471.186 351.354 470.914 351.23 470.614C351.105 470.315 351.041 469.994 351.041 469.669V469.669C351.041 469.012 351.302 468.382 351.766 467.918C352.231 467.454 352.861 467.193 353.518 467.193H358.844C359.498 467.197 360.123 467.46 360.584 467.924C361.045 468.388 361.303 469.015 361.303 469.669C361.303 470.321 361.044 470.947 360.583 471.408C360.122 471.87 359.496 472.129 358.844 472.129V472.129Z" fill="#263238"/>
<path d="M404.002 472.129H370.077C369.424 472.129 368.799 471.87 368.338 471.408C367.876 470.947 367.617 470.321 367.617 469.669V469.669C367.617 469.015 367.876 468.388 368.337 467.924C368.797 467.46 369.423 467.197 370.077 467.193H404.002C404.658 467.197 405.285 467.459 405.748 467.923C406.212 468.386 406.474 469.014 406.479 469.669V469.669C406.474 470.323 406.211 470.949 405.747 471.409C405.283 471.87 404.656 472.129 404.002 472.129Z" fill="#E0E0E0"/>
<path d="M363.546 394.762H340.799C340.147 394.762 339.522 394.503 339.06 394.042C338.599 393.581 338.34 392.955 338.34 392.303V392.303C338.338 391.978 338.4 391.657 338.522 391.356C338.645 391.056 338.826 390.783 339.054 390.553C339.283 390.322 339.555 390.14 339.854 390.015C340.154 389.89 340.475 389.826 340.799 389.826H363.546C364.203 389.826 364.833 390.087 365.298 390.552C365.762 391.016 366.023 391.646 366.023 392.303V392.303C366.023 392.627 365.959 392.948 365.834 393.248C365.71 393.547 365.527 393.819 365.297 394.048C365.066 394.277 364.793 394.457 364.493 394.58C364.193 394.703 363.871 394.765 363.546 394.762V394.762Z" fill="#C0AD90"/>
<path d="M392.943 407.688H340.799C340.475 407.688 340.154 407.624 339.854 407.499C339.555 407.374 339.283 407.191 339.054 406.961C338.826 406.731 338.645 406.458 338.522 406.158C338.4 405.857 338.338 405.536 338.34 405.211V405.211C338.34 404.559 338.599 403.933 339.06 403.472C339.522 403.011 340.147 402.752 340.799 402.752H392.943C393.267 402.749 393.589 402.811 393.889 402.934C394.19 403.056 394.463 403.237 394.693 403.466C394.923 403.695 395.106 403.966 395.231 404.266C395.355 404.565 395.419 404.887 395.419 405.211V405.211C395.419 405.868 395.159 406.498 394.694 406.962C394.23 407.427 393.6 407.688 392.943 407.688V407.688Z" fill="#263238"/>
<path d="M448.92 421.038H340.799C340.147 421.038 339.522 420.779 339.06 420.317C338.599 419.856 338.34 419.23 338.34 418.578V418.578C338.338 418.254 338.4 417.932 338.522 417.632C338.645 417.331 338.826 417.058 339.054 416.828C339.283 416.598 339.555 416.415 339.854 416.29C340.154 416.166 340.475 416.102 340.799 416.102H448.92C449.244 416.102 449.566 416.166 449.865 416.29C450.165 416.415 450.436 416.598 450.665 416.828C450.894 417.058 451.074 417.331 451.197 417.632C451.32 417.932 451.382 418.254 451.379 418.578V418.578C451.379 419.23 451.12 419.856 450.659 420.317C450.198 420.779 449.572 421.038 448.92 421.038V421.038Z" fill="#E0E0E0"/>
<path d="M391.772 430.451H340.799C340.146 430.447 339.52 430.184 339.059 429.72C338.598 429.256 338.34 428.629 338.34 427.975V427.975C338.34 427.322 338.599 426.697 339.06 426.236C339.522 425.774 340.147 425.515 340.799 425.515H391.772C392.097 425.513 392.418 425.575 392.719 425.698C393.019 425.82 393.292 426.001 393.523 426.23C393.753 426.458 393.935 426.73 394.06 427.03C394.185 427.329 394.249 427.65 394.249 427.975V427.975C394.249 428.632 393.988 429.262 393.524 429.726C393.059 430.19 392.429 430.451 391.772 430.451V430.451Z" fill="#E0E0E0"/>
<path d="M381.356 446.855H330.366C330.041 446.855 329.72 446.79 329.421 446.666C329.121 446.541 328.849 446.358 328.621 446.128C328.392 445.898 328.211 445.625 328.089 445.325C327.966 445.024 327.904 444.702 327.906 444.378C327.906 443.726 328.165 443.1 328.627 442.639C329.088 442.178 329.714 441.918 330.366 441.918H381.356C382.008 441.918 382.634 442.178 383.095 442.639C383.556 443.1 383.815 443.726 383.815 444.378V444.378C383.818 444.702 383.756 445.024 383.633 445.325C383.51 445.625 383.33 445.898 383.101 446.128C382.872 446.358 382.601 446.541 382.301 446.666C382.001 446.79 381.68 446.855 381.356 446.855V446.855Z" fill="#C0AD90"/>
<path d="M409.905 446.855H392.807C392.15 446.855 391.52 446.594 391.055 446.129C390.591 445.665 390.33 445.035 390.33 444.378V444.378C390.33 444.054 390.394 443.732 390.519 443.433C390.644 443.133 390.826 442.862 391.056 442.633C391.287 442.404 391.56 442.223 391.86 442.101C392.161 441.978 392.482 441.916 392.807 441.919H409.905C410.559 441.919 411.186 442.177 411.65 442.638C412.114 443.099 412.377 443.724 412.382 444.378C412.382 445.035 412.121 445.665 411.656 446.129C411.192 446.594 410.562 446.855 409.905 446.855V446.855Z" fill="#F1E7D0"/>
<path d="M453.583 446.769H421.353C421.029 446.772 420.707 446.71 420.407 446.587C420.107 446.464 419.834 446.284 419.603 446.055C419.373 445.826 419.19 445.555 419.066 445.255C418.941 444.955 418.877 444.634 418.877 444.31V444.31C418.877 443.653 419.138 443.023 419.602 442.559C420.067 442.094 420.697 441.833 421.353 441.833H453.583C453.907 441.833 454.228 441.897 454.528 442.022C454.827 442.147 455.099 442.329 455.328 442.56C455.557 442.79 455.737 443.063 455.86 443.363C455.982 443.664 456.044 443.985 456.042 444.31V444.31C456.042 444.962 455.783 445.588 455.322 446.049C454.861 446.51 454.235 446.769 453.583 446.769V446.769Z" fill="#263238"/>
<path d="M497.499 446.77H465.27C464.618 446.77 463.992 446.511 463.531 446.049C463.07 445.588 462.811 444.962 462.811 444.31V444.31C462.808 443.986 462.87 443.664 462.993 443.364C463.116 443.063 463.296 442.79 463.525 442.56C463.754 442.33 464.025 442.147 464.325 442.022C464.625 441.898 464.946 441.833 465.27 441.833H497.499C498.156 441.833 498.786 442.094 499.251 442.559C499.715 443.023 499.976 443.653 499.976 444.31V444.31C499.976 444.634 499.912 444.956 499.787 445.255C499.662 445.555 499.48 445.827 499.25 446.055C499.019 446.284 498.746 446.465 498.446 446.587C498.145 446.71 497.824 446.772 497.499 446.77V446.77Z" fill="#E0E0E0"/>
<path d="M252.151 443.326H238.581C237.927 443.322 237.301 443.059 236.84 442.595C236.38 442.131 236.121 441.504 236.121 440.85C236.121 440.197 236.38 439.572 236.841 439.111C237.303 438.649 237.928 438.39 238.581 438.39H252.151C252.803 438.39 253.429 438.649 253.89 439.111C254.351 439.572 254.61 440.197 254.61 440.85V440.85C254.61 441.504 254.352 442.131 253.891 442.595C253.43 443.059 252.805 443.322 252.151 443.326V443.326Z" fill="#E0E0E0"/>
<path d="M248.097 483.257H238.581C238.256 483.257 237.935 483.193 237.636 483.068C237.336 482.943 237.064 482.761 236.836 482.531C236.607 482.3 236.426 482.027 236.303 481.727C236.181 481.426 236.119 481.105 236.121 480.78V480.78C236.121 480.128 236.38 479.502 236.842 479.041C237.303 478.58 237.928 478.321 238.581 478.321H248.131C248.783 478.321 249.409 478.58 249.87 479.041C250.331 479.502 250.59 480.128 250.59 480.78V480.78C250.593 481.108 250.53 481.432 250.405 481.735C250.28 482.037 250.096 482.312 249.864 482.543C249.632 482.773 249.356 482.955 249.052 483.078C248.749 483.201 248.424 483.261 248.097 483.257Z" fill="#E0E0E0"/>
<path d="M265.043 456.624H238.581C237.928 456.624 237.303 456.365 236.842 455.904C236.38 455.443 236.121 454.817 236.121 454.165C236.119 453.84 236.181 453.519 236.303 453.218C236.426 452.918 236.607 452.645 236.836 452.415C237.064 452.184 237.336 452.002 237.636 451.877C237.935 451.752 238.256 451.688 238.581 451.688H265.043C265.367 451.688 265.688 451.752 265.988 451.877C266.287 452.002 266.559 452.184 266.788 452.415C267.016 452.645 267.197 452.918 267.32 453.218C267.442 453.519 267.504 453.84 267.502 454.165V454.165C267.502 454.817 267.243 455.443 266.782 455.904C266.321 456.365 265.695 456.624 265.043 456.624V456.624Z" fill="#E0E0E0"/>
<path d="M260.395 469.941H238.581C237.928 469.941 237.303 469.681 236.842 469.22C236.38 468.759 236.121 468.133 236.121 467.481V467.481C236.119 467.157 236.181 466.835 236.303 466.534C236.426 466.234 236.607 465.961 236.836 465.731C237.064 465.501 237.336 465.318 237.636 465.193C237.935 465.069 238.256 465.004 238.581 465.004H260.429C260.753 465.004 261.074 465.069 261.374 465.193C261.673 465.318 261.945 465.501 262.174 465.731C262.403 465.961 262.583 466.234 262.706 466.534C262.829 466.835 262.891 467.157 262.888 467.481V467.481C262.888 467.807 262.824 468.129 262.698 468.43C262.572 468.731 262.388 469.003 262.156 469.232C261.924 469.461 261.649 469.642 261.346 469.763C261.044 469.885 260.721 469.945 260.395 469.941V469.941Z" fill="#E0E0E0"/>
<path d="M293.203 392.303C293.203 392.799 293.055 393.285 292.78 393.697C292.504 394.11 292.112 394.432 291.653 394.622C291.194 394.812 290.689 394.862 290.202 394.765C289.715 394.668 289.268 394.429 288.917 394.078C288.566 393.727 288.327 393.279 288.23 392.792C288.133 392.306 288.183 391.801 288.373 391.342C288.563 390.883 288.885 390.491 289.297 390.215C289.71 389.939 290.196 389.792 290.692 389.792C291.358 389.792 291.997 390.057 292.467 390.528C292.938 390.998 293.203 391.637 293.203 392.303V392.303Z" fill="#C0AD90"/>
<path d="M290.692 381.633C292.079 381.633 293.203 380.509 293.203 379.122C293.203 377.736 292.079 376.612 290.692 376.612C289.306 376.612 288.182 377.736 288.182 379.122C288.182 380.509 289.306 381.633 290.692 381.633Z" fill="#C0AD90"/>
<path d="M290.692 407.687C292.079 407.687 293.203 406.563 293.203 405.177C293.203 403.79 292.079 402.666 290.692 402.666C289.306 402.666 288.182 403.79 288.182 405.177C288.182 406.563 289.306 407.687 290.692 407.687Z" fill="#C0AD90"/>
<path d="M290.692 421.089C292.079 421.089 293.203 419.965 293.203 418.578C293.203 417.192 292.079 416.068 290.692 416.068C289.306 416.068 288.182 417.192 288.182 418.578C288.182 419.965 289.306 421.089 290.692 421.089Z" fill="#C0AD90"/>
<path d="M290.692 434.472C292.079 434.472 293.203 433.348 293.203 431.961C293.203 430.575 292.079 429.451 290.692 429.451C289.306 429.451 288.182 430.575 288.182 431.961C288.182 433.348 289.306 434.472 290.692 434.472Z" fill="#C0AD90"/>
<path d="M293.203 445.345C293.206 445.842 293.062 446.329 292.788 446.744C292.514 447.159 292.123 447.484 291.665 447.677C291.206 447.869 290.701 447.921 290.213 447.826C289.725 447.731 289.276 447.494 288.923 447.143C288.57 446.793 288.329 446.346 288.231 445.858C288.133 445.371 288.182 444.865 288.371 444.405C288.561 443.946 288.882 443.552 289.296 443.276C289.709 442.999 290.195 442.852 290.692 442.852C291.355 442.852 291.991 443.114 292.461 443.581C292.932 444.048 293.198 444.682 293.203 445.345V445.345Z" fill="#C0AD90"/>
<path d="M290.692 461.255C292.079 461.255 293.203 460.131 293.203 458.745C293.203 457.358 292.079 456.234 290.692 456.234C289.306 456.234 288.182 457.358 288.182 458.745C288.182 460.131 289.306 461.255 290.692 461.255Z" fill="#C0AD90"/>
<path d="M290.692 474.639C292.079 474.639 293.203 473.515 293.203 472.128C293.203 470.742 292.079 469.618 290.692 469.618C289.306 469.618 288.182 470.742 288.182 472.128C288.182 473.515 289.306 474.639 290.692 474.639Z" fill="#C0AD90"/>
<path d="M293.203 485.53C293.203 486.026 293.055 486.511 292.78 486.924C292.504 487.337 292.112 487.659 291.653 487.849C291.194 488.039 290.689 488.089 290.202 487.992C289.715 487.895 289.268 487.656 288.917 487.305C288.566 486.954 288.327 486.506 288.23 486.019C288.133 485.532 288.183 485.028 288.373 484.569C288.563 484.11 288.885 483.718 289.297 483.442C289.71 483.166 290.196 483.019 290.692 483.019C291.358 483.019 291.997 483.284 292.467 483.754C292.938 484.225 293.203 484.864 293.203 485.53V485.53Z" fill="#C0AD90"/>
<path d="M293.203 498.913C293.203 499.41 293.055 499.895 292.78 500.308C292.504 500.721 292.112 501.043 291.653 501.233C291.194 501.423 290.689 501.472 290.202 501.376C289.715 501.279 289.268 501.04 288.917 500.688C288.566 500.337 288.327 499.89 288.23 499.403C288.133 498.916 288.183 498.411 288.373 497.953C288.563 497.494 288.885 497.102 289.297 496.826C289.71 496.55 290.196 496.403 290.692 496.403C291.358 496.403 291.997 496.667 292.467 497.138C292.938 497.609 293.203 498.247 293.203 498.913V498.913Z" fill="#C0AD90"/>
<path d="M290.692 514.824C292.079 514.824 293.203 513.7 293.203 512.313C293.203 510.927 292.079 509.803 290.692 509.803C289.306 509.803 288.182 510.927 288.182 512.313C288.182 513.7 289.306 514.824 290.692 514.824Z" fill="#C0AD90"/>
<path d="M293.203 525.697C293.203 526.194 293.055 526.679 292.78 527.092C292.504 527.505 292.112 527.826 291.653 528.016C291.194 528.206 290.689 528.256 290.202 528.159C289.715 528.062 289.268 527.823 288.917 527.472C288.566 527.121 288.327 526.674 288.23 526.187C288.133 525.7 288.183 525.195 288.373 524.736C288.563 524.278 288.885 523.886 289.297 523.61C289.71 523.334 290.196 523.187 290.692 523.187C291.358 523.187 291.997 523.451 292.467 523.922C292.938 524.393 293.203 525.031 293.203 525.697V525.697Z" fill="#C0AD90"/>
<path d="M290.692 541.608C292.079 541.608 293.203 540.484 293.203 539.098C293.203 537.711 292.079 536.587 290.692 536.587C289.306 536.587 288.182 537.711 288.182 539.098C288.182 540.484 289.306 541.608 290.692 541.608Z" fill="#C0AD90"/>
<path d="M234.8 339.48H525.049C526.772 339.48 528.424 340.165 529.643 341.383C530.861 342.601 531.546 344.254 531.546 345.977V366.095H225.623V348.64C225.623 347.436 225.861 346.243 226.322 345.131C226.783 344.018 227.46 343.008 228.312 342.157C229.164 341.306 230.176 340.632 231.289 340.173C232.403 339.713 233.596 339.478 234.8 339.48V339.48Z" fill="#E0E0E0"/>
<path d="M241.43 357.206C243.444 357.206 245.077 355.574 245.077 353.559C245.077 351.545 243.444 349.912 241.43 349.912C239.416 349.912 237.783 351.545 237.783 353.559C237.783 355.574 239.416 357.206 241.43 357.206Z" fill="white"/>
<path d="M256.29 353.559C256.29 354.281 256.076 354.986 255.675 355.586C255.275 356.185 254.705 356.653 254.039 356.929C253.372 357.205 252.639 357.277 251.932 357.136C251.224 356.996 250.574 356.648 250.064 356.138C249.554 355.628 249.207 354.978 249.066 354.271C248.925 353.563 248.998 352.83 249.274 352.164C249.55 351.497 250.017 350.928 250.617 350.527C251.217 350.126 251.922 349.912 252.643 349.912C253.123 349.91 253.598 350.003 254.041 350.185C254.485 350.368 254.888 350.636 255.227 350.976C255.566 351.315 255.835 351.718 256.017 352.161C256.2 352.605 256.292 353.08 256.29 353.559V353.559Z" fill="white"/>
<path d="M267.505 353.559C267.505 354.281 267.291 354.986 266.89 355.586C266.49 356.185 265.92 356.653 265.254 356.929C264.587 357.205 263.854 357.277 263.146 357.136C262.439 356.996 261.789 356.648 261.279 356.138C260.769 355.628 260.422 354.978 260.281 354.271C260.14 353.563 260.213 352.83 260.489 352.164C260.765 351.497 261.232 350.928 261.832 350.527C262.432 350.126 263.137 349.912 263.858 349.912C264.337 349.91 264.813 350.003 265.256 350.185C265.7 350.368 266.103 350.636 266.442 350.976C266.781 351.315 267.049 351.718 267.232 352.161C267.414 352.605 267.507 353.08 267.505 353.559Z" fill="white"/>
<path d="M290.691 557.57L316.56 585.541L340.019 557.57H290.691Z" fill="white"/>
<path d="M249.658 171.855H480.758C482.185 171.855 483.552 172.421 484.561 173.43C485.569 174.438 486.136 175.806 486.136 177.232V293.478C486.136 295.183 485.458 296.818 484.253 298.024C483.047 299.229 481.412 299.907 479.707 299.907H249.658C248.232 299.907 246.865 299.34 245.856 298.332C244.848 297.323 244.281 295.955 244.281 294.529V177.232C244.281 175.806 244.848 174.438 245.856 173.43C246.865 172.421 248.232 171.855 249.658 171.855Z" fill="white"/>
<path d="M250.164 171.855H480.246C481.807 171.855 483.304 172.475 484.408 173.579C485.512 174.683 486.132 176.18 486.132 177.741V199.352H244.278V177.809C244.269 177.03 244.414 176.258 244.706 175.536C244.998 174.814 245.43 174.157 245.978 173.603C246.525 173.049 247.177 172.609 247.896 172.309C248.614 172.009 249.385 171.855 250.164 171.855V171.855Z" fill="#E0E0E0"/>
<path d="M262.28 192.261C264.772 192.261 266.792 190.241 266.792 187.749C266.792 185.257 264.772 183.237 262.28 183.237C259.788 183.237 257.768 185.257 257.768 187.749C257.768 190.241 259.788 192.261 262.28 192.261Z" fill="white"/>
<path d="M280.63 187.749C280.63 188.642 280.365 189.515 279.868 190.257C279.371 191 278.666 191.578 277.84 191.919C277.015 192.26 276.107 192.349 275.231 192.173C274.355 191.998 273.551 191.566 272.921 190.933C272.291 190.301 271.862 189.495 271.69 188.619C271.518 187.742 271.61 186.835 271.954 186.01C272.298 185.186 272.879 184.483 273.623 183.989C274.367 183.495 275.241 183.233 276.135 183.237C276.726 183.237 277.312 183.354 277.859 183.581C278.405 183.808 278.901 184.14 279.319 184.559C279.737 184.979 280.067 185.476 280.292 186.024C280.517 186.571 280.632 187.157 280.63 187.749V187.749Z" fill="white"/>
<path d="M289.995 192.261C292.486 192.261 294.507 190.241 294.507 187.749C294.507 185.257 292.486 183.237 289.995 183.237C287.503 183.237 285.482 185.257 285.482 187.749C285.482 190.241 287.503 192.261 289.995 192.261Z" fill="white"/>
<path d="M313.963 238.095H285.856C285.456 238.097 285.059 238.02 284.689 237.869C284.319 237.717 283.982 237.494 283.698 237.211C283.414 236.929 283.189 236.594 283.035 236.224C282.882 235.855 282.803 235.459 282.803 235.058V235.058C282.801 234.657 282.878 234.259 283.031 233.887C283.183 233.516 283.408 233.178 283.692 232.894C283.976 232.61 284.314 232.386 284.685 232.233C285.056 232.08 285.454 232.003 285.856 232.005H313.963C314.773 232.005 315.55 232.327 316.122 232.899C316.695 233.472 317.017 234.249 317.017 235.058V235.058C317.012 235.865 316.688 236.638 316.116 237.207C315.544 237.775 314.77 238.095 313.963 238.095Z" fill="#263238"/>
<path d="M313.963 254.141H285.856C285.455 254.141 285.058 254.062 284.688 253.909C284.317 253.755 283.981 253.53 283.697 253.247C283.413 252.963 283.189 252.627 283.035 252.256C282.882 251.886 282.803 251.489 282.803 251.088C282.803 250.278 283.124 249.501 283.697 248.929C284.27 248.356 285.046 248.034 285.856 248.034H313.963C314.772 248.039 315.546 248.362 316.117 248.934C316.689 249.505 317.012 250.279 317.017 251.088V251.088C317.012 251.896 316.689 252.67 316.117 253.242C315.546 253.813 314.772 254.137 313.963 254.141Z" fill="#E0E0E0"/>
<path d="M462.387 238.095H380.831C380.024 238.095 379.25 237.775 378.678 237.206C378.105 236.638 377.782 235.865 377.777 235.058V235.058C377.777 234.249 378.099 233.472 378.672 232.899C379.244 232.327 380.021 232.005 380.831 232.005H462.387C463.197 232.005 463.974 232.327 464.546 232.899C465.119 233.472 465.441 234.249 465.441 235.058V235.058C465.436 235.865 465.112 236.638 464.54 237.206C463.968 237.775 463.194 238.095 462.387 238.095Z" fill="#E0E0E0"/>
<path d="M313.963 270.579H285.856C285.046 270.579 284.27 270.257 283.697 269.685C283.124 269.112 282.803 268.335 282.803 267.526V267.526C282.801 267.124 282.878 266.726 283.031 266.354C283.183 265.983 283.408 265.645 283.692 265.362C283.976 265.078 284.314 264.853 284.685 264.7C285.056 264.547 285.454 264.47 285.856 264.472H313.963C314.773 264.472 315.55 264.794 316.122 265.367C316.695 265.939 317.017 266.716 317.017 267.526V267.526C317.012 268.334 316.689 269.108 316.117 269.68C315.546 270.251 314.772 270.574 313.963 270.579V270.579Z" fill="#F1E7D0"/>
<path d="M442.93 254.141H414.806C413.999 254.137 413.227 253.813 412.658 253.241C412.089 252.669 411.77 251.895 411.77 251.088V251.088C411.77 250.281 412.089 249.507 412.658 248.935C413.227 248.363 413.999 248.039 414.806 248.034H442.93C443.738 248.039 444.512 248.362 445.084 248.934C445.656 249.505 445.979 250.279 445.983 251.088V251.088C445.979 251.896 445.656 252.67 445.084 253.242C444.512 253.813 443.738 254.137 442.93 254.141Z" fill="#F1E7D0"/>
<path d="M359.015 238.095H330.891C330.084 238.095 329.31 237.775 328.738 237.206C328.166 236.638 327.842 235.865 327.838 235.058C327.838 234.249 328.16 233.472 328.732 232.899C329.305 232.327 330.081 232.005 330.891 232.005H359.015C359.416 232.005 359.812 232.084 360.181 232.238C360.551 232.392 360.886 232.617 361.168 232.9C361.451 233.184 361.674 233.521 361.825 233.891C361.977 234.262 362.054 234.658 362.052 235.058V235.058C362.052 235.864 361.732 236.636 361.162 237.205C360.593 237.775 359.821 238.095 359.015 238.095Z" fill="#C0AD90"/>
<path d="M395.231 254.141H330.891C330.083 254.137 329.309 253.813 328.737 253.242C328.165 252.67 327.842 251.896 327.838 251.088V251.088C327.842 250.279 328.165 249.505 328.737 248.934C329.309 248.362 330.083 248.039 330.891 248.034H395.231C396.041 248.034 396.817 248.356 397.39 248.929C397.962 249.501 398.284 250.278 398.284 251.088C398.284 251.489 398.205 251.886 398.052 252.256C397.898 252.627 397.673 252.963 397.39 253.247C397.106 253.53 396.77 253.755 396.399 253.909C396.029 254.062 395.632 254.141 395.231 254.141V254.141Z" fill="#263238"/>
<path d="M458.35 270.579H330.756C330.364 270.57 329.978 270.484 329.619 270.326C329.26 270.167 328.936 269.94 328.665 269.656C328.394 269.373 328.182 269.039 328.04 268.673C327.898 268.307 327.83 267.917 327.839 267.525V267.525C327.83 267.133 327.898 266.743 328.04 266.377C328.182 266.012 328.394 265.678 328.665 265.394C328.936 265.111 329.26 264.883 329.619 264.725C329.978 264.567 330.364 264.481 330.756 264.472H458.35C458.741 264.481 459.127 264.567 459.485 264.725C459.843 264.884 460.166 265.111 460.435 265.395C460.705 265.679 460.916 266.013 461.056 266.379C461.195 266.744 461.262 267.134 461.25 267.525V267.525C461.269 268.314 460.974 269.078 460.43 269.65C459.887 270.223 459.139 270.556 458.35 270.579V270.579Z" fill="#E0E0E0"/>
<path d="M393.891 282.197H330.891C330.083 282.193 329.309 281.87 328.737 281.298C328.165 280.727 327.842 279.953 327.838 279.144V279.144C327.842 278.336 328.165 277.562 328.737 276.99C329.309 276.418 330.083 276.095 330.891 276.091H393.891C394.292 276.091 394.689 276.17 395.059 276.323C395.43 276.477 395.766 276.702 396.05 276.985C396.333 277.269 396.558 277.605 396.712 277.976C396.865 278.346 396.944 278.743 396.944 279.144V279.144C396.944 279.545 396.865 279.942 396.712 280.313C396.558 280.683 396.333 281.02 396.05 281.303C395.766 281.587 395.43 281.812 395.059 281.965C394.689 282.118 394.292 282.197 393.891 282.197Z" fill="#E0E0E0"/>
<path d="M272.066 235.058C272.066 235.672 271.884 236.272 271.543 236.783C271.202 237.293 270.717 237.691 270.15 237.926C269.582 238.161 268.958 238.222 268.356 238.103C267.754 237.983 267.201 237.687 266.767 237.253C266.332 236.819 266.037 236.266 265.917 235.664C265.797 235.061 265.859 234.437 266.094 233.87C266.329 233.303 266.727 232.818 267.237 232.477C267.748 232.136 268.348 231.954 268.962 231.954C269.369 231.954 269.773 232.034 270.15 232.19C270.526 232.346 270.868 232.575 271.157 232.863C271.445 233.151 271.673 233.493 271.829 233.87C271.985 234.247 272.066 234.65 272.066 235.058V235.058Z" fill="#C0AD90"/>
<path d="M272.066 219.775C272.066 220.389 271.884 220.989 271.543 221.499C271.202 222.01 270.717 222.408 270.15 222.643C269.582 222.878 268.958 222.939 268.356 222.819C267.754 222.7 267.201 222.404 266.767 221.97C266.332 221.536 266.037 220.983 265.917 220.38C265.797 219.778 265.859 219.154 266.094 218.587C266.329 218.02 266.727 217.535 267.237 217.194C267.748 216.853 268.348 216.671 268.962 216.671C269.37 216.668 269.775 216.747 270.152 216.902C270.53 217.058 270.873 217.286 271.162 217.575C271.45 217.864 271.679 218.207 271.834 218.584C271.989 218.962 272.068 219.367 272.066 219.775V219.775Z" fill="#C0AD90"/>
<path d="M268.962 254.074C270.676 254.074 272.066 252.684 272.066 250.969C272.066 249.255 270.676 247.865 268.962 247.865C267.247 247.865 265.857 249.255 265.857 250.969C265.857 252.684 267.247 254.074 268.962 254.074Z" fill="#C0AD90"/>
<path d="M268.962 270.629C270.676 270.629 272.066 269.239 272.066 267.525C272.066 265.81 270.676 264.421 268.962 264.421C267.247 264.421 265.857 265.81 265.857 267.525C265.857 269.239 267.247 270.629 268.962 270.629Z" fill="#C0AD90"/>
<path d="M302.36 216.111H285.058C284.159 216.111 283.43 216.84 283.43 217.739V220.369C283.43 221.268 284.159 221.997 285.058 221.997H302.36C303.259 221.997 303.988 221.268 303.988 220.369V217.739C303.988 216.84 303.259 216.111 302.36 216.111Z" fill="#C0AD90"/>
<path d="M125.835 698.565C111.688 704.723 98.0496 705.35 85.124 698.565L75.6758 619.299H134.418L125.835 698.565Z" fill="#6F4439"/>
<path d="M130.531 614.718L128.834 609.053L84.4769 603.574C83.8946 603.505 83.3059 603.635 82.8069 603.943C82.3079 604.251 81.9279 604.719 81.7289 605.27L78.523 614.617H72.8574V624.879C95.0955 628.797 116.384 629.018 136.552 624.879V614.617L130.531 614.718Z" fill="#E0E0E0"/>
<path d="M130.022 672.306C114.653 674.783 97.7924 674.427 79.761 672.306L77.3184 648.27C95.8117 650.348 114.48 650.348 132.973 648.27L130.022 672.306Z" fill="#AE7461"/>
<path d="M101.711 655.989C100.593 656.668 99.7638 657.735 99.3821 658.986C99.0004 660.238 99.0927 661.586 99.6412 662.774L101.236 666.166C101.789 667.358 102.764 668.304 103.973 668.821C105.182 669.337 106.539 669.389 107.783 668.965L101.711 655.989Z" fill="#6F4439"/>
<path d="M102.779 655.497L108.852 668.558C109.964 667.873 110.789 666.806 111.17 665.557C111.551 664.307 111.462 662.962 110.921 661.773L109.327 658.38C108.785 657.175 107.816 656.213 106.607 655.681C105.398 655.148 104.034 655.083 102.779 655.497V655.497Z" fill="#6F4439"/>
<path d="M131.021 614.871C130.377 615.141 129.706 615.34 129.019 615.465C127.73 615.804 125.83 616.211 123.455 616.635C111.073 618.829 98.401 618.829 86.0185 616.635C83.6607 616.194 81.7609 615.787 80.4547 615.431C79.7692 615.293 79.0988 615.089 78.4531 614.82C79.1508 614.835 79.8447 614.926 80.5226 615.092C81.8457 615.346 83.7625 615.668 86.1203 616.008C98.4646 617.828 111.009 617.828 123.353 616.008C125.728 615.668 127.645 615.346 128.951 615.109C129.629 614.949 130.324 614.869 131.021 614.871V614.871Z" fill="#263238"/>
<path d="M161.228 496.979C161.228 496.979 151.543 499.066 149.863 505.953C148.184 512.839 163.434 677.276 163.959 681.262C164.926 687.555 170.236 695.562 182.177 695.121C192.61 694.748 334.604 695.121 370.345 695.121C375.111 695.121 377.961 691.084 378.589 686.266L202.77 675.885L161.228 496.979Z" fill="#E0E0E0"/>
<path d="M156.82 502.476L172.086 679.804C172.227 681.204 172.876 682.504 173.911 683.457C174.946 684.411 176.294 684.951 177.701 684.978L378.624 685.877L340.017 647.575L209.506 646.659L195.546 507.717C195.447 506.811 195.066 505.959 194.458 505.281C193.849 504.602 193.043 504.131 192.153 503.935L162.91 497.15C162.142 496.994 161.35 497.017 160.593 497.218C159.836 497.418 159.136 497.791 158.547 498.306C157.958 498.822 157.496 499.466 157.196 500.189C156.896 500.912 156.768 501.695 156.82 502.476V502.476Z" fill="#E0E0E0"/>
<path d="M303.884 681.262H322.56L298.948 650.645H287.871L303.884 681.262Z" fill="#263238"/>
<path d="M163.722 510.482L177.987 664.639L204.653 643.436L193.118 513.671C193.077 513.164 192.865 512.687 192.516 512.317C192.168 511.947 191.704 511.707 191.201 511.635L166.283 508.073C165.949 508.027 165.609 508.055 165.287 508.158C164.966 508.26 164.671 508.433 164.425 508.664C164.18 508.895 163.989 509.178 163.867 509.493C163.745 509.808 163.696 510.146 163.722 510.482V510.482Z" fill="#263238"/>
<path d="M192.27 681.263H211.539L231.131 650.645H220.038L192.27 681.263Z" fill="#263238"/>
<path d="M215.934 681.263H234.61L244.838 650.645H233.744L215.934 681.263Z" fill="#263238"/>
<path d="M238.781 681.262H257.457L258.458 650.645H247.381L238.781 681.262Z" fill="#263238"/>
<path d="M259.986 681.262H278.662L271.758 650.645H260.682L259.986 681.262Z" fill="#263238"/>
<path d="M282.071 681.262H300.747L285.532 650.645H274.455L282.071 681.262Z" fill="#263238"/>
<path d="M321.696 675.292C321.696 675.444 293.215 675.563 258.085 675.563C222.956 675.563 194.492 675.444 194.492 675.292C194.492 675.139 222.956 675.037 258.085 675.037C293.215 675.037 321.696 675.156 321.696 675.292Z" fill="#E0E0E0"/>
<path d="M318.303 669.728C318.303 669.881 291.264 669.999 257.898 669.999C224.533 669.999 197.494 669.881 197.494 669.728C197.494 669.575 224.533 669.474 257.898 669.474C291.264 669.474 318.303 669.541 318.303 669.728Z" fill="#E0E0E0"/>
<path d="M318.303 664.639C318.303 664.927 292.858 665.165 261.477 665.165C230.096 665.165 204.652 664.877 204.652 664.639C204.652 664.402 230.096 664.113 261.494 664.113C292.892 664.113 318.303 664.3 318.303 664.639Z" fill="#E0E0E0"/>
<path d="M319.016 659.941C319.016 660.229 294.114 660.466 263.412 660.466C232.709 660.466 207.791 660.229 207.791 659.941C207.791 659.652 232.692 659.398 263.412 659.398C294.131 659.398 319.016 659.635 319.016 659.941Z" fill="#E0E0E0"/>
<path d="M321.696 656.548C321.696 656.837 296.625 657.074 265.719 657.074C234.813 657.074 209.742 656.837 209.742 656.548C209.742 656.26 234.796 656.005 265.719 656.005C296.642 656.005 321.696 656.243 321.696 656.548Z" fill="#E0E0E0"/>
<path d="M324.376 652.986C324.376 653.291 298.847 653.529 267.365 653.529C235.882 653.529 210.336 653.291 210.336 652.986C210.336 652.68 235.78 652.46 267.365 652.46C298.949 652.46 324.376 652.765 324.376 652.986Z" fill="#E0E0E0"/>
<path d="M174.867 679.803L209.743 647.252Z" fill="#E0E0E0"/>
<path d="M209.74 647.252C209.91 647.422 202.242 654.852 192.642 663.842C183.041 672.832 175.102 679.99 174.932 679.804C174.763 679.617 182.413 672.205 192.031 663.197C201.649 654.19 209.502 647.066 209.74 647.252Z" fill="#263238"/>
<path d="M785.646 525.952C785.646 525.952 783.95 507.938 739.066 496.42C717.405 490.856 665.686 488.193 659.833 521.864C659.647 522.95 634.084 734.356 634.084 734.356H729.703L785.646 525.952Z" fill="#C0AD90"/>
<path d="M770.5 734.288H726.396L741.12 527.242C742.206 517.166 752.638 509.889 764.427 511.008L768.379 511.381C780.151 512.501 787.632 523.849 787.293 536.825L770.5 734.288Z" fill="#C0AD90"/>
<path d="M729.704 726.842C729.45 726.842 732.571 686.013 736.659 635.718C740.747 585.424 744.258 544.645 744.495 544.662C744.733 544.679 741.629 585.475 737.541 635.786C733.453 686.097 729.941 726.859 729.704 726.842Z" fill="#263238"/>
<path d="M777.183 516.164C775.149 515.535 773.075 515.048 770.974 514.705C765.889 514.013 760.718 515.021 756.266 517.574C751.815 520.127 748.332 524.08 746.361 528.818C745.604 530.804 744.981 532.839 744.496 534.908C744.441 534.342 744.47 533.77 744.58 533.212C744.801 531.638 745.205 530.095 745.785 528.615C747.667 523.646 751.217 519.486 755.826 516.843C760.436 514.201 765.82 513.242 771.059 514.129C772.631 514.37 774.168 514.797 775.639 515.401C776.189 515.576 776.709 515.834 777.183 516.164V516.164Z" fill="#263238"/>
<path d="M637.903 257.212C638.36 245.083 630.134 243.455 623.806 244.846C619.879 242.11 615.149 240.765 610.37 241.027C605.59 241.288 601.035 243.14 597.429 246.288C594.534 244.707 591.278 243.904 587.979 243.957C584.681 244.01 581.453 244.917 578.609 246.59C575.766 248.263 573.405 250.644 571.756 253.502C570.108 256.359 569.228 259.595 569.204 262.894C565.88 262.488 562.513 263.139 559.58 264.755C556.647 266.37 554.297 268.867 552.863 271.893C551.429 274.918 550.984 278.319 551.591 281.611C552.198 284.904 553.826 287.922 556.244 290.238C552.471 291.367 549.281 293.911 547.34 297.337C545.398 300.763 544.856 304.807 545.826 308.624C546.796 312.44 549.203 315.735 552.545 317.818C555.887 319.902 559.904 320.613 563.759 319.804L638.157 270.256C642.618 265.557 637.665 263.691 637.903 257.212Z" fill="#263238"/>
<path d="M561.601 321.992C562.337 305.666 569.192 290.216 580.803 278.715C592.414 267.214 607.929 260.506 624.261 259.926L627.654 259.807C664.005 260.638 683.631 292.036 681.782 328.303L680.832 449.315L680.594 472.299L597.477 492.061L596.629 444.158C596.629 444.158 561.55 439.985 559.888 405.144C559.023 388.317 560.193 353.509 561.601 321.992Z" fill="#AE7461"/>
<path d="M596.291 444.124C612.489 443.555 628.184 438.351 641.514 429.129C641.514 429.129 631.658 454.573 596.749 452.707L596.291 444.124Z" fill="#6F4439"/>
<path d="M571.764 357.207C571.795 358.504 572.332 359.738 573.261 360.644C574.189 361.551 575.436 362.058 576.734 362.058C577.37 362.085 578.004 361.985 578.601 361.763C579.197 361.541 579.743 361.202 580.206 360.765C580.669 360.329 581.041 359.804 581.298 359.222C581.555 358.64 581.693 358.013 581.704 357.376C581.673 356.079 581.136 354.845 580.207 353.938C579.278 353.032 578.032 352.525 576.734 352.525C576.097 352.495 575.462 352.594 574.864 352.815C574.267 353.036 573.72 353.375 573.256 353.812C572.792 354.249 572.421 354.775 572.165 355.358C571.909 355.941 571.772 356.57 571.764 357.207V357.207Z" fill="#263238"/>
<path d="M569.356 340.65C569.984 341.261 573.665 338.343 579.025 338.174C584.385 338.004 588.405 340.532 588.965 339.87C589.236 339.565 588.575 338.411 586.811 337.241C584.437 335.709 581.644 334.955 578.821 335.087C576.034 335.169 573.346 336.144 571.154 337.869C569.576 339.141 569.068 340.328 569.356 340.65Z" fill="#263238"/>
<path d="M614.832 356.104C614.867 357.403 615.408 358.637 616.34 359.543C617.271 360.449 618.52 360.956 619.819 360.955C620.455 360.983 621.09 360.882 621.686 360.66C622.282 360.438 622.828 360.099 623.292 359.663C623.755 359.227 624.126 358.702 624.383 358.12C624.64 357.538 624.778 356.91 624.789 356.274C624.758 354.976 624.221 353.742 623.292 352.836C622.363 351.929 621.117 351.422 619.819 351.422C619.182 351.393 618.545 351.491 617.947 351.712C617.349 351.933 616.801 352.272 616.336 352.709C615.87 353.145 615.498 353.671 615.24 354.254C614.981 354.837 614.843 355.466 614.832 356.104V356.104Z" fill="#263238"/>
<path d="M620.632 338.039C621.259 338.667 624.94 335.749 630.3 335.563C635.66 335.376 639.681 337.937 640.24 337.259C640.512 336.954 639.85 335.8 638.086 334.613C635.708 333.091 632.918 332.338 630.097 332.458C627.312 332.555 624.629 333.529 622.43 335.24C620.835 336.563 620.241 337.768 620.632 338.039Z" fill="#263238"/>
<path d="M604.381 378.393C604.381 378.088 600.989 377.63 595.628 377.121C594.255 377.036 592.948 376.815 592.677 375.883C592.514 374.472 592.786 373.046 593.457 371.795C594.588 368.402 595.809 364.879 597.121 361.227C602.21 346.198 605.857 333.849 605.246 333.645C604.636 333.442 600.022 345.519 594.933 360.514L591.405 371.184C590.606 372.866 590.42 374.774 590.879 376.578C591.093 377.055 591.413 377.476 591.816 377.808C592.22 378.141 592.694 378.376 593.203 378.495C593.97 378.672 594.757 378.752 595.544 378.732C601.006 378.783 604.381 378.698 604.381 378.393Z" fill="#263238"/>
<path d="M620.242 381.532C619.36 381.532 619.564 387.333 614.73 391.709C609.895 396.086 603.687 395.594 603.67 396.408C603.67 396.781 605.078 397.493 607.707 397.46C611.117 397.392 614.392 396.118 616.952 393.863C619.422 391.699 620.949 388.656 621.209 385.382C621.379 382.906 620.684 381.481 620.242 381.532Z" fill="#263238"/>
<path d="M620.006 322.739C620.702 324.096 625.265 322.739 630.88 322.586C636.494 322.434 641.21 323.468 641.736 322.077C641.956 321.399 640.972 320.161 638.971 319.058C636.361 317.688 633.435 317.032 630.489 317.158C627.606 317.217 624.79 318.043 622.33 319.55C620.549 320.788 619.701 322.077 620.006 322.739Z" fill="#263238"/>
<path d="M570.066 325.86C570.965 327.132 574.714 326.03 579.141 326.182C583.569 326.335 587.301 327.387 588.234 326.182C588.641 325.589 588.098 324.333 586.537 323.112C584.395 321.628 581.86 320.813 579.254 320.77C576.648 320.728 574.088 321.46 571.898 322.875C570.253 324.028 569.676 325.249 570.066 325.86Z" fill="#263238"/>
<path d="M564.386 305.912C564.386 305.912 572.868 283.742 583.164 278.28C595.699 271.647 601.687 285.455 613.697 281.672C625.706 277.889 637.682 271.495 650.438 280.451C664.381 290.238 658.275 297.685 659.666 313.121C665.297 375.747 677.392 393.066 679.597 363.399C679.834 360.159 688.74 357.258 689.571 343.535C690.674 325.741 690.589 304.182 686.178 291.731C682.464 281.248 676.153 274.124 665.026 266.423C647.453 254.277 623.925 254.837 607.997 257.025C592.069 259.214 561.961 278.619 564.386 305.912Z" fill="#263238"/>
<path d="M677.356 362.483C677.352 361.202 677.609 359.933 678.11 358.754C678.611 357.576 679.346 356.511 680.27 355.624C681.195 354.738 682.29 354.048 683.489 353.597C684.688 353.146 685.966 352.943 687.245 353C693.776 353.391 701.155 356.817 701.189 370.285C701.29 394.152 677.305 389.318 677.254 388.622C677.203 387.927 677.305 372.474 677.356 362.483Z" fill="#AE7461"/>
<path d="M682.413 379.666C682.532 379.666 682.837 379.954 683.549 380.276C684.547 380.67 685.656 380.67 686.654 380.276C689.164 379.343 691.284 375.323 691.369 371.032C691.43 368.984 691.03 366.95 690.199 365.078C689.968 364.331 689.561 363.652 689.012 363.097C688.463 362.541 687.788 362.127 687.044 361.889C686.566 361.764 686.059 361.811 685.613 362.021C685.166 362.232 684.808 362.594 684.601 363.042C684.279 363.704 684.431 364.179 684.313 364.229C684.194 364.28 683.804 363.822 683.99 362.839C684.115 362.246 684.446 361.718 684.923 361.346C685.245 361.096 685.613 360.913 686.006 360.808C686.4 360.703 686.81 360.678 687.213 360.735C688.196 360.921 689.113 361.358 689.877 362.003C690.641 362.648 691.225 363.479 691.573 364.416C692.596 366.48 693.097 368.763 693.032 371.065C692.913 375.866 690.453 380.378 687.01 381.396C686.37 381.582 685.696 381.622 685.039 381.513C684.381 381.404 683.756 381.15 683.21 380.768C682.464 380.208 682.345 379.666 682.413 379.666Z" fill="#6F4439"/>
<path d="M675.252 316.31C672.232 318.532 669.026 320.822 665.312 321.399C661.597 321.975 657.254 319.906 656.491 316.225C656.152 314.529 656.491 312.646 655.355 311.408C653.998 309.915 651.606 310.475 649.621 310.763C646.147 311.152 642.644 310.337 639.699 308.453C636.753 306.57 634.543 303.733 633.439 300.416C631.742 303.13 627.637 303.147 624.957 301.518C622.277 299.89 620.394 297.142 618.172 294.818C615.95 292.494 612.982 290.442 609.844 291.002C608.147 291.324 606.451 292.426 604.755 292.342C601.6 292.172 599.954 288.559 599.361 285.556C598.767 282.554 598.275 278.771 595.578 277.245C592.881 275.718 589.895 276.787 587.097 277.245C584.298 277.703 580.498 277.245 579.65 274.446C579.497 273.695 579.5 272.921 579.657 272.171C579.815 271.422 580.124 270.712 580.566 270.086C582.397 267.131 585.172 264.882 588.442 263.703C591.712 262.523 595.285 262.484 598.58 263.59C599.615 259.579 601.815 255.966 604.902 253.205C607.99 250.444 611.826 248.661 615.927 248.08C620.028 247.499 624.209 248.147 627.942 249.941C631.674 251.736 634.792 254.596 636.899 258.162C639.351 255.778 642.341 254.02 645.616 253.038C648.891 252.055 652.355 251.877 655.714 252.518C659.073 253.158 662.228 254.6 664.912 256.719C667.595 258.838 669.728 261.573 671.13 264.692C674.002 263.872 677.051 263.905 679.905 264.787C682.759 265.669 685.295 267.362 687.204 269.659C689.113 271.956 690.313 274.759 690.658 277.727C691.002 280.694 690.476 283.697 689.144 286.371C693.521 288.678 697.337 292.8 697.626 297.736C697.914 302.672 693.249 307.744 688.449 306.624C689.645 308.541 690.032 310.854 689.523 313.055C689.014 315.257 687.651 317.166 685.735 318.362C683.818 319.559 681.505 319.945 679.304 319.436C677.102 318.927 675.193 317.565 673.997 315.648" fill="#263238"/>
<path d="M690.181 306.522C690.307 307.344 690.254 308.183 690.026 308.982C689.797 309.781 689.399 310.522 688.858 311.153C687.735 312.716 686.062 313.795 684.176 314.172C682.977 314.418 681.738 314.394 680.549 314.1C679.361 313.807 678.253 313.252 677.306 312.476L678.307 312.289C677.134 314.563 675.598 316.632 673.761 318.413C672.54 319.623 671.101 320.59 669.52 321.263C667.465 322.04 665.219 322.16 663.092 321.607C660.965 321.054 659.063 319.855 657.646 318.175C656.63 316.702 655.915 315.041 655.543 313.29C655.323 312.677 655.236 312.023 655.288 311.373C655.39 311.373 655.611 311.984 656.052 313.07C656.592 314.674 657.389 316.18 658.409 317.531C660.801 320.923 668.214 322.365 672.76 317.361C674.479 315.676 675.937 313.744 677.085 311.628L677.493 310.915L678.103 311.441C678.889 312.128 679.815 312.635 680.817 312.928C681.819 313.221 682.872 313.293 683.904 313.137C685.562 312.86 687.065 311.999 688.145 310.712C689.094 309.463 689.785 308.039 690.181 306.522Z" fill="#C0AD90"/>
<path d="M408.209 618.84C408.209 618.84 363.207 617.5 360.51 616.652C356.404 615.735 352.147 615.735 348.042 616.652C344.836 617.67 332.029 622.216 332.029 622.216L304.889 629.459C304.889 629.459 277.596 647.253 278.139 650.832C278.682 654.411 281.684 656.853 286.62 655.005C291.556 653.156 316.169 640.332 316.169 640.332L343.31 637.465C343.31 637.465 380.322 650.764 387.803 650.102C395.283 649.441 414.434 646.201 414.434 646.201C414.434 646.201 417.131 627.016 415.774 623.98C414.417 620.943 408.209 618.84 408.209 618.84Z" fill="#AE7461"/>
<path d="M280.088 666.708C280.088 666.708 302.903 642.265 309.213 638.974C315.524 635.683 350.704 629.899 350.704 629.899C350.704 629.899 361.968 625.234 366.089 626.88C370.211 628.525 413.89 635.123 415.807 635.361C417.724 635.598 406.478 673.832 406.478 673.832C395.585 675.399 384.496 674.933 373.774 672.458C356.2 668.336 350.145 662.841 350.145 662.841L332.605 658.227L321.851 662.315C321.851 662.315 319.934 678.226 312.233 677.395L308.671 674.918L311.419 657.345L300.155 662.009C300.155 662.009 291.352 675.206 284.77 673.273C278.189 671.339 280.088 666.708 280.088 666.708Z" fill="#AE7461"/>
<path d="M280.09 666.709C279.929 667.334 279.871 667.982 279.92 668.626C280 669.403 280.294 670.142 280.768 670.763C281.45 671.603 282.339 672.252 283.346 672.646C284.571 673.248 285.953 673.45 287.299 673.222C288.893 672.787 290.383 672.031 291.675 671C294.885 668.413 297.677 665.346 299.953 661.908V661.908L311.199 657.21L311.657 657.006V657.498C310.843 662.79 309.961 668.727 308.96 675.088L308.824 674.783L312.387 677.243H312.234C312.96 677.3 313.69 677.202 314.375 676.953C315.06 676.704 315.683 676.311 316.203 675.801C317.322 674.714 318.215 673.417 318.832 671.984C320.155 668.953 321.04 665.749 321.462 662.468V662.248L321.665 662.163L332.386 658.058H332.504H332.623L350.197 662.638H350.298C354.015 665.296 358.109 667.383 362.444 668.829C366.957 670.433 371.576 671.719 376.268 672.68C381.132 673.651 386.068 674.219 391.026 674.376C396.13 674.559 401.24 674.276 406.292 673.528L405.953 673.833C406.733 671.136 407.649 668.252 408.396 665.352C410.821 656.701 413.247 648.202 414.994 639.789C415.215 638.758 415.379 637.716 415.486 636.668C415.503 636.431 415.503 636.193 415.486 635.955C415.486 635.837 415.384 635.786 415.486 635.955H415.282L413.705 635.718L407.429 634.768L395.131 632.834C387.073 631.528 379.254 630.239 371.739 628.814C369.873 628.424 368.041 628.102 366.175 627.542C364.462 627.027 362.643 626.969 360.9 627.372C357.415 628.053 354.006 629.076 350.722 630.426H350.638C338.357 632.478 327.11 634.514 317.289 636.854C314.926 637.4 312.598 638.085 310.317 638.907C308.281 639.854 306.408 641.119 304.77 642.656C301.378 645.471 298.562 648.253 295.967 650.764C290.776 655.853 286.841 659.89 284.093 662.638L281.023 665.81C280.31 666.522 279.937 666.861 279.937 666.861C279.937 666.861 280.259 666.471 280.938 665.725L283.923 662.485C286.586 659.686 290.488 655.547 295.627 650.459C298.206 647.931 301.072 645.115 304.397 642.265C305.228 641.553 306.093 640.824 307.009 640.145C307.946 639.444 308.973 638.874 310.063 638.449C312.371 637.609 314.728 636.907 317.119 636.346C326.958 633.937 338.187 631.867 350.485 629.747H350.4C353.732 628.364 357.192 627.313 360.73 626.609C362.609 626.18 364.566 626.245 366.413 626.796C368.109 627.321 370.009 627.644 371.858 628.034C379.338 629.442 387.124 630.697 395.233 631.986L407.53 633.903L413.807 634.87L415.384 635.107H415.723H415.91C416.023 635.183 416.117 635.283 416.184 635.401C416.252 635.519 416.292 635.65 416.3 635.786C416.326 636.079 416.326 636.374 416.3 636.668C416.198 637.756 416.034 638.838 415.808 639.908C414.112 648.389 411.618 656.87 409.193 665.538C408.362 668.456 407.497 671.357 406.75 674.02V674.291H406.479C401.377 675.053 396.215 675.337 391.06 675.139C386.056 674.999 381.074 674.431 376.166 673.443C371.43 672.481 366.77 671.178 362.223 669.542C360.008 668.753 357.839 667.841 355.726 666.811C353.626 665.821 351.641 664.604 349.806 663.181L349.976 663.265L332.437 658.635H332.674L321.92 662.723L322.157 662.417C321.721 665.778 320.802 669.057 319.426 672.154C318.773 673.668 317.821 675.036 316.627 676.174C316.034 676.744 315.327 677.183 314.552 677.461C313.777 677.738 312.953 677.849 312.132 677.785H312.047L308.485 675.309L308.316 675.19V674.987C309.316 668.643 310.266 662.706 311.097 657.413L311.488 657.719L300.207 662.349L300.309 662.265C297.976 665.731 295.114 668.81 291.828 671.391C290.485 672.431 288.944 673.187 287.299 673.613C285.891 673.844 284.446 673.618 283.177 672.968C282.137 672.548 281.229 671.857 280.548 670.966C280.065 670.313 279.777 669.537 279.716 668.727C279.654 668.033 279.783 667.335 280.09 666.709V666.709Z" fill="#6F4439"/>
<path d="M349.144 645.98C348.58 646.045 348.011 646.045 347.448 645.98C346.345 645.895 344.75 645.743 342.766 645.539L335.845 644.759L333.843 644.538C333.186 644.428 332.516 644.428 331.859 644.538C330.42 644.757 328.993 645.052 327.584 645.42C321.868 647.117 316.134 648.185 314.014 651.578C313.097 652.815 312.408 654.205 311.979 655.683C311.673 656.734 311.588 657.379 311.537 657.379C311.447 656.812 311.487 656.232 311.656 655.683C311.963 654.109 312.599 652.617 313.522 651.306C314.161 650.388 314.946 649.58 315.846 648.915C316.887 648.185 318.03 647.613 319.239 647.218C321.926 646.24 324.66 645.396 327.432 644.691C328.871 644.305 330.333 644.005 331.808 643.792C332.539 643.682 333.282 643.682 334.013 643.792L335.998 644.063L342.918 645.013C344.886 645.302 346.464 645.556 347.566 645.743C348.101 645.748 348.632 645.828 349.144 645.98V645.98Z" fill="#6F4439"/>
<path d="M287.91 658.584C288.483 657.899 289.113 657.263 289.793 656.684C291.065 655.514 292.931 653.868 295.289 651.901C297.647 649.933 300.513 647.626 303.77 645.234C305.467 644.047 307.163 642.826 309.097 641.672C310.08 641.087 311.093 640.555 312.133 640.078C313.239 639.647 314.372 639.29 315.525 639.009C323.34 637.116 331.274 635.756 339.273 634.938L346.499 634.039C347.38 633.892 348.27 633.819 349.163 633.818C348.311 634.085 347.436 634.273 346.55 634.378L339.375 635.549C333.319 636.617 324.821 637.364 315.797 639.857C314.695 640.131 313.613 640.476 312.557 640.892C311.546 641.346 310.561 641.856 309.605 642.418C307.723 643.538 305.975 644.725 304.313 645.896C300.921 648.237 298.122 650.476 295.713 652.376L290.047 656.939C289.379 657.542 288.664 658.092 287.91 658.584V658.584Z" fill="#6F4439"/>
<path d="M572.084 499.252C563.959 510.745 556.772 522.873 550.592 535.518C542.433 552.481 516.073 610.239 516.073 610.239L408.648 615.871L410.243 657.379C410.243 657.379 513.987 694.34 537.209 687.199C560.431 680.058 585.179 653.274 585.179 653.274L596.29 478.218C596.29 478.218 587.079 476.505 572.084 499.252Z" fill="#F1E7D0"/>
<path d="M594.544 478.644C594.544 478.644 566.996 541.117 562.976 567.579C554.987 620.164 552.307 652.986 552.307 652.986L542.943 734.289H726.395C726.395 734.289 732.468 583.609 728.566 533.094C725.649 495.233 696.642 471.655 684.786 458.713C684.073 457.932 680.816 447.331 680.816 447.331L595.324 469.229L594.544 478.644Z" fill="#F1E7D0"/>
<path d="M585.675 488.125C585.635 488.332 585.566 488.531 585.471 488.719C585.285 489.143 585.064 489.72 584.759 490.415L582.028 496.946C579.67 502.611 576.26 510.838 572.834 521.287C568.85 533.503 565.682 545.97 563.352 558.605C560.621 572.871 558.416 588.697 556.567 605.372C553.174 638.754 550.138 668.965 547.916 690.881C546.779 701.788 545.863 710.625 545.219 716.783C544.879 719.802 544.625 722.16 544.438 723.822C544.337 724.602 544.269 725.196 544.218 725.654C544.195 725.866 544.155 726.076 544.099 726.282C544.084 726.073 544.084 725.863 544.099 725.654C544.099 725.196 544.184 724.586 544.235 723.805C544.388 722.109 544.591 719.785 544.846 716.749C545.422 710.574 546.253 701.737 547.271 690.813C549.392 668.931 552.19 638.669 555.753 605.27C557.585 588.595 559.824 572.735 562.538 558.453C564.908 545.773 568.144 533.27 572.223 521.033C575.735 510.601 579.229 502.374 581.689 496.759C582.91 493.926 583.911 491.755 584.589 490.296C584.911 489.584 585.166 489.041 585.369 488.6C585.462 488.436 585.564 488.278 585.675 488.125V488.125Z" fill="#C0AD90"/>
<g opacity="0.3">
<path d="M680.985 586.476C679.289 569.835 671.809 553.127 658.12 543.526L546.268 703.247C566.012 713.9 587.945 724.891 609.878 720.21C621.752 717.682 632.167 710.728 640.682 702.161C658.374 684.368 667.975 660.128 674.709 636.007C679.204 619.858 682.665 603.116 680.985 586.476Z" fill="black"/>
</g>
<path d="M693.654 567.188C679.727 616.499 648.363 676.666 638.728 688.76C631.774 697.654 622.896 704.857 612.761 709.831C602.626 714.804 591.497 717.419 580.207 717.478C567.587 717.478 460.925 696.699 429.239 690.49C426.633 689.974 424.236 688.703 422.345 686.837C420.455 684.97 419.154 682.59 418.603 679.99L418.332 678.684L404.168 674.817L411.75 636.634L413.26 634.513L565.806 639.314L610.18 515.707C611.028 514.299 623.835 472.825 658.592 474.708" fill="#F1E7D0"/>
<path d="M658.595 474.742H657.441C656.31 474.709 655.177 474.738 654.049 474.826C649.631 475.089 645.292 476.116 641.225 477.863C634.728 480.824 628.999 485.241 624.483 490.771C618.382 498.262 613.619 506.749 610.404 515.859V515.859C599.191 547.172 583.976 589.715 566.148 639.5L566.063 639.772H565.775L413.297 634.988L413.67 634.802L412.16 636.922V636.752C409.972 647.795 407.648 659.533 405.375 671.407L404.68 674.936L404.358 674.41L418.589 678.243L418.861 678.328V678.582C419.276 681.723 420.755 684.627 423.05 686.809C424.194 687.864 425.514 688.709 426.952 689.303C428.43 689.846 429.958 690.238 431.515 690.473L450.174 694.12L486.644 701.126C510.544 705.655 533.563 709.964 555.529 713.678C561.025 714.594 566.453 715.375 571.813 716.223C574.494 716.562 577.174 716.935 579.803 717.054C582.443 717.086 585.083 716.955 587.708 716.664C597.848 715.575 607.66 712.429 616.544 707.419C624.792 702.683 632.09 696.461 638.07 689.065C640.77 685.506 643.24 681.778 645.466 677.904C647.688 674.121 649.791 670.373 651.776 666.692C664.244 643.409 675.169 619.332 684.48 594.617C687.703 585.864 690.01 578.994 691.468 574.262C692.181 571.938 692.741 570.157 693.165 568.935C693.589 567.714 693.741 567.137 693.741 567.137C693.741 567.137 693.589 567.748 693.25 568.952L691.689 574.313C690.281 579.011 688.025 585.898 684.904 594.668C675.697 619.449 664.839 643.584 652.403 666.912C650.436 670.61 648.332 674.359 646.127 678.158C643.895 682.072 641.408 685.835 638.68 689.422C632.629 696.938 625.225 703.255 616.849 708.047C607.891 713.119 597.992 716.311 587.758 717.427C585.101 717.733 582.427 717.869 579.752 717.834C577.038 717.715 574.375 717.342 571.678 717.003C566.301 716.24 560.856 715.307 555.36 714.476C533.308 710.778 510.358 706.486 486.44 701.974L449.97 694.968L431.311 691.338C429.702 691.093 428.122 690.684 426.596 690.117C425.054 689.491 423.64 688.588 422.423 687.454C419.993 685.149 418.42 682.086 417.962 678.769L418.284 679.108L404.052 675.275L403.662 675.156V674.766C403.883 673.646 404.137 672.442 404.375 671.238C406.732 659.364 409.056 647.626 411.16 636.583V636.481L412.669 634.361L412.805 634.174H413.297L565.843 639.025L565.469 639.28L609.98 515.723C613.229 506.606 618.039 498.122 624.194 490.653C628.771 485.092 634.578 480.673 641.157 477.744C645.254 476.015 649.624 475.021 654.066 474.809C655.195 474.734 656.329 474.734 657.458 474.809L658.595 474.742Z" fill="#C0AD90"/>
<path d="M532.207 629.56C530.181 625.69 527.71 622.07 524.846 618.772C521.783 615.68 518.367 612.958 514.668 610.664C515.931 611 517.129 611.545 518.213 612.275C520.934 613.871 523.408 615.854 525.558 618.161C527.705 620.47 529.51 623.075 530.918 625.896C531.534 627.044 531.969 628.28 532.207 629.56Z" fill="#C0AD90"/>
<path d="M584.266 669.253C584.113 669.253 583.808 667.303 582.926 664.165C581.756 660.165 580.074 656.334 577.922 652.766C575.74 649.217 573.099 645.972 570.068 643.114C567.744 640.909 566.116 639.721 566.2 639.62C566.647 639.785 567.065 640.019 567.439 640.315C568.504 641.025 569.524 641.801 570.492 642.639C576.946 648.243 581.503 655.71 583.536 664.012C583.85 665.255 584.071 666.519 584.198 667.795C584.296 668.274 584.319 668.767 584.266 669.253V669.253Z" fill="#C0AD90"/>
<g opacity="0.3">
<path d="M543.57 638.381L552.442 638.72C553.884 603.862 561.059 569.173 567.199 534.79C551.543 566.781 547.438 602.997 543.57 638.381Z" fill="black"/>
</g>
<path d="M681.818 458.712C681.551 458.849 681.265 458.946 680.97 459L678.527 459.679L669.537 462.07C661.954 464.089 651.488 466.973 639.852 469.907C628.216 472.842 617.58 475.115 609.811 476.387C605.927 477.032 602.772 477.49 600.583 477.71L598.056 477.965C597.763 478.006 597.466 478.006 597.174 477.965C597.452 477.859 597.743 477.791 598.039 477.761L600.532 477.337C602.704 477.015 605.842 476.455 609.692 475.742C617.41 474.318 628.012 471.96 639.631 468.957C651.251 465.955 661.683 463.224 669.384 461.358C673.201 460.425 676.305 459.662 678.459 459.238L680.936 458.729C681.228 458.685 681.524 458.679 681.818 458.712V458.712Z" fill="#C0AD90"/>
</svg>
