<svg width="234" height="45" viewBox="0 0 234 45" fill="none" xmlns="http://www.w3.org/2000/svg">
<path d="M91.952 32V16.64H95.472V32H91.952ZM102.16 32V22.848C102.16 21.824 101.84 21.0347 101.2 20.48C100.56 19.904 99.7707 19.616 98.832 19.616C98.192 19.616 97.616 19.744 97.104 20C96.6133 20.256 96.2187 20.6293 95.92 21.12C95.6213 21.5893 95.472 22.1653 95.472 22.848L94.096 22.08C94.096 20.9067 94.352 19.8933 94.864 19.04C95.376 18.1867 96.0693 17.5253 96.944 17.056C97.8187 16.5653 98.8 16.32 99.888 16.32C100.976 16.32 101.957 16.5547 102.832 17.024C103.707 17.4933 104.4 18.1547 104.912 19.008C105.424 19.8613 105.68 20.8853 105.68 22.08V32H102.16ZM112.368 32V22.848C112.368 21.824 112.048 21.0347 111.408 20.48C110.768 19.904 109.979 19.616 109.04 19.616C108.421 19.616 107.856 19.744 107.344 20C106.832 20.256 106.427 20.6293 106.128 21.12C105.829 21.5893 105.68 22.1653 105.68 22.848L103.696 22.08C103.803 20.9067 104.144 19.8933 104.72 19.04C105.296 18.1867 106.032 17.5253 106.928 17.056C107.845 16.5653 108.848 16.32 109.936 16.32C111.045 16.32 112.048 16.5547 112.944 17.024C113.84 17.4933 114.555 18.1547 115.088 19.008C115.621 19.8613 115.888 20.8853 115.888 22.08V32H112.368ZM126.555 32.32C125.061 32.32 123.707 31.968 122.491 31.264C121.275 30.5387 120.304 29.568 119.579 28.352C118.875 27.136 118.523 25.7813 118.523 24.288C118.523 22.7947 118.875 21.4507 119.579 20.256C120.304 19.0613 121.275 18.112 122.491 17.408C123.707 16.6827 125.061 16.32 126.555 16.32C128.069 16.32 129.435 16.672 130.651 17.376C131.867 18.08 132.827 19.04 133.531 20.256C134.256 21.4507 134.619 22.7947 134.619 24.288C134.619 25.7813 134.256 27.136 133.531 28.352C132.827 29.568 131.867 30.5387 130.651 31.264C129.435 31.968 128.069 32.32 126.555 32.32ZM126.555 28.928C127.429 28.928 128.197 28.736 128.859 28.352C129.541 27.9467 130.064 27.392 130.427 26.688C130.811 25.984 131.003 25.184 131.003 24.288C131.003 23.392 130.811 22.6027 130.427 21.92C130.043 21.2373 129.52 20.704 128.859 20.32C128.197 19.9147 127.429 19.712 126.555 19.712C125.701 19.712 124.933 19.9147 124.251 20.32C123.589 20.704 123.067 21.2373 122.683 21.92C122.32 22.6027 122.139 23.392 122.139 24.288C122.139 25.184 122.32 25.984 122.683 26.688C123.067 27.392 123.589 27.9467 124.251 28.352C124.933 28.736 125.701 28.928 126.555 28.928ZM144.586 32.32C143.092 32.32 141.738 31.968 140.522 31.264C139.306 30.5387 138.335 29.568 137.61 28.352C136.906 27.136 136.554 25.7813 136.554 24.288C136.554 22.7947 136.906 21.4507 137.61 20.256C138.335 19.0613 139.306 18.112 140.522 17.408C141.738 16.6827 143.092 16.32 144.586 16.32C146.1 16.32 147.466 16.672 148.682 17.376C149.898 18.08 150.858 19.04 151.562 20.256C152.287 21.4507 152.65 22.7947 152.65 24.288C152.65 25.7813 152.287 27.136 151.562 28.352C150.858 29.568 149.898 30.5387 148.682 31.264C147.466 31.968 146.1 32.32 144.586 32.32ZM144.586 28.928C145.46 28.928 146.228 28.736 146.89 28.352C147.572 27.9467 148.095 27.392 148.458 26.688C148.842 25.984 149.034 25.184 149.034 24.288C149.034 23.392 148.842 22.6027 148.458 21.92C148.074 21.2373 147.551 20.704 146.89 20.32C146.228 19.9147 145.46 19.712 144.586 19.712C143.732 19.712 142.964 19.9147 142.282 20.32C141.62 20.704 141.098 21.2373 140.714 21.92C140.351 22.6027 140.17 23.392 140.17 24.288C140.17 25.184 140.351 25.984 140.714 26.688C141.098 27.392 141.62 27.9467 142.282 28.352C142.964 28.736 143.732 28.928 144.586 28.928ZM166.105 32V23.136C166.105 22.112 165.774 21.2693 165.113 20.608C164.473 19.9467 163.641 19.616 162.617 19.616C161.934 19.616 161.326 19.7653 160.793 20.064C160.26 20.3627 159.844 20.7787 159.545 21.312C159.246 21.8453 159.097 22.4533 159.097 23.136L157.721 22.368C157.721 21.1947 157.977 20.16 158.489 19.264C159.001 18.3467 159.705 17.632 160.601 17.12C161.518 16.5867 162.542 16.32 163.673 16.32C164.825 16.32 165.849 16.6187 166.745 17.216C167.641 17.792 168.345 18.5493 168.857 19.488C169.369 20.4053 169.625 21.3653 169.625 22.368V32H166.105ZM155.577 32V16.64H159.097V32H155.577ZM177.682 32L171.506 16.64H175.154L179.314 27.808L178.226 27.84L182.29 16.64H184.338L188.402 27.84L187.314 27.808L191.474 16.64H195.122L188.946 32H186.898L182.738 21.376H183.89L179.73 32H177.682ZM197.109 32V16.64H200.629V32H197.109ZM198.869 13.824C198.272 13.824 197.77 13.6213 197.365 13.216C196.981 12.8107 196.789 12.3093 196.789 11.712C196.789 11.1147 196.981 10.6133 197.365 10.208C197.77 9.80267 198.272 9.6 198.869 9.6C199.488 9.6 199.989 9.80267 200.373 10.208C200.757 10.6133 200.949 11.1147 200.949 11.712C200.949 12.3093 200.757 12.8107 200.373 13.216C199.989 13.6213 199.488 13.824 198.869 13.824ZM209.601 32.32C208.748 32.32 207.926 32.2133 207.137 32C206.348 31.7653 205.622 31.4453 204.961 31.04C204.3 30.6133 203.724 30.1013 203.233 29.504L205.473 27.264C206.006 27.8827 206.614 28.352 207.297 28.672C208.001 28.9707 208.79 29.12 209.665 29.12C210.454 29.12 211.052 29.0027 211.457 28.768C211.862 28.5333 212.065 28.192 212.065 27.744C212.065 27.2747 211.873 26.912 211.489 26.656C211.105 26.4 210.604 26.1867 209.985 26.016C209.388 25.824 208.748 25.632 208.065 25.44C207.404 25.248 206.764 24.992 206.145 24.672C205.548 24.3307 205.057 23.872 204.673 23.296C204.289 22.72 204.097 21.9733 204.097 21.056C204.097 20.0747 204.321 19.232 204.769 18.528C205.238 17.824 205.889 17.28 206.721 16.896C207.574 16.512 208.588 16.32 209.761 16.32C210.998 16.32 212.086 16.544 213.025 16.992C213.985 17.4187 214.785 18.0693 215.425 18.944L213.185 21.184C212.737 20.6293 212.225 20.2133 211.649 19.936C211.073 19.6587 210.412 19.52 209.665 19.52C208.961 19.52 208.417 19.6267 208.033 19.84C207.649 20.0533 207.457 20.3627 207.457 20.768C207.457 21.1947 207.649 21.5253 208.033 21.76C208.417 21.9947 208.908 22.1973 209.505 22.368C210.124 22.5387 210.764 22.7307 211.425 22.944C212.108 23.136 212.748 23.4133 213.345 23.776C213.964 24.1173 214.465 24.5867 214.849 25.184C215.233 25.76 215.425 26.5173 215.425 27.456C215.425 28.9493 214.902 30.1333 213.857 31.008C212.812 31.8827 211.393 32.32 209.601 32.32ZM228.855 32V23.136C228.855 22.112 228.524 21.2693 227.863 20.608C227.223 19.9467 226.391 19.616 225.367 19.616C224.684 19.616 224.076 19.7653 223.543 20.064C223.01 20.3627 222.594 20.7787 222.295 21.312C221.996 21.8453 221.847 22.4533 221.847 23.136L220.471 22.368C220.471 21.1947 220.727 20.16 221.239 19.264C221.751 18.3467 222.455 17.632 223.351 17.12C224.268 16.5867 225.292 16.32 226.423 16.32C227.575 16.32 228.599 16.576 229.495 17.088C230.391 17.6 231.095 18.3147 231.607 19.232C232.119 20.128 232.375 21.1733 232.375 22.368V32H228.855ZM218.327 32V8.96H221.847V32H218.327Z" fill="#212121"/>
<path d="M0 22.1398C0 9.91232 9.91232 0 22.1398 0H64.8925V44.2796H22.1398C9.91232 44.2796 0 34.3672 0 22.1398V22.1398Z" fill="#FAEAC0"/>
<path d="M18.3223 22.1398C18.3223 9.91232 28.2346 0 40.462 0H70.9997V44.2796H40.4621C28.2346 44.2796 18.3223 34.3672 18.3223 22.1398V22.1398Z" fill="#424242"/>
</svg>
