<svg width="263" height="45" viewBox="0 0 263 45" fill="none" xmlns="http://www.w3.org/2000/svg">
<path d="M92.398 35.1396V17.8596H96.358V35.1396H92.398ZM103.882 35.1396V24.8436C103.882 23.6916 103.522 22.8036 102.802 22.1796C102.082 21.5316 101.194 21.2076 100.138 21.2076C99.418 21.2076 98.77 21.3516 98.194 21.6396C97.642 21.9276 97.198 22.3476 96.862 22.8996C96.526 23.4276 96.358 24.0756 96.358 24.8436L94.81 23.9796C94.81 22.6596 95.098 21.5196 95.674 20.5596C96.25 19.5996 97.03 18.8556 98.014 18.3276C98.998 17.7756 100.102 17.4996 101.326 17.4996C102.55 17.4996 103.654 17.7636 104.638 18.2916C105.622 18.8196 106.402 19.5636 106.978 20.5236C107.554 21.4836 107.842 22.6356 107.842 23.9796V35.1396H103.882ZM115.366 35.1396V24.8436C115.366 23.6916 115.006 22.8036 114.286 22.1796C113.566 21.5316 112.678 21.2076 111.622 21.2076C110.926 21.2076 110.29 21.3516 109.714 21.6396C109.138 21.9276 108.682 22.3476 108.346 22.8996C108.01 23.4276 107.842 24.0756 107.842 24.8436L105.61 23.9796C105.73 22.6596 106.114 21.5196 106.762 20.5596C107.41 19.5996 108.238 18.8556 109.246 18.3276C110.278 17.7756 111.406 17.4996 112.63 17.4996C113.878 17.4996 115.006 17.7636 116.014 18.2916C117.022 18.8196 117.826 19.5636 118.426 20.5236C119.026 21.4836 119.326 22.6356 119.326 23.9796V35.1396H115.366ZM133.126 35.4996C131.446 35.4996 129.922 35.1036 128.554 34.3116C127.186 33.4956 126.094 32.4036 125.278 31.0356C124.486 29.6676 124.09 28.1436 124.09 26.4636C124.09 24.7836 124.486 23.2716 125.278 21.9276C126.094 20.5836 127.186 19.5156 128.554 18.7236C129.922 17.9076 131.446 17.4996 133.126 17.4996C134.83 17.4996 136.366 17.8956 137.734 18.6876C139.102 19.4796 140.182 20.5596 140.974 21.9276C141.79 23.2716 142.198 24.7836 142.198 26.4636C142.198 28.1436 141.79 29.6676 140.974 31.0356C140.182 32.4036 139.102 33.4956 137.734 34.3116C136.366 35.1036 134.83 35.4996 133.126 35.4996ZM133.126 31.6836C134.11 31.6836 134.974 31.4676 135.718 31.0356C136.486 30.5796 137.074 29.9556 137.482 29.1636C137.914 28.3716 138.13 27.4716 138.13 26.4636C138.13 25.4556 137.914 24.5676 137.482 23.7996C137.05 23.0316 136.462 22.4316 135.718 21.9996C134.974 21.5436 134.11 21.3156 133.126 21.3156C132.166 21.3156 131.302 21.5436 130.534 21.9996C129.79 22.4316 129.202 23.0316 128.77 23.7996C128.362 24.5676 128.158 25.4556 128.158 26.4636C128.158 27.4716 128.362 28.3716 128.77 29.1636C129.202 29.9556 129.79 30.5796 130.534 31.0356C131.302 31.4676 132.166 31.6836 133.126 31.6836ZM155.211 35.4996C153.531 35.4996 152.007 35.1036 150.639 34.3116C149.271 33.4956 148.179 32.4036 147.363 31.0356C146.571 29.6676 146.175 28.1436 146.175 26.4636C146.175 24.7836 146.571 23.2716 147.363 21.9276C148.179 20.5836 149.271 19.5156 150.639 18.7236C152.007 17.9076 153.531 17.4996 155.211 17.4996C156.915 17.4996 158.451 17.8956 159.819 18.6876C161.187 19.4796 162.267 20.5596 163.059 21.9276C163.875 23.2716 164.283 24.7836 164.283 26.4636C164.283 28.1436 163.875 29.6676 163.059 31.0356C162.267 32.4036 161.187 33.4956 159.819 34.3116C158.451 35.1036 156.915 35.4996 155.211 35.4996ZM155.211 31.6836C156.195 31.6836 157.059 31.4676 157.803 31.0356C158.571 30.5796 159.159 29.9556 159.567 29.1636C159.999 28.3716 160.215 27.4716 160.215 26.4636C160.215 25.4556 159.999 24.5676 159.567 23.7996C159.135 23.0316 158.547 22.4316 157.803 21.9996C157.059 21.5436 156.195 21.3156 155.211 21.3156C154.251 21.3156 153.387 21.5436 152.619 21.9996C151.875 22.4316 151.287 23.0316 150.855 23.7996C150.447 24.5676 150.243 25.4556 150.243 26.4636C150.243 27.4716 150.447 28.3716 150.855 29.1636C151.287 29.9556 151.875 30.5796 152.619 31.0356C153.387 31.4676 154.251 31.6836 155.211 31.6836ZM181.22 35.1396V25.1676C181.22 24.0156 180.848 23.0676 180.104 22.3236C179.384 21.5796 178.448 21.2076 177.296 21.2076C176.528 21.2076 175.844 21.3756 175.244 21.7116C174.644 22.0476 174.176 22.5156 173.84 23.1156C173.504 23.7156 173.336 24.3996 173.336 25.1676L171.788 24.3036C171.788 22.9836 172.076 21.8196 172.652 20.8116C173.228 19.7796 174.02 18.9756 175.028 18.3996C176.06 17.7996 177.212 17.4996 178.484 17.4996C179.78 17.4996 180.932 17.8356 181.94 18.5076C182.948 19.1556 183.74 20.0076 184.316 21.0636C184.892 22.0956 185.18 23.1756 185.18 24.3036V35.1396H181.22ZM169.376 35.1396V17.8596H173.336V35.1396H169.376ZM196.044 35.1396L189.096 17.8596H193.2L197.88 30.4236L196.656 30.4596L201.228 17.8596H203.532L208.104 30.4596L206.88 30.4236L211.56 17.8596H215.664L208.716 35.1396H206.412L201.732 23.1876H203.028L198.348 35.1396H196.044ZM219.7 35.1396V17.8596H223.66V35.1396H219.7ZM221.68 14.6916C221.008 14.6916 220.444 14.4636 219.988 14.0076C219.556 13.5516 219.34 12.9876 219.34 12.3156C219.34 11.6436 219.556 11.0796 219.988 10.6236C220.444 10.1676 221.008 9.93965 221.68 9.93965C222.376 9.93965 222.94 10.1676 223.372 10.6236C223.804 11.0796 224.02 11.6436 224.02 12.3156C224.02 12.9876 223.804 13.5516 223.372 14.0076C222.94 14.4636 222.376 14.6916 221.68 14.6916ZM235.553 35.4996C234.593 35.4996 233.669 35.3796 232.781 35.1396C231.893 34.8756 231.077 34.5156 230.333 34.0596C229.589 33.5796 228.941 33.0036 228.389 32.3316L230.909 29.8116C231.509 30.5076 232.193 31.0356 232.961 31.3956C233.753 31.7316 234.641 31.8996 235.625 31.8996C236.513 31.8996 237.185 31.7676 237.641 31.5036C238.097 31.2396 238.325 30.8556 238.325 30.3516C238.325 29.8236 238.109 29.4156 237.677 29.1276C237.245 28.8396 236.681 28.5996 235.985 28.4076C235.313 28.1916 234.593 27.9756 233.825 27.7596C233.081 27.5436 232.361 27.2556 231.665 26.8956C230.993 26.5116 230.441 25.9956 230.009 25.3476C229.577 24.6996 229.361 23.8596 229.361 22.8276C229.361 21.7236 229.613 20.7756 230.117 19.9836C230.645 19.1916 231.377 18.5796 232.313 18.1476C233.273 17.7156 234.413 17.4996 235.733 17.4996C237.125 17.4996 238.349 17.7516 239.405 18.2556C240.485 18.7356 241.385 19.4676 242.105 20.4516L239.585 22.9716C239.081 22.3476 238.505 21.8796 237.857 21.5676C237.209 21.2556 236.465 21.0996 235.625 21.0996C234.833 21.0996 234.221 21.2196 233.789 21.4596C233.357 21.6996 233.141 22.0476 233.141 22.5036C233.141 22.9836 233.357 23.3556 233.789 23.6196C234.221 23.8836 234.773 24.1116 235.445 24.3036C236.141 24.4956 236.861 24.7116 237.605 24.9516C238.373 25.1676 239.093 25.4796 239.765 25.8876C240.461 26.2716 241.025 26.7996 241.457 27.4716C241.889 28.1196 242.105 28.9716 242.105 30.0276C242.105 31.7076 241.517 33.0396 240.341 34.0236C239.165 35.0076 237.569 35.4996 235.553 35.4996ZM259.014 35.1396V25.1676C259.014 24.0156 258.642 23.0676 257.898 22.3236C257.178 21.5796 256.242 21.2076 255.09 21.2076C254.322 21.2076 253.638 21.3756 253.038 21.7116C252.438 22.0476 251.97 22.5156 251.634 23.1156C251.298 23.7156 251.13 24.3996 251.13 25.1676L249.582 24.3036C249.582 22.9836 249.87 21.8196 250.446 20.8116C251.022 19.7796 251.814 18.9756 252.822 18.3996C253.854 17.7996 255.006 17.4996 256.278 17.4996C257.574 17.4996 258.726 17.7876 259.734 18.3636C260.742 18.9396 261.534 19.7436 262.11 20.7756C262.686 21.7836 262.974 22.9596 262.974 24.3036V35.1396H259.014ZM247.17 35.1396V9.21965H251.13V35.1396H247.17Z" fill="#757575"/>
<path d="M0 22.1398C0 9.91232 9.91232 0 22.1398 0H64.8925V44.2796H22.1398C9.91232 44.2796 0 34.3672 0 22.1398Z" fill="#FAEAC0"/>
<path d="M18.3223 22.1398C18.3223 9.91232 28.2346 0 40.462 0H70.9997V44.2796H40.4621C28.2346 44.2796 18.3223 34.3672 18.3223 22.1398Z" fill="#424242"/>
</svg>
