<svg width="1030" height="913" viewBox="0 0 1030 913" fill="none" xmlns="http://www.w3.org/2000/svg">
<path d="M612.409 912.634C874.722 912.634 1087.37 900.219 1087.37 884.905C1087.37 869.59 874.722 857.175 612.409 857.175C350.097 857.175 137.45 869.59 137.45 884.905C137.45 900.219 350.097 912.634 612.409 912.634Z" fill="#F7F7F7"/>
<path d="M798.409 93.1105H725.336C722.265 93.1105 719.775 95.6001 719.775 98.6711V171.744C719.775 174.815 722.265 177.304 725.336 177.304H798.409C801.48 177.304 803.969 174.815 803.969 171.744V98.6711C803.969 95.6001 801.48 93.1105 798.409 93.1105Z" fill="#D5CCAE"/>
<g opacity="0.4">
<path d="M798.409 93.1105H725.336C722.265 93.1105 719.775 95.6001 719.775 98.6711V171.744C719.775 174.815 722.265 177.304 725.336 177.304H798.409C801.48 177.304 803.969 174.815 803.969 171.744V98.6711C803.969 95.6001 801.48 93.1105 798.409 93.1105Z" fill="white"/>
</g>
<path d="M750.568 130.761L735.87 136.126L750.568 141.442V146.978L729.697 139.016V133.333L750.568 125.372V130.761Z" fill="white"/>
<path d="M766.293 114.545H772.392L757.891 155.87H751.791L766.293 114.545Z" fill="white"/>
<path d="M794.049 133.284V138.967L773.178 146.978V141.491L787.876 136.175L773.178 130.81V125.372L794.049 133.284Z" fill="white"/>
<path d="M738.319 192.688V213.118H733.591V204.716H724.283V213.118H719.555V192.663H724.283V200.87H733.591V192.81L738.319 192.688Z" fill="#263238"/>
<path d="M747.432 196.534H740.867V192.688H758.701V196.534H752.16V213.118H747.432V196.534Z" fill="#263238"/>
<path d="M779.89 213.118V200.869L773.864 210.986H771.635L765.633 201.188V213.118H761.199V192.663H765.119L772.761 205.377L780.306 192.663H784.201V213.118H779.89Z" fill="#263238"/>
<path d="M789.197 192.688H793.925V209.272H804.189V213.118H789.197V192.688Z" fill="#263238"/>
<g opacity="0.6">
<path d="M738.319 192.688V213.118H733.591V204.716H724.283V213.118H719.555V192.663H724.283V200.87H733.591V192.81L738.319 192.688Z" fill="white"/>
<path d="M747.432 196.534H740.867V192.688H758.701V196.534H752.16V213.118H747.432V196.534Z" fill="white"/>
<path d="M779.89 213.118V200.87L773.864 210.987H771.635L765.633 201.188V213.118H761.199V192.663H765.119L772.761 205.377L780.306 192.663H784.201V213.118H779.89Z" fill="white"/>
<path d="M789.197 192.688H793.925V209.272H804.189V213.118H789.197V192.688Z" fill="white"/>
</g>
<path d="M978.481 137.988H905.408C902.337 137.988 899.848 140.477 899.848 143.548V216.621C899.848 219.692 902.337 222.181 905.408 222.181H978.481C981.552 222.181 984.041 219.692 984.041 216.621V143.548C984.041 140.477 981.552 137.988 978.481 137.988Z" fill="#D5CCAE"/>
<g opacity="0.4">
<path d="M978.479 137.988H905.406C902.335 137.988 899.846 140.477 899.846 143.548V216.621C899.846 219.692 902.335 222.181 905.406 222.181H978.479C981.55 222.181 984.04 219.692 984.04 216.621V143.548C984.04 140.477 981.55 137.988 978.479 137.988Z" fill="white"/>
</g>
<path d="M928.138 180.072C930.147 180.685 931.078 181.958 931.078 184.971V192.002C931.023 192.438 931.068 192.88 931.209 193.296C931.35 193.711 931.585 194.09 931.894 194.401C932.203 194.713 932.58 194.95 932.994 195.095C933.409 195.239 933.851 195.287 934.287 195.235H935.071V200.6H932.621C927.134 200.6 924.341 197.783 924.341 192.737V184.8C924.379 184.532 924.356 184.258 924.273 184C924.191 183.742 924.052 183.505 923.867 183.308C923.681 183.11 923.453 182.957 923.201 182.859C922.948 182.761 922.676 182.721 922.406 182.742H920.961V177.378H922.406C922.676 177.398 922.948 177.359 923.201 177.261C923.453 177.163 923.681 177.01 923.867 176.812C924.052 176.615 924.191 176.378 924.273 176.12C924.356 175.862 924.379 175.588 924.341 175.32V167.383C924.341 162.337 927.134 159.52 932.621 159.52H935.071V164.884H934.287C933.851 164.833 933.409 164.881 932.994 165.025C932.58 165.17 932.203 165.407 931.894 165.719C931.585 166.03 931.35 166.408 931.209 166.824C931.068 167.24 931.023 167.682 931.078 168.118V175.148C931.078 178.186 930.147 179.46 928.138 180.072Z" fill="white"/>
<path d="M963.022 177.402V182.767H961.577C961.307 182.746 961.035 182.786 960.782 182.883C960.53 182.981 960.302 183.135 960.116 183.332C959.931 183.529 959.792 183.766 959.709 184.024C959.627 184.282 959.604 184.556 959.642 184.824V192.761C959.642 197.807 956.824 200.624 951.362 200.624H948.912V195.26H949.696C950.132 195.312 950.574 195.263 950.989 195.119C951.404 194.974 951.78 194.737 952.089 194.426C952.398 194.114 952.633 193.736 952.774 193.32C952.915 192.904 952.96 192.462 952.905 192.026V184.996C952.905 181.958 953.811 180.684 955.845 180.097C953.811 179.484 952.905 178.21 952.905 175.197V168.167C952.96 167.731 952.915 167.289 952.774 166.873C952.633 166.457 952.398 166.079 952.089 165.767C951.78 165.456 951.404 165.219 950.989 165.074C950.574 164.93 950.132 164.881 949.696 164.933H948.912V159.569H951.362C956.824 159.569 959.642 162.386 959.642 167.432V175.369C959.604 175.637 959.627 175.911 959.709 176.169C959.792 176.427 959.931 176.664 960.116 176.861C960.302 177.058 960.53 177.212 960.782 177.31C961.035 177.407 961.307 177.447 961.577 177.426L963.022 177.402Z" fill="white"/>
<path d="M913.713 248.099C913.834 245.879 914.609 243.745 915.94 241.965C917.272 240.184 919.1 238.838 921.195 238.094C923.29 237.35 925.557 237.243 927.713 237.785C929.869 238.327 931.816 239.495 933.31 241.142L930.272 243.959C929.654 243.19 928.87 242.571 927.98 242.147C927.089 241.723 926.115 241.505 925.128 241.509C924.234 241.454 923.338 241.583 922.495 241.888C921.653 242.192 920.882 242.666 920.229 243.28C919.577 243.894 919.057 244.635 918.701 245.457C918.346 246.279 918.162 247.166 918.162 248.062C918.162 248.958 918.346 249.844 918.701 250.666C919.057 251.489 919.577 252.23 920.229 252.844C920.882 253.457 921.653 253.931 922.495 254.236C923.338 254.54 924.234 254.669 925.128 254.615C926.114 254.617 927.088 254.398 927.979 253.974C928.869 253.551 929.653 252.932 930.272 252.165L933.31 254.957C931.823 256.614 929.878 257.793 927.72 258.343C925.563 258.893 923.291 258.79 921.192 258.048C919.093 257.305 917.262 255.956 915.931 254.172C914.599 252.388 913.827 250.248 913.713 248.025V248.099Z" fill="#263238"/>
<path d="M934.582 256.329L936.174 252.753C938.169 254.114 940.521 254.856 942.935 254.884C945.728 254.884 946.879 253.953 946.879 252.704C946.879 248.858 934.974 251.504 934.974 243.91C934.974 240.431 937.791 237.516 943.597 237.516C946.084 237.474 948.537 238.1 950.701 239.329L949.255 242.93C947.529 241.919 945.572 241.371 943.572 241.338C940.78 241.338 939.677 242.366 939.677 243.665C939.677 247.437 951.582 244.84 951.582 252.336C951.582 255.766 948.741 258.681 942.911 258.681C939.961 258.751 937.059 257.931 934.582 256.329V256.329Z" fill="#263238"/>
<path d="M953.225 256.329L954.841 252.753C956.83 254.125 959.186 254.868 961.602 254.884C964.395 254.884 965.546 253.953 965.546 252.704C965.546 248.858 953.641 251.504 953.641 243.91C953.641 240.431 956.458 237.516 962.264 237.516C964.751 237.478 967.203 238.104 969.368 239.329L967.898 242.93C966.182 241.917 964.232 241.369 962.239 241.338C959.422 241.338 958.344 242.367 958.344 243.665C958.344 247.437 970.25 244.841 970.25 252.337C970.25 255.766 967.408 258.681 961.553 258.681C958.604 258.751 955.702 257.931 953.225 256.329V256.329Z" fill="#263238"/>
<g opacity="0.6">
<path d="M913.713 248.099C913.834 245.879 914.609 243.745 915.94 241.965C917.272 240.184 919.1 238.838 921.195 238.094C923.29 237.35 925.557 237.243 927.713 237.785C929.869 238.327 931.816 239.495 933.31 241.142L930.272 243.959C929.654 243.19 928.87 242.571 927.98 242.147C927.089 241.723 926.115 241.505 925.128 241.509C924.234 241.454 923.338 241.583 922.495 241.888C921.653 242.192 920.882 242.666 920.229 243.28C919.577 243.894 919.057 244.635 918.701 245.457C918.346 246.279 918.162 247.166 918.162 248.062C918.162 248.958 918.346 249.844 918.701 250.666C919.057 251.489 919.577 252.23 920.229 252.844C920.882 253.457 921.653 253.931 922.495 254.236C923.338 254.54 924.234 254.669 925.128 254.615C926.114 254.617 927.088 254.398 927.979 253.974C928.869 253.551 929.653 252.932 930.272 252.165L933.31 254.957C931.823 256.614 929.878 257.793 927.72 258.343C925.563 258.893 923.291 258.79 921.192 258.048C919.093 257.305 917.262 255.956 915.931 254.172C914.599 252.388 913.827 250.248 913.713 248.025V248.099Z" fill="white"/>
<path d="M934.582 256.329L936.174 252.753C938.169 254.114 940.521 254.856 942.935 254.884C945.728 254.884 946.879 253.953 946.879 252.704C946.879 248.858 934.974 251.504 934.974 243.91C934.974 240.431 937.791 237.516 943.597 237.516C946.084 237.474 948.537 238.1 950.701 239.329L949.255 242.93C947.529 241.919 945.572 241.371 943.572 241.338C940.78 241.338 939.677 242.366 939.677 243.665C939.677 247.437 951.582 244.84 951.582 252.336C951.582 255.766 948.741 258.681 942.911 258.681C939.961 258.751 937.059 257.931 934.582 256.329V256.329Z" fill="white"/>
<path d="M953.223 256.329L954.839 252.753C956.828 254.125 959.184 254.867 961.6 254.884C964.393 254.884 965.544 253.953 965.544 252.704C965.544 248.858 953.639 251.503 953.639 243.91C953.639 240.431 956.456 237.516 962.262 237.516C964.749 237.478 967.201 238.104 969.366 239.329L967.896 242.93C966.18 241.917 964.23 241.369 962.237 241.337C959.42 241.337 958.342 242.366 958.342 243.665C958.342 247.437 970.248 244.84 970.248 252.336C970.248 255.766 967.406 258.681 961.551 258.681C958.602 258.751 955.7 257.931 953.223 256.329V256.329Z" fill="white"/>
</g>
<path d="M664.001 129.782H363.896V347.015H664.001V129.782Z" fill="black"/>
<path opacity="0.9" d="M664.001 129.782H363.896V347.015H664.001V129.782Z" fill="white"/>
<path opacity="0.1" d="M405.687 129.782H363.896V347.015H405.687V129.782Z" fill="black"/>
<path d="M664.001 129.782H363.896V150.089H664.001V129.782Z" fill="#D5CCAE"/>
<g opacity="0.2">
<path d="M484.322 180.734H429.67C429.021 180.734 428.398 180.476 427.938 180.016C427.479 179.557 427.221 178.934 427.221 178.284C427.221 177.634 427.479 177.011 427.938 176.552C428.398 176.093 429.021 175.834 429.67 175.834H484.322C484.971 175.834 485.594 176.093 486.054 176.552C486.513 177.011 486.771 177.634 486.771 178.284C486.771 178.934 486.513 179.557 486.054 180.016C485.594 180.476 484.971 180.734 484.322 180.734Z" fill="black"/>
<path d="M605.063 180.734H498.872C498.222 180.734 497.599 180.476 497.139 180.016C496.68 179.557 496.422 178.934 496.422 178.284C496.422 177.634 496.68 177.011 497.139 176.552C497.599 176.093 498.222 175.834 498.872 175.834H605.063C605.713 175.834 606.336 176.093 606.795 176.552C607.255 177.011 607.513 177.634 607.513 178.284C607.513 178.934 607.255 179.557 606.795 180.016C606.336 180.476 605.713 180.734 605.063 180.734Z" fill="black"/>
<path d="M579.783 196.73H437.018C436.368 196.73 435.745 196.472 435.286 196.012C434.826 195.553 434.568 194.93 434.568 194.28C434.568 193.631 434.826 193.007 435.286 192.548C435.745 192.089 436.368 191.831 437.018 191.831H579.783C580.432 191.831 581.055 192.089 581.515 192.548C581.974 193.007 582.232 193.631 582.232 194.28C582.232 194.93 581.974 195.553 581.515 196.012C581.055 196.472 580.432 196.73 579.783 196.73Z" fill="black"/>
<path d="M521.63 212.702H429.67C429.021 212.702 428.398 212.443 427.938 211.984C427.479 211.525 427.221 210.902 427.221 210.252C427.221 209.602 427.479 208.979 427.938 208.52C428.398 208.06 429.021 207.802 429.67 207.802H521.63C522.279 207.802 522.902 208.06 523.362 208.52C523.821 208.979 524.079 209.602 524.079 210.252C524.079 210.902 523.821 211.525 523.362 211.984C522.902 212.443 522.279 212.702 521.63 212.702Z" fill="black"/>
<path d="M605.063 212.702H539.168C538.519 212.702 537.896 212.443 537.436 211.984C536.977 211.525 536.719 210.902 536.719 210.252C536.719 209.602 536.977 208.979 537.436 208.52C537.896 208.06 538.519 207.802 539.168 207.802H605.063C605.713 207.802 606.336 208.06 606.796 208.52C607.255 208.979 607.513 209.602 607.513 210.252C607.513 210.902 607.255 211.525 606.796 211.984C606.336 212.443 605.713 212.702 605.063 212.702Z" fill="black"/>
<path d="M480.451 228.698H429.67C429.021 228.698 428.398 228.44 427.938 227.98C427.479 227.521 427.221 226.898 427.221 226.248C427.221 225.598 427.479 224.975 427.938 224.516C428.398 224.056 429.021 223.798 429.67 223.798H480.451C481.101 223.798 481.724 224.056 482.183 224.516C482.643 224.975 482.901 225.598 482.901 226.248C482.901 226.898 482.643 227.521 482.183 227.98C481.724 228.44 481.101 228.698 480.451 228.698Z" fill="black"/>
<path d="M576.868 228.698H496.913C496.263 228.698 495.64 228.44 495.18 227.98C494.721 227.521 494.463 226.898 494.463 226.248C494.463 225.598 494.721 224.975 495.18 224.516C495.64 224.056 496.263 223.798 496.913 223.798H576.868C577.518 223.798 578.141 224.056 578.601 224.516C579.06 224.975 579.318 225.598 579.318 226.248C579.318 226.898 579.06 227.521 578.601 227.98C578.141 228.44 577.518 228.698 576.868 228.698Z" fill="black"/>
<path d="M505.338 244.694H437.018C436.368 244.694 435.745 244.436 435.286 243.976C434.826 243.517 434.568 242.894 434.568 242.244C434.568 241.594 434.826 240.971 435.286 240.512C435.745 240.053 436.368 239.794 437.018 239.794H505.338C505.988 239.794 506.611 240.053 507.07 240.512C507.53 240.971 507.788 241.594 507.788 242.244C507.788 242.894 507.53 243.517 507.07 243.976C506.611 244.436 505.988 244.694 505.338 244.694V244.694Z" fill="black"/>
<path d="M513.887 260.69H437.018C436.368 260.69 435.745 260.432 435.286 259.972C434.826 259.513 434.568 258.89 434.568 258.24C434.568 257.591 434.826 256.968 435.286 256.508C435.745 256.049 436.368 255.791 437.018 255.791H513.887C514.537 255.791 515.16 256.049 515.62 256.508C516.079 256.968 516.337 257.591 516.337 258.24C516.337 258.89 516.079 259.513 515.62 259.972C515.16 260.432 514.537 260.69 513.887 260.69Z" fill="black"/>
<path d="M605.064 260.69H526.676C526.027 260.69 525.403 260.432 524.944 259.972C524.485 259.513 524.227 258.89 524.227 258.24C524.227 257.59 524.485 256.967 524.944 256.508C525.403 256.049 526.027 255.791 526.676 255.791H605.064C605.714 255.791 606.337 256.049 606.797 256.508C607.256 256.967 607.514 257.59 607.514 258.24C607.514 258.89 607.256 259.513 606.797 259.972C606.337 260.432 605.714 260.69 605.064 260.69Z" fill="black"/>
<path d="M473.665 276.661H429.572C428.922 276.661 428.299 276.403 427.84 275.944C427.38 275.484 427.122 274.861 427.122 274.212C427.122 273.562 427.38 272.939 427.84 272.48C428.299 272.02 428.922 271.762 429.572 271.762H473.665C474.315 271.762 474.938 272.02 475.397 272.48C475.857 272.939 476.115 273.562 476.115 274.212C476.115 274.861 475.857 275.484 475.397 275.944C474.938 276.403 474.315 276.661 473.665 276.661Z" fill="black"/>
<path d="M605.064 276.661H488.682C488.032 276.661 487.409 276.403 486.95 275.944C486.491 275.484 486.232 274.861 486.232 274.212C486.232 273.562 486.491 272.939 486.95 272.48C487.409 272.02 488.032 271.762 488.682 271.762H605.064C605.714 271.762 606.337 272.02 606.796 272.48C607.256 272.939 607.514 273.562 607.514 274.212C607.514 274.861 607.256 275.484 606.796 275.944C606.337 276.403 605.714 276.661 605.064 276.661Z" fill="black"/>
<path d="M513.398 292.657H437.018C436.368 292.657 435.745 292.399 435.286 291.94C434.826 291.481 434.568 290.857 434.568 290.208C434.568 289.558 434.826 288.935 435.286 288.476C435.745 288.016 436.368 287.758 437.018 287.758H513.398C514.047 287.758 514.67 288.016 515.13 288.476C515.589 288.935 515.847 289.558 515.847 290.208C515.847 290.857 515.589 291.481 515.13 291.94C514.67 292.399 514.047 292.657 513.398 292.657Z" fill="black"/>
<path d="M573.487 292.657H524.053C523.403 292.657 522.78 292.399 522.321 291.94C521.862 291.481 521.604 290.857 521.604 290.208C521.604 289.558 521.862 288.935 522.321 288.476C522.78 288.016 523.403 287.758 524.053 287.758H573.487C574.136 287.758 574.759 288.016 575.219 288.476C575.678 288.935 575.936 289.558 575.936 290.208C575.936 290.857 575.678 291.481 575.219 291.94C574.759 292.399 574.136 292.657 573.487 292.657Z" fill="black"/>
<path d="M524.935 308.654H437.018C436.368 308.654 435.745 308.396 435.286 307.936C434.826 307.477 434.568 306.854 434.568 306.204C434.568 305.554 434.826 304.931 435.286 304.472C435.745 304.012 436.368 303.754 437.018 303.754H524.935C525.585 303.754 526.208 304.012 526.667 304.472C527.127 304.931 527.385 305.554 527.385 306.204C527.385 306.854 527.127 307.477 526.667 307.936C526.208 308.396 525.585 308.654 524.935 308.654V308.654Z" fill="black"/>
</g>
<path opacity="0.4" d="M651.089 144.259C653.403 144.259 655.278 142.384 655.278 140.07C655.278 137.757 653.403 135.881 651.089 135.881C648.776 135.881 646.9 137.757 646.9 140.07C646.9 142.384 648.776 144.259 651.089 144.259Z" fill="white"/>
<path opacity="0.4" d="M636.369 144.259C638.682 144.259 640.557 142.384 640.557 140.07C640.557 137.757 638.682 135.881 636.369 135.881C634.055 135.881 632.18 137.757 632.18 140.07C632.18 142.384 634.055 144.259 636.369 144.259Z" fill="white"/>
<path opacity="0.4" d="M621.671 144.259C623.985 144.259 625.86 142.384 625.86 140.07C625.86 137.757 623.985 135.881 621.671 135.881C619.358 135.881 617.482 137.757 617.482 140.07C617.482 142.384 619.358 144.259 621.671 144.259Z" fill="white"/>
<g opacity="0.2">
<path d="M385.525 180.734C384.875 180.734 384.252 180.476 383.793 180.017C383.333 179.557 383.075 178.934 383.075 178.285C383.075 177.635 383.333 177.012 383.793 176.552C384.252 176.093 384.875 175.835 385.525 175.835C386.175 175.835 386.798 176.093 387.257 176.552C387.716 177.012 387.974 177.635 387.974 178.285C387.974 178.934 387.716 179.557 387.257 180.017C386.798 180.476 386.175 180.734 385.525 180.734Z" fill="black"/>
<path d="M385.525 196.73C384.875 196.73 384.252 196.472 383.793 196.013C383.333 195.554 383.075 194.93 383.075 194.281C383.075 193.631 383.333 193.008 383.793 192.549C384.252 192.089 384.875 191.831 385.525 191.831C386.175 191.831 386.798 192.089 387.257 192.549C387.716 193.008 387.974 193.631 387.974 194.281C387.974 194.93 387.716 195.554 387.257 196.013C386.798 196.472 386.175 196.73 385.525 196.73Z" fill="black"/>
<path d="M385.525 212.702C384.875 212.702 384.252 212.444 383.793 211.984C383.333 211.525 383.075 210.902 383.075 210.252C383.075 209.602 383.333 208.979 383.793 208.52C384.252 208.061 384.875 207.802 385.525 207.802C386.175 207.802 386.798 208.061 387.257 208.52C387.716 208.979 387.974 209.602 387.974 210.252C387.974 210.902 387.716 211.525 387.257 211.984C386.798 212.444 386.175 212.702 385.525 212.702Z" fill="black"/>
<path d="M385.525 228.698C384.875 228.698 384.252 228.44 383.793 227.98C383.333 227.521 383.075 226.898 383.075 226.248C383.075 225.599 383.333 224.975 383.793 224.516C384.252 224.057 384.875 223.799 385.525 223.799C386.175 223.799 386.798 224.057 387.257 224.516C387.716 224.975 387.974 225.599 387.974 226.248C387.974 226.898 387.716 227.521 387.257 227.98C386.798 228.44 386.175 228.698 385.525 228.698Z" fill="black"/>
<path d="M385.525 244.694C384.875 244.694 384.252 244.436 383.793 243.976C383.333 243.517 383.075 242.894 383.075 242.244C383.075 241.595 383.333 240.972 383.793 240.512C384.252 240.053 384.875 239.795 385.525 239.795C386.175 239.795 386.798 240.053 387.257 240.512C387.716 240.972 387.974 241.595 387.974 242.244C387.974 242.894 387.716 243.517 387.257 243.976C386.798 244.436 386.175 244.694 385.525 244.694Z" fill="black"/>
<path d="M385.525 260.69C384.875 260.69 384.252 260.432 383.793 259.973C383.333 259.513 383.075 258.89 383.075 258.24C383.075 257.591 383.333 256.968 383.793 256.508C384.252 256.049 384.875 255.791 385.525 255.791C386.175 255.791 386.798 256.049 387.257 256.508C387.716 256.968 387.974 257.591 387.974 258.24C387.974 258.89 387.716 259.513 387.257 259.973C386.798 260.432 386.175 260.69 385.525 260.69Z" fill="black"/>
<path d="M385.525 276.662C384.875 276.662 384.252 276.404 383.793 275.944C383.333 275.485 383.075 274.862 383.075 274.212C383.075 273.562 383.333 272.939 383.793 272.48C384.252 272.021 384.875 271.762 385.525 271.762C386.175 271.762 386.798 272.021 387.257 272.48C387.716 272.939 387.974 273.562 387.974 274.212C387.974 274.862 387.716 275.485 387.257 275.944C386.798 276.404 386.175 276.662 385.525 276.662Z" fill="black"/>
<path d="M385.525 292.658C384.875 292.658 384.252 292.4 383.793 291.94C383.333 291.481 383.075 290.858 383.075 290.208C383.075 289.558 383.333 288.935 383.793 288.476C384.252 288.017 384.875 287.759 385.525 287.759C386.175 287.759 386.798 288.017 387.257 288.476C387.716 288.935 387.974 289.558 387.974 290.208C387.974 290.858 387.716 291.481 387.257 291.94C386.798 292.4 386.175 292.658 385.525 292.658Z" fill="black"/>
<path d="M385.525 308.654C384.875 308.654 384.252 308.396 383.793 307.936C383.333 307.477 383.075 306.854 383.075 306.204C383.075 305.554 383.333 304.931 383.793 304.472C384.252 304.013 384.875 303.755 385.525 303.755C386.175 303.755 386.798 304.013 387.257 304.472C387.716 304.931 387.974 305.554 387.974 306.204C387.974 306.854 387.716 307.477 387.257 307.936C386.798 308.396 386.175 308.654 385.525 308.654Z" fill="black"/>
</g>
<path d="M935.812 307.037H542.572V558.834H935.812V307.037Z" fill="#263238"/>
<path opacity="0.9" d="M935.812 307.037H542.572V558.834H935.812V307.037Z" fill="white"/>
<path opacity="0.1" d="M603.911 307.037H542.572V558.834H603.911V307.037Z" fill="black"/>
<path d="M935.812 307.037H542.572V327.344H935.812V307.037Z" fill="#D5CCAE"/>
<path d="M570.35 349.611L563.834 352.061L570.35 354.511V356.96L561.041 353.408V350.959L570.35 347.431V349.611Z" fill="white"/>
<path d="M577.381 342.36H580.1L573.633 360.806H570.914L577.381 342.36Z" fill="white"/>
<path d="M589.775 350.714V353.164L580.467 356.716V354.266L586.983 351.816L580.467 349.367V346.917L589.775 350.714Z" fill="white"/>
<g opacity="0.2">
<path d="M588.406 377.611H561.754C561.105 377.611 560.482 377.353 560.022 376.893C559.563 376.434 559.305 375.811 559.305 375.161C559.305 374.511 559.563 373.888 560.022 373.429C560.482 372.97 561.105 372.711 561.754 372.711H588.406C589.056 372.711 589.679 372.97 590.138 373.429C590.598 373.888 590.856 374.511 590.856 375.161C590.856 375.811 590.598 376.434 590.138 376.893C589.679 377.353 589.056 377.611 588.406 377.611Z" fill="black"/>
<path d="M588.406 393.582H561.754C561.105 393.582 560.482 393.324 560.022 392.865C559.563 392.405 559.305 391.782 559.305 391.132C559.305 390.483 559.563 389.86 560.022 389.4C560.482 388.941 561.105 388.683 561.754 388.683H588.406C589.056 388.683 589.679 388.941 590.138 389.4C590.598 389.86 590.856 390.483 590.856 391.132C590.856 391.782 590.598 392.405 590.138 392.865C589.679 393.324 589.056 393.582 588.406 393.582Z" fill="black"/>
<path d="M588.406 409.578H561.754C561.105 409.578 560.482 409.32 560.022 408.861C559.563 408.402 559.305 407.779 559.305 407.129C559.305 406.479 559.563 405.856 560.022 405.397C560.482 404.937 561.105 404.679 561.754 404.679H588.406C589.056 404.679 589.679 404.937 590.138 405.397C590.598 405.856 590.856 406.479 590.856 407.129C590.856 407.779 590.598 408.402 590.138 408.861C589.679 409.32 589.056 409.578 588.406 409.578Z" fill="black"/>
<path d="M588.406 425.575H561.754C561.105 425.575 560.482 425.316 560.022 424.857C559.563 424.398 559.305 423.775 559.305 423.125C559.305 422.475 559.563 421.852 560.022 421.393C560.482 420.933 561.105 420.675 561.754 420.675H588.406C589.056 420.675 589.679 420.933 590.138 421.393C590.598 421.852 590.856 422.475 590.856 423.125C590.856 423.775 590.598 424.398 590.138 424.857C589.679 425.316 589.056 425.575 588.406 425.575Z" fill="black"/>
<path d="M588.406 441.571H561.754C561.105 441.571 560.482 441.313 560.022 440.853C559.563 440.394 559.305 439.771 559.305 439.121C559.305 438.471 559.563 437.848 560.022 437.389C560.482 436.929 561.105 436.671 561.754 436.671H588.406C589.056 436.671 589.679 436.929 590.138 437.389C590.598 437.848 590.856 438.471 590.856 439.121C590.856 439.771 590.598 440.394 590.138 440.853C589.679 441.313 589.056 441.571 588.406 441.571Z" fill="black"/>
<path d="M588.406 457.542H561.754C561.105 457.542 560.482 457.284 560.022 456.825C559.563 456.365 559.305 455.742 559.305 455.093C559.305 454.443 559.563 453.82 560.022 453.36C560.482 452.901 561.105 452.643 561.754 452.643H588.406C589.056 452.643 589.679 452.901 590.138 453.36C590.598 453.82 590.856 454.443 590.856 455.093C590.856 455.742 590.598 456.365 590.138 456.825C589.679 457.284 589.056 457.542 588.406 457.542Z" fill="black"/>
<path d="M588.406 473.538H561.754C561.105 473.538 560.482 473.28 560.022 472.821C559.563 472.361 559.305 471.738 559.305 471.089C559.305 470.439 559.563 469.816 560.022 469.357C560.482 468.897 561.105 468.639 561.754 468.639H588.406C589.056 468.639 589.679 468.897 590.138 469.357C590.598 469.816 590.856 470.439 590.856 471.089C590.856 471.738 590.598 472.361 590.138 472.821C589.679 473.28 589.056 473.538 588.406 473.538Z" fill="black"/>
<path d="M588.406 489.534H561.754C561.105 489.534 560.482 489.276 560.022 488.817C559.563 488.358 559.305 487.734 559.305 487.085C559.305 486.435 559.563 485.812 560.022 485.353C560.482 484.893 561.105 484.635 561.754 484.635H588.406C589.056 484.635 589.679 484.893 590.138 485.353C590.598 485.812 590.856 486.435 590.856 487.085C590.856 487.734 590.598 488.358 590.138 488.817C589.679 489.276 589.056 489.534 588.406 489.534Z" fill="black"/>
<path d="M588.406 505.531H561.754C561.105 505.531 560.482 505.273 560.022 504.813C559.563 504.354 559.305 503.731 559.305 503.081C559.305 502.431 559.563 501.808 560.022 501.349C560.482 500.889 561.105 500.631 561.754 500.631H588.406C589.056 500.631 589.679 500.889 590.138 501.349C590.598 501.808 590.856 502.431 590.856 503.081C590.856 503.731 590.598 504.354 590.138 504.813C589.679 505.273 589.056 505.531 588.406 505.531Z" fill="black"/>
</g>
<path d="M665.445 377.611H610.793C610.144 377.611 609.521 377.353 609.061 376.893C608.602 376.434 608.344 375.811 608.344 375.161C608.344 374.511 608.602 373.888 609.061 373.429C609.521 372.97 610.144 372.711 610.793 372.711H665.445C666.094 372.711 666.717 372.97 667.177 373.429C667.636 373.888 667.894 374.511 667.894 375.161C667.894 375.811 667.636 376.434 667.177 376.893C666.717 377.353 666.094 377.611 665.445 377.611Z" fill="#D5CCAE"/>
<path d="M822.443 377.611H679.997C679.347 377.611 678.724 377.353 678.264 376.893C677.805 376.434 677.547 375.811 677.547 375.161C677.547 374.511 677.805 373.888 678.264 373.429C678.724 372.97 679.347 372.711 679.997 372.711H822.443C823.092 372.711 823.715 372.97 824.175 373.429C824.634 373.888 824.892 374.511 824.892 375.161C824.892 375.811 824.634 376.434 824.175 376.893C823.715 377.353 823.092 377.611 822.443 377.611V377.611Z" fill="#263238"/>
<g opacity="0.2">
<path d="M887.456 377.61H846.18C845.53 377.61 844.907 377.352 844.448 376.893C843.989 376.433 843.73 375.81 843.73 375.161C843.73 374.511 843.989 373.888 844.448 373.429C844.907 372.969 845.53 372.711 846.18 372.711H887.456C888.106 372.711 888.729 372.969 889.189 373.429C889.648 373.888 889.906 374.511 889.906 375.161C889.906 375.81 889.648 376.433 889.189 376.893C888.729 377.352 888.106 377.61 887.456 377.61V377.61Z" fill="#263238"/>
</g>
<g opacity="0.2">
<path d="M760.906 393.583H618.141C617.491 393.583 616.868 393.325 616.409 392.865C615.949 392.406 615.691 391.783 615.691 391.133C615.691 390.483 615.949 389.86 616.409 389.401C616.868 388.942 617.491 388.683 618.141 388.683H760.906C761.555 388.683 762.178 388.942 762.638 389.401C763.097 389.86 763.355 390.483 763.355 391.133C763.355 391.783 763.097 392.406 762.638 392.865C762.178 393.325 761.555 393.583 760.906 393.583Z" fill="#263238"/>
</g>
<path d="M907.052 393.583H774.086C773.437 393.583 772.814 393.325 772.354 392.865C771.895 392.406 771.637 391.783 771.637 391.133C771.637 390.483 771.895 389.86 772.354 389.401C772.814 388.942 773.437 388.683 774.086 388.683H907.15C907.8 388.683 908.423 388.942 908.882 389.401C909.342 389.86 909.6 390.483 909.6 391.133C909.6 391.783 909.342 392.406 908.882 392.865C908.423 393.325 907.8 393.583 907.15 393.583H907.052Z" fill="#D5CCAE"/>
<path d="M702.751 409.578H618.141C617.491 409.578 616.868 409.32 616.409 408.861C615.949 408.401 615.691 407.778 615.691 407.129C615.691 406.479 615.949 405.856 616.409 405.397C616.868 404.937 617.491 404.679 618.141 404.679H702.751C703.401 404.679 704.024 404.937 704.483 405.397C704.943 405.856 705.201 406.479 705.201 407.129C705.201 407.778 704.943 408.401 704.483 408.861C704.024 409.32 703.401 409.578 702.751 409.578Z" fill="#263238"/>
<path d="M803.481 409.578H720.194C719.544 409.578 718.921 409.32 718.462 408.861C718.002 408.401 717.744 407.778 717.744 407.129C717.744 406.479 718.002 405.856 718.462 405.397C718.921 404.937 719.544 404.679 720.194 404.679H803.481C804.131 404.679 804.754 404.937 805.213 405.397C805.673 405.856 805.931 406.479 805.931 407.129C805.931 407.778 805.673 408.401 805.213 408.861C804.754 409.32 804.131 409.578 803.481 409.578Z" fill="#D5CCAE"/>
<path d="M907.054 409.578H817.104C816.454 409.578 815.831 409.32 815.372 408.861C814.912 408.401 814.654 407.778 814.654 407.129C814.654 406.479 814.912 405.856 815.372 405.397C815.831 404.937 816.454 404.679 817.104 404.679H907.054C907.704 404.679 908.327 404.937 908.787 405.397C909.246 405.856 909.504 406.479 909.504 407.129C909.504 407.778 909.246 408.401 908.787 408.861C908.327 409.32 907.704 409.578 907.054 409.578Z" fill="#263238"/>
<path d="M710.592 425.575H659.811C659.161 425.575 658.538 425.316 658.079 424.857C657.619 424.398 657.361 423.775 657.361 423.125C657.361 422.475 657.619 421.852 658.079 421.393C658.538 420.933 659.161 420.675 659.811 420.675H710.592C711.241 420.675 711.865 420.933 712.324 421.393C712.783 421.852 713.041 422.475 713.041 423.125C713.041 423.775 712.783 424.398 712.324 424.857C711.865 425.316 711.241 425.575 710.592 425.575V425.575Z" fill="#263238"/>
<path d="M782.512 425.575H727.077C726.427 425.575 725.804 425.316 725.344 424.857C724.885 424.398 724.627 423.775 724.627 423.125C724.627 422.475 724.885 421.852 725.344 421.393C725.804 420.933 726.427 420.675 727.077 420.675H782.512C783.161 420.675 783.784 420.933 784.244 421.393C784.703 421.852 784.961 422.475 784.961 423.125C784.961 423.775 784.703 424.398 784.244 424.857C783.784 425.316 783.161 425.575 782.512 425.575Z" fill="#263238"/>
<g opacity="0.2">
<path d="M885.007 425.575H795.106C794.456 425.575 793.833 425.316 793.374 424.857C792.914 424.398 792.656 423.775 792.656 423.125C792.656 422.475 792.914 421.852 793.374 421.393C793.833 420.933 794.456 420.675 795.106 420.675H885.007C885.657 420.675 886.28 420.933 886.74 421.393C887.199 421.852 887.457 422.475 887.457 423.125C887.457 423.775 887.199 424.398 886.74 424.857C886.28 425.316 885.657 425.575 885.007 425.575Z" fill="#263238"/>
</g>
<g opacity="0.2">
<path d="M686.461 441.571H618.141C617.491 441.571 616.868 441.312 616.409 440.853C615.949 440.394 615.691 439.771 615.691 439.121C615.691 438.471 615.949 437.848 616.409 437.389C616.868 436.929 617.491 436.671 618.141 436.671H686.461C687.111 436.671 687.734 436.929 688.193 437.389C688.653 437.848 688.911 438.471 688.911 439.121C688.911 439.771 688.653 440.394 688.193 440.853C687.734 441.312 687.111 441.571 686.461 441.571Z" fill="#263238"/>
</g>
<path d="M695.01 457.542H618.141C617.491 457.542 616.868 457.284 616.409 456.825C615.949 456.365 615.691 455.742 615.691 455.092C615.691 454.443 615.949 453.82 616.409 453.36C616.868 452.901 617.491 452.643 618.141 452.643H695.01C695.66 452.643 696.283 452.901 696.743 453.36C697.202 453.82 697.46 454.443 697.46 455.092C697.46 455.742 697.202 456.365 696.743 456.825C696.283 457.284 695.66 457.542 695.01 457.542Z" fill="#D5CCAE"/>
<path d="M823.423 457.542H707.604C706.954 457.542 706.331 457.284 705.872 456.825C705.412 456.365 705.154 455.742 705.154 455.092C705.154 454.443 705.412 453.82 705.872 453.36C706.331 452.901 706.954 452.643 707.604 452.643H823.423C824.072 452.643 824.695 452.901 825.155 453.36C825.614 453.82 825.872 454.443 825.872 455.092C825.872 455.742 825.614 456.365 825.155 456.825C824.695 457.284 824.072 457.542 823.423 457.542Z" fill="#263238"/>
<path d="M907.053 457.542H837.459C836.81 457.542 836.187 457.284 835.727 456.825C835.268 456.365 835.01 455.742 835.01 455.092C835.01 454.443 835.268 453.82 835.727 453.36C836.187 452.901 836.81 452.643 837.459 452.643H907.053C907.703 452.643 908.326 452.901 908.786 453.36C909.245 453.82 909.503 454.443 909.503 455.092C909.503 455.742 909.245 456.365 908.786 456.825C908.326 457.284 907.703 457.542 907.053 457.542V457.542Z" fill="#263238"/>
<g opacity="0.2">
<path d="M686.66 473.538H642.567C641.917 473.538 641.294 473.28 640.835 472.821C640.375 472.361 640.117 471.738 640.117 471.089C640.117 470.439 640.375 469.816 640.835 469.357C641.294 468.897 641.917 468.639 642.567 468.639H686.66C687.31 468.639 687.933 468.897 688.392 469.357C688.852 469.816 689.11 470.439 689.11 471.089C689.11 471.738 688.852 472.361 688.392 472.821C687.933 473.28 687.31 473.538 686.66 473.538Z" fill="#263238"/>
</g>
<g opacity="0.2">
<path d="M786.092 473.538H701.678C701.028 473.538 700.405 473.28 699.946 472.821C699.487 472.361 699.229 471.738 699.229 471.089C699.229 470.439 699.487 469.816 699.946 469.357C700.405 468.897 701.028 468.639 701.678 468.639H786.092C786.742 468.639 787.365 468.897 787.825 469.357C788.284 469.816 788.542 470.439 788.542 471.089C788.542 471.738 788.284 472.361 787.825 472.821C787.365 473.28 786.742 473.538 786.092 473.538Z" fill="#263238"/>
</g>
<path d="M885.003 473.538H802.573C801.923 473.538 801.3 473.28 800.84 472.821C800.381 472.361 800.123 471.738 800.123 471.089C800.123 470.439 800.381 469.816 800.84 469.357C801.3 468.897 801.923 468.639 802.573 468.639H885.003C885.652 468.639 886.276 468.897 886.735 469.357C887.194 469.816 887.452 470.439 887.452 471.089C887.452 471.738 887.194 472.361 886.735 472.821C886.276 473.28 885.652 473.538 885.003 473.538Z" fill="#263238"/>
<path d="M719.046 489.535H667.163C666.513 489.535 665.89 489.276 665.43 488.817C664.971 488.358 664.713 487.735 664.713 487.085C664.713 486.435 664.971 485.812 665.43 485.353C665.89 484.893 666.513 484.635 667.163 484.635H719.046C719.695 484.635 720.318 484.893 720.778 485.353C721.237 485.812 721.495 486.435 721.495 487.085C721.495 487.735 721.237 488.358 720.778 488.817C720.318 489.276 719.695 489.535 719.046 489.535V489.535Z" fill="#263238"/>
<g opacity="0.2">
<path d="M779.111 489.534H729.702C729.052 489.534 728.429 489.276 727.969 488.816C727.51 488.357 727.252 487.734 727.252 487.084C727.252 486.434 727.51 485.811 727.969 485.352C728.429 484.893 729.052 484.635 729.702 484.635H779.111C779.76 484.635 780.383 484.893 780.843 485.352C781.302 485.811 781.56 486.434 781.56 487.084C781.56 487.734 781.302 488.357 780.843 488.816C780.383 489.276 779.76 489.534 779.111 489.534Z" fill="#263238"/>
</g>
<path d="M885.007 489.534H794.616C793.966 489.534 793.343 489.276 792.883 488.817C792.424 488.357 792.166 487.734 792.166 487.085C792.166 486.435 792.424 485.812 792.883 485.352C793.343 484.893 793.966 484.635 794.616 484.635H885.007C885.657 484.635 886.28 484.893 886.739 485.352C887.199 485.812 887.457 486.435 887.457 487.085C887.457 487.734 887.199 488.357 886.739 488.817C886.28 489.276 885.657 489.534 885.007 489.534Z" fill="#D5CCAE"/>
<g opacity="0.2">
<path d="M730.581 505.53H667.161C666.511 505.53 665.888 505.272 665.428 504.813C664.969 504.353 664.711 503.73 664.711 503.08C664.711 502.431 664.969 501.808 665.428 501.348C665.888 500.889 666.511 500.631 667.161 500.631H730.581C731.231 500.631 731.854 500.889 732.314 501.348C732.773 501.808 733.031 502.431 733.031 503.08C733.031 503.73 732.773 504.353 732.314 504.813C731.854 505.272 731.231 505.53 730.581 505.53Z" fill="#263238"/>
</g>
<path opacity="0.4" d="M918.619 317.35C918.619 318.184 918.867 319 919.331 319.693C919.795 320.387 920.455 320.927 921.226 321.245C921.997 321.563 922.846 321.645 923.664 321.48C924.482 321.316 925.232 320.912 925.821 320.32C926.409 319.729 926.808 318.976 926.968 318.157C927.128 317.338 927.041 316.49 926.718 315.72C926.395 314.951 925.852 314.295 925.156 313.835C924.459 313.375 923.642 313.132 922.808 313.136C922.256 313.136 921.709 313.246 921.199 313.458C920.69 313.67 920.227 313.98 919.837 314.372C919.448 314.764 919.14 315.228 918.931 315.739C918.722 316.25 918.616 316.798 918.619 317.35V317.35Z" fill="white"/>
<path opacity="0.4" d="M908.201 321.539C910.514 321.539 912.389 319.663 912.389 317.35C912.389 315.037 910.514 313.161 908.201 313.161C905.887 313.161 904.012 315.037 904.012 317.35C904.012 319.663 905.887 321.539 908.201 321.539Z" fill="white"/>
<path opacity="0.4" d="M893.482 321.539C895.795 321.539 897.671 319.663 897.671 317.35C897.671 315.037 895.795 313.161 893.482 313.161C891.168 313.161 889.293 315.037 889.293 317.35C889.293 319.663 891.168 321.539 893.482 321.539Z" fill="white"/>
<path d="M277.443 321.93H207.089C204.244 321.927 201.425 322.485 198.795 323.572C196.165 324.658 193.775 326.253 191.761 328.264C189.748 330.275 188.151 332.664 187.061 335.292C185.971 337.921 185.41 340.739 185.41 343.585V404.826C185.407 407.672 185.965 410.49 187.051 413.12C188.138 415.75 189.733 418.14 191.744 420.154C193.755 422.167 196.143 423.765 198.772 424.854C201.401 425.944 204.219 426.505 207.065 426.505H256.964L271.662 445.833V426.505H277.418C283.168 426.505 288.682 424.221 292.748 420.155C296.814 416.09 299.098 410.576 299.098 404.826V343.585C299.098 337.842 296.816 332.334 292.755 328.273C288.694 324.212 283.186 321.93 277.443 321.93Z" fill="#D5CCAE"/>
<path opacity="0.7" d="M277.443 321.93H207.089C204.244 321.927 201.425 322.485 198.795 323.572C196.165 324.658 193.775 326.253 191.761 328.264C189.748 330.275 188.151 332.664 187.061 335.292C185.971 337.921 185.41 340.739 185.41 343.585V404.826C185.407 407.672 185.965 410.49 187.051 413.12C188.138 415.75 189.733 418.14 191.744 420.154C193.755 422.167 196.143 423.765 198.772 424.854C201.401 425.944 204.219 426.505 207.065 426.505H256.964L271.662 445.833V426.505H277.418C283.168 426.505 288.682 424.221 292.748 420.155C296.814 416.09 299.098 410.576 299.098 404.826V343.585C299.098 337.842 296.816 332.334 292.755 328.273C288.694 324.212 283.186 321.93 277.443 321.93Z" fill="white"/>
<path d="M238.593 389.491C238.128 389.489 237.669 389.388 237.246 389.193C236.824 388.999 236.448 388.716 236.143 388.364L222.45 372.344C222.176 372.022 221.969 371.65 221.84 371.248C221.71 370.846 221.661 370.423 221.695 370.002C221.729 369.581 221.846 369.171 222.038 368.795C222.231 368.42 222.496 368.085 222.817 367.812C223.139 367.539 223.511 367.331 223.913 367.202C224.315 367.072 224.739 367.023 225.159 367.057C225.58 367.091 225.99 367.208 226.366 367.401C226.742 367.593 227.076 367.858 227.349 368.18L238.593 381.457L257.186 359.557C257.744 358.941 258.52 358.565 259.35 358.51C260.18 358.455 260.999 358.724 261.635 359.261C262.27 359.798 262.672 360.56 262.756 361.388C262.84 362.215 262.599 363.043 262.085 363.697L241.043 388.413C240.736 388.759 240.358 389.034 239.936 389.22C239.513 389.406 239.055 389.499 238.593 389.491V389.491Z" fill="white"/>
<path d="M266.95 398.631C280.592 384.99 280.592 362.872 266.95 349.23C253.308 335.589 231.191 335.589 217.549 349.23C203.907 362.872 203.907 384.99 217.549 398.631C231.191 412.273 253.308 412.273 266.95 398.631Z" fill="#8B8B8B"/>
<path d="M501.486 755.662L554.079 753.09L548.959 798.825C548.959 798.825 512.46 805.782 496.17 779.816L501.486 755.662Z" fill="#EBB376"/>
<path d="M587.982 769.037L576.003 802.205L548.959 798.825L554.079 753.09L587.982 769.037Z" fill="#EBB376"/>
<path d="M450.998 829.886C471.024 819.428 489.278 805.879 505.086 789.737L501.485 755.663C451.782 763.011 423.096 773.52 423.096 773.52C423.096 773.52 441.518 707.503 424.664 683.447L378.391 691.825C378.391 691.825 329.226 794.024 362.297 829.886H450.998Z" fill="#D5CCAE"/>
<path opacity="0.7" d="M450.926 829.886C470.963 819.432 489.232 805.892 505.062 789.761L501.486 755.638C453.375 762.693 424.935 772.785 423.098 773.447C423.71 770.997 441.127 707.037 424.617 683.423L378.343 691.801C368.829 712.322 361.276 733.696 355.782 755.638C349.168 783.539 347.233 813.596 362.273 829.886H450.926Z" fill="white"/>
<path opacity="0.2" d="M412.882 829.886C429.221 726.365 414.744 700.056 414.744 700.056L355.953 755.589C349.339 783.49 347.404 813.547 362.444 829.837L412.882 829.886Z" fill="black"/>
<path d="M402.665 829.887C413.688 777.563 426.059 695.647 424.712 683.448C422.752 665.712 326.285 589.725 242.557 645.038C225.409 656.33 216.664 778.15 213.676 829.887H402.665Z" fill="#D5CCAE"/>
<path opacity="0.7" d="M402.665 829.886C413.688 777.562 426.059 695.622 424.712 683.423C422.752 665.712 326.261 589.724 242.532 645.062C236.335 649.201 231.24 667.892 227.026 692.584C221.441 726.193 217.571 770.826 215.268 804.484C214.631 814.013 214.092 822.635 213.676 829.886H402.665Z" fill="white"/>
<path d="M361.342 420.235C332.314 408.501 263.871 450.61 257.869 525.691C251.868 600.772 289.935 579.975 289.935 579.975C289.935 579.975 296.72 608.611 324.45 599.768C324.45 599.768 347.354 625.71 368.666 615.152C368.666 615.152 395.196 642.784 409.428 628.208C409.428 628.208 424.91 645.87 439.044 632.495C453.178 619.12 493.573 482.578 430.201 451.002C366.829 419.426 361.342 420.235 361.342 420.235Z" fill="#263238"/>
<path d="M361.392 727.541L358.599 727.296C361.833 691.139 353.872 675.143 353.7 674.996L356.15 673.698C356.615 674.261 364.699 690.355 361.392 727.541Z" fill="#263238"/>
<path d="M374.523 727.859C355.293 682.566 376.973 672.008 377.854 671.518L379.006 673.967L378.418 672.693L379.006 673.967C378.81 673.967 359.017 683.986 377.095 726.61L374.523 727.859Z" fill="#263238"/>
<path d="M355.732 682.321C355.732 682.321 318.62 652.925 261.005 636.365L242.51 645.037C242.51 645.037 211.498 606.651 263.185 594.085C314.872 581.518 385.177 616.131 402.814 645.772C420.451 675.413 372.144 684.966 372.144 684.966C372.144 684.966 367.711 678.94 355.732 682.321Z" fill="#D5CCAE"/>
<path opacity="0.6" d="M355.732 682.321C355.732 682.321 318.62 652.925 261.005 636.365L242.51 645.037C242.51 645.037 211.498 606.651 263.185 594.085C314.872 581.518 385.177 616.131 402.814 645.772C420.451 675.413 372.144 684.966 372.144 684.966C372.144 684.966 367.711 678.94 355.732 682.321Z" fill="white"/>
<path d="M378.122 727.32C378.122 727.805 377.978 728.278 377.709 728.681C377.44 729.084 377.057 729.398 376.61 729.583C376.162 729.769 375.67 729.817 375.194 729.723C374.719 729.628 374.283 729.395 373.94 729.052C373.598 728.71 373.364 728.273 373.27 727.798C373.175 727.323 373.224 726.83 373.409 726.383C373.595 725.935 373.909 725.553 374.311 725.283C374.714 725.014 375.188 724.871 375.672 724.871C376.322 724.871 376.945 725.129 377.404 725.588C377.864 726.047 378.122 726.671 378.122 727.32Z" fill="white"/>
<path d="M362.222 727.32C362.222 727.805 362.079 728.278 361.81 728.681C361.541 729.084 361.158 729.398 360.71 729.583C360.263 729.769 359.77 729.817 359.295 729.723C358.82 729.628 358.383 729.395 358.041 729.052C357.698 728.71 357.465 728.273 357.37 727.798C357.276 727.323 357.324 726.83 357.51 726.383C357.695 725.935 358.009 725.553 358.412 725.283C358.815 725.014 359.288 724.871 359.773 724.871C360.423 724.871 361.046 725.129 361.505 725.588C361.964 726.047 362.222 726.671 362.222 727.32Z" fill="white"/>
<path d="M336.011 543.818C333.757 570.103 325.698 616.891 304.312 627.106C304.312 627.106 328.221 632.005 365.553 679.308C386.792 664.414 378.757 654.248 378.757 654.248C353.918 637.958 360.36 617.871 370.404 600.356L336.011 543.818Z" fill="#EBB376"/>
<path opacity="0.2" d="M349.999 566.869L370.356 600.429C367.925 604.48 365.867 608.744 364.207 613.167C354.408 607.925 343.679 591.317 345.712 579.95C346.346 575.368 347.798 570.938 349.999 566.869V566.869Z" fill="black"/>
<path d="M333.148 488.236C326.313 529.537 322.541 546.832 337.851 573.41C360.853 613.413 411.83 615.299 430.57 577.476C447.423 543.427 455.776 481.598 420.6 454.309C385.888 427.412 339.933 446.911 333.148 488.236Z" fill="#EBB376"/>
<path d="M417.733 431.307C444.507 446.151 470.008 492.547 431.916 480.961C426.159 492.107 405.656 481.892 393.726 468.517C391.718 477.801 369.769 487.109 353.601 472.73C361.416 483.998 348.114 512.438 334.274 507.539C320.433 502.64 289.372 496.197 316.881 452.349C344.391 408.501 389.145 415.409 417.733 431.307Z" fill="#263238"/>
<path d="M407.982 527.21C407.982 527.21 410.432 543.598 415.086 552.49C409.868 555.503 402.838 551.485 402.838 551.485L407.982 527.21Z" fill="#D58745"/>
<path d="M381.282 558.835C383.02 559.683 384.832 560.372 386.695 560.892C386.821 560.929 386.953 560.938 387.082 560.92C387.212 560.902 387.336 560.857 387.447 560.787C387.558 560.718 387.653 560.626 387.726 560.518C387.799 560.409 387.849 560.286 387.871 560.157C387.938 559.888 387.896 559.603 387.754 559.364C387.611 559.126 387.381 558.953 387.112 558.884C382.897 557.703 379.001 555.591 375.711 552.703C372.421 549.816 369.821 546.227 368.103 542.202C368.066 542.071 368.004 541.95 367.92 541.845C367.835 541.739 367.73 541.652 367.611 541.588C367.493 541.524 367.362 541.484 367.227 541.472C367.093 541.46 366.957 541.474 366.829 541.516C366.581 541.619 366.383 541.815 366.278 542.062C366.172 542.309 366.168 542.588 366.265 542.838C369.133 549.836 374.479 555.531 381.282 558.835V558.835Z" fill="#263238"/>
<path d="M312.301 517.926C314.61 526.513 320.231 533.833 327.93 538.282C337.9 543.745 345.077 534.387 344.342 522.752C343.583 512.243 337.459 496.761 326.533 496.149C315.608 495.536 309.337 507.074 312.301 517.926Z" fill="#EBB376"/>
<path d="M378.464 489.363C378.71 489.477 378.977 489.536 379.248 489.536C379.519 489.536 379.786 489.477 380.032 489.363C382.206 488.156 384.644 487.503 387.13 487.46C389.616 487.417 392.074 487.987 394.289 489.118C394.509 489.259 394.756 489.352 395.014 489.391C395.272 489.431 395.536 489.415 395.788 489.346C396.039 489.276 396.274 489.155 396.476 488.989C396.677 488.823 396.842 488.617 396.959 488.383C397.201 487.89 397.253 487.324 397.103 486.795C396.954 486.266 396.615 485.811 396.151 485.517C393.387 484.003 390.287 483.21 387.136 483.21C383.985 483.21 380.885 484.003 378.121 485.517C377.658 485.794 377.318 486.237 377.172 486.757C377.026 487.277 377.085 487.832 377.337 488.31C377.576 488.784 377.975 489.157 378.464 489.363V489.363Z" fill="#263238"/>
<path d="M444.285 505.481C444.506 505.608 444.751 505.686 445.005 505.711C445.258 505.737 445.513 505.708 445.755 505.628C446.01 505.543 446.245 505.408 446.447 505.23C446.648 505.052 446.812 504.836 446.929 504.594C447.045 504.352 447.112 504.089 447.125 503.821C447.138 503.552 447.097 503.284 447.004 503.032C446.11 499.849 444.493 496.915 442.279 494.459C440.066 492.003 437.315 490.092 434.242 488.873C433.99 488.783 433.721 488.749 433.455 488.773C433.188 488.797 432.93 488.877 432.697 489.01C432.465 489.142 432.264 489.324 432.107 489.541C431.951 489.758 431.844 490.007 431.792 490.269C431.665 490.801 431.739 491.361 432.002 491.841C432.265 492.321 432.696 492.686 433.213 492.866C435.635 493.867 437.795 495.41 439.527 497.376C441.26 499.342 442.519 501.679 443.207 504.208C443.293 504.481 443.433 504.734 443.618 504.953C443.803 505.172 444.03 505.351 444.285 505.481V505.481Z" fill="#263238"/>
<path d="M391.643 516.382C390.443 519.665 387.699 521.649 385.519 520.841C383.339 520.032 382.555 516.75 383.755 513.492C384.956 510.234 387.699 508.225 389.855 509.034C392.011 509.842 392.819 513.124 391.643 516.382Z" fill="#263238"/>
<path d="M388.901 508.862L397.034 508.691C397.034 508.691 391.302 513.345 388.901 508.862Z" fill="#263238"/>
<path d="M432.773 529.439C431.573 532.697 428.829 534.681 426.674 533.897C424.518 533.113 423.685 529.782 424.885 526.548C426.086 523.315 428.829 521.306 431.009 522.09C433.19 522.874 433.973 526.156 432.773 529.439Z" fill="#263238"/>
<path d="M430.055 521.894L438.163 521.723C438.163 521.723 432.431 526.402 430.055 521.894Z" fill="#263238"/>
<path d="M387.775 539.532C385.244 539.539 382.74 539.014 380.426 537.988C377.977 536.865 375.802 535.223 374.051 533.176C372.3 531.128 371.015 528.725 370.284 526.132C368.705 520.542 369.137 514.575 371.505 509.271C373.873 503.966 378.027 499.661 383.243 497.104C385.659 495.896 388.313 495.239 391.014 495.18C393.715 495.121 396.395 495.661 398.862 496.762C401.329 497.863 403.521 499.498 405.28 501.548C407.04 503.598 408.323 506.012 409.037 508.617C410.666 514.202 410.223 520.187 407.788 525.471V525.471C405.49 530.84 401.32 535.193 396.054 537.719C393.46 538.92 390.634 539.539 387.775 539.532ZM391.62 498.01C389.182 498.075 386.785 498.66 384.59 499.725C379.99 502.001 376.327 505.81 374.235 510.497C372.142 515.183 371.75 520.453 373.126 525.397C373.715 527.623 374.796 529.689 376.287 531.443C377.779 533.197 379.645 534.595 381.747 535.535C383.849 536.474 386.135 536.931 388.437 536.873C390.739 536.814 392.998 536.241 395.05 535.196C399.687 532.976 403.366 529.158 405.412 524.442L406.686 525.005L405.412 524.442C407.565 519.765 407.957 514.467 406.514 509.524C405.9 507.311 404.81 505.26 403.321 503.513C401.831 501.765 399.978 500.364 397.892 499.407C395.93 498.484 393.788 498.008 391.62 498.01Z" fill="#263238"/>
<path d="M428.534 552.025C426.002 552.047 423.495 551.52 421.185 550.481C418.736 549.355 416.559 547.713 414.804 545.666C413.05 543.62 411.758 541.218 411.019 538.625C409.452 533.032 409.892 527.067 412.263 521.764C414.635 516.462 418.788 512.157 424.002 509.597C426.416 508.385 429.069 507.724 431.77 507.663C434.47 507.601 437.151 508.141 439.617 509.243C442.084 510.345 444.274 511.981 446.03 514.034C447.787 516.086 449.065 518.503 449.772 521.11C451.422 526.691 450.987 532.681 448.547 537.964V537.964C446.894 541.968 444.132 545.417 440.588 547.908C437.043 550.398 432.862 551.826 428.534 552.025ZM432.429 510.381C429.956 510.398 427.516 510.949 425.276 511.998C420.643 514.234 416.966 518.059 414.914 522.776C412.747 527.441 412.355 532.736 413.812 537.67C414.426 539.885 415.516 541.94 417.005 543.691C418.494 545.443 420.347 546.849 422.434 547.811C431.008 551.657 441.639 546.66 446.098 536.715C448.241 532.034 448.632 526.741 447.2 521.796C446.581 519.586 445.489 517.537 444.001 515.79C442.512 514.043 440.662 512.641 438.577 511.679C436.631 510.868 434.537 510.468 432.429 510.503V510.381Z" fill="#263238"/>
<path d="M411.047 526.475C410.994 526.3 410.902 526.14 410.779 526.004C410.656 525.869 410.506 525.762 410.337 525.691C409.261 525.504 408.153 525.667 407.177 526.157L405.952 523.707C407.616 522.856 409.537 522.655 411.341 523.144C411.907 523.343 412.42 523.667 412.844 524.091C413.268 524.515 413.591 525.028 413.791 525.593L411.047 526.475Z" fill="#263238"/>
<path d="M344.052 500.262L343.214 502.943L376.372 513.305L377.21 510.624L344.052 500.262Z" fill="#263238"/>
<path opacity="0.2" d="M336.282 758.063C336.282 758.063 271.832 807.448 215.271 804.606C217.573 770.948 221.444 726.218 227.029 692.707C232.81 686.338 236.607 682.468 236.607 682.468L270.902 708.115L262.548 718.6C262.548 718.6 314.456 715.954 332.534 718.6L336.282 758.063Z" fill="black"/>
<path d="M342.944 718.477L394.533 707.943L396.37 753.947C396.37 753.947 361.365 766.343 341.327 743.145L342.944 718.477Z" fill="#EBB376"/>
<path d="M430.449 718.624L423.639 753.213L396.374 753.973L394.537 707.969L430.449 718.624Z" fill="#EBB376"/>
<path d="M342.947 718.477L345.47 753.972L332.634 759.729L327.146 718.477H342.947Z" fill="#D5CCAE"/>
<path opacity="0.6" d="M342.947 718.477L345.47 753.972L332.634 759.729L327.146 718.477H342.947Z" fill="white"/>
<path d="M261.005 636.366C247.162 638.81 234.626 646.062 225.608 656.845C210.052 675.119 155.23 729.403 167.404 773.716C179.579 818.03 296.818 785.058 332.632 759.729L327.145 718.477L245.94 724.43L270.975 707.944C288.147 660.176 261.005 636.366 261.005 636.366Z" fill="#D5CCAE"/>
<path opacity="0.7" d="M261.005 636.366C247.162 638.81 234.626 646.062 225.608 656.845C210.052 675.119 155.23 729.403 167.404 773.716C179.579 818.03 296.818 785.058 332.632 759.729L327.145 718.477L245.94 724.43L270.975 707.944C288.147 660.176 261.005 636.366 261.005 636.366Z" fill="white"/>
<path d="M496.195 756.446L510.967 753.972V793.558L499.257 795.469L496.195 756.446Z" fill="#D5CCAE"/>
<path opacity="0.6" d="M496.195 756.446L510.967 753.972V793.558L499.257 795.469L496.195 756.446Z" fill="white"/>
<path d="M1044.03 882.677L184.944 882.677C182.06 882.677 179.293 881.531 177.253 879.491C175.214 877.451 174.068 874.685 174.068 871.8V845.344L1054.91 845.344V871.8C1054.91 874.685 1053.76 877.451 1051.72 879.491C1049.68 881.531 1046.91 882.677 1044.03 882.677Z" fill="#D5CCAE"/>
<path opacity="0.2" d="M174.043 863.985L1054.91 863.985V845.319L174.043 845.319V863.985Z" fill="black"/>
<path d="M155.599 850.194H1073.38C1076.17 850.194 1078.84 849.087 1080.82 847.117C1082.79 845.147 1083.9 842.474 1083.91 839.685V839.685C1083.91 836.891 1082.8 834.212 1080.83 832.237C1078.85 830.261 1076.17 829.152 1073.38 829.152H155.599C152.805 829.152 150.126 830.261 148.151 832.237C146.175 834.212 145.065 836.891 145.065 839.685V839.685C145.072 842.474 146.185 845.147 148.159 847.117C150.134 849.087 152.809 850.194 155.599 850.194V850.194Z" fill="#D5CCAE"/>
<path d="M1011.19 700.595L984.389 822.145C983.899 824.092 982.782 825.824 981.211 827.072C979.639 828.321 977.7 829.017 975.692 829.053H829.303C828.392 829.03 827.498 828.795 826.693 828.369C825.888 827.942 825.192 827.335 824.661 826.595C824.129 825.855 823.776 825.001 823.63 824.102C823.483 823.202 823.547 822.281 823.815 821.411L850.565 700.791C851.114 698.953 852.277 697.359 853.86 696.276C855.443 695.192 857.35 694.685 859.261 694.838H1005.65C1009.57 694.936 1012.05 696.724 1011.19 700.595Z" fill="#263238"/>
<path opacity="0.4" d="M1011.18 700.594L984.384 822.145C983.894 824.092 982.777 825.823 981.205 827.072C979.634 828.321 977.694 829.017 975.687 829.053H834.27C833.357 829.033 832.461 828.801 831.653 828.376C830.844 827.952 830.145 827.345 829.611 826.604C829.077 825.863 828.722 825.009 828.574 824.107C828.426 823.206 828.489 822.283 828.759 821.41L855.558 700.79C856.094 698.945 857.255 697.343 858.84 696.258C860.426 695.172 862.339 694.671 864.254 694.838H1005.65C1009.57 694.936 1012.04 696.724 1011.18 700.594Z" fill="white"/>
<path d="M987.838 825.305L1014.49 704.391C1015.37 700.423 1012.9 698.635 1008.95 698.635H867.562C865.649 698.477 863.74 698.982 862.156 700.067C860.573 701.151 859.41 702.747 858.865 704.587L831.797 826.897L987.838 825.305Z" fill="#D5CCAE"/>
<path opacity="0.4" d="M1014.49 704.367L1000.43 768.254L987.815 825.305L904.282 826.163L831.822 826.873L858.768 704.588C859.304 702.747 860.461 701.148 862.041 700.063C863.622 698.978 865.529 698.474 867.44 698.635H1009C1012.92 698.635 1015.37 700.448 1014.49 704.367Z" fill="white"/>
<path opacity="0.2" d="M1000.43 768.253L987.814 825.305L904.282 826.163H834.908L846.25 773.985C846.614 772.369 847.515 770.923 848.804 769.883C850.094 768.842 851.697 768.268 853.354 768.253H1000.43Z" fill="black"/>
<path d="M1002.83 776.19C1002.29 774.349 1001.13 772.753 999.541 771.672C997.956 770.592 996.045 770.093 994.134 770.262H852.741C848.822 770.262 846.348 772.026 847.205 775.994L857.934 824.644H834.051C833.453 824.644 832.88 824.881 832.457 825.304C832.034 825.727 831.797 826.3 831.797 826.897C831.797 827.495 832.034 828.068 832.457 828.491C832.88 828.914 833.453 829.151 834.051 829.151H1008.22C1008.98 829.137 1009.73 828.954 1010.41 828.615C1011.09 828.276 1011.68 827.79 1012.15 827.192C1012.62 826.594 1012.95 825.899 1013.12 825.157C1013.29 824.415 1013.29 823.646 1013.12 822.905L1002.83 776.19Z" fill="#D5CCAE"/>
<path opacity="0.4" d="M1002.83 776.19C1002.29 774.349 1001.13 772.753 999.541 771.672C997.956 770.592 996.045 770.093 994.134 770.262H852.741C848.822 770.262 846.348 772.026 847.205 775.994L857.934 824.644H834.051C833.453 824.644 832.88 824.881 832.457 825.304C832.034 825.727 831.797 826.3 831.797 826.897C831.797 827.495 832.034 828.068 832.457 828.491C832.88 828.914 833.453 829.151 834.051 829.151H1008.22C1008.98 829.137 1009.73 828.954 1010.41 828.615C1011.09 828.276 1011.68 827.79 1012.15 827.192C1012.62 826.594 1012.95 825.899 1013.12 825.157C1013.29 824.415 1013.29 823.646 1013.12 822.905L1002.83 776.19Z" fill="white"/>
<path d="M829.815 805.708H821.609L820.58 810.142H828.566L829.815 805.708Z" fill="black"/>
<path d="M777.955 829.714H754.316C754.132 829.718 753.949 829.684 753.778 829.615C753.607 829.546 753.452 829.443 753.322 829.313C753.191 829.183 753.089 829.027 753.02 828.856C752.951 828.686 752.917 828.503 752.92 828.318C752.92 827.948 753.067 827.593 753.329 827.331C753.591 827.069 753.946 826.922 754.316 826.922H777.955C781.834 826.929 785.665 826.063 789.163 824.388C792.662 822.713 795.738 820.272 798.165 817.246C800.854 813.887 804.266 811.178 808.146 809.321C812.027 807.463 816.277 806.505 820.579 806.516H824.743C825.112 806.523 825.463 806.672 825.724 806.932C825.984 807.193 826.133 807.544 826.14 807.913C826.14 808.283 825.993 808.638 825.731 808.9C825.469 809.162 825.114 809.309 824.743 809.309H820.628C816.749 809.302 812.919 810.168 809.42 811.843C805.922 813.518 802.845 815.959 800.419 818.985C797.723 822.349 794.303 825.061 790.414 826.918C786.524 828.776 782.266 829.732 777.955 829.714V829.714Z" fill="black"/>
<path d="M384.052 812.42V822.635C384.052 827.241 389.612 829.151 394.218 829.151H753.285C757.841 829.151 763.255 827.241 763.255 822.635V812.42H384.052Z" fill="#263238"/>
<path opacity="0.4" d="M384.052 812.42V822.635C384.052 827.241 389.612 829.151 394.218 829.151H753.285C757.841 829.151 763.255 827.241 763.255 822.635V812.42H384.052Z" fill="white"/>
<path opacity="0.2" d="M506.387 812.42V822.635C506.387 827.241 511.849 829.151 516.455 829.151H753.285C757.841 829.151 763.255 827.241 763.255 822.635V812.42H506.387Z" fill="black"/>
<path d="M823.345 618.115L780.599 812.004C779.833 815.12 778.057 817.895 775.55 819.898C773.042 821.9 769.943 823.018 766.734 823.076H533.211C527.013 823.076 522.996 817.27 524.441 810.828L567.138 618.409C568.584 612.089 574.757 608.929 581.028 608.929H814.527C820.798 608.954 824.742 611.795 823.345 618.115Z" fill="#263238"/>
<path opacity="0.4" d="M823.344 618.115L780.598 812.004C779.831 815.12 778.056 817.895 775.548 819.898C773.041 821.9 769.942 823.018 766.733 823.076H541.147C534.875 823.076 530.932 817.27 532.328 810.828L575.074 618.409C576.47 612.089 582.692 608.929 588.963 608.929H814.525C820.796 608.954 824.74 611.795 823.344 618.115Z" fill="white"/>
<path opacity="0.2" d="M708.212 716.664C708.212 733.273 690.427 746.77 677.371 746.77C664.314 746.77 656.598 733.273 660.223 716.664C663.849 700.056 676.905 687.146 689.619 686.632C685.896 703.24 693.857 716.664 706.766 716.664C707.247 716.71 707.731 716.71 708.212 716.664V716.664Z" fill="black"/>
</svg>
