<svg width="889" height="759" viewBox="0 0 889 759" fill="none" xmlns="http://www.w3.org/2000/svg">
<path d="M508.998 758.533C727.018 758.533 903.758 748.214 903.758 735.485C903.758 722.756 727.018 712.438 508.998 712.438C290.978 712.438 114.238 722.756 114.238 735.485C114.238 748.214 290.978 758.533 508.998 758.533Z" fill="#C8BEAE"/>
<path d="M543.835 716.672C543.197 716.67 542.58 716.449 542.086 716.045C541.593 715.64 541.254 715.078 541.128 714.453L502.444 523.964H435.072L396.388 714.453C396.204 715.131 395.768 715.714 395.17 716.083C394.571 716.453 393.855 716.58 393.165 716.44C392.476 716.3 391.866 715.903 391.459 715.33C391.052 714.757 390.878 714.05 390.973 713.353L430.104 520.646C430.235 520.022 430.574 519.462 431.067 519.058C431.56 518.655 432.175 518.432 432.812 518.427H504.683C505.321 518.428 505.939 518.649 506.432 519.054C506.926 519.458 507.264 520.021 507.391 520.646L546.543 713.353C546.688 714.071 546.541 714.817 546.137 715.428C545.732 716.038 545.103 716.464 544.385 716.611L543.835 716.672Z" fill="#FBEDC7"/>
<path d="M435.706 716.672C435.069 716.667 434.453 716.444 433.96 716.04C433.468 715.636 433.128 715.076 432.998 714.453L394.314 523.964H326.943L288.259 714.453C288.208 714.828 288.08 715.189 287.884 715.513C287.688 715.837 287.427 716.117 287.119 716.337C286.81 716.556 286.459 716.71 286.089 716.788C285.718 716.866 285.335 716.868 284.964 716.793C284.593 716.717 284.241 716.567 283.931 716.35C283.62 716.133 283.357 715.855 283.158 715.533C282.959 715.21 282.829 714.85 282.775 714.476C282.72 714.101 282.744 713.719 282.843 713.353L321.995 520.646C322.122 520.021 322.461 519.458 322.954 519.054C323.447 518.649 324.065 518.428 324.703 518.427H396.574C397.209 518.429 397.824 518.651 398.314 519.056C398.804 519.46 399.139 520.022 399.261 520.646L438.414 713.353C438.558 714.071 438.412 714.817 438.007 715.428C437.603 716.038 436.973 716.464 436.256 716.611L435.706 716.672Z" fill="#FBEDC7"/>
<path d="M450.832 521.216H327.043C315.681 521.218 304.77 516.765 296.655 508.813C288.539 500.861 283.865 490.044 283.635 478.684L279.034 290.557C278.947 286.352 279.701 282.172 281.249 278.262C282.798 274.352 285.112 270.789 288.054 267.784C290.997 264.779 294.51 262.391 298.387 260.76C302.263 259.13 306.427 258.289 310.633 258.287H388.245C396.012 258.292 403.507 261.154 409.3 266.328C415.093 271.502 418.781 278.626 419.661 286.343L450.832 521.216Z" fill="#FBEDC7"/>
<path d="M383.318 497.395H504.46C508.958 497.395 513.272 499.182 516.453 502.362C519.633 505.543 521.42 509.857 521.42 514.355V514.945C521.42 516.565 520.777 518.119 519.631 519.264C518.486 520.409 516.932 521.053 515.312 521.053H383.318V497.395Z" fill="#FBEDC7"/>
<g opacity="0.3">
<path d="M543.835 716.672C543.197 716.67 542.58 716.449 542.086 716.045C541.593 715.64 541.254 715.078 541.128 714.453L502.444 523.964H435.072L396.388 714.453C396.204 715.131 395.768 715.714 395.17 716.083C394.571 716.453 393.855 716.58 393.165 716.44C392.476 716.3 391.866 715.903 391.459 715.33C391.052 714.757 390.878 714.05 390.973 713.353L430.104 520.646C430.235 520.022 430.574 519.462 431.067 519.058C431.56 518.655 432.175 518.432 432.812 518.427H504.683C505.321 518.428 505.939 518.649 506.432 519.054C506.926 519.458 507.264 520.021 507.391 520.646L546.543 713.353C546.688 714.071 546.541 714.817 546.137 715.428C545.732 716.038 545.103 716.464 544.385 716.611L543.835 716.672Z" fill="black"/>
<path d="M435.706 716.672C435.069 716.667 434.453 716.444 433.96 716.04C433.468 715.636 433.128 715.076 432.998 714.453L394.314 523.964H326.943L288.259 714.453C288.208 714.828 288.08 715.189 287.884 715.513C287.688 715.837 287.427 716.117 287.119 716.337C286.81 716.556 286.459 716.71 286.089 716.788C285.718 716.866 285.335 716.868 284.964 716.793C284.593 716.717 284.241 716.567 283.931 716.35C283.62 716.133 283.357 715.855 283.158 715.533C282.959 715.21 282.829 714.85 282.775 714.476C282.72 714.101 282.744 713.719 282.843 713.353L321.995 520.646C322.122 520.021 322.461 519.458 322.954 519.054C323.447 518.649 324.065 518.428 324.703 518.427H396.574C397.209 518.429 397.824 518.651 398.314 519.056C398.804 519.46 399.139 520.022 399.261 520.646L438.414 713.353C438.558 714.071 438.412 714.817 438.007 715.428C437.603 716.038 436.973 716.464 436.256 716.611L435.706 716.672Z" fill="black"/>
<path d="M450.832 521.216H327.043C315.681 521.218 304.77 516.765 296.655 508.813C288.539 500.861 283.865 490.044 283.635 478.684L279.034 290.557C278.947 286.352 279.701 282.172 281.249 278.262C282.798 274.352 285.112 270.789 288.054 267.784C290.997 264.779 294.51 262.391 298.387 260.76C302.263 259.13 306.427 258.289 310.633 258.287H388.245C396.012 258.292 403.507 261.154 409.3 266.328C415.093 271.502 418.781 278.626 419.661 286.343L450.832 521.216Z" fill="black"/>
<path d="M383.318 497.395H504.46C508.958 497.395 513.272 499.182 516.453 502.362C519.633 505.543 521.42 509.857 521.42 514.355V514.945C521.42 516.565 520.777 518.119 519.631 519.264C518.486 520.409 516.932 521.053 515.312 521.053H383.318V497.395Z" fill="black"/>
</g>
<path d="M416.383 247.903C416.383 247.903 433.689 270.503 422.491 315.498C411.293 360.494 353.511 336.062 350.009 295.505C345.937 247.7 399.606 280.662 409.053 238.151L416.383 247.903Z" fill="#263238"/>
<path d="M403.822 234.486C396.309 239.78 393.337 247.476 401.643 255.009C409.95 262.542 421.8 262.298 425.383 259.203C428.967 256.108 428.254 240.391 428.254 240.391L403.822 234.486Z" fill="#FBEDC7"/>
<path opacity="0.8" d="M403.822 234.486C396.309 239.78 393.337 247.476 401.643 255.009C409.95 262.542 421.8 262.298 425.383 259.203C428.967 256.108 428.254 240.391 428.254 240.391L403.822 234.486Z" fill="#D9D3CA"/>
<path d="M498.7 334.637C498.903 335.553 499.25 336.978 499.575 338.179L500.553 342.007C501.245 344.573 501.998 347.138 502.792 349.703C504.299 354.875 505.968 360.026 507.719 365.177C509.47 370.328 511.262 375.357 513.217 380.569C514.173 383.114 515.13 385.679 516.148 388.224L517.329 391.278C517.565 391.801 517.874 392.287 518.245 392.724C521.144 395.655 524.675 397.884 528.568 399.239C533.323 401.153 538.226 402.678 543.227 403.8C548.399 405.001 553.713 405.999 559.088 406.833C564.463 407.668 569.98 408.34 575.274 408.869L575.457 419.823C563.842 421.024 552.134 421.024 540.519 419.823C534.449 419.197 528.446 418.032 522.582 416.341C519.406 415.383 516.314 414.164 513.339 412.697C509.913 411.032 506.778 408.825 504.055 406.162C502.474 404.588 501.105 402.815 499.983 400.888C499.677 400.4 499.412 399.85 499.127 399.341L498.598 398.241L497.661 396.205C496.399 393.62 495.137 391.034 493.976 388.408C491.615 383.155 489.314 377.861 487.258 372.466C485.201 367.07 483.186 361.634 481.475 356.178C480.641 353.368 479.826 350.579 479.073 347.708L477.953 343.412C477.627 341.865 477.322 340.582 476.996 338.75L498.7 334.637Z" fill="#E58A7B"/>
<path d="M491.776 311.508C500.51 313.727 506.598 349.642 506.598 349.642L482.553 365.93C482.553 365.93 459.485 329.689 466.265 320.1C473.208 310.246 479.031 308.332 491.776 311.508Z" fill="#FBEDC7"/>
<path opacity="0.5" d="M491.776 311.508C500.51 313.727 506.598 349.642 506.598 349.642L482.553 365.93C482.553 365.93 459.485 329.689 466.265 320.1C473.208 310.246 479.031 308.332 491.776 311.508Z" fill="#D9D3CA"/>
<path opacity="0.2" d="M488.64 320.548L467.73 337.121C471.803 347.188 476.756 356.877 482.532 366.073L499.207 354.732L488.64 320.548Z" fill="#FBEDC7"/>
<path d="M491.775 311.508C491.775 311.508 501.955 315.051 481.595 439.308H395.636C397.081 404.309 397.122 382.727 380.406 310.877C392.443 308.397 404.643 306.792 416.912 306.072C429.919 305.144 442.975 305.144 455.983 306.072C472.759 307.68 491.775 311.508 491.775 311.508Z" fill="#FBEDC7"/>
<path opacity="0.5" d="M491.775 311.508C491.775 311.508 501.955 315.051 481.595 439.308H395.636C397.081 404.309 397.122 382.727 380.406 310.877C392.443 308.397 404.643 306.792 416.912 306.072C429.919 305.144 442.975 305.144 455.983 306.072C472.759 307.68 491.775 311.508 491.775 311.508Z" fill="#D9D3CA"/>
<path d="M572.114 408.768L587.12 393.538L589.156 414.998C589.156 414.998 577.897 422.612 570.119 418.52L572.114 408.768Z" fill="#E58A7B"/>
<path d="M604.835 391.278L605.506 409.317L589.137 414.998L587.162 393.538L604.835 391.278Z" fill="#E58A7B"/>
<path d="M579.162 696.923H600.336L603.594 647.875H582.42L579.162 696.923Z" fill="#E58A7B"/>
<path d="M497.213 696.923H518.387L525.188 647.875H504.013L497.213 696.923Z" fill="#E58A7B"/>
<path d="M519.71 694.459H495.909C495.499 694.451 495.1 694.593 494.789 694.86C494.477 695.126 494.275 695.498 494.22 695.905L491.512 714.738C491.463 715.213 491.515 715.694 491.664 716.148C491.813 716.603 492.055 717.021 492.376 717.376C492.696 717.731 493.087 718.015 493.524 718.209C493.961 718.403 494.434 718.504 494.912 718.504C503.198 718.362 507.128 717.873 517.654 717.873C524.088 717.873 540.6 718.545 549.497 718.545C558.394 718.545 558.863 709.75 555.157 708.956C538.564 705.372 528.832 700.465 523.233 695.762C522.251 694.923 521.002 694.461 519.71 694.459Z" fill="#263238"/>
<path d="M601.986 694.459H578.226C577.817 694.455 577.42 694.599 577.11 694.865C576.799 695.131 576.595 695.5 576.536 695.905L573.828 714.738C573.78 715.213 573.832 715.694 573.98 716.148C574.129 716.603 574.372 717.021 574.692 717.376C575.012 717.731 575.404 718.015 575.84 718.209C576.277 718.403 576.75 718.504 577.228 718.504C585.515 718.362 589.444 717.873 599.97 717.873C606.424 717.873 619.72 718.545 628.617 718.545C637.514 718.545 637.982 709.75 634.277 708.956C617.684 705.372 611.148 700.465 605.569 695.762C604.568 694.916 603.297 694.454 601.986 694.459Z" fill="#263238"/>
<path d="M474.897 219.318C482.512 219.806 486.381 258.002 464.046 255.783C441.711 253.563 474.897 219.318 474.897 219.318Z" fill="#263238"/>
<path d="M603.593 647.875L601.903 673.163H580.729L582.398 647.875H603.593Z" fill="#CF6F64"/>
<path d="M504.014 647.875H525.209L521.687 673.163H500.492L504.014 647.875Z" fill="#CF6F64"/>
<path opacity="0.2" d="M388.998 350.823C391.034 361.247 392.48 370.247 393.579 378.35L398.608 339.442L388.998 350.823Z" fill="#FBEDC7"/>
<path d="M420.782 262.176C423.246 274.738 425.71 297.765 416.914 306.153C416.914 306.153 420.355 318.899 443.708 318.899C469.382 318.899 455.924 306.153 455.924 306.153C441.896 302.814 442.262 292.41 444.705 282.658L420.782 262.176Z" fill="#E58A7B"/>
<path d="M439.064 321.627L446.883 318.817L445.844 316.679L439.064 321.627Z" fill="#263238"/>
<path d="M454.233 319.998L446.883 318.817L448.471 316.435L454.233 319.998Z" fill="#263238"/>
<path d="M419.763 300.229L414.449 305.4C414.29 305.563 414.201 305.783 414.201 306.011C414.201 306.239 414.29 306.458 414.449 306.622L436.845 332.133C437.911 326.074 441.155 320.614 445.967 316.781C427.439 309.777 422.614 302.529 420.965 300.493C420.926 300.375 420.858 300.269 420.766 300.185C420.674 300.101 420.561 300.043 420.44 300.016C420.318 299.99 420.192 299.995 420.073 300.032C419.955 300.07 419.848 300.137 419.763 300.229Z" fill="#FBEDC7"/>
<path d="M451.769 304.138L458.366 305.929C458.563 305.984 458.742 306.09 458.885 306.237C459.028 306.384 459.13 306.565 459.18 306.764C461.044 315.132 460.693 323.84 458.162 332.031C457.225 328.57 454.09 320.283 448.471 316.435C454.579 312.221 452.115 306.784 451.24 304.728C451.211 304.652 451.204 304.569 451.219 304.488C451.235 304.408 451.271 304.334 451.326 304.273C451.38 304.212 451.451 304.167 451.529 304.144C451.607 304.12 451.69 304.118 451.769 304.138Z" fill="#FBEDC7"/>
<path d="M430.574 270.523L444.826 282.637C444.234 284.907 443.832 287.223 443.625 289.56C438.27 288.786 430.92 282.922 430.35 277.344C430.001 275.076 430.077 272.763 430.574 270.523Z" fill="#CF6F64"/>
<path d="M419.416 229.07C416.993 249.939 415.507 258.735 424.058 271.195C436.885 289.947 463.068 288.359 471.68 268.63C479.438 250.876 482.084 219.766 463.353 207.876C459.233 205.246 454.508 203.713 449.629 203.423C444.749 203.133 439.876 204.096 435.474 206.22C431.071 208.343 427.285 211.558 424.474 215.557C421.664 219.557 419.922 224.208 419.416 229.07Z" fill="#E58A7B"/>
<path d="M467.14 194.601C432.63 180.98 406.712 196.352 401.357 218.198C392.948 252.118 419.803 254.5 419.803 254.5L423.162 245.827C427.988 248.738 441.486 247.455 437.414 222.27C435.012 208.018 453.051 227.869 475.936 225.65C482.023 225.059 490.35 203.763 467.14 194.601Z" fill="#263238"/>
<path d="M478.889 202.989C474.349 196.006 465.064 190.02 445.824 187.19C445.824 187.19 455.821 189.45 459.058 196.759C462.295 204.068 484.366 211.398 478.889 202.989Z" fill="#263238"/>
<path d="M412.78 247.13C412.639 249.137 412.895 251.152 413.535 253.059C414.174 254.967 415.184 256.73 416.506 258.246C420.069 262.318 424.751 259.814 426.217 254.928C427.52 250.509 427.256 243.098 422.491 240.859C417.727 238.619 413.167 242.162 412.78 247.13Z" fill="#E58A7B"/>
<path d="M481.657 439.389C481.657 439.389 623.648 452.603 622.263 517.164C620.818 584.352 606.443 668.276 606.443 668.276H577.105C577.105 668.276 574.6 597.261 573.745 531.111C573.318 496.662 436.112 489.76 436.112 489.76L418.398 439.389H481.657Z" fill="#263238"/>
<path d="M458.935 439.389C458.935 439.389 550.697 469.827 553.018 507.493C557.273 576.84 526.794 668.337 526.794 668.337H497.904C497.904 668.337 499.553 607.665 502.994 544.834C507.351 465.878 368.047 543.734 395.635 439.45L458.935 439.389Z" fill="#263238"/>
<path d="M449.612 240.452C449.307 242.121 449.959 243.648 451.058 243.852C452.157 244.055 453.277 242.834 453.583 241.164C453.888 239.495 453.237 237.947 452.137 237.764C451.038 237.581 449.959 238.762 449.612 240.452Z" fill="#263238"/>
<path d="M468.607 243.852C468.301 245.521 468.953 247.048 470.052 247.252C471.152 247.455 472.292 246.234 472.597 244.564C472.903 242.895 472.251 241.347 471.152 241.164C470.052 240.981 468.912 242.162 468.607 243.852Z" fill="#263238"/>
<path d="M470.643 241.164L474.898 240.716C474.898 240.716 472.353 243.506 470.643 241.164Z" fill="#263238"/>
<path d="M463.067 245.827C463.882 249.93 465.252 253.902 467.139 257.635C466.18 258.072 465.139 258.298 464.085 258.298C463.032 258.298 461.99 258.072 461.031 257.635L463.067 245.827Z" fill="#DF5753"/>
<path d="M454.029 263.071C451.795 262.717 449.676 261.841 447.843 260.515C446.011 259.188 444.517 257.448 443.483 255.436C443.448 255.358 443.446 255.269 443.476 255.189C443.507 255.109 443.568 255.044 443.646 255.009C443.727 254.981 443.816 254.984 443.895 255.018C443.974 255.052 444.037 255.114 444.073 255.192C445.052 257.093 446.462 258.739 448.191 259.998C449.92 261.256 451.919 262.093 454.029 262.44C454.114 262.46 454.188 262.51 454.237 262.582C454.286 262.654 454.306 262.741 454.294 262.827C454.279 262.889 454.245 262.946 454.198 262.989C454.151 263.033 454.092 263.061 454.029 263.071Z" fill="#263238"/>
<path d="M445.154 232.939C445.066 232.942 444.978 232.925 444.897 232.89C444.816 232.855 444.744 232.802 444.686 232.735C444.624 232.678 444.575 232.609 444.541 232.532C444.508 232.454 444.49 232.371 444.49 232.287C444.49 232.203 444.508 232.12 444.541 232.043C444.575 231.966 444.624 231.896 444.686 231.839C445.782 230.768 447.121 229.975 448.587 229.529C450.054 229.082 451.607 228.995 453.115 229.274C453.274 229.321 453.409 229.428 453.492 229.572C453.576 229.716 453.601 229.886 453.563 230.048C453.544 230.13 453.508 230.207 453.459 230.275C453.409 230.344 453.347 230.401 453.275 230.445C453.203 230.489 453.122 230.517 453.039 230.53C452.956 230.542 452.871 230.537 452.789 230.516C451.488 230.286 450.151 230.371 448.89 230.764C447.629 231.158 446.481 231.847 445.541 232.776C445.432 232.869 445.297 232.926 445.154 232.939Z" fill="#263238"/>
<path d="M478.991 236.278C478.865 236.282 478.74 236.248 478.634 236.178C478.528 236.109 478.447 236.009 478.4 235.891C477.903 234.669 477.123 233.582 476.126 232.718C475.128 231.855 473.94 231.24 472.659 230.923C472.493 230.893 472.345 230.8 472.246 230.663C472.148 230.527 472.106 230.357 472.13 230.19C472.159 230.02 472.255 229.869 472.397 229.77C472.538 229.67 472.713 229.631 472.883 229.661C474.374 230.006 475.76 230.707 476.923 231.703C478.086 232.699 478.991 233.961 479.561 235.382C479.63 235.539 479.634 235.716 479.573 235.876C479.512 236.036 479.391 236.166 479.235 236.237L478.991 236.278Z" fill="#263238"/>
<path d="M393.254 341.6C391.401 347.708 389.406 353.816 387.635 360.087C385.863 366.358 383.99 372.466 382.382 378.676C380.773 384.885 379.246 391.034 378.106 397C377.556 400.013 377.047 403.006 376.762 405.815C376.599 407.22 376.518 408.544 376.498 409.765C376.498 410.05 376.498 409.765 376.294 409.297C376.045 408.745 375.701 408.242 375.276 407.811C374.238 406.915 373.851 407.078 374.319 407.22C375.172 407.428 376.049 407.517 376.925 407.485C379.666 407.391 382.392 407.043 385.069 406.447C391.134 405.111 397.11 403.404 402.966 401.336C414.998 397.264 427.214 392.296 439.105 387.227L444.358 396.816C433.077 404.212 421.286 410.798 409.074 416.525C402.75 419.508 396.226 422.045 389.548 424.119C385.831 425.251 382.013 426.022 378.147 426.42C375.733 426.667 373.297 426.606 370.899 426.237C369.307 425.998 367.753 425.553 366.277 424.913C364.369 424.088 362.64 422.898 361.187 421.411C358.364 418.436 356.746 414.518 356.647 410.417C356.545 408.381 356.524 406.345 356.647 404.512C356.789 400.746 357.135 397.183 357.604 393.701C358.581 386.738 359.843 380.019 361.391 373.341C362.938 366.663 364.587 360.209 366.399 353.735C368.211 347.26 370.166 340.908 372.507 334.433L393.254 341.6Z" fill="#E58A7B"/>
<path d="M526.959 698.022C525.082 697.976 523.218 697.716 521.4 697.248C521.332 697.235 521.27 697.202 521.221 697.153C521.172 697.105 521.139 697.042 521.125 696.974C521.112 696.906 521.12 696.836 521.147 696.772C521.174 696.709 521.22 696.655 521.278 696.617C521.991 696.149 528.343 692.036 530.766 693.115C531.02 693.23 531.238 693.412 531.396 693.642C531.554 693.872 531.646 694.14 531.662 694.418C531.763 694.87 531.745 695.34 531.609 695.783C531.474 696.226 531.225 696.626 530.888 696.943C529.746 697.754 528.355 698.137 526.959 698.022ZM522.378 696.76C526.307 697.574 529.259 697.472 530.399 696.414C530.648 696.172 530.83 695.872 530.93 695.541C531.03 695.209 531.043 694.858 530.97 694.52C530.962 694.36 530.91 694.205 530.82 694.072C530.731 693.939 530.606 693.834 530.461 693.767C528.913 693.075 524.617 695.375 522.378 696.76Z" fill="#FBEDC7"/>
<path d="M521.482 697.269H521.299C521.242 697.236 521.195 697.188 521.162 697.131C521.13 697.074 521.114 697.009 521.115 696.943C521.115 696.699 521.115 690.672 523.396 688.677C523.663 688.421 523.986 688.23 524.339 688.121C524.693 688.011 525.067 687.986 525.432 688.046C525.799 688.043 526.155 688.167 526.441 688.397C526.727 688.627 526.924 688.949 526.999 689.308C527.427 691.507 523.884 696.006 521.665 697.269H521.482ZM525.065 688.677C524.617 688.68 524.187 688.855 523.864 689.165C522.255 690.591 521.93 694.622 521.828 696.23C523.864 694.765 526.592 691.059 526.246 689.41C526.246 689.145 526.042 688.799 525.31 688.697L525.065 688.677Z" fill="#FBEDC7"/>
<path d="M609.944 698.022C607.707 697.973 605.479 697.721 603.287 697.269C603.215 697.251 603.15 697.212 603.099 697.158C603.049 697.104 603.015 697.036 603.002 696.963C602.991 696.889 603.005 696.812 603.042 696.746C603.078 696.68 603.136 696.627 603.205 696.597C604.142 696.108 612.51 691.833 615.055 693.217C615.276 693.34 615.462 693.516 615.598 693.729C615.733 693.943 615.812 694.187 615.828 694.439C615.886 694.863 615.838 695.295 615.689 695.696C615.54 696.097 615.294 696.456 614.973 696.739C613.493 697.729 611.718 698.181 609.944 698.022ZM604.468 696.76C607.196 697.228 612.611 697.9 614.485 696.23C614.718 696.012 614.897 695.741 615.007 695.441C615.117 695.14 615.154 694.818 615.116 694.5C615.114 694.362 615.075 694.227 615.004 694.108C614.932 693.99 614.83 693.893 614.709 693.828C613.039 692.932 607.42 695.314 604.468 696.76Z" fill="#FBEDC7"/>
<path d="M603.37 697.269C603.304 697.289 603.233 697.289 603.167 697.269C603.117 697.23 603.077 697.18 603.049 697.124C603.021 697.068 603.005 697.006 603.004 696.943C603.004 696.699 603.513 691.059 606.119 688.799C606.484 688.488 606.909 688.255 607.368 688.115C607.827 687.975 608.309 687.93 608.786 687.985C610.089 688.107 610.456 688.758 610.557 689.267C610.924 691.609 605.997 696.088 603.513 697.208L603.37 697.269ZM608.399 688.677C607.73 688.674 607.084 688.921 606.587 689.369C604.673 690.957 604.002 694.764 603.798 696.291C606.465 694.805 610.11 690.977 609.906 689.41C609.906 689.247 609.906 688.799 608.786 688.697L608.399 688.677Z" fill="#FBEDC7"/>
<path d="M438.616 387.553L458.691 382.463L449.122 401.743C449.122 401.743 435.542 402.334 431.062 394.76L438.616 387.553Z" fill="#E58A7B"/>
<path d="M474.919 389.772L466.042 405.49L449.123 401.743L458.692 382.463L474.919 389.772Z" fill="#E58A7B"/>
<path d="M451.627 237.764L455.882 237.316C455.882 237.316 453.256 240.105 451.627 237.764Z" fill="#263238"/>
<path d="M394.355 434.34L393.662 442.036C393.377 442.647 394.069 443.258 395.067 443.258H482.086C482.859 443.258 483.491 442.871 483.552 442.382L484.325 434.686C484.325 434.157 483.694 433.709 482.859 433.709H395.759C395.491 433.686 395.221 433.732 394.975 433.843C394.73 433.953 394.516 434.124 394.355 434.34Z" fill="#FBEDC7"/>
<path d="M406.06 444.092H403.719C403.25 444.092 402.904 443.848 402.925 443.563L404.024 433.546C404.024 433.261 404.472 433.016 404.94 433.016H407.2C407.669 433.016 408.015 433.261 407.994 433.546L406.895 443.563C406.915 443.848 406.508 444.092 406.06 444.092Z" fill="#263238"/>
<path d="M475.529 444.092H473.187C472.719 444.092 472.373 443.848 472.393 443.563L473.493 433.546C473.493 433.261 473.941 433.016 474.409 433.016H476.73C477.198 433.016 477.544 433.261 477.524 433.546L476.425 443.563C476.425 443.848 475.977 444.092 475.529 444.092Z" fill="#263238"/>
<path d="M440.796 444.092H438.455C437.987 444.092 437.641 443.848 437.661 443.563L438.76 433.546C438.76 433.261 439.208 433.016 439.677 433.016H441.998C442.466 433.016 442.812 433.261 442.792 433.546L441.692 443.563C441.652 443.848 441.265 444.092 440.796 444.092Z" fill="#263238"/>
<path d="M380.407 310.958C371.775 313.585 361.432 343.249 361.432 343.249L389.223 370.389C389.223 370.389 407.058 342.394 403.475 331.257C399.668 319.652 390.241 307.986 380.407 310.958Z" fill="#FBEDC7"/>
<path opacity="0.5" d="M380.407 310.958C371.775 313.585 361.432 343.249 361.432 343.249L389.223 370.389C389.223 370.389 407.058 342.394 403.475 331.257C399.668 319.652 390.241 307.986 380.407 310.958Z" fill="#D9D3CA"/>
<path d="M842.211 418.235H680.227V733.306H842.211V418.235Z" fill="#FBEDC7"/>
<path opacity="0.6" d="M842.211 418.235H680.227V733.306H842.211V418.235Z" fill="#D9D3CA"/>
<path d="M528.402 418.235H366.418V733.306H528.402V418.235Z" fill="#FBEDC7"/>
<path opacity="0.6" d="M528.402 418.235H366.418V733.306H528.402V418.235Z" fill="#D9D3CA"/>
<path d="M848.278 418.235H834.922V733.306H848.278V418.235Z" fill="#FBEDC7"/>
<path opacity="0.3" d="M848.278 418.235H834.922V733.306H848.278V418.235Z" fill="black"/>
<path d="M530.335 441.873L852.41 441.873V418.235L530.335 418.235V441.873Z" fill="#FBEDC7"/>
<path opacity="0.3" d="M530.335 441.873L852.41 441.873V418.235L530.335 418.235V441.873Z" fill="black"/>
<path d="M534.489 418.235H521.133V733.306H534.489V418.235Z" fill="#FBEDC7"/>
<path opacity="0.3" d="M534.489 418.235H521.133V733.306H534.489V418.235Z" fill="black"/>
<path d="M529.562 493.608L841.6 493.608V425.544L529.562 425.544V493.608Z" fill="#FBEDC7"/>
<path opacity="0.3" d="M529.562 493.608L841.6 493.608V425.544L529.562 425.544V493.608Z" fill="black"/>
<path d="M842.294 742.468H752.364C746.258 742.463 740.404 740.035 736.087 735.718C731.77 731.4 729.342 725.546 729.336 719.441V435.704C729.336 430.304 727.191 425.126 723.373 421.307C719.555 417.489 714.376 415.344 708.976 415.344H682.061V413.308H708.956C714.896 413.308 720.592 415.668 724.792 419.868C728.993 424.068 731.352 429.764 731.352 435.704V719.441C731.357 725.006 733.571 730.342 737.506 734.278C741.442 738.213 746.778 740.427 752.343 740.432H842.294C843.825 740.435 845.317 739.955 846.559 739.059C847.8 738.164 848.728 736.899 849.208 735.446C849.689 733.993 849.699 732.425 849.236 730.965C848.773 729.506 847.861 728.231 846.63 727.32L847.832 725.691C849.403 726.857 850.566 728.489 851.157 730.354C851.748 732.219 851.736 734.222 851.123 736.08C850.509 737.938 849.326 739.555 847.741 740.702C846.156 741.849 844.25 742.467 842.294 742.468Z" fill="#FBEDC7"/>
<path opacity="0.3" d="M842.294 742.468H752.364C746.258 742.463 740.404 740.035 736.087 735.718C731.77 731.4 729.342 725.546 729.336 719.441V435.704C729.336 430.304 727.191 425.126 723.373 421.307C719.555 417.489 714.376 415.344 708.976 415.344H682.061V413.308H708.956C714.896 413.308 720.592 415.668 724.792 419.868C728.993 424.068 731.352 429.764 731.352 435.704V719.441C731.357 725.006 733.571 730.342 737.506 734.278C741.442 738.213 746.778 740.427 752.343 740.432H842.294C843.825 740.435 845.317 739.955 846.559 739.059C847.8 738.164 848.728 736.899 849.208 735.446C849.689 733.993 849.699 732.425 849.236 730.965C848.773 729.506 847.861 728.231 846.63 727.32L847.832 725.691C849.403 726.857 850.566 728.489 851.157 730.354C851.748 732.219 851.736 734.222 851.123 736.08C850.509 737.938 849.326 739.555 847.741 740.702C846.156 741.849 844.25 742.467 842.294 742.468Z" fill="black"/>
<path d="M855.403 511.199H853.367V550.555H855.403V511.199Z" fill="#FBEDC7"/>
<path opacity="0.3" d="M855.403 511.199H853.367V550.555H855.403V511.199Z" fill="black"/>
<path d="M855.403 487.968H853.367V498.311H855.403V487.968Z" fill="#FBEDC7"/>
<path opacity="0.3" d="M855.403 487.968H853.367V498.311H855.403V487.968Z" fill="black"/>
<path d="M706.29 324.172H555.341L533.475 413.308H684.403L706.29 324.172Z" fill="#FBEDC7"/>
<path opacity="0.4" d="M706.29 324.172H555.341L533.475 413.308H684.403L706.29 324.172Z" fill="#D9D3CA"/>
<path d="M538.096 413.308L537.485 418.235H478.258L478.869 413.308H538.096Z" fill="#FBEDC7"/>
<path opacity="0.4" d="M538.096 413.308L537.485 418.235H478.258L478.869 413.308H538.096Z" fill="#D9D3CA"/>
<path d="M689.046 413.308L688.435 418.235H537.486L538.097 413.308H689.046Z" fill="#FBEDC7"/>
<path opacity="0.5" d="M689.046 413.308L688.435 418.235H537.486L538.097 413.308H689.046Z" fill="black"/>
<path d="M710.931 324.172H559.982L538.115 413.308H689.044L710.931 324.172Z" fill="#FBEDC7"/>
<path opacity="0.5" d="M710.931 324.172H559.982L538.115 413.308H689.044L710.931 324.172Z" fill="black"/>
<path d="M769.222 395.778C769.222 395.778 747.009 357.481 777.752 327.002C777.752 327.002 785.795 332.255 785.672 339.218C785.55 346.181 777.06 348.054 778.872 353.918C780.684 359.781 788.726 365.584 783.453 370.45C778.18 375.316 784.308 379.632 783.942 385.578C783.575 391.523 769.222 395.778 769.222 395.778Z" fill="#FBEDC7"/>
<path d="M770.91 399.28C770.91 399.28 779.91 355.933 741.063 336.734C741.063 336.734 735.077 344.247 737.418 350.986C739.76 357.725 748.372 356.646 748.494 362.815C748.616 368.984 742.834 376.965 749.37 379.917C755.905 382.87 751.406 388.917 753.665 394.454C755.925 399.992 770.91 399.28 770.91 399.28Z" fill="#FBEDC7"/>
<path opacity="0.5" d="M770.91 399.28C770.91 399.28 779.91 355.933 741.063 336.734C741.063 336.734 735.077 344.247 737.418 350.986C739.76 357.725 748.372 356.646 748.494 362.815C748.616 368.984 742.834 376.965 749.37 379.917C755.905 382.87 751.406 388.917 753.665 394.454C755.925 399.992 770.91 399.28 770.91 399.28Z" fill="black"/>
<path d="M736.869 389.67C736.869 389.67 737.622 418.174 765.943 418.174C794.264 418.174 794.997 389.67 794.997 389.67H736.869Z" fill="#FBEDC7"/>
<path opacity="0.5" d="M736.869 389.67C736.869 389.67 737.622 418.174 765.943 418.174C794.264 418.174 794.997 389.67 794.997 389.67H736.869Z" fill="black"/>
<path d="M584.639 202.908L560.451 171.655L536.264 202.908H547.645V243.363H573.258V202.908H584.639Z" fill="#FBEDC7"/>
<path d="M655.592 239.658C655.592 224.538 661.598 210.038 672.289 199.347C682.98 188.656 697.48 182.65 712.6 182.65V197.492C707.066 197.49 701.586 198.577 696.473 200.693C691.36 202.809 686.714 205.911 682.8 209.823C678.886 213.735 675.781 218.38 673.663 223.492C671.545 228.604 670.455 234.083 670.455 239.617L655.592 239.658Z" fill="#FBEDC7"/>
<path d="M655.592 239.658H670.455C670.455 250.835 674.895 261.555 682.799 269.459C690.702 277.362 701.422 281.803 712.6 281.803C719.995 281.816 727.261 279.863 733.652 276.143L741.104 289.112C732.437 294.116 722.606 296.75 712.599 296.75C702.592 296.75 692.761 294.115 684.095 289.111C675.428 284.108 668.232 276.911 663.228 268.244C658.225 259.577 655.591 249.746 655.592 239.739V239.658Z" fill="#FBEDC7"/>
<path opacity="0.5" d="M655.592 239.658H670.455C670.455 250.835 674.895 261.555 682.799 269.459C690.702 277.362 701.422 281.803 712.6 281.803C719.995 281.816 727.261 279.863 733.652 276.143L741.104 289.112C732.437 294.116 722.606 296.75 712.599 296.75C702.592 296.75 692.761 294.115 684.095 289.111C675.428 284.108 668.232 276.911 663.228 268.244C658.225 259.577 655.591 249.746 655.592 239.739V239.658Z" fill="#D9D3CA"/>
<path d="M712.602 197.492V182.609C725.191 182.561 737.442 186.681 747.444 194.328C757.445 201.974 764.634 212.716 767.889 224.878C771.144 237.039 770.282 249.936 765.437 261.556C760.591 273.176 752.036 282.865 741.106 289.112L733.674 276.224C741.769 271.616 748.108 264.454 751.7 255.86C755.292 247.265 755.934 237.723 753.525 228.725C751.117 219.727 745.794 211.781 738.39 206.13C730.985 200.479 721.916 197.441 712.602 197.492Z" fill="#FBEDC7"/>
<path opacity="0.7" d="M712.602 197.492V182.609C725.191 182.561 737.442 186.681 747.444 194.328C757.445 201.974 764.634 212.716 767.889 224.878C771.144 237.039 770.282 249.936 765.437 261.556C760.591 273.176 752.036 282.865 741.106 289.112L733.674 276.224C741.769 271.616 748.108 264.454 751.7 255.86C755.292 247.265 755.934 237.723 753.525 228.725C751.117 219.727 745.794 211.781 738.39 206.13C730.985 200.479 721.916 197.441 712.602 197.492Z" fill="black"/>
<path d="M659.076 99.764H607.138C605.286 99.764 603.509 100.5 602.2 101.809C600.89 103.119 600.154 104.895 600.154 106.748V202.786C600.17 204.627 600.913 206.388 602.221 207.684C603.529 208.981 605.296 209.708 607.138 209.708H673.613C675.462 209.703 677.233 208.965 678.538 207.655C679.843 206.346 680.576 204.573 680.576 202.725V121.285L659.076 99.764Z" fill="#263238"/>
<path d="M656.021 200.159H612.837C612.027 200.159 611.25 199.838 610.678 199.265C610.105 198.692 609.783 197.915 609.783 197.105C609.789 196.299 610.113 195.527 610.685 194.959C611.257 194.391 612.031 194.072 612.837 194.072H656.041C656.848 194.072 657.621 194.391 658.193 194.959C658.766 195.527 659.09 196.299 659.095 197.105C659.09 197.917 658.763 198.694 658.187 199.266C657.612 199.838 656.833 200.159 656.021 200.159Z" fill="#FBEDC7"/>
<path d="M635.661 115.502H612.837C612.031 115.502 611.257 115.183 610.685 114.615C610.113 114.047 609.789 113.275 609.783 112.469C609.783 111.659 610.105 110.882 610.678 110.309C611.25 109.736 612.027 109.415 612.837 109.415H635.681C636.491 109.415 637.268 109.736 637.841 110.309C638.413 110.882 638.735 111.659 638.735 112.469C638.732 112.87 638.651 113.266 638.495 113.636C638.339 114.005 638.112 114.341 637.826 114.622C637.541 114.904 637.203 115.127 636.831 115.278C636.459 115.429 636.062 115.505 635.661 115.502Z" fill="#FBEDC7"/>
<path d="M650.585 127.596H612.837C612.031 127.596 611.257 127.277 610.685 126.709C610.113 126.141 609.789 125.369 609.783 124.563C609.783 123.753 610.105 122.976 610.678 122.403C611.25 121.83 612.027 121.509 612.837 121.509H650.605C651.411 121.514 652.183 121.838 652.751 122.41C653.32 122.982 653.639 123.756 653.639 124.563C653.639 124.963 653.56 125.359 653.406 125.728C653.252 126.098 653.027 126.433 652.743 126.715C652.459 126.997 652.122 127.22 651.752 127.371C651.381 127.522 650.985 127.599 650.585 127.596Z" fill="#FBEDC7"/>
<path d="M667.931 139.69H612.837C612.031 139.69 611.257 139.371 610.685 138.803C610.113 138.235 609.789 137.463 609.783 136.657C609.783 135.847 610.105 135.07 610.678 134.497C611.25 133.924 612.027 133.603 612.837 133.603H667.952C668.762 133.603 669.538 133.924 670.111 134.497C670.684 135.07 671.006 135.847 671.006 136.657C671.003 137.058 670.921 137.454 670.765 137.824C670.61 138.193 670.382 138.528 670.097 138.81C669.811 139.092 669.473 139.315 669.102 139.466C668.73 139.617 668.332 139.693 667.931 139.69Z" fill="#FBEDC7"/>
<path d="M667.931 151.784H635.884C635.078 151.784 634.304 151.465 633.732 150.897C633.16 150.328 632.835 149.557 632.83 148.75C632.83 147.94 633.152 147.164 633.725 146.591C634.297 146.018 635.074 145.696 635.884 145.696H667.931C668.741 145.696 669.517 146.018 670.09 146.591C670.663 147.164 670.985 147.94 670.985 148.75C670.979 149.557 670.655 150.328 670.083 150.897C669.511 151.465 668.737 151.784 667.931 151.784Z" fill="#FBEDC7"/>
<path d="M621.185 151.784H612.837C612.031 151.784 611.257 151.465 610.685 150.897C610.113 150.328 609.789 149.557 609.783 148.75C609.783 147.94 610.105 147.164 610.678 146.591C611.25 146.018 612.027 145.696 612.837 145.696H621.205C622.015 145.696 622.792 146.018 623.365 146.591C623.937 147.164 624.259 147.94 624.259 148.75C624.256 149.151 624.175 149.548 624.019 149.917C623.863 150.287 623.636 150.622 623.35 150.904C623.065 151.186 622.727 151.408 622.355 151.559C621.984 151.71 621.586 151.787 621.185 151.784Z" fill="#FBEDC7"/>
<path d="M667.931 163.878H612.837C612.027 163.878 611.25 163.556 610.678 162.983C610.105 162.41 609.783 161.634 609.783 160.824C609.789 160.017 610.113 159.246 610.685 158.677C611.257 158.109 612.031 157.79 612.837 157.79H667.952C668.758 157.79 669.532 158.109 670.104 158.677C670.676 159.246 671 160.017 671.006 160.824C671.006 161.226 670.926 161.625 670.771 161.997C670.617 162.369 670.39 162.707 670.104 162.99C669.818 163.274 669.479 163.499 669.106 163.651C668.733 163.803 668.334 163.88 667.931 163.878Z" fill="#FBEDC7"/>
<path d="M646.655 175.972H612.837C612.027 175.972 611.25 175.65 610.678 175.077C610.105 174.504 609.783 173.728 609.783 172.918C609.789 172.111 610.113 171.34 610.685 170.771C611.257 170.203 612.031 169.884 612.837 169.884H646.676C647.482 169.884 648.256 170.203 648.828 170.771C649.4 171.34 649.724 172.111 649.73 172.918C649.73 173.32 649.65 173.719 649.495 174.091C649.34 174.463 649.114 174.801 648.828 175.084C648.542 175.368 648.203 175.593 647.83 175.745C647.457 175.897 647.058 175.974 646.655 175.972Z" fill="#FBEDC7"/>
<path d="M667.931 175.972H658.891C658.085 175.966 657.313 175.642 656.745 175.07C656.176 174.498 655.857 173.724 655.857 172.918C655.857 172.113 656.177 171.341 656.746 170.773C657.315 170.204 658.086 169.884 658.891 169.884H667.931C668.737 169.884 669.511 170.203 670.083 170.771C670.655 171.34 670.98 172.111 670.985 172.918C670.985 173.728 670.663 174.504 670.09 175.077C669.518 175.65 668.741 175.972 667.931 175.972Z" fill="#FBEDC7"/>
<path d="M667.931 188.065H612.837C612.027 188.065 611.25 187.744 610.678 187.171C610.105 186.598 609.783 185.821 609.783 185.011C609.789 184.205 610.113 183.433 610.685 182.865C611.257 182.297 612.031 181.978 612.837 181.978H667.952C668.758 181.978 669.532 182.297 670.104 182.865C670.676 183.433 671 184.205 671.006 185.011C671.006 185.414 670.926 185.813 670.771 186.185C670.617 186.557 670.39 186.894 670.104 187.178C669.818 187.462 669.479 187.687 669.106 187.839C668.733 187.991 668.334 188.068 667.931 188.065Z" fill="#FBEDC7"/>
<g opacity="0.5">
<path d="M656.021 200.159H612.837C612.027 200.159 611.25 199.838 610.678 199.265C610.105 198.692 609.783 197.915 609.783 197.105C609.789 196.299 610.113 195.527 610.685 194.959C611.257 194.391 612.031 194.072 612.837 194.072H656.041C656.848 194.072 657.621 194.391 658.193 194.959C658.766 195.527 659.09 196.299 659.095 197.105C659.09 197.917 658.763 198.694 658.187 199.266C657.612 199.838 656.833 200.159 656.021 200.159Z" fill="#D9D3CA"/>
</g>
<g opacity="0.5">
<path d="M635.661 115.502H612.837C612.031 115.502 611.257 115.183 610.685 114.615C610.113 114.047 609.789 113.275 609.783 112.469C609.783 111.659 610.105 110.882 610.678 110.309C611.25 109.736 612.027 109.415 612.837 109.415H635.681C636.491 109.415 637.268 109.736 637.841 110.309C638.413 110.882 638.735 111.659 638.735 112.469C638.732 112.87 638.651 113.266 638.495 113.636C638.339 114.005 638.112 114.341 637.826 114.622C637.541 114.904 637.203 115.127 636.831 115.278C636.459 115.429 636.062 115.505 635.661 115.502Z" fill="#D9D3CA"/>
</g>
<g opacity="0.5">
<path d="M650.585 127.596H612.837C612.031 127.596 611.257 127.277 610.685 126.709C610.113 126.141 609.789 125.369 609.783 124.563C609.783 123.753 610.105 122.976 610.678 122.403C611.25 121.83 612.027 121.509 612.837 121.509H650.605C651.411 121.514 652.183 121.838 652.751 122.41C653.32 122.982 653.639 123.756 653.639 124.563C653.639 124.963 653.56 125.359 653.406 125.728C653.252 126.098 653.027 126.433 652.743 126.715C652.459 126.997 652.122 127.22 651.752 127.371C651.381 127.522 650.985 127.599 650.585 127.596Z" fill="#D9D3CA"/>
</g>
<g opacity="0.5">
<path d="M667.931 139.69H612.837C612.031 139.69 611.257 139.371 610.685 138.803C610.113 138.235 609.789 137.463 609.783 136.657C609.783 135.847 610.105 135.07 610.678 134.497C611.25 133.924 612.027 133.603 612.837 133.603H667.952C668.762 133.603 669.538 133.924 670.111 134.497C670.684 135.07 671.006 135.847 671.006 136.657C671.003 137.058 670.921 137.454 670.765 137.824C670.61 138.193 670.382 138.528 670.097 138.81C669.811 139.092 669.473 139.315 669.102 139.466C668.73 139.617 668.332 139.693 667.931 139.69Z" fill="#D9D3CA"/>
</g>
<g opacity="0.5">
<path d="M667.933 151.784H635.886C635.08 151.784 634.306 151.465 633.734 150.897C633.162 150.328 632.837 149.557 632.832 148.75C632.832 147.94 633.154 147.164 633.727 146.591C634.299 146.018 635.076 145.696 635.886 145.696H667.933C668.743 145.696 669.519 146.018 670.092 146.591C670.665 147.164 670.987 147.94 670.987 148.75C670.981 149.557 670.657 150.328 670.085 150.897C669.513 151.465 668.739 151.784 667.933 151.784Z" fill="#D9D3CA"/>
</g>
<g opacity="0.5">
<path d="M621.185 151.784H612.837C612.031 151.784 611.257 151.465 610.685 150.897C610.113 150.328 609.789 149.557 609.783 148.75C609.783 147.94 610.105 147.164 610.678 146.591C611.25 146.018 612.027 145.696 612.837 145.696H621.205C622.015 145.696 622.792 146.018 623.365 146.591C623.937 147.164 624.259 147.94 624.259 148.75C624.256 149.151 624.175 149.548 624.019 149.917C623.863 150.287 623.636 150.622 623.35 150.904C623.065 151.186 622.727 151.408 622.355 151.559C621.984 151.71 621.586 151.787 621.185 151.784Z" fill="#D9D3CA"/>
</g>
<g opacity="0.5">
<path d="M667.931 163.878H612.837C612.027 163.878 611.25 163.556 610.678 162.983C610.105 162.411 609.783 161.634 609.783 160.824C609.789 160.017 610.113 159.246 610.685 158.677C611.257 158.109 612.031 157.79 612.837 157.79H667.952C668.758 157.79 669.532 158.109 670.104 158.677C670.676 159.246 671 160.017 671.006 160.824C671.006 161.227 670.926 161.625 670.771 161.997C670.617 162.369 670.39 162.707 670.104 162.991C669.818 163.274 669.479 163.499 669.106 163.651C668.733 163.803 668.334 163.88 667.931 163.878Z" fill="#D9D3CA"/>
</g>
<g opacity="0.5">
<path d="M646.655 175.972H612.837C612.027 175.972 611.25 175.65 610.678 175.077C610.105 174.504 609.783 173.728 609.783 172.918C609.789 172.111 610.113 171.34 610.685 170.771C611.257 170.203 612.031 169.884 612.837 169.884H646.676C647.482 169.884 648.256 170.203 648.828 170.771C649.4 171.34 649.724 172.111 649.73 172.918C649.73 173.32 649.65 173.719 649.495 174.091C649.34 174.463 649.114 174.801 648.828 175.084C648.542 175.368 648.203 175.593 647.83 175.745C647.457 175.897 647.058 175.974 646.655 175.972Z" fill="#D9D3CA"/>
</g>
<g opacity="0.5">
<path d="M667.931 175.972H658.891C658.085 175.966 657.313 175.642 656.745 175.07C656.176 174.498 655.857 173.724 655.857 172.918C655.857 172.113 656.177 171.341 656.746 170.773C657.315 170.204 658.086 169.884 658.891 169.884H667.931C668.737 169.884 669.511 170.203 670.083 170.771C670.655 171.34 670.98 172.111 670.985 172.918C670.985 173.728 670.663 174.504 670.09 175.077C669.518 175.65 668.741 175.972 667.931 175.972Z" fill="#D9D3CA"/>
</g>
<g opacity="0.5">
<path d="M667.931 188.065H612.837C612.027 188.065 611.25 187.744 610.678 187.171C610.105 186.598 609.783 185.821 609.783 185.011C609.789 184.205 610.113 183.433 610.685 182.865C611.257 182.297 612.031 181.978 612.837 181.978H667.952C668.758 181.978 669.532 182.297 670.104 182.865C670.676 183.433 671 184.205 671.006 185.011C671.006 185.414 670.926 185.813 670.771 186.185C670.617 186.557 670.39 186.894 670.104 187.178C669.818 187.462 669.479 187.686 669.106 187.839C668.733 187.991 668.334 188.068 667.931 188.065Z" fill="#D9D3CA"/>
</g>
<path d="M659.074 99.764V114.301C659.072 115.219 659.25 116.128 659.6 116.977C659.95 117.825 660.465 118.596 661.114 119.245C661.763 119.894 662.534 120.408 663.382 120.758C664.231 121.108 665.14 121.287 666.058 121.285H680.574L659.074 99.764Z" fill="#FBEDC7"/>
<path opacity="0.5" d="M659.074 99.764V114.301C659.072 115.219 659.25 116.128 659.6 116.977C659.95 117.825 660.465 118.596 661.114 119.245C661.763 119.894 662.534 120.408 663.382 120.758C664.231 121.108 665.14 121.287 666.058 121.285H680.574L659.074 99.764Z" fill="#D9D3CA"/>
</svg>
