<svg width="531" height="501" viewBox="0 0 531 501" fill="none" xmlns="http://www.w3.org/2000/svg">
<path d="M311.108 498.867L131.544 498.959C124.601 498.962 117.941 496.207 113.028 491.301C108.115 486.395 105.352 479.738 105.346 472.795L105.139 68.3044C105.136 64.3854 105.905 60.5042 107.402 56.8825C108.899 53.2608 111.095 49.9696 113.865 47.1968C116.635 44.4241 119.923 42.2241 123.543 40.7227C127.163 39.2212 131.043 38.4476 134.962 38.4461L311.211 38.354C318.233 38.354 324.967 41.1432 329.931 46.1081C334.896 51.073 337.686 57.8068 337.686 64.8282L337.904 472.093C337.898 479.196 335.072 486.006 330.048 491.026C325.023 496.047 318.211 498.867 311.108 498.867V498.867Z" fill="#455A64"/>
<path d="M108.996 463.449L108.789 73.9449C108.804 65.5129 112.164 57.4313 118.13 51.4732C124.097 45.5152 132.184 42.1674 140.616 42.1644L302.154 42.0723C306.336 42.0692 310.478 42.8902 314.342 44.4881C318.207 46.086 321.719 48.4297 324.678 51.3852C327.637 54.3407 329.984 57.8502 331.586 61.7132C333.188 65.5761 334.014 69.7168 334.015 73.8988L334.222 463.403C334.225 467.585 333.405 471.727 331.807 475.591C330.209 479.456 327.865 482.968 324.909 485.927C321.954 488.885 318.444 491.233 314.582 492.835C310.719 494.437 306.578 495.263 302.396 495.264L140.857 495.356C136.669 495.358 132.521 494.533 128.652 492.93C124.783 491.326 121.268 488.975 118.308 486.011C115.349 483.048 113.003 479.529 111.405 475.658C109.807 471.786 108.989 467.637 108.996 463.449V463.449Z" fill="#263238"/>
<path d="M204.693 56.5869C204.007 56.5869 203.348 56.314 202.862 55.8283C202.376 55.3426 202.104 54.6839 202.104 53.997C202.104 53.3101 202.376 52.6514 202.862 52.1657C203.348 51.68 204.007 51.4071 204.693 51.4071H237.947C238.301 51.3835 238.656 51.4328 238.99 51.552C239.324 51.6711 239.63 51.8576 239.889 52.0999C240.148 52.3422 240.355 52.6351 240.496 52.9604C240.637 53.2857 240.71 53.6366 240.71 53.9912C240.71 54.3459 240.637 54.6967 240.496 55.0221C240.355 55.3474 240.148 55.6403 239.889 55.8826C239.63 56.1248 239.324 56.3113 238.99 56.4305C238.656 56.5497 238.301 56.599 237.947 56.5753L204.693 56.5869Z" fill="#455A64"/>
<path d="M186.865 56.5987C186.352 56.6009 185.85 56.451 185.423 56.1678C184.996 55.8846 184.662 55.4809 184.464 55.0079C184.266 54.5349 184.213 54.0138 184.312 53.5106C184.411 53.0075 184.656 52.5449 185.018 52.1816C185.38 51.8182 185.841 51.5704 186.344 51.4696C186.847 51.3687 187.368 51.4193 187.842 51.615C188.316 51.8107 188.721 52.1426 189.006 52.5687C189.291 52.9949 189.443 53.4961 189.443 54.0088C189.443 54.6937 189.172 55.3507 188.689 55.836C188.206 56.3214 187.55 56.5956 186.865 56.5987V56.5987Z" fill="#455A64"/>
<path d="M196.383 56.5869C195.87 56.5892 195.368 56.4393 194.941 56.1561C194.513 55.8729 194.18 55.4692 193.982 54.9962C193.784 54.5231 193.731 54.002 193.83 53.4989C193.928 52.9958 194.174 52.5332 194.536 52.1699C194.897 51.8065 195.359 51.5587 195.862 51.4578C196.364 51.357 196.886 51.4076 197.36 51.6033C197.833 51.7989 198.239 52.1309 198.524 52.557C198.809 52.9832 198.961 53.4844 198.961 53.9971C198.961 54.682 198.69 55.339 198.207 55.8243C197.723 56.3097 197.068 56.5839 196.383 56.5869V56.5869Z" fill="#455A64"/>
<path d="M255.926 56.5523C255.413 56.5523 254.912 56.4001 254.486 56.115C254.06 55.8299 253.728 55.4248 253.532 54.9508C253.336 54.4769 253.286 53.9556 253.387 53.4529C253.487 52.9502 253.735 52.4888 254.099 52.127C254.462 51.7653 254.924 51.5196 255.428 51.4209C255.931 51.3223 256.452 51.3752 256.925 51.573C257.398 51.7708 257.802 52.1045 258.085 52.532C258.368 52.9594 258.518 53.4612 258.516 53.9739C258.516 54.3135 258.449 54.6497 258.318 54.9633C258.188 55.2769 257.997 55.5616 257.756 55.8012C257.516 56.0408 257.23 56.2304 256.916 56.3593C256.602 56.4882 256.265 56.5538 255.926 56.5523V56.5523Z" fill="#455A64"/>
<path d="M246.406 56.564C245.894 56.564 245.393 56.4121 244.967 56.1275C244.542 55.843 244.21 55.4385 244.014 54.9652C243.818 54.492 243.766 53.9713 243.866 53.4689C243.966 52.9665 244.213 52.505 244.575 52.1428C244.937 51.7806 245.399 51.534 245.901 51.434C246.403 51.3341 246.924 51.3854 247.397 51.5814C247.871 51.7774 248.275 52.1094 248.56 52.5353C248.844 52.9612 248.996 53.4619 248.996 53.9741C248.998 54.3147 248.932 54.6521 248.802 54.967C248.672 55.282 248.482 55.5681 248.241 55.8089C248 56.0496 247.714 56.2404 247.399 56.37C247.084 56.4996 246.747 56.5655 246.406 56.564V56.564Z" fill="#455A64"/>
<path d="M303.882 47.3555H272.573C271.097 47.3549 269.66 47.8322 268.477 48.716C267.295 49.5999 266.43 50.8428 266.012 52.259L263.457 61.03C262.995 62.6164 262.031 64.0097 260.708 65C259.386 65.9903 257.777 66.5239 256.125 66.5205H186.762C185.111 66.5216 183.504 65.9886 182.18 65.0011C180.857 64.0137 179.888 62.6247 179.419 61.0415L176.852 52.2705C176.436 50.8546 175.571 49.6121 174.388 48.7299C173.204 47.8477 171.767 47.3734 170.291 47.3785H138.959C132.364 47.3663 126.034 49.9737 121.361 54.6274C116.688 59.2811 114.054 65.6001 114.039 72.1952L114.246 464.266C114.257 467.531 114.91 470.762 116.17 473.775C117.429 476.787 119.269 479.522 121.585 481.823C123.902 484.124 126.648 485.947 129.669 487.187C132.689 488.426 135.925 489.059 139.19 489.048L304.078 488.968C310.673 488.98 317.003 486.373 321.676 481.719C326.349 477.065 328.983 470.746 328.998 464.151L328.791 72.0916C328.757 65.5116 326.117 59.2132 321.448 54.5766C316.779 49.9399 310.462 47.3432 303.882 47.3555V47.3555Z" fill="#FAFAFA"/>
<path d="M337.709 138.427C338.114 138.43 338.502 138.593 338.788 138.879C339.075 139.165 339.237 139.553 339.24 139.958V189.833C339.24 190.237 339.08 190.625 338.796 190.912C338.511 191.198 338.124 191.361 337.72 191.364L337.709 138.427Z" fill="#455A64"/>
<path d="M105.175 171.174C104.756 171.174 104.355 171.34 104.06 171.636C103.764 171.932 103.598 172.333 103.598 172.751V203.104C103.601 203.524 103.769 203.925 104.067 204.22C104.365 204.516 104.767 204.681 105.186 204.681V204.681L105.175 171.174Z" fill="#455A64"/>
<path d="M105.151 127.342C104.943 127.342 104.737 127.383 104.545 127.463C104.353 127.543 104.179 127.66 104.032 127.808C103.885 127.955 103.77 128.131 103.691 128.323C103.612 128.516 103.573 128.722 103.574 128.93V159.272C103.577 159.692 103.746 160.095 104.043 160.392C104.34 160.689 104.742 160.857 105.163 160.86V160.86L105.151 127.342Z" fill="#455A64"/>
<path d="M105.139 94.5254C104.776 94.5254 104.428 94.6697 104.171 94.9266C103.914 95.1835 103.77 95.5319 103.77 95.8951V108.752C103.77 108.932 103.805 109.109 103.874 109.275C103.943 109.44 104.044 109.591 104.171 109.717C104.299 109.843 104.45 109.943 104.616 110.011C104.782 110.078 104.96 110.112 105.139 110.111V110.111V94.5254Z" fill="#455A64"/>
<path d="M278.233 60.1206H276.633V62.3652H278.233V60.1206Z" fill="white"/>
<path d="M280.838 59.1187H279.238V62.3531H280.838V59.1187Z" fill="white"/>
<path d="M283.44 58.3711H281.84V62.3537H283.44V58.3711Z" fill="white"/>
<path d="M286.039 56.9204H284.439V62.3534H286.039V56.9204Z" fill="white"/>
<path d="M309.637 62.4574H301.579C301.504 62.4589 301.43 62.4455 301.36 62.4178C301.29 62.3902 301.227 62.3489 301.173 62.2963C301.12 62.2438 301.077 62.1811 301.048 62.1119C301.019 62.0427 301.004 61.9685 301.004 61.8934V57.8993C301.004 57.7486 301.063 57.6039 301.168 57.4963C301.274 57.3887 301.417 57.3267 301.568 57.3237H309.625C309.664 57.3264 309.701 57.343 309.728 57.3705C309.756 57.398 309.772 57.4346 309.775 57.4734V58.7856H310.638C310.657 58.7855 310.676 58.7894 310.694 58.7971C310.711 58.8047 310.727 58.8159 310.74 58.83C310.753 58.8441 310.763 58.8607 310.769 58.8788C310.776 58.8969 310.778 58.9161 310.776 58.9352V60.846C310.776 60.8856 310.761 60.9237 310.733 60.9518C310.704 60.9798 310.666 60.9956 310.627 60.9956H309.763V62.3078C309.765 62.3259 309.763 62.3442 309.757 62.3616C309.752 62.3789 309.743 62.395 309.731 62.409C309.719 62.4229 309.705 62.4343 309.689 62.4426C309.673 62.4509 309.655 62.456 309.637 62.4574V62.4574ZM309.487 57.6115H301.579C301.506 57.6115 301.436 57.6406 301.384 57.6924C301.332 57.7442 301.303 57.8145 301.303 57.8878V61.8819C301.303 61.9552 301.332 62.0254 301.384 62.0772C301.436 62.129 301.506 62.1582 301.579 62.1582H309.453V60.846C309.453 60.8093 309.467 60.7742 309.493 60.7483C309.519 60.7224 309.554 60.7078 309.591 60.7078H310.454V59.0733H309.637C309.6 59.0733 309.565 59.0588 309.539 59.0329C309.513 59.007 309.499 58.9718 309.499 58.9352L309.487 57.6115Z" fill="white"/>
<path d="M301.969 61.5126V58.2781L308.818 58.2666V59.7284V60.0507V61.5126H301.969Z" fill="white"/>
<path d="M293.684 62.1583C293.684 62.0422 293.649 61.9287 293.585 61.8322C293.52 61.7357 293.429 61.6604 293.321 61.616C293.214 61.5715 293.096 61.5599 292.982 61.5826C292.868 61.6052 292.764 61.6611 292.682 61.7432C292.6 61.8253 292.544 61.9299 292.521 62.0438C292.498 62.1577 292.51 62.2757 292.554 62.383C292.599 62.4902 292.674 62.5819 292.771 62.6464C292.867 62.7109 292.981 62.7454 293.097 62.7454C293.253 62.7454 293.402 62.6835 293.512 62.5734C293.622 62.4633 293.684 62.314 293.684 62.1583Z" fill="white"/>
<path d="M291.094 60.7538L291.842 61.4905C292.176 61.1601 292.627 60.9748 293.097 60.9748C293.566 60.9748 294.017 61.1601 294.351 61.4905L295.099 60.7423C294.567 60.2135 293.847 59.9158 293.097 59.9136C292.724 59.9143 292.355 59.9889 292.011 60.1332C291.667 60.2774 291.355 60.4884 291.094 60.7538V60.7538Z" fill="white"/>
<path d="M293.097 58.2788C291.906 58.28 290.764 58.7516 289.92 59.591L290.668 60.3392C291.315 59.6996 292.187 59.3408 293.097 59.3408C294.006 59.3408 294.879 59.6996 295.526 60.3392L296.274 59.591C295.857 59.1733 295.362 58.8423 294.817 58.6171C294.271 58.3918 293.687 58.2769 293.097 58.2788V58.2788Z" fill="white"/>
<path d="M288.697 58.3588L289.445 59.107C289.922 58.6236 290.49 58.2403 291.117 57.9794C291.743 57.7185 292.416 57.5853 293.094 57.5876C294.462 57.5888 295.774 58.1309 296.743 59.0955L297.491 58.3473C296.914 57.7696 296.229 57.3112 295.474 56.9985C294.72 56.6859 293.911 56.5249 293.094 56.5249C292.278 56.5249 291.469 56.6859 290.714 56.9985C289.96 57.3112 289.275 57.7696 288.697 58.3473V58.3588Z" fill="white"/>
<path d="M158.238 156.924C158.213 159.858 157.318 162.719 155.667 165.145C154.016 167.571 151.683 169.452 148.962 170.552C146.241 171.652 143.256 171.92 140.383 171.323C137.51 170.726 134.878 169.291 132.821 167.198C130.764 165.105 129.373 162.45 128.825 159.567C128.277 156.684 128.597 153.704 129.743 151.002C130.889 148.301 132.81 146 135.264 144.39C137.717 142.781 140.593 141.935 143.528 141.96C145.476 141.977 147.402 142.377 149.196 143.138C150.99 143.899 152.616 145.006 153.982 146.395C155.348 147.785 156.427 149.43 157.157 151.236C157.887 153.043 158.255 154.975 158.238 156.924V156.924Z" fill="#E8D9B0"/>
<path d="M232.398 145.494C232.398 145.655 218.585 145.678 201.664 145.494C184.744 145.31 170.92 145.114 170.92 144.941C170.92 144.769 184.733 144.757 201.664 144.941C218.596 145.126 232.409 145.333 232.398 145.494Z" fill="#263238"/>
<path d="M282.572 159.571C282.572 159.732 257.479 159.663 226.527 159.41C195.575 159.157 170.482 158.811 170.482 158.65C170.482 158.489 195.575 158.558 226.539 158.811C257.502 159.065 282.572 159.398 282.572 159.571Z" fill="#E0E0E0"/>
<path d="M282.483 170.633C282.483 170.794 257.39 170.725 226.439 170.472C195.487 170.219 170.359 169.931 170.359 169.712C170.359 169.494 195.441 169.62 226.404 169.873C257.367 170.127 282.483 170.46 282.483 170.633Z" fill="#E0E0E0"/>
<path d="M315.564 143.364C315.564 143.537 310.131 143.617 303.443 143.571C296.755 143.525 291.334 143.33 291.334 143.168C291.334 143.007 296.755 142.915 303.455 142.973C310.154 143.03 315.564 143.203 315.564 143.364Z" fill="#263238"/>
<path d="M306.182 158.801L307.184 160.872C307.267 161.05 307.392 161.205 307.549 161.323C307.705 161.441 307.888 161.52 308.082 161.552L310.384 161.897C310.619 161.907 310.846 161.989 311.034 162.132C311.222 162.275 311.361 162.473 311.432 162.698C311.504 162.923 311.505 163.164 311.434 163.389C311.364 163.615 311.226 163.813 311.04 163.957L309.371 165.557C309.23 165.694 309.125 165.863 309.063 166.049C309 166.235 308.984 166.434 309.014 166.628L309.394 168.93C309.428 169.153 309.4 169.381 309.312 169.589C309.224 169.797 309.081 169.977 308.897 170.108C308.713 170.24 308.497 170.317 308.271 170.333C308.046 170.348 307.821 170.301 307.621 170.196L305.595 169.102C305.418 169.008 305.221 168.958 305.02 168.958C304.819 168.958 304.621 169.008 304.444 169.102L302.395 170.161C302.198 170.292 301.966 170.358 301.729 170.352C301.493 170.346 301.264 170.267 301.075 170.126C300.885 169.985 300.743 169.789 300.668 169.565C300.593 169.341 300.59 169.099 300.657 168.872L301.06 166.57C301.1 166.378 301.091 166.179 301.032 165.992C300.974 165.804 300.869 165.635 300.726 165.5L299.092 163.877C298.93 163.718 298.817 163.517 298.764 163.297C298.711 163.076 298.721 162.845 298.793 162.631C298.865 162.416 298.996 162.226 299.171 162.082C299.346 161.938 299.558 161.846 299.782 161.816L302.085 161.506C302.28 161.483 302.465 161.411 302.625 161.296C302.784 161.181 302.911 161.027 302.994 160.849L304.03 158.801C304.134 158.606 304.289 158.443 304.479 158.329C304.668 158.215 304.885 158.155 305.106 158.155C305.327 158.155 305.544 158.215 305.734 158.329C305.923 158.443 306.078 158.606 306.182 158.801V158.801Z" fill="#E8D9B0"/>
<path d="M248.813 144.826C248.809 145.377 248.641 145.914 248.331 146.37C248.021 146.825 247.583 147.179 247.072 147.385C246.562 147.592 246.001 147.642 245.462 147.531C244.922 147.419 244.428 147.149 244.042 146.756C243.656 146.364 243.394 145.865 243.291 145.324C243.188 144.783 243.248 144.223 243.463 143.716C243.678 143.209 244.039 142.777 244.499 142.474C244.96 142.172 245.5 142.013 246.051 142.018C246.416 142.021 246.778 142.096 247.115 142.239C247.452 142.381 247.757 142.589 248.014 142.85C248.27 143.111 248.473 143.419 248.61 143.758C248.747 144.098 248.816 144.46 248.813 144.826Z" fill="#E8D9B0"/>
<path d="M327.939 117.949C327.939 118.11 279.998 117.857 220.892 117.374C161.785 116.89 113.844 116.361 113.844 116.223C113.844 116.085 161.774 116.315 220.892 116.798C280.01 117.282 327.951 117.788 327.939 117.949Z" fill="#E0E0E0"/>
<path d="M327.314 194.632C327.314 194.805 279.361 194.54 220.267 194.057C161.172 193.573 113.219 193.044 113.219 192.906C113.219 192.768 161.16 192.998 220.267 193.481C279.373 193.965 327.314 194.471 327.314 194.632Z" fill="#E0E0E0"/>
<path d="M152.64 320.403C158.434 314.608 158.434 305.214 152.64 299.42C146.846 293.626 137.452 293.626 131.657 299.42C125.863 305.214 125.863 314.608 131.657 320.402C137.452 326.197 146.846 326.197 152.64 320.403Z" fill="#E8D9B0"/>
<path d="M231.144 298.606C231.144 298.767 217.389 298.79 200.411 298.606C183.433 298.422 169.666 298.226 169.666 298.054C169.666 297.881 183.479 297.87 200.411 298.054C217.343 298.238 231.155 298.445 231.144 298.606Z" fill="#263238"/>
<path d="M281.322 312.661C281.322 312.822 256.229 312.753 225.277 312.5C194.325 312.246 169.232 311.901 169.232 311.74C169.232 311.579 194.325 311.648 225.289 311.901C256.252 312.154 281.322 312.511 281.322 312.661Z" fill="#E0E0E0"/>
<path d="M281.226 323.745C281.226 323.906 256.133 323.837 225.182 323.584C194.23 323.331 169.137 322.986 169.148 322.824C169.16 322.663 194.23 322.732 225.193 322.986C256.156 323.239 281.226 323.573 281.226 323.745Z" fill="#E0E0E0"/>
<path d="M314.308 296.477C314.308 296.65 308.886 296.73 302.187 296.684C295.488 296.638 290.078 296.442 290.078 296.281C290.078 296.12 295.5 296.028 302.199 296.086C308.898 296.143 314.308 296.316 314.308 296.477Z" fill="#263238"/>
<path d="M304.917 311.913L305.918 313.985C306.001 314.162 306.127 314.317 306.283 314.435C306.44 314.553 306.622 314.632 306.816 314.664L309.118 315.009C309.354 315.019 309.581 315.101 309.768 315.244C309.956 315.388 310.095 315.585 310.167 315.81C310.238 316.035 310.239 316.276 310.169 316.501C310.099 316.727 309.961 316.925 309.774 317.07L308.105 318.669C307.965 318.807 307.859 318.975 307.797 319.161C307.735 319.348 307.718 319.546 307.748 319.74L308.128 322.042C308.163 322.265 308.134 322.494 308.047 322.702C307.959 322.91 307.815 323.089 307.631 323.221C307.448 323.352 307.231 323.429 307.006 323.445C306.781 323.46 306.555 323.413 306.356 323.308L304.33 322.157C304.153 322.062 303.955 322.013 303.754 322.013C303.553 322.013 303.356 322.062 303.179 322.157L301.13 323.216C300.933 323.347 300.7 323.413 300.464 323.407C300.227 323.4 299.999 323.322 299.809 323.181C299.619 323.04 299.477 322.844 299.403 322.62C299.328 322.395 299.324 322.153 299.392 321.927L299.806 319.625C299.845 319.432 299.834 319.232 299.773 319.045C299.713 318.857 299.605 318.688 299.461 318.554L297.826 316.931C297.665 316.773 297.551 316.572 297.498 316.351C297.445 316.131 297.456 315.9 297.528 315.685C297.6 315.47 297.73 315.28 297.905 315.136C298.08 314.992 298.292 314.9 298.517 314.871L300.819 314.56C301.014 314.537 301.2 314.465 301.359 314.35C301.518 314.236 301.645 314.082 301.728 313.904L302.764 311.855C302.873 311.663 303.033 311.504 303.226 311.395C303.418 311.287 303.637 311.232 303.858 311.238C304.079 311.244 304.294 311.31 304.481 311.429C304.667 311.548 304.818 311.715 304.917 311.913V311.913Z" fill="#E8D9B0"/>
<path d="M247.513 298.494C247.813 296.986 246.833 295.519 245.324 295.219C243.815 294.919 242.349 295.9 242.049 297.409C241.749 298.917 242.729 300.384 244.238 300.684C245.747 300.983 247.213 300.003 247.513 298.494Z" fill="#E8D9B0"/>
<path d="M326.683 271.062C326.683 271.223 278.742 270.97 219.636 270.486C160.529 270.003 112.588 269.473 112.588 269.335C112.588 269.197 160.518 269.427 219.636 269.911C278.754 270.394 326.695 270.9 326.683 271.062Z" fill="#E0E0E0"/>
<path d="M326.06 347.745C326.06 347.918 278.867 347.607 220.636 347.054C162.404 346.502 115.211 345.903 115.211 345.765C115.211 345.627 162.404 345.903 220.647 346.456C278.89 347.008 326.06 347.584 326.06 347.745Z" fill="#E0E0E0"/>
<path d="M155.799 455.644C155.773 458.578 154.879 461.439 153.228 463.864C151.578 466.29 149.245 468.172 146.525 469.272C143.805 470.372 140.82 470.641 137.948 470.045C135.075 469.449 132.443 468.014 130.386 465.923C128.328 463.831 126.937 461.177 126.387 458.295C125.838 455.413 126.156 452.432 127.3 449.731C128.444 447.029 130.364 444.727 132.816 443.117C135.268 441.506 138.143 440.658 141.077 440.681C145.013 440.714 148.775 442.309 151.535 445.115C154.296 447.921 155.829 451.708 155.799 455.644Z" fill="#E0E0E0"/>
<path d="M229.96 444.227C229.96 444.388 216.147 444.411 199.216 444.227C182.284 444.043 168.482 443.847 168.482 443.674C168.482 443.502 182.295 443.49 199.227 443.674C216.159 443.859 229.96 444.066 229.96 444.227Z" fill="#263238"/>
<path d="M280.125 458.304C280.125 458.465 255.032 458.396 224.092 458.143C193.151 457.89 168.047 457.544 168.047 457.383C168.047 457.222 193.14 457.291 224.092 457.544C255.043 457.797 280.125 458.131 280.125 458.304Z" fill="#E0E0E0"/>
<path d="M280.029 469.354C280.029 469.526 254.936 469.457 223.996 469.204C193.056 468.951 167.951 468.605 167.951 468.444C167.951 468.283 193.044 468.341 223.996 468.594C254.948 468.847 280.041 469.204 280.029 469.354Z" fill="#E0E0E0"/>
<path d="M313.089 442.097C313.089 442.258 307.668 442.35 300.98 442.293C294.292 442.235 288.859 442.062 288.859 441.901C288.859 441.74 294.292 441.648 300.98 441.694C307.668 441.74 313.089 441.936 313.089 442.097Z" fill="#263238"/>
<path d="M246.329 443.559C246.324 444.11 246.156 444.647 245.847 445.102C245.537 445.558 245.099 445.911 244.588 446.118C244.077 446.324 243.517 446.375 242.977 446.263C242.438 446.151 241.944 445.882 241.557 445.489C241.171 445.096 240.91 444.598 240.807 444.056C240.704 443.515 240.764 442.956 240.979 442.448C241.194 441.941 241.554 441.509 242.015 441.207C242.476 440.904 243.015 440.746 243.566 440.75C243.932 440.753 244.294 440.828 244.631 440.971C244.967 441.114 245.273 441.321 245.529 441.582C245.786 441.843 245.988 442.152 246.126 442.491C246.263 442.83 246.332 443.193 246.329 443.559V443.559Z" fill="#E8D9B0"/>
<path d="M328.504 194.65L115.049 192.899L114.42 269.58L327.875 271.331L328.504 194.65Z" fill="#F5F5F5"/>
<path d="M153.707 242.353C159.501 236.559 159.501 227.165 153.707 221.37C147.912 215.576 138.518 215.576 132.724 221.37C126.93 227.165 126.93 236.559 132.724 242.353C138.518 248.147 147.912 248.147 153.707 242.353Z" fill="#455A64"/>
<path d="M232.218 220.577C232.218 220.75 218.405 220.773 201.485 220.635C184.564 220.497 170.74 220.244 170.74 220.082C170.74 219.921 184.553 219.887 201.485 220.082C218.417 220.278 232.218 220.393 232.218 220.577Z" fill="#263238"/>
<path d="M282.39 234.632C282.39 234.804 257.297 234.724 226.345 234.471C195.394 234.217 170.301 233.884 170.301 233.711C170.301 233.538 195.394 233.619 226.345 233.872C257.297 234.125 282.39 234.471 282.39 234.632Z" fill="#E0E0E0"/>
<path d="M282.296 245.692C282.296 245.853 257.203 245.784 226.252 245.531C195.3 245.278 170.207 244.944 170.207 244.771C170.207 244.599 195.3 244.679 226.263 244.933C257.227 245.186 282.296 245.531 282.296 245.692Z" fill="#E0E0E0"/>
<path d="M315.39 218.436C315.39 218.597 309.957 218.689 303.269 218.631C299.229 218.7 295.187 218.566 291.16 218.228C291.16 218.067 296.582 217.975 303.281 218.033C307.321 217.964 311.363 218.098 315.39 218.436V218.436Z" fill="#263238"/>
<path d="M305.987 233.872C305.987 233.872 305.895 233.746 305.688 233.562C305.541 233.439 305.367 233.355 305.18 233.317C304.993 233.279 304.8 233.288 304.617 233.343C304.359 233.414 304.14 233.583 304.007 233.815C303.857 234.068 303.708 234.413 303.547 234.747L303.017 235.898C302.924 236.14 302.768 236.352 302.566 236.514C302.364 236.676 302.122 236.781 301.866 236.819L300.381 237.049L299.598 237.164C299.378 237.202 299.178 237.316 299.034 237.487C298.883 237.661 298.8 237.883 298.8 238.114C298.8 238.345 298.883 238.567 299.034 238.741L300.347 240.03L300.692 240.364C300.831 240.496 300.944 240.652 301.026 240.825C301.187 241.187 301.215 241.594 301.106 241.976C300.991 242.628 300.876 243.296 300.761 243.979C300.724 244.112 300.718 244.251 300.744 244.387C300.769 244.522 300.825 244.651 300.907 244.761C300.989 244.872 301.095 244.963 301.217 245.027C301.34 245.091 301.475 245.126 301.613 245.13C301.878 245.13 302.119 244.991 302.465 244.819L303.443 244.324C303.776 244.123 304.132 243.96 304.502 243.84C304.712 243.799 304.928 243.8 305.138 243.843C305.347 243.887 305.546 243.972 305.722 244.094L307.564 245.084C307.679 245.14 307.805 245.172 307.934 245.178C308.063 245.183 308.191 245.162 308.311 245.116C308.431 245.069 308.54 244.998 308.631 244.908C308.723 244.817 308.794 244.708 308.841 244.589C308.922 244.322 308.922 244.038 308.841 243.771C308.841 243.449 308.749 243.138 308.692 242.827L308.554 241.895C308.484 241.53 308.554 241.152 308.749 240.836C308.945 240.585 309.164 240.353 309.405 240.146L310.039 239.558L310.637 238.994C310.799 238.848 310.912 238.655 310.959 238.442C310.997 238.239 310.97 238.029 310.884 237.842C310.797 237.654 310.655 237.498 310.476 237.395C310.064 237.261 309.64 237.169 309.21 237.118L308.059 236.911C307.863 236.894 307.672 236.836 307.5 236.74C307.327 236.645 307.177 236.515 307.057 236.359C306.904 236.092 306.769 235.815 306.654 235.53C306.401 235.037 306.197 234.52 306.044 233.987C306.362 234.442 306.639 234.923 306.873 235.426C306.995 235.688 307.134 235.941 307.287 236.186C307.391 236.304 307.519 236.4 307.661 236.468C307.804 236.535 307.959 236.572 308.116 236.577L309.267 236.738C309.746 236.773 310.218 236.87 310.672 237.026C310.87 237.135 311.039 237.289 311.167 237.476C311.294 237.663 311.376 237.877 311.405 238.101C311.434 238.326 311.41 238.554 311.335 238.767C311.259 238.98 311.135 239.172 310.971 239.328L310.372 239.904L309.762 240.514C309.554 240.689 309.365 240.885 309.198 241.101C309.079 241.31 309.038 241.555 309.083 241.792C309.141 242.102 309.187 242.413 309.244 242.724C309.302 243.035 309.348 243.345 309.405 243.668C309.522 244.043 309.522 244.444 309.405 244.819C309.332 245.016 309.218 245.195 309.071 245.345C308.924 245.495 308.747 245.613 308.552 245.69C308.356 245.767 308.147 245.802 307.937 245.793C307.727 245.783 307.521 245.73 307.334 245.636L305.48 244.646C305.364 244.557 305.23 244.494 305.087 244.46C304.944 244.427 304.796 244.423 304.652 244.45C304.338 244.569 304.034 244.712 303.742 244.876L302.775 245.371L302.28 245.625C302.075 245.718 301.85 245.761 301.624 245.751C301.407 245.74 301.194 245.683 301.001 245.583C300.808 245.483 300.638 245.342 300.504 245.171C300.37 244.999 300.274 244.801 300.223 244.589C300.172 244.378 300.167 244.158 300.209 243.944C300.335 243.265 300.462 242.597 300.577 241.953C300.671 241.696 300.671 241.415 300.577 241.158C300.431 240.91 300.24 240.692 300.013 240.514L298.643 238.994C298.412 238.725 298.285 238.382 298.285 238.028C298.285 237.673 298.412 237.33 298.643 237.061C298.869 236.812 299.174 236.649 299.506 236.6L300.301 236.497L301.797 236.313C301.992 236.291 302.178 236.216 302.334 236.096C302.491 235.976 302.611 235.816 302.683 235.633L303.247 234.551C303.431 234.218 303.581 233.918 303.765 233.608C303.952 233.333 304.236 233.14 304.559 233.067C304.775 233.014 305.002 233.021 305.214 233.086C305.427 233.151 305.618 233.271 305.768 233.435C305.964 233.7 305.998 233.861 305.987 233.872Z" fill="#263238"/>
<path d="M248.632 219.898C248.627 220.449 248.459 220.986 248.149 221.442C247.839 221.897 247.401 222.251 246.891 222.457C246.38 222.664 245.82 222.714 245.28 222.602C244.741 222.49 244.247 222.221 243.86 221.828C243.474 221.435 243.213 220.937 243.11 220.396C243.007 219.855 243.066 219.295 243.281 218.788C243.496 218.281 243.857 217.848 244.318 217.546C244.778 217.244 245.318 217.085 245.869 217.089C246.607 217.099 247.311 217.399 247.829 217.925C248.346 218.451 248.635 219.16 248.632 219.898V219.898Z" fill="#E8D9B0"/>
<path d="M328.664 347.518L115.209 345.767L114.58 422.447L328.035 424.198L328.664 347.518Z" fill="#F5F5F5"/>
<path d="M153.869 395.215C159.663 389.42 159.663 380.026 153.869 374.232C148.074 368.438 138.68 368.438 132.886 374.232C127.092 380.026 127.092 389.42 132.886 395.215C138.68 401.009 148.074 401.009 153.869 395.215Z" fill="#455A64"/>
<path d="M232.376 373.425C232.376 373.586 218.563 373.609 201.643 373.425C184.723 373.241 170.898 373.045 170.898 372.873C170.898 372.7 184.711 372.688 201.643 372.873C218.575 373.057 232.376 373.264 232.376 373.425Z" fill="#263238"/>
<path d="M282.552 387.479C282.552 387.64 257.459 387.571 226.508 387.318C195.556 387.065 170.463 386.72 170.463 386.558C170.463 386.397 195.556 386.466 226.508 386.72C257.459 386.973 282.552 387.33 282.552 387.479Z" fill="#E0E0E0"/>
<path d="M282.46 398.564C282.46 398.725 257.367 398.656 226.416 398.403C195.464 398.15 170.359 397.839 170.359 397.643C170.359 397.448 195.452 397.551 226.416 397.805C257.379 398.058 282.46 398.392 282.46 398.564Z" fill="#E0E0E0"/>
<path d="M315.54 371.296C315.54 371.468 310.107 371.549 303.42 371.503C296.732 371.457 291.311 371.261 291.311 371.1C291.311 370.939 296.732 370.847 303.431 370.904C310.13 370.962 315.54 371.135 315.54 371.296Z" fill="#263238"/>
<path d="M306.182 386.732C306.182 386.732 306.089 386.605 305.882 386.433C305.737 386.308 305.563 386.222 305.376 386.182C305.189 386.142 304.995 386.149 304.812 386.203C304.556 386.278 304.338 386.446 304.202 386.674C304.052 386.939 303.902 387.284 303.741 387.618C303.58 387.952 303.396 388.332 303.212 388.712C303.121 388.956 302.967 389.172 302.764 389.336C302.562 389.5 302.319 389.607 302.061 389.644L300.576 389.863L299.793 389.989C299.623 390.015 299.463 390.086 299.33 390.195C299.198 390.305 299.097 390.449 299.041 390.611C298.984 390.773 298.972 390.948 299.008 391.117C299.043 391.285 299.123 391.441 299.241 391.566L300.553 392.844L300.898 393.178C301.04 393.311 301.154 393.472 301.232 393.65C301.4 394.01 301.429 394.42 301.313 394.801C301.197 395.461 301.082 396.128 300.967 396.804C300.938 396.933 300.938 397.067 300.967 397.196C300.996 397.326 301.054 397.447 301.135 397.551C301.217 397.656 301.32 397.741 301.438 397.801C301.557 397.861 301.687 397.894 301.819 397.897C302.126 397.88 302.421 397.776 302.671 397.598L303.649 397.091C303.985 396.895 304.34 396.733 304.708 396.608C305.134 396.533 305.572 396.628 305.928 396.873L307.77 397.863C307.886 397.919 308.012 397.951 308.14 397.957C308.269 397.963 308.397 397.941 308.517 397.895C308.637 397.848 308.746 397.778 308.838 397.687C308.929 397.596 309 397.487 309.048 397.368C309.128 397.101 309.128 396.817 309.048 396.55C309.048 396.228 308.956 395.906 308.898 395.595L308.76 394.674C308.689 394.309 308.759 393.931 308.956 393.615C309.151 393.364 309.371 393.133 309.612 392.925L310.245 392.338L310.843 391.762C311.01 391.619 311.123 391.425 311.166 391.21C311.202 391.008 311.175 390.8 311.089 390.615C311.002 390.429 310.86 390.275 310.682 390.174C310.272 390.035 309.847 389.942 309.416 389.897L308.265 389.69C308.068 389.671 307.877 389.611 307.705 389.513C307.533 389.416 307.382 389.284 307.263 389.126C307.111 388.863 306.976 388.59 306.861 388.309C306.604 387.814 306.399 387.293 306.251 386.755C306.566 387.215 306.843 387.7 307.079 388.205C307.202 388.463 307.34 388.713 307.494 388.954C307.597 389.074 307.723 389.172 307.866 389.242C308.009 389.311 308.164 389.35 308.322 389.356L309.473 389.518C309.919 389.557 310.36 389.646 310.786 389.782C311.05 389.923 311.263 390.143 311.395 390.412C311.528 390.68 311.572 390.983 311.522 391.279C311.471 391.595 311.318 391.887 311.085 392.107L310.486 392.683L309.876 393.281C309.67 393.463 309.481 393.663 309.312 393.88C309.192 394.089 309.151 394.334 309.197 394.571C309.255 394.881 309.301 395.181 309.358 395.491C309.416 395.802 309.462 396.125 309.52 396.447C309.63 396.823 309.63 397.222 309.52 397.598C309.442 397.793 309.326 397.97 309.177 398.118C309.028 398.266 308.85 398.381 308.654 398.457C308.459 398.533 308.249 398.567 308.04 398.558C307.83 398.549 307.624 398.496 307.436 398.404C306.826 398.081 306.205 397.759 305.583 397.414C305.342 397.245 305.045 397.175 304.754 397.218C304.441 397.341 304.137 397.488 303.845 397.655L302.878 398.15L302.383 398.404C302.175 398.488 301.951 398.528 301.727 398.519C301.511 398.508 301.299 398.45 301.107 398.351C300.915 398.252 300.746 398.112 300.612 397.942C300.478 397.772 300.381 397.575 300.33 397.365C300.278 397.155 300.271 396.936 300.311 396.723C300.438 396.044 300.564 395.376 300.679 394.72C300.774 394.464 300.774 394.182 300.679 393.926C300.527 393.683 300.337 393.465 300.115 393.281L298.803 391.958C298.572 391.689 298.445 391.346 298.445 390.991C298.445 390.636 298.572 390.293 298.803 390.024C299.031 389.776 299.335 389.61 299.667 389.552L300.461 389.448L301.957 389.264C302.153 389.247 302.339 389.176 302.496 389.058C302.653 388.939 302.773 388.78 302.843 388.597L303.407 387.515C303.592 387.169 303.741 386.87 303.925 386.571C304.108 386.291 304.393 386.092 304.72 386.018C304.927 385.979 305.141 385.992 305.342 386.056C305.543 386.121 305.725 386.234 305.871 386.387C306.182 386.571 306.182 386.732 306.182 386.732Z" fill="#263238"/>
<path d="M248.792 372.758C248.787 373.309 248.619 373.846 248.309 374.301C248 374.757 247.562 375.11 247.051 375.317C246.54 375.524 245.98 375.574 245.44 375.462C244.901 375.35 244.407 375.081 244.02 374.688C243.634 374.295 243.373 373.797 243.27 373.256C243.167 372.714 243.227 372.155 243.442 371.648C243.657 371.14 244.017 370.708 244.478 370.406C244.938 370.104 245.478 369.945 246.029 369.949C246.395 369.952 246.757 370.027 247.093 370.17C247.43 370.313 247.736 370.521 247.992 370.781C248.249 371.042 248.451 371.351 248.588 371.69C248.726 372.029 248.795 372.392 248.792 372.758V372.758Z" fill="#E8D9B0"/>
<path d="M230.439 89.519L212.553 89.3723C211.122 89.3606 209.953 90.5106 209.942 91.9409L209.831 105.385C209.82 106.815 210.97 107.984 212.4 107.996L230.287 108.142C231.717 108.154 232.886 107.004 232.898 105.574L233.008 92.1301C233.02 90.6998 231.87 89.5308 230.439 89.519Z" fill="#E8D9B0"/>
<path d="M231.765 90.2318C231.573 90.5853 231.333 90.9106 231.052 91.1987C230.568 91.7972 229.901 92.649 228.945 93.6965L225.768 97.3453L223.869 99.4863C223.54 99.8875 223.19 100.272 222.822 100.637C222.355 101.023 221.755 101.209 221.153 101.155C220.555 101.093 220.006 100.8 219.622 100.338L218.597 99.187L216.675 97.0691L213.452 93.4663C212.531 92.4303 211.806 91.5901 211.311 90.9915C211.029 90.706 210.785 90.3848 210.586 90.0361C210.586 90.0361 210.931 90.2894 211.484 90.8419C212.036 91.3944 212.807 92.1771 213.786 93.144L217.101 96.6662L219.058 98.7611L220.082 99.9122C220.222 100.086 220.394 100.23 220.59 100.337C220.786 100.443 221.001 100.509 221.223 100.532C221.445 100.554 221.669 100.533 221.882 100.468C222.095 100.403 222.293 100.296 222.465 100.154C222.776 99.8776 223.132 99.4287 223.455 99.0834L225.377 96.9655L228.657 93.3972C229.59 92.3958 230.361 91.5785 230.96 91.0951C231.191 90.7748 231.462 90.4848 231.765 90.2318Z" fill="white"/>
<path d="M217.909 98.6689C216.794 100.161 215.558 101.558 214.214 102.847C213.004 104.279 211.611 105.544 210.07 106.611C211.188 105.118 212.428 103.721 213.777 102.433C214.984 101.004 216.373 99.7382 217.909 98.6689V98.6689Z" fill="white"/>
<path d="M232.882 107.049C231.317 105.8 229.886 104.392 228.612 102.847C227.185 101.44 225.898 99.8983 224.768 98.2432C226.335 99.4935 227.77 100.901 229.049 102.445C230.475 103.85 231.759 105.392 232.882 107.049Z" fill="white"/>
<path d="M147.072 96.9996C147.072 97.1032 143.136 97.1838 138.278 97.1838C133.421 97.1838 129.484 97.1032 129.484 96.9996C129.484 96.896 133.421 96.8154 138.278 96.8154C143.136 96.8154 147.072 96.896 147.072 96.9996Z" fill="#263238"/>
<path d="M147.072 101.501C147.072 101.604 143.136 101.685 138.278 101.685C133.421 101.685 129.484 101.604 129.484 101.501C129.484 101.397 133.421 101.316 138.278 101.316C143.136 101.316 147.072 101.397 147.072 101.501Z" fill="#263238"/>
<path d="M147.072 106.002C147.072 106.105 143.136 106.197 138.278 106.197C133.421 106.197 129.484 106.105 129.484 106.013C129.484 105.921 133.421 105.817 138.278 105.817C143.136 105.817 147.072 105.909 147.072 106.002Z" fill="#263238"/>
<path d="M312.145 99.8667C312.088 99.8667 312.145 99.4293 311.892 98.7156C311.608 97.6966 310.993 96.8015 310.143 96.1718C309.462 95.6554 308.651 95.3385 307.801 95.2565C306.951 95.1745 306.094 95.3307 305.328 95.7075C304.561 96.0844 303.915 96.6671 303.46 97.3905C303.006 98.1138 302.762 98.9493 302.755 99.8035C302.748 100.658 302.98 101.497 303.423 102.227C303.866 102.958 304.503 103.55 305.264 103.939C306.024 104.328 306.878 104.497 307.73 104.429C308.581 104.36 309.397 104.056 310.085 103.55C310.94 102.926 311.57 102.041 311.881 101.029C312.088 100.304 312.088 99.8782 312.145 99.8782C312.16 99.9812 312.16 100.086 312.145 100.189C312.152 100.491 312.121 100.792 312.053 101.087C311.803 102.19 311.176 103.171 310.281 103.861C309.525 104.426 308.626 104.769 307.686 104.851C306.746 104.933 305.802 104.751 304.959 104.325C304.117 103.899 303.411 103.246 302.92 102.44C302.43 101.633 302.174 100.706 302.182 99.7624C302.19 98.8187 302.462 97.896 302.966 97.0984C303.471 96.3008 304.188 95.66 305.037 95.2483C305.887 94.8367 306.834 94.6706 307.773 94.7686C308.711 94.8667 309.604 95.2251 310.35 95.8035C311.234 96.509 311.841 97.5034 312.065 98.612C312.131 98.9065 312.158 99.2083 312.145 99.5098C312.173 99.6272 312.173 99.7493 312.145 99.8667Z" fill="#263238"/>
<path d="M314.736 108.223C313.852 107.632 313.074 106.897 312.434 106.048C311.647 105.315 310.99 104.455 310.488 103.504C311.372 104.095 312.15 104.83 312.79 105.679C313.58 106.41 314.238 107.27 314.736 108.223Z" fill="#263238"/>
<path d="M301.361 340.287L301.2 402.145L273.863 396.527L250.842 391.716C250.842 391.716 282.358 453.873 316.636 453.873C350.914 453.873 355.346 402.156 355.346 402.156L357.383 340.287H301.361Z" fill="#9B7564"/>
<path d="M443.366 180.717C440.857 182.144 437.404 180.291 436.253 177.62C435.102 174.95 435.631 171.865 436.506 169.056C437.381 166.248 438.601 163.554 438.808 160.642C438.911 157.984 438.156 155.363 436.655 153.166C435.155 150.969 432.988 149.313 430.475 148.441C435.424 144.516 435.827 136.102 431.28 131.716C429.151 129.668 426.319 128.551 423.845 126.94C422.437 126.01 421.126 124.942 419.931 123.751C422.14 124.295 424.438 124.366 426.676 123.958C428.47 123.565 430.136 122.726 431.52 121.519C432.904 120.312 433.961 118.776 434.595 117.052C435.18 115.306 435.265 113.432 434.842 111.641C434.419 109.849 433.505 108.211 432.201 106.911C430.857 105.652 429.161 104.833 427.339 104.561C425.517 104.29 423.656 104.58 422.003 105.392C418.803 107.084 417.053 110.56 415.499 113.829L414.049 116.856C409.548 110.894 405.313 104.736 398.372 102.641C392.076 100.742 385.307 102.86 378.746 102.388C373.969 102.031 369.388 100.316 364.623 99.7862C359.858 99.2567 354.436 100.281 351.628 104.16C349.97 106.462 349.452 109.386 347.783 111.654C344.33 116.327 336.894 116.96 334.063 122.013C331.76 126.134 333.533 131.337 332.543 135.952C331.473 140.971 327.329 144.643 323.945 148.499C320.561 152.355 317.603 157.65 319.502 162.415C321.182 166.616 326.074 168.872 327.663 173.097C328.814 176.181 327.985 179.6 327.927 182.892C327.87 186.184 329.182 190.098 332.393 190.846L368.916 200.492C381.497 205.602 394.47 210.851 408.052 210.782C421.635 210.713 436.126 204.244 441.433 191.767C439.458 191.692 437.585 190.869 436.195 189.465C437.969 188.636 439.534 187.419 440.775 185.905C442.016 184.391 442.901 182.618 443.366 180.717V180.717Z" fill="#263238"/>
<path d="M413.425 192.17C416.441 182.962 419.41 173.581 420.78 163.935C422.15 154.289 421.862 144.229 418.478 135.159C417.972 133.777 413.586 124.488 412.113 124.638C411.065 124.742 413.759 133.398 413.264 134.318C408.199 143.02 406.818 153.483 407.635 163.532C408.507 173.285 410.464 182.909 413.471 192.228" fill="#263238"/>
<path d="M381.175 273.135C396.277 272.813 413.405 239.755 413.405 239.755L414.383 154.968C415.166 130.555 401.618 109.744 377.193 109.628L374.89 109.744C363.935 110.343 353.605 115.037 345.948 122.896C338.292 130.755 333.869 141.204 333.556 152.171C332.992 173.339 332.624 196.74 333.372 208.043C334.914 231.433 358.522 233.815 358.522 233.815C358.522 233.815 358.661 239.248 358.73 246.132C358.891 261.579 375.063 273.619 381.118 273.101L381.175 273.135Z" fill="#9B7564"/>
<path d="M358.578 233.849C358.578 233.849 373.381 233.93 388.575 223.202C388.575 223.202 382.06 240.629 358.59 239.777L358.578 233.849Z" fill="#7F6358"/>
<path d="M343.717 170.576C343.756 171.457 344.14 172.286 344.786 172.885C345.433 173.484 346.289 173.804 347.17 173.776C347.596 173.787 348.02 173.712 348.417 173.557C348.813 173.402 349.175 173.169 349.481 172.872C349.786 172.575 350.03 172.22 350.196 171.828C350.363 171.435 350.449 171.014 350.45 170.588C350.414 169.705 350.031 168.873 349.385 168.271C348.738 167.67 347.88 167.348 346.997 167.376C346.57 167.365 346.146 167.44 345.748 167.596C345.35 167.752 344.988 167.986 344.682 168.284C344.377 168.583 344.134 168.939 343.968 169.333C343.802 169.726 343.717 170.149 343.717 170.576Z" fill="#263238"/>
<path d="M339.138 161.655C339.575 162.07 342.004 160.055 345.607 159.871C349.21 159.687 351.938 161.356 352.306 160.884C352.479 160.689 352.018 159.917 350.821 159.146C349.209 158.147 347.326 157.676 345.434 157.799C343.562 157.892 341.769 158.578 340.312 159.756C339.253 160.723 338.919 161.471 339.138 161.655Z" fill="#263238"/>
<path d="M376.121 169.713C376.16 170.593 376.544 171.423 377.191 172.022C377.837 172.621 378.693 172.941 379.574 172.913C380.001 172.923 380.426 172.849 380.824 172.693C381.221 172.537 381.583 172.303 381.889 172.004C382.195 171.706 382.438 171.35 382.604 170.956C382.77 170.563 382.855 170.14 382.855 169.713C382.816 168.842 382.44 168.022 381.806 167.424C381.172 166.827 380.33 166.5 379.459 166.513C379.028 166.496 378.598 166.566 378.194 166.719C377.79 166.872 377.422 167.105 377.11 167.403C376.799 167.702 376.55 168.061 376.38 168.457C376.211 168.854 376.122 169.281 376.121 169.713V169.713Z" fill="#263238"/>
<path d="M374.449 161.218C374.886 161.632 377.327 159.63 380.918 159.445C384.509 159.261 387.249 160.919 387.617 160.458C387.801 160.251 387.341 159.491 386.132 158.709C384.518 157.716 382.637 157.246 380.745 157.362C378.874 157.457 377.081 158.142 375.623 159.319C374.576 160.228 374.242 161.034 374.449 161.218Z" fill="#263238"/>
<path d="M363.034 189.558C363.034 189.35 360.732 189.086 357.129 188.821C356.208 188.821 355.334 188.637 355.138 188.015C355.007 187.071 355.172 186.11 355.61 185.264C356.377 182.962 357.145 180.579 357.912 178.116C361.158 167.964 363.448 159.619 363.034 159.492C362.62 159.366 359.662 167.55 356.427 177.667C355.656 180.165 354.908 182.559 354.206 184.838C353.683 185.979 353.581 187.267 353.918 188.476C354.069 188.792 354.291 189.069 354.567 189.287C354.842 189.504 355.163 189.656 355.506 189.73C356.02 189.844 356.546 189.891 357.072 189.868C360.767 189.868 363.023 189.765 363.034 189.558Z" fill="#263238"/>
<path d="M373.749 191.479C373.162 191.479 373.369 195.381 370.169 198.328C366.97 201.275 362.803 201.079 362.803 201.62C362.803 201.873 363.77 202.334 365.519 202.288C367.809 202.195 369.994 201.299 371.689 199.755C373.32 198.268 374.307 196.203 374.44 194C374.509 192.389 374.014 191.445 373.749 191.479Z" fill="#263238"/>
<path d="M373.866 146.611C374.281 147.578 377.849 146.922 382.097 147.199C386.344 147.475 389.82 148.453 390.327 147.544C390.557 147.106 389.912 146.22 388.485 145.345C386.585 144.285 384.47 143.671 382.298 143.55C380.127 143.428 377.956 143.802 375.95 144.643C374.431 145.345 373.694 146.163 373.866 146.611Z" fill="#263238"/>
<path d="M339.98 149.615C340.659 150.397 343.099 149.419 346.069 149.223C349.038 149.028 351.605 149.477 352.135 148.59C352.376 148.164 351.928 147.359 350.788 146.645C349.256 145.799 347.508 145.427 345.765 145.574C344.021 145.722 342.361 146.383 340.993 147.474C339.98 148.371 339.68 149.212 339.98 149.615Z" fill="#263238"/>
<path d="M413.404 172.441C413.796 172.245 429.231 166.823 429.588 182.8C429.945 198.777 413.761 195.864 413.727 195.462C413.692 195.059 413.404 172.441 413.404 172.441Z" fill="#9B7564"/>
<path d="M418.492 189.292C418.561 189.292 418.779 189.476 419.251 189.683C419.92 189.953 420.666 189.953 421.335 189.683C423.015 189.027 424.385 186.299 424.408 183.41C424.412 182.034 424.114 180.674 423.533 179.427C423.372 178.931 423.093 178.482 422.72 178.117C422.347 177.752 421.892 177.483 421.392 177.332C421.069 177.255 420.728 177.293 420.43 177.44C420.131 177.588 419.894 177.834 419.758 178.138C419.551 178.587 419.666 178.909 419.574 178.932C419.482 178.955 419.228 178.668 419.343 178.011C419.425 177.611 419.64 177.25 419.953 176.987C420.167 176.816 420.412 176.689 420.675 176.614C420.938 176.538 421.213 176.517 421.484 176.55C422.145 176.665 422.764 176.948 423.284 177.371C423.804 177.795 424.207 178.344 424.454 178.967C425.171 180.341 425.539 181.871 425.525 183.421C425.525 186.656 423.902 189.706 421.599 190.431C421.171 190.567 420.718 190.605 420.274 190.541C419.829 190.477 419.405 190.314 419.033 190.063C418.526 189.672 418.434 189.315 418.492 189.292Z" fill="#7F6358"/>
<path d="M343.649 125.512C341.036 124.119 348.714 115.613 355.056 112.632C364.633 108.143 379.32 105.265 388.23 107.671C398.969 110.56 407.924 115.728 413.426 125.443C418.928 135.158 421.092 146.427 420.919 157.546C420.862 160.941 420.563 164.452 418.779 167.376C416.592 170.944 412.321 173.235 412.574 178.127C412.646 179.011 412.541 179.901 412.267 180.744C411.992 181.588 411.553 182.369 410.974 183.042C408.074 186.196 404.448 183.306 402.767 180.394C399.153 174.156 398.67 166.662 398.267 159.48C397.979 154.369 397.703 149.12 399.084 144.217C399.832 141.535 401.064 138.991 401.662 136.274C402.261 133.558 402.146 130.519 400.419 128.275C400.023 127.801 399.584 127.366 399.107 126.974C396.844 125.054 394.111 123.77 391.189 123.252C388.267 122.734 385.259 123.002 382.474 124.027C373.485 127.342 358.13 132.315 354.066 129.299C348.219 124.96 346.792 122.105 346.792 122.105L343.649 125.512Z" fill="#263238"/>
<path d="M387.368 105.472C378.528 102.641 368.491 102.928 360.307 107.314C355.956 109.616 352.042 113.322 350.776 118.076C349.51 122.83 351.605 128.666 356.186 130.462L356.508 130.657C363.414 132.867 367.811 131.9 374.603 129.449C380.358 127.388 385.377 123.786 391.097 121.748C397.23 119.591 403.868 119.314 410.159 120.954C403.943 114.071 396.219 108.338 387.368 105.472Z" fill="#263238"/>
<path d="M417.835 121.357C417.697 121.472 416.408 119.941 413.806 118.134C412.292 117.077 410.658 116.203 408.937 115.532C406.879 114.665 404.653 114.272 402.422 114.381C398.338 114.835 394.465 116.431 391.246 118.985C388.759 120.954 387.608 122.611 387.459 122.496C387.309 122.381 387.631 122.001 388.161 121.265C388.916 120.22 389.784 119.263 390.751 118.41C393.988 115.55 398.035 113.768 402.33 113.311C404.721 113.174 407.11 113.599 409.306 114.554C411.079 115.296 412.744 116.276 414.255 117.466C416.845 119.549 417.95 121.288 417.835 121.357Z" fill="#455A64"/>
<path d="M419.456 127.032C419.322 128.627 418.909 130.185 418.236 131.636C415.354 138.823 410.065 144.784 403.272 148.499C401.922 149.339 400.433 149.932 398.875 150.249C398.679 149.938 405.609 147.314 411.422 140.661C417.234 134.007 419.122 126.882 419.456 127.032Z" fill="#455A64"/>
<path d="M425.984 129.644C426.11 130.242 426.129 130.858 426.042 131.463C425.958 133.122 425.727 134.771 425.351 136.389C424.121 141.784 421.574 146.79 417.939 150.962C414.304 155.133 409.693 158.34 404.517 160.297C402.964 160.887 401.361 161.342 399.729 161.655C399.139 161.826 398.523 161.888 397.91 161.839C397.91 161.655 400.431 161.217 404.229 159.537C409.185 157.45 413.598 154.257 417.131 150.203C420.664 146.15 423.224 141.342 424.615 136.147C425.697 132.211 425.789 129.644 425.984 129.644Z" fill="#455A64"/>
<path d="M369.004 104.034C369.004 104.218 367.335 104.61 364.757 105.634C357.991 108.322 352.238 113.065 348.308 119.194C347.582 120.52 346.787 121.807 345.926 123.05C346.232 121.539 346.818 120.098 347.652 118.802C349.492 115.555 351.911 112.672 354.789 110.296C357.667 107.922 360.961 106.103 364.504 104.932C365.938 104.366 367.462 104.062 369.004 104.034Z" fill="#455A64"/>
<path d="M431.015 106.049C431.28 106.049 430.578 110.653 426.952 114.969C423.326 119.286 418.895 120.782 418.895 120.517C418.895 120.253 422.774 118.376 426.158 114.279C429.542 110.181 430.693 105.945 431.015 106.049Z" fill="#455A64"/>
<path d="M260.67 392.234L270.178 386.398C271.791 385.417 273.642 384.896 275.53 384.891H293.947L312.963 402.214L318.637 405.046L316.519 434.973L304.157 433.453C304.157 433.453 277.763 434.605 275.208 432.889C272.653 431.174 268.958 425.787 268.958 425.787C268.958 425.787 254.489 421.103 253.073 419.837C247.698 415.014 249.862 413.863 249.862 413.863L247.387 412.712C246.927 413.586 243.324 407.716 243.704 404.769C243.923 403.054 243.416 403.066 243.416 403.066C242.217 402.377 241.183 401.434 240.387 400.302C239.592 399.17 239.054 397.878 238.812 396.516C238.547 394.767 245.718 396.021 245.718 396.021L263.594 396.263L260.67 392.234Z" fill="#9B7564"/>
<path d="M276.566 395.86L259.749 372.966C259.141 372.133 258.344 371.455 257.424 370.989C256.504 370.523 255.486 370.281 254.454 370.284H221.212C220.571 370.284 219.956 370.538 219.503 370.992C219.05 371.445 218.795 372.06 218.795 372.701V372.701C218.8 373.279 219.008 373.837 219.382 374.278L238.432 396.378L276.566 395.86Z" fill="#455A64"/>
<path d="M268.417 405.241C267.194 405.57 265.932 405.736 264.665 405.736C258.574 406.091 252.464 405.564 246.524 404.171C245.275 403.945 244.06 403.558 242.91 403.02C244.167 403.105 245.414 403.294 246.64 403.584C248.942 403.986 252.084 404.481 255.606 404.735C259.128 404.988 262.328 405.103 264.642 405.091C265.902 405.03 267.166 405.08 268.417 405.241V405.241Z" fill="#7F6358"/>
<path d="M273.193 415.266C271.969 415.593 270.707 415.759 269.44 415.761C266.399 415.943 263.348 415.901 260.313 415.635C257.274 415.375 254.257 414.894 251.288 414.196C250.042 413.972 248.831 413.585 247.686 413.045C248.942 413.131 250.189 413.32 251.415 413.609C253.717 414.012 256.859 414.507 260.382 414.76C263.904 415.013 267.104 415.128 269.417 415.117C270.678 415.055 271.941 415.105 273.193 415.266V415.266Z" fill="#7F6358"/>
<path d="M238.858 396.516C238.997 397.225 239.181 397.925 239.41 398.611C240.166 400.504 241.626 402.031 243.485 402.869L243.611 402.927V403.065C243.571 405.09 244.017 407.095 244.912 408.912C246.018 411.146 247.848 412.94 250.103 414L250.414 414.138L250.265 414.426C250.092 414.785 250.002 415.179 250.002 415.577C250.002 415.976 250.092 416.369 250.265 416.728C250.656 417.504 251.215 418.184 251.899 418.719C253.42 419.89 255.093 420.851 256.872 421.574C260.812 423.21 264.892 424.489 269.061 425.395H269.222L269.303 425.534C270.37 427.081 271.627 428.489 273.044 429.723C274.407 431.075 276.084 432.068 277.924 432.613C279.343 432.962 280.804 433.109 282.264 433.05L286.638 433.165L295.075 433.395L310.269 433.821H310.326L328.432 437.516L333.463 438.598L334.775 438.909C334.931 438.927 335.084 438.974 335.224 439.047C335.071 439.065 334.916 439.065 334.763 439.047L333.428 438.84L328.352 437.942L310.188 434.489H310.246L295.052 434.167L286.626 433.971L282.241 433.867C280.714 433.914 279.188 433.752 277.706 433.384C275.745 432.808 273.958 431.756 272.503 430.322C271.036 429.039 269.74 427.573 268.647 425.96L268.889 426.132C264.675 425.206 260.556 423.892 256.584 422.207C254.748 421.447 253.025 420.44 251.462 419.214C250.693 418.593 250.075 417.806 249.654 416.912C249.455 416.469 249.357 415.986 249.369 415.5C249.381 415.014 249.502 414.537 249.724 414.104L249.885 414.53C247.509 413.388 245.593 411.472 244.452 409.097C243.552 407.193 243.13 405.099 243.22 402.996L243.347 403.192C242.384 402.742 241.523 402.103 240.815 401.311C240.107 400.52 239.566 399.593 239.226 398.588C238.977 397.925 238.852 397.223 238.858 396.516V396.516Z" fill="#7F6358"/>
<path d="M278.637 424.072C278.729 424.256 276.496 425.396 273.468 425.799C270.441 426.201 268.001 425.695 268.036 425.499C268.07 425.304 270.464 425.396 273.365 424.993C276.266 424.59 278.556 423.853 278.637 424.072Z" fill="#7F6358"/>
<path d="M287.178 395.825C287.178 396.044 283.529 396.355 278.994 396.527C274.459 396.7 270.787 396.643 270.787 396.412C270.787 396.182 274.436 395.883 278.971 395.71C283.506 395.538 287.178 395.595 287.178 395.825Z" fill="#7F6358"/>
<path d="M318.279 402.594C318.279 402.594 317.934 402.927 317.128 403.054C315.972 403.179 314.807 402.92 313.813 402.317C312.423 401.409 311.123 400.368 309.934 399.209L305.399 395.238L297.111 388.113C295.908 387.192 294.784 386.171 293.75 385.063C295.071 385.812 296.316 386.687 297.468 387.676C299.689 389.379 302.705 391.82 305.94 394.582C307.551 395.986 309.07 397.345 310.429 398.599C311.563 399.758 312.791 400.82 314.101 401.776C314.987 402.369 316.027 402.689 317.093 402.697C317.853 402.709 318.256 402.524 318.279 402.594Z" fill="#7F6358"/>
<path d="M273.021 396.355C272.854 396.206 272.703 396.04 272.572 395.86L271.421 394.386L267.047 388.873L260.739 380.654L257.032 375.797C256.379 375 255.519 374.399 254.546 374.059C254.048 373.886 253.53 373.781 253.004 373.748C252.486 373.748 251.853 373.748 251.346 373.748L228.325 373.656L221.338 373.564H219.439C219.215 373.569 218.991 373.55 218.771 373.506C218.99 373.455 219.215 373.435 219.439 373.449L221.338 373.391L228.325 373.288L251.346 373.207C251.922 373.207 252.497 373.207 253.05 373.207C253.627 373.246 254.196 373.363 254.742 373.552C255.814 373.935 256.761 374.604 257.481 375.486L261.176 380.378L267.38 388.677C269.095 390.979 270.5 392.902 271.524 394.306C271.973 394.927 272.33 395.457 272.675 395.848C272.811 396.002 272.927 396.172 273.021 396.355Z" fill="#263238"/>
<path d="M236.864 376.995C237.078 376.83 237.335 376.732 237.604 376.713C237.873 376.694 238.142 376.755 238.376 376.888C238.611 377.021 238.801 377.221 238.922 377.461C239.044 377.702 239.092 377.973 239.061 378.241C239.029 378.508 238.919 378.761 238.744 378.966C238.57 379.172 238.339 379.321 238.08 379.396C237.82 379.471 237.545 379.467 237.288 379.386C237.031 379.305 236.804 379.15 236.634 378.94C236.42 378.658 236.32 378.306 236.354 377.954C236.388 377.602 236.554 377.276 236.818 377.041" fill="#F5F5F5"/>
<path d="M415.048 233.089L461.872 260.611L470.482 412.55L481.67 498.51H313.387C313.387 498.51 315.24 393.891 315.815 362.249C316.23 340.068 315.631 297.076 323.136 270.637C326.336 259.368 357.668 244.807 357.668 244.807C374.83 259.966 394.018 255.443 415.048 233.089Z" fill="#E8D9B0"/>
<path d="M476.722 460.525C476.722 460.686 440.395 460.825 395.573 460.825C350.751 460.825 314.424 460.686 314.424 460.525C314.424 460.364 350.751 460.226 395.573 460.226C440.395 460.226 476.722 460.353 476.722 460.525Z" fill="white"/>
<g opacity="0.3">
<path d="M314.318 434.673C327.348 445.596 347.595 451.513 364.262 454.885C380.93 458.258 397.954 459.49 414.667 462.551C426.35 464.727 438.609 467.8 449.878 464.002C455.488 462.009 460.408 458.448 464.052 453.74C467.697 449.033 469.912 443.377 470.435 437.447C470.519 437.049 470.517 436.638 470.43 436.241C470.343 435.845 470.172 435.471 469.929 435.145C469.593 434.889 469.208 434.706 468.798 434.607C468.388 434.508 467.962 434.495 467.546 434.569C417.234 436.802 363.952 436.492 314.318 434.638" fill="black"/>
</g>
<path d="M305.41 403.181H423.002L423.577 341.22L477.838 334.221C477.838 334.221 478.079 397.149 478.079 417.787C478.079 442.558 456.67 459.778 438.69 457.13C420.711 454.483 305.41 432.958 305.41 432.958V403.181Z" fill="#9B7564"/>
<path d="M481.606 347.089L418.367 353.662V279.465C418.367 279.465 424.583 254.395 446.43 255.443C468.277 256.49 481.146 280.121 481.606 301.795C482.066 323.47 481.606 347.089 481.606 347.089Z" fill="#E8D9B0"/>
<path d="M329.826 261.935C329.826 261.935 309.556 275.275 304.123 289.997C298.426 305.433 290.426 355.434 290.426 355.434H318.845L329.826 261.935Z" fill="#E8D9B0"/>
<path d="M417.835 282.412C417.91 283.312 417.91 284.217 417.835 285.117C417.777 286.993 417.697 289.48 417.605 292.495C417.42 298.711 417.225 307.309 417.248 316.806C417.271 326.302 417.524 334.9 417.766 341.116C417.881 344.131 417.973 346.618 418.042 348.494C418.112 349.394 418.112 350.299 418.042 351.199C417.861 350.312 417.753 349.411 417.72 348.505C417.559 346.779 417.363 344.258 417.179 341.15C416.799 334.923 416.465 326.325 416.431 316.806C416.396 307.286 416.684 298.688 417.029 292.461C417.19 289.353 417.363 286.844 417.513 285.106C417.55 284.201 417.658 283.3 417.835 282.412V282.412Z" fill="#263238"/>
<path d="M449.67 256.64C449.67 256.802 447.552 256.238 444.122 256.295C439.656 256.341 435.286 257.599 431.479 259.934C427.672 262.27 424.57 265.595 422.505 269.555C420.905 272.582 420.456 274.7 420.307 274.666C420.316 274.157 420.401 273.653 420.56 273.169C420.907 271.835 421.389 270.539 421.999 269.302C423.985 265.147 427.13 261.654 431.055 259.245C434.98 256.835 439.518 255.611 444.122 255.72C445.504 255.744 446.88 255.902 448.231 256.191C448.731 256.266 449.216 256.417 449.67 256.64V256.64Z" fill="#263238"/>
<path d="M316.805 296.881C316.859 297.158 316.886 297.44 316.886 297.722C316.886 298.366 316.886 299.16 316.955 300.127C316.955 302.211 317.024 305.226 317.024 308.956C317.024 316.415 316.909 326.717 316.69 338.089C316.471 349.461 316.253 359.648 316.103 367.211C316.034 370.848 315.976 373.841 315.93 376.039C315.93 377.006 315.861 377.8 315.838 378.445C315.853 378.724 315.826 379.003 315.758 379.274C315.698 379.002 315.671 378.723 315.677 378.445C315.677 377.8 315.677 377.006 315.608 376.039C315.608 373.956 315.539 370.94 315.539 367.211C315.539 359.752 315.654 349.45 315.873 338.066C316.092 326.682 316.299 316.507 316.448 308.956C316.529 305.307 316.586 302.326 316.633 300.127C316.633 299.16 316.702 298.366 316.713 297.722C316.705 297.439 316.736 297.156 316.805 296.881Z" fill="#263238"/>
<path d="M316.082 321.732C312.881 322.002 309.668 322.075 306.459 321.95C303.246 322.02 300.032 321.889 296.836 321.559C300.036 321.288 303.25 321.215 306.459 321.34C309.671 321.264 312.886 321.395 316.082 321.732V321.732Z" fill="white"/>
<path d="M416.751 304.604C416.751 304.766 394.881 304.904 368.004 304.904C341.127 304.904 319.234 304.766 319.234 304.604C319.234 304.443 341.104 304.305 368.004 304.305C394.904 304.305 416.751 304.409 416.751 304.604Z" fill="white"/>
<path d="M480.232 294.452C480.018 294.477 479.802 294.477 479.588 294.452L477.769 294.303L471.093 293.727C465.441 293.255 457.637 292.737 449.004 292.496C440.371 292.254 432.544 292.358 426.881 292.496L420.17 292.703H418.352C418.138 292.734 417.921 292.734 417.707 292.703C417.914 292.648 418.126 292.617 418.34 292.611L420.159 292.45C421.747 292.323 424.026 292.185 426.869 292.047C432.533 291.782 440.36 291.632 449.016 291.863C457.672 292.093 465.487 292.691 471.127 293.267C473.947 293.555 476.226 293.819 477.792 294.038L479.599 294.291C479.816 294.317 480.029 294.371 480.232 294.452V294.452Z" fill="white"/>
<path d="M480.833 338.411C480.833 338.583 466.548 338.411 448.949 337.996C431.349 337.582 417.053 337.133 417.064 336.972C417.076 336.811 431.338 336.972 448.96 337.398C466.583 337.824 480.833 338.25 480.833 338.411Z" fill="white"/>
<path d="M423.384 267.644C423.384 267.817 400.846 267.944 373.048 267.944C345.25 267.944 322.713 267.817 322.713 267.644C322.713 267.472 345.25 267.345 373.048 267.345C400.846 267.345 423.384 267.483 423.384 267.644Z" fill="white"/>
<path d="M417.073 351.28C417.073 351.441 394.467 351.579 366.577 351.579C338.687 351.579 316.08 351.441 316.08 351.28C316.08 351.119 338.687 350.98 366.577 350.98C394.467 350.98 417.073 351.107 417.073 351.28Z" fill="white"/>
<path d="M424.328 388.206C424.328 388.367 399.741 388.505 369.422 388.505C339.104 388.505 314.506 388.367 314.506 388.206C314.506 388.044 339.092 387.906 369.422 387.906C399.753 387.906 424.328 388.033 424.328 388.206Z" fill="white"/>
<path d="M479.91 494.677C479.91 494.838 442.835 494.976 397.115 494.976C351.396 494.976 314.32 494.838 314.32 494.677C314.32 494.516 351.384 494.377 397.115 494.377C442.847 494.377 479.91 494.527 479.91 494.677Z" fill="white"/>
<g opacity="0.3">
<path d="M417.593 354.364C416.856 339.7 417.386 325.979 416.638 311.326C411.645 332.83 409.287 354.862 409.616 376.936C409.697 382.173 409.95 387.503 411.642 392.464C413.334 397.425 418.019 401.672 422.807 403.79L423.268 353.731C421.115 353.892 419.757 354.26 417.593 354.364Z" fill="black"/>
</g>
<path d="M512.308 498.741C512.308 498.902 398.354 499.04 257.845 499.04C117.336 499.04 3.35938 498.902 3.35938 498.741C3.35938 498.58 117.313 498.441 257.845 498.441C398.377 498.441 512.308 498.568 512.308 498.741Z" fill="#263238"/>
</svg>
