<svg width="90" height="90" viewBox="0 0 90 90" fill="none" xmlns="http://www.w3.org/2000/svg">
<circle cx="45" cy="45" r="45" fill="#E3D8BB"/>
<path d="M45.3333 45.3333C45.3333 37.3333 52 30.6667 60 30.6667C68 30.6667 74.6667 37.3333 74.6667 45.3333H45.3333ZM45.3333 45.3333C45.3333 53.3333 38.6667 60 30.6667 60C22.6667 60 16 53.3333 16 45.3333H45.3333ZM45.3333 45.3333C37.3333 45.3333 30.6667 38.6667 30.6667 30.6667C30.6667 22.6667 37.3333 16 45.3333 16V45.3333ZM45.3333 45.3333C53.3333 45.3333 60 52 60 60C60 68 53.3333 74.6667 45.3333 74.6667V45.3333Z" fill="#A89879"/>
</svg>
