<svg width="54" height="48" viewBox="0 0 54 48" fill="none" xmlns="http://www.w3.org/2000/svg">
<path d="M53.3333 16V10.6667H48V5.33333C48 2.4 45.6 0 42.6667 0H5.33333C2.4 0 0 2.4 0 5.33333V42.6667C0 45.6 2.4 48 5.33333 48H42.6667C45.6 48 48 45.6 48 42.6667V37.3333H53.3333V32H48V26.6667H53.3333V21.3333H48V16H53.3333ZM42.6667 42.6667H5.33333V5.33333H42.6667V42.6667ZM10.6667 26.6667H24V37.3333H10.6667V26.6667ZM26.6667 10.6667H37.3333V18.6667H26.6667V10.6667ZM10.6667 10.6667H24V24H10.6667V10.6667ZM26.6667 21.3333H37.3333V37.3333H26.6667V21.3333Z" fill="#A89879"/>
</svg>
