<svg width="90" height="90" viewBox="0 0 90 90" fill="none" xmlns="http://www.w3.org/2000/svg">
<circle cx="45" cy="45" r="45" fill="#E3D8BB"/>
<path d="M57.3067 43.6935L61.4933 39.5068L51.4933 29.5068L47.3067 33.6935L36.2667 22.6801C34.1867 20.6001 30.8 20.6001 28.72 22.6801L23.6533 27.7468C21.5733 29.8268 21.5733 33.2134 23.6533 35.2934L34.6667 46.3068L22 59.0001V69.0001H32L44.6933 56.3068L55.7067 67.3201C58.24 69.8535 61.6533 68.9201 63.2533 67.3201L68.32 62.2534C70.4 60.1734 70.4 56.7868 68.32 54.7068L57.3067 43.6935ZM38.48 42.5201L27.44 31.5068L32.48 26.4401L35.8667 29.8268L32.72 33.0001L36.48 36.7601L39.6533 33.5868L43.52 37.4535L38.48 42.5201ZM59.4933 63.5601L48.48 52.5468L53.5467 47.4801L57.4133 51.3468L54.24 54.5201L58 58.2801L61.1733 55.1068L64.56 58.4935L59.4933 63.5601Z" fill="#A89879"/>
<path d="M69.2257 31.7733C70.2657 30.7333 70.2657 29.0533 69.2257 28.0133L62.9857 21.7733C61.7324 20.52 59.999 21 59.2257 21.7733L54.3457 26.6533L64.3457 36.6533L69.2257 31.7733Z" fill="#A89879"/>
</svg>
