<svg width="90" height="90" viewBox="0 0 90 90" fill="none" xmlns="http://www.w3.org/2000/svg">
<circle cx="45" cy="45" r="45" fill="#E3D8BB"/>
<path d="M50.7873 48.5602L54.5207 42.1068C54.7607 41.7068 54.654 41.2002 54.3073 40.9068L50.3607 37.8135C50.4407 37.2268 50.494 36.6135 50.494 36.0002C50.494 35.3868 50.4407 34.7735 50.3607 34.1602L54.3073 31.0668C54.654 30.7735 54.7607 30.2668 54.5207 29.8668L50.7873 23.4135C50.5473 23.0135 50.0673 22.8535 49.6407 23.0135L45.0007 24.8802C44.0407 24.1335 43.0007 23.5202 41.854 23.0402L41.1607 18.1068C41.0807 17.6802 40.6807 17.3335 40.2273 17.3335H32.7607C32.3073 17.3335 31.9073 17.6802 31.8273 18.1335L31.134 23.0668C30.014 23.5468 28.9473 24.1602 27.9873 24.9068L23.3473 23.0402C22.9207 22.8802 22.4407 23.0402 22.2007 23.4402L18.4673 29.8935C18.2273 30.2935 18.334 30.8002 18.6807 31.0935L22.6273 34.1868C22.5473 34.7735 22.494 35.3868 22.494 36.0002C22.494 36.6135 22.5473 37.2268 22.6273 37.8402L18.6807 40.9335C18.334 41.2268 18.2273 41.7335 18.4673 42.1335L22.2007 48.5868C22.4407 48.9868 22.9207 49.1468 23.3473 48.9868L27.9873 47.1202C28.9473 47.8668 29.9873 48.4802 31.134 48.9602L31.8273 53.8935C31.9073 54.3202 32.3073 54.6668 32.7607 54.6668H40.2273C40.6807 54.6668 41.0807 54.3202 41.1607 53.8668L41.854 48.9335C42.974 48.4535 44.0407 47.8402 45.0007 47.0935L49.6407 48.9602C50.0673 49.1202 50.5473 48.9602 50.7873 48.5602ZM36.494 41.3335C33.5607 41.3335 31.1607 38.9335 31.1607 36.0002C31.1607 33.0668 33.5607 30.6668 36.494 30.6668C39.4273 30.6668 41.8273 33.0668 41.8273 36.0002C41.8273 38.9335 39.4273 41.3335 36.494 41.3335Z" fill="#A89879"/>
<path d="M71.4539 61.7865L68.8939 59.8132C68.9473 59.4398 69.0006 59.0398 69.0006 58.6398C69.0006 58.2398 68.9739 57.8398 68.8939 57.4665L71.4273 55.4932C71.6406 55.3065 71.7206 54.9865 71.5606 54.7198L69.1606 50.5865C69.0273 50.3198 68.7073 50.2398 68.4139 50.3198L65.4539 51.5198C64.8406 51.0398 64.1739 50.6398 63.4273 50.3465L62.9739 47.1998C62.9473 46.8798 62.6806 46.6665 62.4139 46.6665H57.6406C57.3473 46.6665 57.0806 46.8798 57.0539 47.1732L56.6006 50.3198C55.8806 50.6398 55.1873 51.0132 54.5739 51.4932L51.6139 50.2932C51.3473 50.1865 51.0273 50.2932 50.8673 50.5598L48.4673 54.6932C48.3339 54.9598 48.3606 55.2798 48.6006 55.4665L51.1339 57.4398C51.0806 57.8132 51.0539 58.2132 51.0539 58.6132C51.0539 59.0132 51.0806 59.4132 51.1339 59.7865L48.6006 61.7598C48.3873 61.9465 48.3073 62.2665 48.4673 62.5332L50.8673 66.6665C51.0006 66.9332 51.3206 67.0132 51.6139 66.9332L54.5739 65.7332C55.1873 66.2132 55.8539 66.6132 56.6006 66.9065L57.0539 70.0532C57.1073 70.3465 57.3473 70.5598 57.6406 70.5598H62.4139C62.7073 70.5598 62.9739 70.3465 63.0006 70.0532L63.4539 66.9065C64.1739 66.5865 64.8673 66.2132 65.4539 65.7332L68.4406 66.9332C68.7073 67.0398 69.0273 66.9332 69.1873 66.6665L71.5873 62.5332C71.7473 62.2932 71.6673 61.9732 71.4539 61.7865ZM60.0139 62.2132C58.0406 62.2132 56.4139 60.6132 56.4139 58.6132C56.4139 56.6132 58.0139 55.0132 60.0139 55.0132C62.0139 55.0132 63.6139 56.6132 63.6139 58.6132C63.6139 60.6132 61.9873 62.2132 60.0139 62.2132Z" fill="#A89879"/>
</svg>
