<svg width="90" height="90" viewBox="0 0 90 90" fill="none" xmlns="http://www.w3.org/2000/svg">
<circle cx="45" cy="45" r="45" fill="#E3D8BB"/>
<path d="M71.3333 37V31.6667H66V26.3333C66 23.4 63.6 21 60.6667 21H23.3333C20.4 21 18 23.4 18 26.3333V63.6667C18 66.6 20.4 69 23.3333 69H60.6667C63.6 69 66 66.6 66 63.6667V58.3333H71.3333V53H66V47.6667H71.3333V42.3333H66V37H71.3333ZM60.6667 63.6667H23.3333V26.3333H60.6667V63.6667ZM28.6667 47.6667H42V58.3333H28.6667V47.6667ZM44.6667 31.6667H55.3333V39.6667H44.6667V31.6667ZM28.6667 31.6667H42V45H28.6667V31.6667ZM44.6667 42.3333H55.3333V58.3333H44.6667V42.3333Z" fill="#A89879"/>
</svg>
