<svg width="90" height="90" viewBox="0 0 90 90" fill="none" xmlns="http://www.w3.org/2000/svg">
<circle cx="45" cy="45" r="45" fill="#E3D8BB"/>
<path d="M24.6673 63.3335H67.334V68.6668H24.6673V63.3335ZM70.0007 23.3335C69.2934 23.3335 68.6151 23.6144 68.115 24.1145C67.6149 24.6146 67.334 25.2929 67.334 26.0002C67.3344 26.3031 67.3924 26.6033 67.5047 26.8847C67.6143 27.157 67.764 27.4113 67.9488 27.6394L62.2989 32.1531L56.6489 36.6668L51.9751 28.4735L47.3013 20.2802C47.7019 20.0526 48.0399 19.7293 48.2849 19.3392C48.5355 18.9376 48.6681 18.4735 48.6673 18.0002C48.6673 17.2929 48.3864 16.6146 47.8863 16.1145C47.3862 15.6144 46.7079 15.3335 46.0007 15.3335C45.2934 15.3335 44.6151 15.6144 44.115 16.1145C43.6149 16.6146 43.334 17.2929 43.334 18.0002C43.3333 18.4733 43.4657 18.9371 43.7161 19.3385C43.961 19.7285 44.2986 20.0518 44.6989 20.2795L40.0193 28.4732L35.3397 36.6668L29.6957 32.1536L24.0518 27.6403C24.2368 27.4122 24.3867 27.1577 24.4964 26.8853C24.6089 26.6037 24.6668 26.3034 24.6673 26.0002C24.6673 25.4727 24.5109 24.9572 24.2179 24.5186C23.9249 24.0801 23.5084 23.7383 23.0211 23.5365C22.5339 23.3347 21.9977 23.2818 21.4804 23.3847C20.9631 23.4876 20.488 23.7416 20.115 24.1145C19.7421 24.4875 19.4881 24.9626 19.3852 25.4799C19.2823 25.9972 19.3351 26.5334 19.537 27.0207C19.7388 27.5079 20.0806 27.9244 20.5191 28.2174C20.9577 28.5104 21.4732 28.6668 22.0007 28.6668C22.038 28.6656 22.075 28.659 22.1105 28.6472C22.1459 28.6355 22.1823 28.6273 22.2193 28.6227L23.4433 43.3114L24.6673 58.0002H67.334L68.558 43.3114L69.782 28.6227C69.8189 28.6273 69.8553 28.6355 69.8907 28.6472C69.9262 28.659 69.9632 28.6656 70.0007 28.6668C70.7079 28.6668 71.3862 28.3859 71.8863 27.8858C72.3864 27.3857 72.6673 26.7074 72.6673 26.0002C72.6673 25.2929 72.3864 24.6146 71.8863 24.1145C71.3862 23.6144 70.7079 23.3335 70.0007 23.3335Z" fill="#A89879"/>
</svg>
