<svg width="90" height="90" viewBox="0 0 90 90" fill="none" xmlns="http://www.w3.org/2000/svg">
<circle cx="45" cy="45" r="45" fill="#E3D8BB"/>
<path d="M32 64C28.1394 64 24.8413 62.6219 22.1058 59.8656C19.3686 57.1094 18 53.7406 18 49.7594C18 46.3469 18.997 43.3063 20.9909 40.6375C22.9848 37.9688 25.5939 36.2625 28.8182 35.5187C29.8788 31.4937 32 28.2344 35.1818 25.7406C38.3636 23.2469 41.9697 22 46 22C50.9636 22 55.1738 23.7824 58.6305 27.3471C62.089 30.9136 63.8182 35.2562 63.8182 40.375C66.7455 40.725 69.1747 42.0261 71.1058 44.2784C73.0353 46.5324 74 49.1688 74 52.1875C74 55.4688 72.8868 58.2582 70.6604 60.556C68.4322 62.852 65.7273 64 62.5455 64H32Z" fill="#A89879"/>
</svg>
